<svg xmlns="http://www.w3.org/2000/svg" xmlns:xlink="http://www.w3.org/1999/xlink" width="113" height="113" viewBox="0 0 113 113">
  <defs>
    <filter id="Trazado_982547" x="0" y="0" width="113" height="113" filterUnits="userSpaceOnUse">
      <feOffset dy="3" input="SourceAlpha"/>
      <feGaussianBlur stdDeviation="3" result="blur"/>
      <feFlood flood-opacity="0.161"/>
      <feComposite operator="in" in2="blur"/>
      <feComposite in="SourceGraphic"/>
    </filter>
  </defs>
  <g id="Grupo_1178610" data-name="Grupo 1178610" transform="translate(-901.56 -5911.161)">
    <g id="Grupo_1178436" data-name="Grupo 1178436" transform="translate(910.561 5917.161)">
      <g id="Grupo_1172010" data-name="Grupo 1172010" transform="translate(0)">
        <g id="Grupo_1171046" data-name="Grupo 1171046">
          <g id="Grupo_1148525" data-name="Grupo 1148525">
            <g transform="matrix(1, 0, 0, 1, -9, -6)" filter="url(#Trazado_982547)">
              <g id="Trazado_982547-2" data-name="Trazado 982547" transform="translate(9 6)" fill="#fef4ec">
                <path d="M 47.5 93.5 C 41.28937149047852 93.5 35.26533508300781 92.28397369384766 29.59518623352051 89.88570404052734 C 24.11771965026855 87.56893157958984 19.19813346862793 84.25196075439453 14.97309303283691 80.02691650390625 C 10.74804019927979 75.80186462402344 7.431066513061523 70.88229370117188 5.114293098449707 65.40481567382812 C 2.716026782989502 59.73468017578125 1.5 53.71062850952148 1.5 47.5 C 1.5 41.28937149047852 2.716026782989502 35.26533508300781 5.114293098449707 29.59518623352051 C 7.431066513061523 24.11771965026855 10.74804019927979 19.19813346862793 14.97309303283691 14.97309303283691 C 19.19813346862793 10.74804019927979 24.11771965026855 7.431066513061523 29.59518623352051 5.114293098449707 C 35.26533508300781 2.716026782989502 41.28937149047852 1.5 47.5 1.5 C 53.71062850952148 1.5 59.73468017578125 2.716026782989502 65.40481567382812 5.114293098449707 C 70.88229370117188 7.431066513061523 75.80186462402344 10.74804019927979 80.02691650390625 14.97309303283691 C 84.25196075439453 19.19813346862793 87.56893157958984 24.11771965026855 89.88570404052734 29.59518623352051 C 92.28397369384766 35.26533508300781 93.5 41.28937149047852 93.5 47.5 C 93.5 53.71062850952148 92.28397369384766 59.73468017578125 89.88570404052734 65.40481567382812 C 87.56893157958984 70.88229370117188 84.25196075439453 75.80186462402344 80.02691650390625 80.02691650390625 C 75.80186462402344 84.25196075439453 70.88229370117188 87.56893157958984 65.40481567382812 89.88570404052734 C 59.73468017578125 92.28397369384766 53.71062850952148 93.5 47.5 93.5 Z" stroke="none"/>
                <path d="M 47.5 3 C 41.49121475219727 3 35.66376876831055 4.176155090332031 30.17950439453125 6.495796203613281 C 24.88084411621094 8.736953735351562 20.12152099609375 11.94598388671875 16.03375244140625 16.03375244140625 C 11.94598388671875 20.12152099609375 8.736953735351562 24.88084411621094 6.495796203613281 30.17950439453125 C 4.176155090332031 35.66376876831055 3 41.49121475219727 3 47.5 C 3 53.50878524780273 4.176155090332031 59.33623123168945 6.495796203613281 64.82049560546875 C 8.736953735351562 70.11915588378906 11.94598388671875 74.87847900390625 16.03375244140625 78.96624755859375 C 20.12152099609375 83.05401611328125 24.88084411621094 86.26304626464844 30.17950439453125 88.50419616699219 C 35.66376876831055 90.82384490966797 41.49121475219727 92 47.5 92 C 53.50878524780273 92 59.33623123168945 90.82384490966797 64.82049560546875 88.50419616699219 C 70.11915588378906 86.26304626464844 74.87847900390625 83.05401611328125 78.96624755859375 78.96624755859375 C 83.05401611328125 74.87847900390625 86.26304626464844 70.11915588378906 88.50419616699219 64.82049560546875 C 90.82384490966797 59.33623123168945 92 53.50878524780273 92 47.5 C 92 41.49121475219727 90.82384490966797 35.66376876831055 88.50419616699219 30.17950439453125 C 86.26304626464844 24.88084411621094 83.05401611328125 20.12152099609375 78.96624755859375 16.03375244140625 C 74.87847900390625 11.94598388671875 70.11915588378906 8.736953735351562 64.82049560546875 6.495796203613281 C 59.33623123168945 4.176155090332031 53.50878524780273 3 47.5 3 M 47.5 0 C 73.7335205078125 0 95 21.2664794921875 95 47.5 C 95 73.7335205078125 73.7335205078125 95 47.5 95 C 21.2664794921875 95 0 73.7335205078125 0 47.5 C 0 21.2664794921875 21.2664794921875 0 47.5 0 Z" stroke="none" fill="#fe9d52"/>
              </g>
            </g>
          </g>
        </g>
      </g>
    </g>
    <g id="Page-1" transform="translate(930.743 5939.679)">
      <g id="_051---Open-Source" data-name="051---Open-Source">
        <g id="Icons" transform="translate(0.911 0.911)">
          <path id="Shape" d="M49.178,8V31.869A12.745,12.745,0,1,0,31.155,49.892H3.643A3.643,3.643,0,0,1,0,46.249V8Z" transform="translate(0 -0.714)" fill="#f5f5f5"/>
          <path id="Shape-2" data-name="Shape" d="M41.116,30.075A13.063,13.063,0,0,0,39.75,30a12.745,12.745,0,0,0-8.916,21.857h2.732a12.743,12.743,0,0,1,7.55-21.782Z" transform="translate(-2.411 -2.679)" fill="#cfd8dc"/>
          <path id="Shape-3" data-name="Shape" d="M51,8V29.755a12.76,12.76,0,0,1,2.732,2.115V8Z" transform="translate(-4.554 -0.714)" fill="#cfd8dc"/>
          <path id="Shape-4" data-name="Shape" d="M49.178,3.643V7.286H0V3.643A3.643,3.643,0,0,1,3.643,0H45.535A3.643,3.643,0,0,1,49.178,3.643Z" transform="translate(0)" fill="#9e9e9e"/>
          <path id="Shape-5" data-name="Shape" d="M49.732,0H47a3.643,3.643,0,0,1,3.643,3.643V7.286h2.732V3.643A3.643,3.643,0,0,0,49.732,0Z" transform="translate(-4.197)" fill="#707070"/>
          <path id="Shape-6" data-name="Shape" d="M55.5,42.75a12.762,12.762,0,1,1-3.643-8.916A12.762,12.762,0,0,1,55.5,42.75Z" transform="translate(-2.677 -2.679)" fill="#02a9f4"/>
          <path id="Shape-7" data-name="Shape" d="M52.973,33.834A12.687,12.687,0,0,0,43.866,30a12.959,12.959,0,0,0-1.366.075,12.75,12.75,0,0,1,0,25.349,12.94,12.94,0,0,0,1.366.076,12.744,12.744,0,0,0,9.107-21.665Z" transform="translate(-3.795 -2.679)" fill="#0377bc"/>
          <rect id="Rectangle-path" width="10.928" height="10.928" rx="2" transform="translate(34.607 37.339)" fill="#ffdc00"/>
          <circle id="Oval" cx="1.821" cy="1.821" r="1.821" transform="translate(38.249 40.981)" fill="sienna"/>
        </g>
        <g id="Layer_11">
          <path id="Shape-8" data-name="Shape" d="M51,4.553A4.559,4.559,0,0,0,46.446,0H4.553A4.559,4.559,0,0,0,0,4.553V46.446A4.559,4.559,0,0,0,4.553,51H31.725A13.639,13.639,0,0,0,51,31.725Zm-49.178,0A2.732,2.732,0,0,1,4.553,1.821H46.446a2.732,2.732,0,0,1,2.732,2.732V7.286H1.821ZM4.553,49.178a2.732,2.732,0,0,1-2.732-2.732V9.107H49.178V30.079a13.635,13.635,0,0,0-19.1,19.1Zm48.267-8.2A11.839,11.839,0,1,1,40.981,29.142,11.839,11.839,0,0,1,52.82,40.981Z"/>
          <circle id="Oval-2" data-name="Oval" cx="0.911" cy="0.911" r="0.911" transform="translate(3.643 3.643)"/>
          <circle id="Oval-3" data-name="Oval" cx="0.911" cy="0.911" r="0.911" transform="translate(7.286 3.643)"/>
          <circle id="Oval-4" data-name="Oval" cx="0.911" cy="0.911" r="0.911" transform="translate(10.928 3.643)"/>
          <path id="Shape-9" data-name="Shape" d="M32.839,4H21.911a.911.911,0,1,0,0,1.821H32.839a.911.911,0,1,0,0-1.821Z" transform="translate(-1.875 -0.357)"/>
          <path id="Shape-10" data-name="Shape" d="M48.018,40.375H42.553V37.643a1.821,1.821,0,1,1,3.643,0,.911.911,0,1,0,1.821,0,3.643,3.643,0,1,0-7.286,0v2.732A2.732,2.732,0,0,0,38,43.107v7.286a2.732,2.732,0,0,0,2.732,2.732h7.286a2.732,2.732,0,0,0,2.732-2.732V43.107A2.732,2.732,0,0,0,48.018,40.375Zm.911,10.018a.911.911,0,0,1-.911.911H40.732a.911.911,0,0,1-.911-.911V43.107a.911.911,0,0,1,.911-.911h7.286a.911.911,0,0,1,.911.911Z" transform="translate(-3.393 -3.036)"/>
          <path id="Shape-11" data-name="Shape" d="M44.732,45a2.732,2.732,0,1,0,2.732,2.732A2.732,2.732,0,0,0,44.732,45Zm0,3.643a.911.911,0,1,1,.911-.911A.911.911,0,0,1,44.732,48.643Z" transform="translate(-3.751 -4.019)"/>
          <path id="Shape-12" data-name="Shape" d="M19.849,23.689a.911.911,0,1,0,1.231-1.342l-4.258-3.855,4.263-3.91a.911.911,0,0,0-1.231-1.342l-4.263,3.91a1.769,1.769,0,0,0,0,2.63Z" transform="translate(-1.34 -1.161)"/>
          <path id="Shape-13" data-name="Shape" d="M34.24,23.633a.911.911,0,0,0,1.287.056l4.263-3.91a1.769,1.769,0,0,0,0-2.63l-4.262-3.91A.911.911,0,1,0,34.3,14.582l4.263,3.855L34.3,22.346a.911.911,0,0,0-.056,1.287Z" transform="translate(-3.036 -1.161)"/>
          <path id="Shape-14" data-name="Shape" d="M24.442,23.8a.911.911,0,0,0,1.249-.311l5.464-9.107a.911.911,0,0,0-1.561-.938L24.13,22.55a.911.911,0,0,0,.311,1.249Z" transform="translate(-2.143 -1.162)"/>
          <circle id="Oval-5" data-name="Oval" cx="0.911" cy="0.911" r="0.911" transform="translate(5.464 26.41)"/>
          <circle id="Oval-6" data-name="Oval" cx="0.911" cy="0.911" r="0.911" transform="translate(5.464 30.053)"/>
          <circle id="Oval-7" data-name="Oval" cx="0.911" cy="0.911" r="0.911" transform="translate(5.464 33.696)"/>
          <circle id="Oval-8" data-name="Oval" cx="0.911" cy="0.911" r="0.911" transform="translate(5.464 37.339)"/>
          <circle id="Oval-9" data-name="Oval" cx="0.911" cy="0.911" r="0.911" transform="translate(5.464 40.981)"/>
          <circle id="Oval-10" data-name="Oval" cx="0.911" cy="0.911" r="0.911" transform="translate(5.464 44.624)"/>
          <path id="Shape-15" data-name="Shape" d="M10.911,30.821h9.107a.911.911,0,0,0,0-1.821H10.911a.911.911,0,1,0,0,1.821Z" transform="translate(-0.893 -2.59)"/>
          <path id="Shape-16" data-name="Shape" d="M24.571,37H10.911a.911.911,0,0,0,0,1.821h13.66a.911.911,0,0,0,0-1.821Z" transform="translate(-0.893 -3.304)"/>
          <path id="Shape-17" data-name="Shape" d="M21.839,45H10.911a.911.911,0,0,0,0,1.821H21.839a.911.911,0,0,0,0-1.821Z" transform="translate(-0.893 -4.019)"/>
          <path id="Shape-18" data-name="Shape" d="M10.911,34.821h17.3a.911.911,0,0,0,0-1.821h-17.3a.911.911,0,0,0,0,1.821Z" transform="translate(-0.893 -2.947)"/>
          <path id="Shape-19" data-name="Shape" d="M10.911,42.821h5.464a.911.911,0,0,0,0-1.821H10.911a.911.911,0,0,0,0,1.821Z" transform="translate(-0.893 -3.661)"/>
          <path id="Shape-20" data-name="Shape" d="M15.464,49H10.911a.911.911,0,0,0,0,1.821h4.553a.911.911,0,1,0,0-1.821Z" transform="translate(-0.893 -4.376)"/>
          <path id="Shape-21" data-name="Shape" d="M24.911,30.821h2.732a.911.911,0,0,0,0-1.821H24.911a.911.911,0,0,0,0,1.821Z" transform="translate(-2.143 -2.59)"/>
          <path id="Shape-22" data-name="Shape" d="M23.643,41H20.911a.911.911,0,0,0,0,1.821h2.732a.911.911,0,1,0,0-1.821Z" transform="translate(-1.786 -3.661)"/>
        </g>
      </g>
    </g>
  </g>
</svg>
