<svg xmlns="http://www.w3.org/2000/svg" xmlns:xlink="http://www.w3.org/1999/xlink" width="113" height="113" viewBox="0 0 113 113">
  <defs>
    <filter id="Trazado_982547" x="0" y="0" width="113" height="113" filterUnits="userSpaceOnUse">
      <feOffset dy="3" input="SourceAlpha"/>
      <feGaussianBlur stdDeviation="3" result="blur"/>
      <feFlood flood-opacity="0.161"/>
      <feComposite operator="in" in2="blur"/>
      <feComposite in="SourceGraphic"/>
    </filter>
  </defs>
  <g id="Grupo_1178611" data-name="Grupo 1178611" transform="translate(-1216.56 -5911.161)">
    <g id="Grupo_1178437" data-name="Grupo 1178437" transform="translate(1225.561 5917.161)">
      <g id="Grupo_1172010" data-name="Grupo 1172010" transform="translate(0)">
        <g id="Grupo_1171046" data-name="Grupo 1171046">
          <g id="Grupo_1148525" data-name="Grupo 1148525">
            <g transform="matrix(1, 0, 0, 1, -9, -6)" filter="url(#Trazado_982547)">
              <g id="Trazado_982547-2" data-name="Trazado 982547" transform="translate(9 6)" fill="#fef4ec">
                <path d="M 47.5 93.5 C 41.28937149047852 93.5 35.26533508300781 92.28397369384766 29.59518623352051 89.88570404052734 C 24.11771965026855 87.56893157958984 19.19813346862793 84.25196075439453 14.97309303283691 80.02691650390625 C 10.74804019927979 75.80186462402344 7.431066513061523 70.88229370117188 5.114293098449707 65.40481567382812 C 2.716026782989502 59.73468017578125 1.5 53.71062850952148 1.5 47.5 C 1.5 41.28937149047852 2.716026782989502 35.26533508300781 5.114293098449707 29.59518623352051 C 7.431066513061523 24.11771965026855 10.74804019927979 19.19813346862793 14.97309303283691 14.97309303283691 C 19.19813346862793 10.74804019927979 24.11771965026855 7.431066513061523 29.59518623352051 5.114293098449707 C 35.26533508300781 2.716026782989502 41.28937149047852 1.5 47.5 1.5 C 53.71062850952148 1.5 59.73468017578125 2.716026782989502 65.40481567382812 5.114293098449707 C 70.88229370117188 7.431066513061523 75.80186462402344 10.74804019927979 80.02691650390625 14.97309303283691 C 84.25196075439453 19.19813346862793 87.56893157958984 24.11771965026855 89.88570404052734 29.59518623352051 C 92.28397369384766 35.26533508300781 93.5 41.28937149047852 93.5 47.5 C 93.5 53.71062850952148 92.28397369384766 59.73468017578125 89.88570404052734 65.40481567382812 C 87.56893157958984 70.88229370117188 84.25196075439453 75.80186462402344 80.02691650390625 80.02691650390625 C 75.80186462402344 84.25196075439453 70.88229370117188 87.56893157958984 65.40481567382812 89.88570404052734 C 59.73468017578125 92.28397369384766 53.71062850952148 93.5 47.5 93.5 Z" stroke="none"/>
                <path d="M 47.5 3 C 41.49121475219727 3 35.66376876831055 4.176155090332031 30.17950439453125 6.495796203613281 C 24.88084411621094 8.736953735351562 20.12152099609375 11.94598388671875 16.03375244140625 16.03375244140625 C 11.94598388671875 20.12152099609375 8.736953735351562 24.88084411621094 6.495796203613281 30.17950439453125 C 4.176155090332031 35.66376876831055 3 41.49121475219727 3 47.5 C 3 53.50878524780273 4.176155090332031 59.33623123168945 6.495796203613281 64.82049560546875 C 8.736953735351562 70.11915588378906 11.94598388671875 74.87847900390625 16.03375244140625 78.96624755859375 C 20.12152099609375 83.05401611328125 24.88084411621094 86.26304626464844 30.17950439453125 88.50419616699219 C 35.66376876831055 90.82384490966797 41.49121475219727 92 47.5 92 C 53.50878524780273 92 59.33623123168945 90.82384490966797 64.82049560546875 88.50419616699219 C 70.11915588378906 86.26304626464844 74.87847900390625 83.05401611328125 78.96624755859375 78.96624755859375 C 83.05401611328125 74.87847900390625 86.26304626464844 70.11915588378906 88.50419616699219 64.82049560546875 C 90.82384490966797 59.33623123168945 92 53.50878524780273 92 47.5 C 92 41.49121475219727 90.82384490966797 35.66376876831055 88.50419616699219 30.17950439453125 C 86.26304626464844 24.88084411621094 83.05401611328125 20.12152099609375 78.96624755859375 16.03375244140625 C 74.87847900390625 11.94598388671875 70.11915588378906 8.736953735351562 64.82049560546875 6.495796203613281 C 59.33623123168945 4.176155090332031 53.50878524780273 3 47.5 3 M 47.5 0 C 73.7335205078125 0 95 21.2664794921875 95 47.5 C 95 73.7335205078125 73.7335205078125 95 47.5 95 C 21.2664794921875 95 0 73.7335205078125 0 47.5 C 0 21.2664794921875 21.2664794921875 0 47.5 0 Z" stroke="none" fill="#fe9d52"/>
              </g>
            </g>
          </g>
        </g>
      </g>
    </g>
    <g id="python_3098090" transform="translate(1239.873 5931.986)">
      <path id="Trazado_1040459" data-name="Trazado 1040459" d="M117.553,80.571a33.4,33.4,0,0,1-.032,15.453,6.573,6.573,0,0,1-6.4,5.071h-10.04v10.042a6.575,6.575,0,0,1-5.213,6.436,33.4,33.4,0,0,1-15.293,0,6.577,6.577,0,0,1-5.221-6.438V94.808a6.578,6.578,0,0,1,6.578-6.578H94.5a6.578,6.578,0,0,0,6.578-6.577V75.368h10.041a6.573,6.573,0,0,1,6.434,5.2Z" transform="translate(-55.532 -55.558)" fill="#f0c020"/>
      <path id="Trazado_1040460" data-name="Trazado 1040460" d="M47.4,11.651V27.977a6.578,6.578,0,0,1-6.578,6.578H28.25a6.578,6.578,0,0,0-6.578,6.577v6.285H11.63a6.573,6.573,0,0,1-6.4-5.067,33.412,33.412,0,0,1,0-15.592,6.573,6.573,0,0,1,6.4-5.067H21.672V11.65a6.575,6.575,0,0,1,5.2-6.434,33.4,33.4,0,0,1,15.288-.007A6.578,6.578,0,0,1,47.4,11.651Z" transform="translate(-1.853 -1.881)" fill="#72c1e8"/>
      <circle id="Elipse_12545" data-name="Elipse 12545" cx="2.056" cy="2.056" r="2.056" transform="translate(24.655 10.566) rotate(-22.514)" fill="#fff"/>
      <circle id="Elipse_12546" data-name="Elipse 12546" cx="2.056" cy="2.056" r="2.056" transform="translate(35.973 51.606)" fill="#fff"/>
      <path id="Trazado_1040461" data-name="Trazado 1040461" d="M168.086,120.575a.611.611,0,0,1-.611-.611v-1.186a.611.611,0,1,1,1.222,0v1.186A.611.611,0,0,1,168.086,120.575Zm0-3.631a.611.611,0,0,1-.611-.611v-9.972a.611.611,0,0,1,.611-.611h12.637a2.531,2.531,0,0,0,2.477-1.96,29.548,29.548,0,0,0,0-13.747,2.527,2.527,0,0,0-2.475-1.953.611.611,0,1,1,0-1.222,3.749,3.749,0,0,1,3.695,3.024,30.768,30.768,0,0,1-.029,14.177,3.748,3.748,0,0,1-3.667,2.9H168.7v9.36a.611.611,0,0,1-.612.612Z" transform="translate(-125.138 -64.247)" fill="#f9e5af"/>
      <path id="Trazado_1040462" data-name="Trazado 1040462" d="M59.462,55.743a.611.611,0,0,1-.611-.611v-1.1a.611.611,0,1,1,1.222,0v1.1a.611.611,0,0,1-.611.611Zm-.018-3.54a.611.611,0,0,1-.569-.65,10.635,10.635,0,0,1,10.587-9.895H82.033a2.548,2.548,0,0,0,2.545-2.545V22.787a2.53,2.53,0,0,0-1.959-2.476l-.164-.039a.611.611,0,1,1,.279-1.19l.164.038a3.747,3.747,0,0,1,2.9,3.667V39.112a3.771,3.771,0,0,1-3.767,3.767H69.462a9.411,9.411,0,0,0-9.368,8.754.611.611,0,0,1-.65.57Z" transform="translate(-43.066 -13.018)" fill="#c5e5ff"/>
      <path id="Trazado_1040463" data-name="Trazado 1040463" d="M63.072,67.881a7.2,7.2,0,0,0-7-5.536H46.643V59.517a.611.611,0,0,0-1.22,0,.009.009,0,0,0,0,0v9.726a5.989,5.989,0,0,1-5.967,5.967H26.886A7.183,7.183,0,0,0,19.7,82.4v5.673H10.267a5.935,5.935,0,0,1-5.808-4.6,33.083,33.083,0,0,1-.738-4.344.612.612,0,1,0-1.217.125,34.265,34.265,0,0,0,.765,4.5,7.188,7.188,0,0,0,7,5.536H19.7v9.43a7.189,7.189,0,0,0,5.676,7.03,33.731,33.731,0,0,0,15.641-.01,7.193,7.193,0,0,0,5.632-7.02v-9.43h2.936a.611.611,0,0,0,0-1.222H33.171a.611.611,0,0,0,0,1.222H45.424v9.43a5.938,5.938,0,0,1-4.742,5.842,32.926,32.926,0,0,1-15.013,0,5.942,5.942,0,0,1-4.749-5.844V82.4a5.986,5.986,0,0,1,5.967-5.967H39.457a7.191,7.191,0,0,0,7.189-7.189V63.567h9.43a5.937,5.937,0,0,1,5.818,4.652.825.825,0,0,1,.02.083,32.923,32.923,0,0,1-.032,15.172,5.935,5.935,0,0,1-5.808,4.6h-1.6a.611.611,0,0,0,0,1.222h1.6a7.186,7.186,0,0,0,7-5.541c1.52-6.4.955-10.674,0-15.871Z" transform="translate(-0.489 -43.147)"/>
      <circle id="Elipse_12547" data-name="Elipse 12547" cx="0.611" cy="0.611" r="0.611" transform="translate(50.926 44.925)"/>
      <path id="Trazado_1040464" data-name="Trazado 1040464" d="M178.7,48.794a.611.611,0,1,0,.609.611A.611.611,0,0,0,178.7,48.794Z" transform="translate(-133.158 -35.48)"/>
      <path id="Trazado_1040465" data-name="Trazado 1040465" d="M2.553,31.777a.611.611,0,0,0,.611-.579v0a32.817,32.817,0,0,1,.873-6.174,5.935,5.935,0,0,1,5.808-4.6h22.9a.611.611,0,0,0,0-1.222H20.5V9.77A5.935,5.935,0,0,1,25.229,3.93a32.888,32.888,0,0,1,15.057,0A5.94,5.94,0,0,1,45,9.769V11.48a.612.612,0,1,0,1.225,0l0-1.711a7.187,7.187,0,0,0-5.705-7.037,34.141,34.141,0,0,0-15.568.007,7.193,7.193,0,0,0-5.673,7.03V19.2H9.845A7.2,7.2,0,0,0,2.81,24.89a34.3,34.3,0,0,0-.868,6.248.611.611,0,0,0,.611.639Z" transform="translate(-0.067)"/>
      <path id="Trazado_1040466" data-name="Trazado 1040466" d="M2.481,130.545a.613.613,0,0,0,.594-.628.6.6,0,0,0-.628-.594.611.611,0,1,0,.034,1.222Z" transform="translate(0 -96.324)"/>
      <path id="Trazado_1040467" data-name="Trazado 1040467" d="M95.192,33.887a2.667,2.667,0,1,0,2.667-2.667A2.667,2.667,0,0,0,95.192,33.887Zm4.111,0a1.445,1.445,0,1,1-1.445-1.445A1.445,1.445,0,0,1,99.3,33.887Z" transform="translate(-70.524 -22.201)"/>
      <path id="Trazado_1040468" data-name="Trazado 1040468" d="M144.273,205.612a2.667,2.667,0,1,0-2.667,2.667A2.667,2.667,0,0,0,144.273,205.612Zm-4.111,0a1.445,1.445,0,1,1,1.445,1.444A1.445,1.445,0,0,1,140.161,205.612Z" transform="translate(-103.577 -151.951)"/>
    </g>
  </g>
</svg>
