<svg xmlns="http://www.w3.org/2000/svg" xmlns:xlink="http://www.w3.org/1999/xlink" width="108" height="108" viewBox="0 0 108 108">
  <defs>
    <filter id="Trazado_904820" x="0" y="0" width="108" height="108" filterUnits="userSpaceOnUse">
      <feOffset dy="3" input="SourceAlpha"/>
      <feGaussianBlur stdDeviation="3" result="blur"/>
      <feFlood flood-opacity="0.161"/>
      <feComposite operator="in" in2="blur"/>
      <feComposite in="SourceGraphic"/>
    </filter>
  </defs>
  <g id="Grupo_1178612" data-name="Grupo 1178612" transform="translate(-196.477 -7536.086)">
    <g id="Grupo_1178438" data-name="Grupo 1178438" transform="translate(205.477 7542.086)">
      <g id="Grupo_1173585" data-name="Grupo 1173585" transform="translate(0 0)">
        <g id="Grupo_1173428" data-name="Grupo 1173428">
          <g id="Grupo_1171958" data-name="Grupo 1171958">
            <g id="Grupo_1167341" data-name="Grupo 1167341">
              <g id="Grupo_1166792" data-name="Grupo 1166792">
                <g transform="matrix(1, 0, 0, 1, -9, -6)" filter="url(#Trazado_904820)">
                  <g id="Trazado_904820-2" data-name="Trazado 904820" transform="translate(9 6)" fill="#fdeffe">
                    <path d="M 44.99999618530273 88.49999237060547 C 39.12687301635742 88.49999237060547 33.43022155761719 87.35006713867188 28.06829643249512 85.08216857910156 C 22.88852119445801 82.89130401611328 18.23629570007324 79.75457763671875 14.24084663391113 75.75914001464844 C 10.24540901184082 71.76369476318359 7.108683586120605 67.11146545410156 4.917821407318115 61.93169403076172 C 2.649921178817749 56.56976699829102 1.499996185302734 50.87311553955078 1.499996185302734 44.99999237060547 C 1.499996185302734 39.12686920166016 2.649921178817749 33.43021774291992 4.917821407318115 28.06829261779785 C 7.108683586120605 22.88851737976074 10.24540901184082 18.23630523681641 14.24084663391113 14.24085521697998 C 18.23629570007324 10.24540519714355 22.88852119445801 7.108692169189453 28.06829643249512 4.917829990386963 C 33.43022155761719 2.649929761886597 39.12687301635742 1.500004887580872 44.99999618530273 1.500004887580872 C 50.87311935424805 1.500004887580872 56.56977081298828 2.649929761886597 61.93169784545898 4.917829990386963 C 67.11147308349609 7.108692169189453 71.76369476318359 10.24540519714355 75.75914764404297 14.24085521697998 C 79.75458526611328 18.23630523681641 82.89131164550781 22.88851737976074 85.08216857910156 28.06829261779785 C 87.35007476806641 33.43021774291992 88.5 39.12686920166016 88.5 44.99999237060547 C 88.5 50.87311553955078 87.35007476806641 56.56976699829102 85.08216857910156 61.93169403076172 C 82.89131164550781 67.11146545410156 79.75458526611328 71.76369476318359 75.75914764404297 75.75914001464844 C 71.76369476318359 79.75457763671875 67.11147308349609 82.89130401611328 61.93169784545898 85.08216857910156 C 56.56977081298828 87.35006713867188 50.87311935424805 88.49999237060547 44.99999618530273 88.49999237060547 Z" stroke="none"/>
                    <path d="M 44.99999618530273 2.999992370605469 C 39.32870864868164 2.999992370605469 33.82865142822266 4.11004638671875 28.65262603759766 6.299331665039062 C 23.65165710449219 8.414566040039062 19.15968322753906 11.44333648681641 15.301513671875 15.30150604248047 C 11.44333648681641 19.15967559814453 8.414566040039062 23.65164947509766 6.299339294433594 28.65262222290039 C 4.110054016113281 33.82864761352539 2.999992370605469 39.32870483398438 2.999992370605469 44.99999237060547 C 2.999992370605469 50.67127990722656 4.110054016113281 56.17132186889648 6.299339294433594 61.34736633300781 C 8.414566040039062 66.34833526611328 11.44333648681641 70.84029388427734 15.301513671875 74.69846343994141 C 19.15968322753906 78.55663299560547 23.65165710449219 81.58540344238281 28.65262603759766 83.70063781738281 C 33.82865142822266 85.88992309570312 39.32870864868164 86.99997711181641 44.99999618530273 86.99997711181641 C 50.67128372192383 86.99997711181641 56.17134094238281 85.88992309570312 61.34736633300781 83.70063781738281 C 66.34834289550781 81.58540344238281 70.84030914306641 78.55663299560547 74.69847869873047 74.69846343994141 C 78.55665588378906 70.84029388427734 81.58542633056641 66.34833526611328 83.70065307617188 61.34736633300781 C 85.88993835449219 56.17132186889648 87 50.67127990722656 87 44.99999237060547 C 87 39.32870483398438 85.88993835449219 33.82864761352539 83.70065307617188 28.65262222290039 C 81.58542633056641 23.65164947509766 78.55665588378906 19.15967559814453 74.69847869873047 15.30150604248047 C 70.84030914306641 11.44333648681641 66.34834289550781 8.414566040039062 61.34736633300781 6.299331665039062 C 56.17134094238281 4.11004638671875 50.67128372192383 2.999992370605469 44.99999618530273 2.999992370605469 M 44.99999618530273 -7.62939453125e-06 C 69.85281372070312 -7.62939453125e-06 90 20.14717864990234 90 44.99999237060547 C 90 69.85279083251953 69.85281372070312 89.99997711181641 44.99999618530273 89.99997711181641 C 20.14717864990234 89.99997711181641 -7.62939453125e-06 69.85279083251953 -7.62939453125e-06 44.99999237060547 C -7.62939453125e-06 20.14717864990234 20.14717864990234 -7.62939453125e-06 44.99999618530273 -7.62939453125e-06 Z" stroke="none" fill="#ee70f7"/>
                  </g>
                </g>
              </g>
            </g>
          </g>
        </g>
      </g>
    </g>
    <g id="research_1267444" transform="translate(228.135 7560.242)">
      <path id="Trazado_1040469" data-name="Trazado 1040469" d="M40.079,44.552A15.222,15.222,0,1,0,36.5,48.131q.255-.179.51-.376c.027-.027.063-.045.09-.072l9.995,9.986a3.552,3.552,0,0,1-3.3,2.228H11.58A3.579,3.579,0,0,1,8,56.319V11.579A3.579,3.579,0,0,1,11.58,8H36.634v7.158a3.579,3.579,0,0,0,3.579,3.579h7.158V52.9l-7.74-7.749c.027-.027.045-.062.072-.09q.2-.255.376-.51Zm0,0" transform="translate(-7.106 -7.105)" fill="#e6e7e8"/>
      <path id="Trazado_1040470" data-name="Trazado 1040470" d="M37.1,362.8l9.995,9.986a3.551,3.551,0,0,1-3.3,2.228H11.579A3.579,3.579,0,0,1,8,371.436v-2.362A73.185,73.185,0,0,0,19.221,363.5a15.211,15.211,0,0,0,17.278-.25q.255-.179.51-.376c.027-.027.063-.045.09-.072Zm0,0" transform="translate(-7.105 -322.222)" fill="#d8d7da"/>
      <path id="Trazado_1040471" data-name="Trazado 1040471" d="M298.541,104v34.163l-7.74-7.749c.027-.027.045-.062.072-.09q.2-.255.376-.51a15.19,15.19,0,0,0,.412-17.019,67.885,67.885,0,0,0,4.671-8.8Zm0,0" transform="translate(-258.275 -92.367)" fill="#d8d7da"/>
      <path id="Trazado_1040472" data-name="Trazado 1040472" d="M267.579,18.737h7.158L264,8v7.158A3.579,3.579,0,0,0,267.579,18.737Zm0,0" transform="translate(-234.472 -7.105)" fill="#bcbec0"/>
      <path id="Trazado_1040473" data-name="Trazado 1040473" d="M78.417,135.161a15.084,15.084,0,0,1-2.819,8.814q-.179.255-.376.51c-.027.027-.045.063-.072.09a14.148,14.148,0,0,1-2.532,2.532c-.027.027-.062.045-.09.072q-.255.2-.51.376a15.211,15.211,0,1,1,6.4-12.393Zm0,0" transform="translate(-42.626 -106.528)" fill="#bddbff"/>
      <path id="Trazado_1040474" data-name="Trazado 1040474" d="M268.16,342.693l9.995,9.986.734.734a1.784,1.784,0,0,0,2.524-2.524l-2.98-2.982-7.74-7.746A14.147,14.147,0,0,1,268.16,342.693Zm0,0" transform="translate(-238.167 -302.114)" fill="#3d9ae2"/>
      <path id="Trazado_1040475" data-name="Trazado 1040475" d="M188.43,260.43A6.248,6.248,0,0,0,190.264,256H184Zm0,0" transform="translate(-163.42 -227.367)" fill="#00ccb3"/>
      <path id="Trazado_1040476" data-name="Trazado 1040476" d="M134.262,206.264V200a6.264,6.264,0,1,0,4.429,10.693Zm0,0" transform="translate(-113.681 -177.63)" fill="#ff5023"/>
      <path id="Trazado_1040477" data-name="Trazado 1040477" d="M187.958,201.411A6.232,6.232,0,0,0,184,200v6.264h6.264A6.248,6.248,0,0,0,187.958,201.411Zm0,0" transform="translate(-163.42 -177.63)" fill="#ffd422"/>
      <path id="Trazado_1040478" data-name="Trazado 1040478" d="M43.878,48.14,41.16,45.422V11.632a1.94,1.94,0,0,0-.057-.287c-.01-.029-.017-.055-.03-.083A.889.889,0,0,0,40.895,11L30.157.262A.9.9,0,0,0,29.9.083c-.029-.012-.056-.02-.085-.029A1.932,1.932,0,0,0,29.528,0H4.474A4.479,4.479,0,0,0,0,4.474v44.74a4.479,4.479,0,0,0,4.474,4.474H36.687A4.492,4.492,0,0,0,40.176,52a2.675,2.675,0,0,0,3.7-3.858Zm-5.772-37.4h-5a2.685,2.685,0,0,1-2.684-2.684v-5ZM36.687,51.9H4.474A2.685,2.685,0,0,1,1.79,49.213V4.474A2.685,2.685,0,0,1,4.474,1.79H28.633V8.053a4.479,4.479,0,0,0,4.474,4.474h6.264v31.1L33.705,37.96a15.939,15.939,0,0,0,2.981-9.327A16.106,16.106,0,1,0,20.58,44.74,15.918,15.918,0,0,0,29.9,41.765l.01-.007,8.978,8.971a2.678,2.678,0,0,1-2.2,1.169Zm-7.24-12.027c-.014.01-.03.023-.044.036l-.055.042c-.152.121-.3.234-.474.349A14.149,14.149,0,0,1,20.58,42.95,14.317,14.317,0,1,1,34.9,28.633a14.166,14.166,0,0,1-2.664,8.309c-.1.153-.217.306-.279.393a1.12,1.12,0,0,0-.1.124l-.032.04a13.25,13.25,0,0,1-2.372,2.372Zm13.17,10.79-.008.008a.89.89,0,0,1-1.253,0L31.318,40.64c.115-.1.215-.221.327-.326.207-.2.406-.395.6-.6.11-.116.232-.219.339-.339L42.616,49.412a.868.868,0,0,1,0,1.253Zm0,0"/>
      <path id="Trazado_1040479" data-name="Trazado 1040479" d="M88,288h3.579v1.79H88Zm0,0" transform="translate(-78.157 -255.788)"/>
      <path id="Trazado_1040480" data-name="Trazado 1040480" d="M88,312h3.579v1.79H88Zm0,0" transform="translate(-78.157 -277.103)"/>
      <path id="Trazado_1040481" data-name="Trazado 1040481" d="M131.215,191.854l-.877.877a7.152,7.152,0,1,0-7.9,11.925l-.144.358h-1.184v1.79h1.79a.9.9,0,0,0,.831-.563l.308-.769a7.144,7.144,0,0,0,7.676-11.586l.5-.5h1.419v-1.79h-1.79a.9.9,0,0,0-.633.262Zm-2.576,7.791h3.132a5.341,5.341,0,0,1-.917,2.211ZM124.7,203.81l.818-2.043-1.663-.664-.733,1.834a5.36,5.36,0,0,1,2.46-9.474v5.288a.891.891,0,0,0,.263.634l3.738,3.737a5.308,5.308,0,0,1-4.882.689Zm7.065-5.955h-4.394v-4.394a5.34,5.34,0,0,1,1.664.569l-1.4,1.4L128.9,196.7l1.549-1.549a5.35,5.35,0,0,1,1.317,2.706Zm0,0" transform="translate(-105.899 -170.117)"/>
      <path id="Trazado_1040482" data-name="Trazado 1040482" d="M264,192h1.79v1.79H264Zm0,0" transform="translate(-234.472 -170.525)"/>
      <path id="Trazado_1040483" data-name="Trazado 1040483" d="M264,216h3.579v1.79H264Zm0,0" transform="translate(-234.472 -191.841)"/>
      <path id="Trazado_1040484" data-name="Trazado 1040484" d="M256,280h3.579v1.79H256Zm0,0" transform="translate(-227.367 -248.682)"/>
      <path id="Trazado_1040485" data-name="Trazado 1040485" d="M120,160h1.79v1.79H120Zm0,0" transform="translate(-106.578 -142.104)"/>
      <path id="Trazado_1040486" data-name="Trazado 1040486" d="M152,160h3.579v1.79H152Zm0,0" transform="translate(-134.999 -142.104)"/>
      <path id="Trazado_1040487" data-name="Trazado 1040487" d="M56,48h4.474v1.79H56Zm0,0" transform="translate(-49.736 -42.631)"/>
      <path id="Trazado_1040488" data-name="Trazado 1040488" d="M112,48h7.158v1.79H112Zm0,0" transform="translate(-99.473 -42.631)"/>
      <path id="Trazado_1040489" data-name="Trazado 1040489" d="M56,80h8.948v1.79H56Zm0,0" transform="translate(-49.736 -71.052)"/>
    </g>
  </g>
</svg>
