<svg xmlns="http://www.w3.org/2000/svg" xmlns:xlink="http://www.w3.org/1999/xlink" width="103" height="103" viewBox="0 0 103 103">
  <defs>
    <filter id="Trazado_978624" x="0" y="0" width="103" height="103" filterUnits="userSpaceOnUse">
      <feOffset dy="3" input="SourceAlpha"/>
      <feGaussianBlur stdDeviation="3" result="blur"/>
      <feFlood flood-opacity="0.161"/>
      <feComposite operator="in" in2="blur"/>
      <feComposite in="SourceGraphic"/>
    </filter>
  </defs>
  <g id="Grupo_1178619" data-name="Grupo 1178619" transform="translate(-185 -9393)">
    <g id="Grupo_1178463" data-name="Grupo 1178463" transform="translate(14 6527)">
      <g id="Grupo_1176881" data-name="Grupo 1176881">
        <g id="Grupo_1175148" data-name="Grupo 1175148" transform="translate(0 1580)">
          <g id="Grupo_1173798" data-name="Grupo 1173798" transform="translate(-3 -3520)">
            <g id="Grupo_1171925" data-name="Grupo 1171925" transform="translate(-22 -2246)">
              <g id="Grupo_1164524" data-name="Grupo 1164524" transform="translate(205 7058)">
                <g id="Grupo_1144123" data-name="Grupo 1144123">
                  <g transform="matrix(1, 0, 0, 1, -9, -6)" filter="url(#Trazado_978624)">
                    <g id="Trazado_978624-2" data-name="Trazado 978624" transform="translate(9 6)" fill="#f4f4f4">
                      <path d="M 42.5 83.5 C 36.96437835693359 83.5 31.59512901306152 82.41617584228516 26.54141235351562 80.27863311767578 C 21.65934181213379 78.21369171142578 17.27447128295898 75.25723266601562 13.50862312316895 71.49137878417969 C 9.742764472961426 67.72553253173828 6.786305904388428 63.34066009521484 4.721364498138428 58.45858764648438 C 2.583823442459106 53.40486907958984 1.5 48.03562164306641 1.5 42.5 C 1.5 36.96437835693359 2.583823442459106 31.59512901306152 4.721364498138428 26.54141235351562 C 6.786305904388428 21.65934181213379 9.742764472961426 17.27447128295898 13.50862312316895 13.50862312316895 C 17.27447128295898 9.742764472961426 21.65934181213379 6.786305904388428 26.54141235351562 4.721364498138428 C 31.59512901306152 2.583823442459106 36.96437835693359 1.5 42.5 1.5 C 48.03562164306641 1.5 53.40486907958984 2.583823442459106 58.45858764648438 4.721364498138428 C 63.34066009521484 6.786305904388428 67.72553253173828 9.742764472961426 71.49137878417969 13.50862312316895 C 75.25723266601562 17.27447128295898 78.21369171142578 21.65934181213379 80.27863311767578 26.54141235351562 C 82.41617584228516 31.59512901306152 83.5 36.96437835693359 83.5 42.5 C 83.5 48.03562164306641 82.41617584228516 53.40486907958984 80.27863311767578 58.45858764648438 C 78.21369171142578 63.34066009521484 75.25723266601562 67.72553253173828 71.49137878417969 71.49137878417969 C 67.72553253173828 75.25723266601562 63.34066009521484 78.21369171142578 58.45858764648438 80.27863311767578 C 53.40486907958984 82.41617584228516 48.03562164306641 83.5 42.5 83.5 Z" stroke="none"/>
                      <path d="M 42.5 3 C 37.16621398925781 3 31.99356079101562 4.043960571289062 27.125732421875 6.102882385253906 C 22.42246627807617 8.092185974121094 18.19785308837891 10.94070434570312 14.56928253173828 14.56928253173828 C 10.94070434570312 18.19785308837891 8.092185974121094 22.42246627807617 6.102882385253906 27.125732421875 C 4.043960571289062 31.99356079101562 3 37.16621398925781 3 42.5 C 3 47.83378601074219 4.043960571289062 53.00643920898438 6.102882385253906 57.87425231933594 C 8.092185974121094 62.57753372192383 10.94070434570312 66.80213165283203 14.56928253173828 70.43071746826172 C 18.19786834716797 74.05929565429688 22.42246627807617 76.90781402587891 27.125732421875 78.89711761474609 C 31.99356079101562 80.95603942871094 37.16621398925781 82 42.5 82 C 47.83378601074219 82 53.00642395019531 80.95603942871094 57.87425231933594 78.89711761474609 C 62.57753372192383 76.90781402587891 66.80213165283203 74.05929565429688 70.43071746826172 70.43071746826172 C 74.05929565429688 66.80213165283203 76.90781402587891 62.57753372192383 78.89711761474609 57.87425231933594 C 80.95603942871094 53.00642395019531 82 47.83378601074219 82 42.5 C 82 37.16621398925781 80.95603942871094 31.99356079101562 78.89711761474609 27.125732421875 C 76.90781402587891 22.42246627807617 74.05929565429688 18.19786834716797 70.43071746826172 14.56928253173828 C 66.80213165283203 10.94070434570312 62.57753372192383 8.092185974121094 57.87425231933594 6.102882385253906 C 53.00643920898438 4.043960571289062 47.83378601074219 3 42.5 3 M 42.5 0 C 65.97209167480469 0 85 19.02789306640625 85 42.5 C 85 65.97209167480469 65.97209167480469 85 42.5 85 C 19.02789306640625 85 0 65.97209167480469 0 42.5 C 0 19.02789306640625 19.02789306640625 0 42.5 0 Z" stroke="none" fill="#797979"/>
                    </g>
                  </g>
                </g>
              </g>
            </g>
          </g>
        </g>
      </g>
    </g>
    <g id="_17-development" data-name="17-development" transform="translate(212 9418)">
      <rect id="Rectángulo_416518" data-name="Rectángulo 416518" width="6" height="4" transform="translate(1 1)" fill="#c1ced1"/>
      <rect id="Rectángulo_416519" data-name="Rectángulo 416519" width="6" height="4" transform="translate(41 1)" fill="#c1ced1"/>
      <rect id="Rectángulo_416520" data-name="Rectángulo 416520" width="34" height="4" transform="translate(7 1)" fill="#dfe6e9"/>
      <rect id="Rectángulo_416521" data-name="Rectángulo 416521" width="46" height="35" transform="translate(1 5)" fill="#edf1f2"/>
      <path id="Trazado_1040532" data-name="Trazado 1040532" d="M32,22.25v4.5l-3.292.18A10.451,10.451,0,0,1,27.432,30l2.205,2.46-3.18,3.18L24,33.432a10.45,10.45,0,0,1-3.067,1.275L20.75,38h-4.5l-.18-3.292A10.45,10.45,0,0,1,13,33.432l-2.46,2.205-3.18-3.18L9.568,30A10.451,10.451,0,0,1,8.292,26.93L5,26.75v-4.5l3.292-.18A10.45,10.45,0,0,1,9.567,19l-2.2-2.46,3.18-3.18L13,15.568a10.45,10.45,0,0,1,3.068-1.275L16.25,11h4.5l.18,3.292A10.451,10.451,0,0,1,24,15.568l2.46-2.205,3.18,3.18L27.432,19a10.451,10.451,0,0,1,1.275,3.067ZM25.25,24.5a6.75,6.75,0,1,0-6.75,6.75A6.75,6.75,0,0,0,25.25,24.5Z" transform="translate(-1.25 -2.75)" fill="#fdcb6e"/>
      <rect id="Rectángulo_416522" data-name="Rectángulo 416522" width="3" height="3" transform="translate(23 41)" fill="#81ecec"/>
      <rect id="Rectángulo_416523" data-name="Rectángulo 416523" width="3" height="3" transform="translate(23 35)" fill="#81ecec"/>
      <rect id="Rectángulo_416524" data-name="Rectángulo 416524" width="3" height="3" transform="translate(29 35)" fill="#81ecec"/>
      <rect id="Rectángulo_416525" data-name="Rectángulo 416525" width="3" height="3" transform="translate(41 41)" fill="#81ecec"/>
      <rect id="Rectángulo_416526" data-name="Rectángulo 416526" width="9" height="3" transform="translate(29 41)" fill="#81ecec"/>
      <rect id="Rectángulo_416527" data-name="Rectángulo 416527" width="3" height="3" transform="translate(35 35)" fill="#81ecec"/>
      <rect id="Rectángulo_416528" data-name="Rectángulo 416528" width="3" height="3" transform="translate(41 35)" fill="#81ecec"/>
      <path id="Trazado_1040533" data-name="Trazado 1040533" d="M27,50.25V42H54V57.75H27Zm24,4.5v-3H48v3ZM51,48V45H48v3Zm-6,6.75v-3H36v3ZM45,48V45H42v3Zm-6,0V45H36v3Zm-6,6.75v-3H30v3ZM33,48V45H30v3Z" transform="translate(-6.75 -10.5)" fill="#74b9ff"/>
      <path id="Trazado_1040534" data-name="Trazado 1040534" d="M30.75,49.5h3a.75.75,0,0,0,.75-.75v-3a.75.75,0,0,0-.75-.75h-3a.75.75,0,0,0-.75.75v3A.75.75,0,0,0,30.75,49.5Zm.75-3H33V48H31.5Z" transform="translate(-7.5 -11.25)"/>
      <path id="Trazado_1040535" data-name="Trazado 1040535" d="M38.75,49.5h3a.75.75,0,0,0,.75-.75v-3a.75.75,0,0,0-.75-.75h-3a.75.75,0,0,0-.75.75v3A.75.75,0,0,0,38.75,49.5Zm.75-3H41V48H39.5Z" transform="translate(-9.5 -11.25)"/>
      <path id="Trazado_1040536" data-name="Trazado 1040536" d="M54.75,49.5h3a.75.75,0,0,0,.75-.75v-3a.75.75,0,0,0-.75-.75h-3a.75.75,0,0,0-.75.75v3A.75.75,0,0,0,54.75,49.5Zm.75-3H57V48H55.5Z" transform="translate(-13.5 -11.25)"/>
      <path id="Trazado_1040537" data-name="Trazado 1040537" d="M54.75,58.5h3a.75.75,0,0,0,.75-.75v-3a.75.75,0,0,0-.75-.75h-3a.75.75,0,0,0-.75.75v3A.75.75,0,0,0,54.75,58.5Zm.75-3H57V57H55.5Z" transform="translate(-13.5 -13.5)"/>
      <path id="Trazado_1040538" data-name="Trazado 1040538" d="M30.75,58.5h3a.75.75,0,0,0,.75-.75v-3a.75.75,0,0,0-.75-.75h-3a.75.75,0,0,0-.75.75v3A.75.75,0,0,0,30.75,58.5Zm.75-3H33V57H31.5Z" transform="translate(-7.5 -13.5)"/>
      <path id="Trazado_1040539" data-name="Trazado 1040539" d="M38.75,58.5h9a.75.75,0,0,0,.75-.75v-3a.75.75,0,0,0-.75-.75h-9a.75.75,0,0,0-.75.75v3A.75.75,0,0,0,38.75,58.5Zm.75-3H47V57H39.5Z" transform="translate(-9.5 -13.5)"/>
      <path id="Trazado_1040540" data-name="Trazado 1040540" d="M46.75,49.5h3a.75.75,0,0,0,.75-.75v-3a.75.75,0,0,0-.75-.75h-3a.75.75,0,0,0-.75.75v3A.75.75,0,0,0,46.75,49.5Zm.75-3H49V48H47.5Z" transform="translate(-11.5 -11.25)"/>
      <rect id="Rectángulo_416529" data-name="Rectángulo 416529" width="2" height="2" transform="translate(36 20)"/>
      <rect id="Rectángulo_416530" data-name="Rectángulo 416530" width="2" height="2" transform="translate(33 20)"/>
      <path id="Trazado_1040541" data-name="Trazado 1040541" d="M48,29.25V.75A.75.75,0,0,0,47.25,0H.75A.75.75,0,0,0,0,.75v39a.75.75,0,0,0,.75.75H19.5v6.75a.75.75,0,0,0,.75.75h27a.75.75,0,0,0,.75-.75V31.5a.75.75,0,0,0-.75-.75H45V28.5a2.25,2.25,0,0,0-2.25-2.25h-7.5a.75.75,0,0,1,0-1.5h7.5a2.25,2.25,0,0,0,0-4.5H39v1.5h3.75a.75.75,0,0,1,0,1.5h-7.5a2.25,2.25,0,0,0,0,4.5h7.5a.75.75,0,0,1,.75.75v2.25H20.25a.75.75,0,0,0-.75.75V39H1.5V6h45V29.25Zm-27,3H46.5V46.5H21ZM40.5,1.5v3H7.5v-3Zm-39,0H6v3H1.5ZM42,4.5v-3h4.5v3Z"/>
      <path id="Trazado_1040542" data-name="Trazado 1040542" d="M31.791,27.25a.75.75,0,0,0,.709-.75V22a.75.75,0,0,0-.709-.75l-2.749-.15a11.2,11.2,0,0,0-.937-2.25l1.845-2.057a.75.75,0,0,0-.028-1.031l-3.18-3.18a.75.75,0,0,0-1.031-.028l-2.06,1.841a11.255,11.255,0,0,0-2.25-.937l-.15-2.749A.75.75,0,0,0,20.5,10H16a.75.75,0,0,0-.75.709l-.15,2.749a11.254,11.254,0,0,0-2.25.937L10.8,12.554a.75.75,0,0,0-1.031.028l-3.18,3.18a.75.75,0,0,0-.029,1.031L8.395,18.85a11.2,11.2,0,0,0-.937,2.25l-2.749.15A.75.75,0,0,0,4,22v4.5a.75.75,0,0,0,.709.75l2.749.15A11.2,11.2,0,0,0,8.4,29.65L6.554,31.707a.75.75,0,0,0,.028,1.031l3.18,3.18a.75.75,0,0,0,1.031.028l2.056-1.84a11.255,11.255,0,0,0,2.25.937l.15,2.749A.75.75,0,0,0,16,38.5h3V37H16.71l-.142-2.583a.75.75,0,0,0-.575-.688,9.75,9.75,0,0,1-2.85-1.184.75.75,0,0,0-.894.079l-1.931,1.731L8.145,32.18l1.731-1.93a.75.75,0,0,0,.08-.893,9.715,9.715,0,0,1-1.183-2.85.75.75,0,0,0-.689-.575L5.5,25.79V22.71l2.584-.142a.75.75,0,0,0,.688-.575,9.715,9.715,0,0,1,1.183-2.85.75.75,0,0,0-.08-.893L8.144,16.321l2.175-2.175,1.931,1.73a.75.75,0,0,0,.894.08,9.75,9.75,0,0,1,2.85-1.184.75.75,0,0,0,.574-.689L16.71,11.5h3.08l.142,2.583a.75.75,0,0,0,.575.688,9.75,9.75,0,0,1,2.85,1.184.75.75,0,0,0,.894-.08l1.931-1.731,2.175,2.175-1.731,1.93a.75.75,0,0,0-.08.893,9.715,9.715,0,0,1,1.184,2.85.75.75,0,0,0,.688.575L31,22.71v3.08l-2.584.142a.75.75,0,0,0-.688.575,9.715,9.715,0,0,1-1.184,2.85.75.75,0,0,0,.08.893l2.2,2.46,1.118-1L28.1,29.65a11.2,11.2,0,0,0,.938-2.25Z" transform="translate(-1 -2.5)"/>
      <path id="Trazado_1040543" data-name="Trazado 1040543" d="M20.5,19A7.5,7.5,0,1,0,28,26.5,7.5,7.5,0,0,0,20.5,19Zm0,13.5a6,6,0,1,1,6-6,6,6,0,0,1-6,6Z" transform="translate(-3.25 -4.75)"/>
      <path id="Trazado_1040544" data-name="Trazado 1040544" d="M19.47,25.293l-2.25,2.25a.75.75,0,0,0,0,1.06l2.25,2.25,1.06-1.06-1.72-1.72,1.72-1.72Z" transform="translate(-4.25 -6.323)"/>
      <path id="Trazado_1040545" data-name="Trazado 1040545" d="M24.293,26.354l1.72,1.72-1.72,1.72,1.06,1.061L27.6,28.6a.75.75,0,0,0,0-1.06l-2.25-2.25Z" transform="translate(-6.073 -6.323)"/>
      <rect id="Rectángulo_416531" data-name="Rectángulo 416531" width="12" height="2" transform="translate(33 17)"/>
      <rect id="Rectángulo_416532" data-name="Rectángulo 416532" width="7" height="2" transform="translate(38 14)"/>
      <rect id="Rectángulo_416533" data-name="Rectángulo 416533" width="12" height="2" transform="translate(33 11)"/>
      <rect id="Rectángulo_416534" data-name="Rectángulo 416534" width="3" height="2" transform="translate(33 14)"/>
    </g>
  </g>
</svg>
