<svg xmlns="http://www.w3.org/2000/svg" xmlns:xlink="http://www.w3.org/1999/xlink" width="113" height="113" viewBox="0 0 113 113">
  <defs>
    <filter id="Trazado_982547" x="0" y="0" width="113" height="113" filterUnits="userSpaceOnUse">
      <feOffset dy="3" input="SourceAlpha"/>
      <feGaussianBlur stdDeviation="3" result="blur"/>
      <feFlood flood-opacity="0.161"/>
      <feComposite operator="in" in2="blur"/>
      <feComposite in="SourceGraphic"/>
    </filter>
  </defs>
  <g id="Grupo_1178542" data-name="Grupo 1178542" transform="translate(-586.06 -3025.253)">
    <g id="Grupo_1178321" data-name="Grupo 1178321" transform="translate(595.061 3031.253)">
      <g id="Grupo_1172010" data-name="Grupo 1172010" transform="translate(0)">
        <g id="Grupo_1171046" data-name="Grupo 1171046">
          <g id="Grupo_1148525" data-name="Grupo 1148525">
            <g transform="matrix(1, 0, 0, 1, -9, -6)" filter="url(#Trazado_982547)">
              <g id="Trazado_982547-2" data-name="Trazado 982547" transform="translate(9 6)" fill="#fef4ec">
                <path d="M 47.5 93.5 C 41.28937149047852 93.5 35.26533508300781 92.28397369384766 29.59518623352051 89.88570404052734 C 24.11771965026855 87.56893157958984 19.19813346862793 84.25196075439453 14.97309303283691 80.02691650390625 C 10.74804019927979 75.80186462402344 7.431066513061523 70.88229370117188 5.114293098449707 65.40481567382812 C 2.716026782989502 59.73468017578125 1.5 53.71062850952148 1.5 47.5 C 1.5 41.28937149047852 2.716026782989502 35.26533508300781 5.114293098449707 29.59518623352051 C 7.431066513061523 24.11771965026855 10.74804019927979 19.19813346862793 14.97309303283691 14.97309303283691 C 19.19813346862793 10.74804019927979 24.11771965026855 7.431066513061523 29.59518623352051 5.114293098449707 C 35.26533508300781 2.716026782989502 41.28937149047852 1.5 47.5 1.5 C 53.71062850952148 1.5 59.73468017578125 2.716026782989502 65.40481567382812 5.114293098449707 C 70.88229370117188 7.431066513061523 75.80186462402344 10.74804019927979 80.02691650390625 14.97309303283691 C 84.25196075439453 19.19813346862793 87.56893157958984 24.11771965026855 89.88570404052734 29.59518623352051 C 92.28397369384766 35.26533508300781 93.5 41.28937149047852 93.5 47.5 C 93.5 53.71062850952148 92.28397369384766 59.73468017578125 89.88570404052734 65.40481567382812 C 87.56893157958984 70.88229370117188 84.25196075439453 75.80186462402344 80.02691650390625 80.02691650390625 C 75.80186462402344 84.25196075439453 70.88229370117188 87.56893157958984 65.40481567382812 89.88570404052734 C 59.73468017578125 92.28397369384766 53.71062850952148 93.5 47.5 93.5 Z" stroke="none"/>
                <path d="M 47.5 3 C 41.49121475219727 3 35.66376876831055 4.176155090332031 30.17950439453125 6.495796203613281 C 24.88084411621094 8.736953735351562 20.12152099609375 11.94598388671875 16.03375244140625 16.03375244140625 C 11.94598388671875 20.12152099609375 8.736953735351562 24.88084411621094 6.495796203613281 30.17950439453125 C 4.176155090332031 35.66376876831055 3 41.49121475219727 3 47.5 C 3 53.50878524780273 4.176155090332031 59.33623123168945 6.495796203613281 64.82049560546875 C 8.736953735351562 70.11915588378906 11.94598388671875 74.87847900390625 16.03375244140625 78.96624755859375 C 20.12152099609375 83.05401611328125 24.88084411621094 86.26304626464844 30.17950439453125 88.50419616699219 C 35.66376876831055 90.82384490966797 41.49121475219727 92 47.5 92 C 53.50878524780273 92 59.33623123168945 90.82384490966797 64.82049560546875 88.50419616699219 C 70.11915588378906 86.26304626464844 74.87847900390625 83.05401611328125 78.96624755859375 78.96624755859375 C 83.05401611328125 74.87847900390625 86.26304626464844 70.11915588378906 88.50419616699219 64.82049560546875 C 90.82384490966797 59.33623123168945 92 53.50878524780273 92 47.5 C 92 41.49121475219727 90.82384490966797 35.66376876831055 88.50419616699219 30.17950439453125 C 86.26304626464844 24.88084411621094 83.05401611328125 20.12152099609375 78.96624755859375 16.03375244140625 C 74.87847900390625 11.94598388671875 70.11915588378906 8.736953735351562 64.82049560546875 6.495796203613281 C 59.33623123168945 4.176155090332031 53.50878524780273 3 47.5 3 M 47.5 0 C 73.7335205078125 0 95 21.2664794921875 95 47.5 C 95 73.7335205078125 73.7335205078125 95 47.5 95 C 21.2664794921875 95 0 73.7335205078125 0 47.5 C 0 21.2664794921875 21.2664794921875 0 47.5 0 Z" stroke="none" fill="#fe9d52"/>
              </g>
            </g>
          </g>
        </g>
      </g>
    </g>
    <g id="statistics_7026678" transform="translate(165.339 2601.339)">
      <g id="Icon" transform="translate(451 451)">
        <g id="Grupo_1178521" data-name="Grupo 1178521" transform="translate(8.274 0.919)">
          <g id="Grupo_1178518" data-name="Grupo 1178518">
            <path id="Trazado_1040293" data-name="Trazado 1040293" d="M624.129,199.677A3.678,3.678,0,0,0,620.451,196H583.677A3.678,3.678,0,0,0,580,199.677v44.129a3.678,3.678,0,0,0,3.677,3.677h36.774a3.678,3.678,0,0,0,3.677-3.677Z" transform="translate(-580 -196)" fill="#e0e0e0" fill-rule="evenodd"/>
          </g>
          <g id="Grupo_1178519" data-name="Grupo 1178519">
            <path id="Trazado_1040294" data-name="Trazado 1040294" d="M580,207.032h44.129v-7.355A3.678,3.678,0,0,0,620.451,196H583.677A3.678,3.678,0,0,0,580,199.677Z" transform="translate(-580 -196)" fill="#1397e1" fill-rule="evenodd"/>
          </g>
          <g id="Grupo_1178520" data-name="Grupo 1178520" transform="translate(4.042 3.199)">
            <ellipse id="Elipse_12542" data-name="Elipse 12542" cx="1.5" cy="2.5" rx="1.5" ry="2.5" transform="translate(0.345 -0.457)" fill="#ff6c5c"/>
          </g>
        </g>
        <g id="Grupo_1178522" data-name="Grupo 1178522" transform="translate(19.488 4.118)">
          <ellipse id="Elipse_12543" data-name="Elipse 12543" cx="1.5" cy="2.5" rx="1.5" ry="2.5" transform="translate(0.173 -0.457)" fill="#ffce4b"/>
        </g>
        <g id="Grupo_1178523" data-name="Grupo 1178523" transform="translate(26.661 4.118)">
          <ellipse id="Elipse_12544" data-name="Elipse 12544" cx="2" cy="2.5" rx="2" ry="2.5" transform="translate(0 -0.457)" fill="#2dcc70"/>
        </g>
        <g id="Grupo_1178524" data-name="Grupo 1178524" transform="translate(34.016 4.597)">
          <path id="Trazado_1040295" data-name="Trazado 1040295" d="M622.71,201.839A1.838,1.838,0,0,0,620.871,200H609.839a1.839,1.839,0,0,0,0,3.677h11.032A1.838,1.838,0,0,0,622.71,201.839Z" transform="translate(-608 -200)" fill="#e0e0e0" fill-rule="evenodd"/>
        </g>
        <g id="Grupo_1178525" data-name="Grupo 1178525" transform="translate(0.919 41.371)">
          <path id="Trazado_1040296" data-name="Trazado 1040296" d="M199.677,369.839a1.839,1.839,0,0,0-3.677,0v7.355a1.839,1.839,0,1,0,3.677,0Z" transform="translate(-196 -368)" fill="#ff6c5c" fill-rule="evenodd"/>
        </g>
        <g id="Grupo_1178526" data-name="Grupo 1178526" transform="translate(22.982 30.339)">
          <path id="Trazado_1040297" data-name="Trazado 1040297" d="M199.677,357.839a1.839,1.839,0,0,0-3.677,0v18.387a1.839,1.839,0,0,0,3.677,0Z" transform="translate(-196 -356)" fill="#2dcc70" fill-rule="evenodd"/>
        </g>
        <g id="Grupo_1178527" data-name="Grupo 1178527" transform="translate(15.631 37.693)">
          <path id="Trazado_1040298" data-name="Trazado 1040298" d="M199.677,365.839a1.839,1.839,0,0,0-3.677,0v11.032a1.839,1.839,0,1,0,3.677,0Z" transform="translate(-196 -364)" fill="#ff6c5c" fill-rule="evenodd"/>
        </g>
        <g id="Grupo_1178528" data-name="Grupo 1178528" transform="translate(4.595 19.306)">
          <path id="Trazado_1040299" data-name="Trazado 1040299" d="M243.682,353.193v22.064a1.839,1.839,0,1,0,3.677,0V353.193h1.834a1.839,1.839,0,0,0,1.531-2.857l-3.674-5.516a1.838,1.838,0,0,0-3.06,0l-3.681,5.516a1.838,1.838,0,0,0,1.529,2.859Z" transform="translate(-240 -344)" fill="#2dcc70" fill-rule="evenodd"/>
        </g>
        <g id="Grupo_1178529" data-name="Grupo 1178529" transform="translate(30.798 31.639)">
          <path id="Trazado_1040300" data-name="Trazado 1040300" d="M463.139,230.2l1.625-1.624a7.357,7.357,0,0,1,4.006-2.057l5.56-.916-9.193-9.194-.916,5.56a7.357,7.357,0,0,1-2.057,4.006l-1.624,1.624a1.838,1.838,0,1,0,2.6,2.6Z" transform="translate(-460 -216.414)" fill="#ffce4b" fill-rule="evenodd"/>
        </g>
        <g id="Grupo_1178530" data-name="Grupo 1178530" transform="translate(35.395 28.5)">
          <path id="Trazado_1040301" data-name="Trazado 1040301" d="M467.539,214.139l9.194,9.194a1.838,1.838,0,1,0,2.6-2.6l-9.193-9.193a1.838,1.838,0,0,0-2.6,2.6Z" transform="translate(-467 -211)" fill="#ff6c5c" fill-rule="evenodd"/>
        </g>
        <g id="Grupo_1178531" data-name="Grupo 1178531" transform="translate(30.798 39.628)">
          <path id="Trazado_1040302" data-name="Trazado 1040302" d="M463.362,225.1a7.367,7.367,0,0,1-1.2,1.577l-1.624,1.624a1.838,1.838,0,0,0,2.6,2.6l1.625-1.624a7.351,7.351,0,0,1,1.36-1.071Z" transform="translate(-460 -225.104)" fill="#ff6c5c" fill-rule="evenodd"/>
        </g>
        <g id="Grupo_1178532" data-name="Grupo 1178532" transform="translate(34.181 42.733)">
          <path id="Trazado_1040303" data-name="Trazado 1040303" d="M466.42,228.482a7.351,7.351,0,0,0-1.36,1.071l-1.381,1.381,2.6,2.924a1.839,1.839,0,1,0,2.749-2.444Z" transform="translate(-463.679 -228.482)" fill="#ffce4b" fill-rule="evenodd"/>
        </g>
        <path id="Trazado_1040304" data-name="Trazado 1040304" d="M459,455.6v11.032a.919.919,0,0,0,1.839,0v-2.758h10.113a.919.919,0,0,0,0-1.839H460.839V455.6a2.758,2.758,0,0,1,2.758-2.758h36.774a2.758,2.758,0,0,1,2.758,2.758v6.435h-28.5a.919.919,0,1,0,0,1.839h28.5v35.855a2.759,2.759,0,0,1-2.758,2.758H481.984a.919.919,0,0,0,0,1.839h18.387a4.6,4.6,0,0,0,4.6-4.6V455.6a4.6,4.6,0,0,0-4.6-4.6H463.6A4.6,4.6,0,0,0,459,455.6Z" transform="translate(-451.645 -451)" fill-rule="evenodd"/>
        <g id="Grupo_1178533" data-name="Grupo 1178533" transform="translate(11.032 3.677)">
          <path id="Trazado_1040305" data-name="Trazado 1040305" d="M585.758,199a2.758,2.758,0,1,0,2.758,2.758A2.759,2.759,0,0,0,585.758,199Zm0,1.839a.919.919,0,1,1-.919.919A.92.92,0,0,1,585.758,200.839Z" transform="translate(-583 -199)" fill-rule="evenodd"/>
        </g>
        <g id="Grupo_1178534" data-name="Grupo 1178534" transform="translate(18.387 3.677)">
          <path id="Trazado_1040306" data-name="Trazado 1040306" d="M585.758,199a2.758,2.758,0,1,0,2.758,2.758A2.759,2.759,0,0,0,585.758,199Zm0,1.839a.919.919,0,1,1-.919.919A.92.92,0,0,1,585.758,200.839Z" transform="translate(-583 -199)" fill-rule="evenodd"/>
        </g>
        <g id="Grupo_1178535" data-name="Grupo 1178535" transform="translate(25.742 3.677)">
          <path id="Trazado_1040307" data-name="Trazado 1040307" d="M585.758,199a2.758,2.758,0,1,0,2.758,2.758A2.759,2.759,0,0,0,585.758,199Zm0,1.839a.919.919,0,1,1-.919.919A.92.92,0,0,1,585.758,200.839Z" transform="translate(-583 -199)" fill-rule="evenodd"/>
        </g>
        <path id="Trazado_1040308" data-name="Trazado 1040308" d="M487,457.758a2.758,2.758,0,0,0,2.758,2.758H500.79a2.758,2.758,0,1,0,0-5.516H489.758A2.758,2.758,0,0,0,487,457.758Zm14.71,0a.92.92,0,0,0-.919-.919H489.758a.919.919,0,0,0,0,1.839H500.79A.92.92,0,0,0,501.71,457.758Z" transform="translate(-453.903 -451.323)" fill-rule="evenodd"/>
        <path id="Trazado_1040309" data-name="Trazado 1040309" d="M453.758,495A2.758,2.758,0,0,0,451,497.758v7.355a2.758,2.758,0,1,0,5.516,0v-7.355A2.758,2.758,0,0,0,453.758,495Zm0,1.839a.92.92,0,0,0-.919.919v7.355a.919.919,0,1,0,1.839,0v-7.355A.92.92,0,0,0,453.758,496.839Z" transform="translate(-451 -454.549)" fill-rule="evenodd"/>
        <path id="Trazado_1040310" data-name="Trazado 1040310" d="M477.756,483A2.757,2.757,0,0,0,475,485.758v18.387a2.758,2.758,0,0,0,5.516,0V485.758A2.759,2.759,0,0,0,477.756,483Zm0,1.839a.92.92,0,0,0-.919.919v18.387a.919.919,0,0,0,1.839,0V485.758a.92.92,0,0,0-.919-.919Z" transform="translate(-452.935 -453.581)" fill-rule="evenodd"/>
        <path id="Trazado_1040311" data-name="Trazado 1040311" d="M469.76,491A2.758,2.758,0,0,0,467,493.758V504.79a2.758,2.758,0,1,0,5.516,0V493.758A2.758,2.758,0,0,0,469.76,491Zm0,1.839a.919.919,0,0,0-.919.919V504.79a.919.919,0,0,0,1.839,0V493.758A.92.92,0,0,0,469.76,492.839Z" transform="translate(-452.291 -454.226)" fill-rule="evenodd"/>
        <g id="Grupo_1178536" data-name="Grupo 1178536" transform="translate(3.676 18.387)">
          <path id="Trazado_1040312" data-name="Trazado 1040312" d="M242.682,354.032v21.145a2.758,2.758,0,1,0,5.516,0V354.032h.915a2.758,2.758,0,0,0,2.3-4.287l-3.673-5.516a2.759,2.759,0,0,0-4.59,0l-3.681,5.516a2.758,2.758,0,0,0,2.294,4.289Zm1.839-.919a.92.92,0,0,0-.919-.919h-1.843a.919.919,0,0,1-.765-1.43l3.682-5.516a.919.919,0,0,1,1.53,0l3.673,5.516a.919.919,0,0,1-.765,1.429h-1.834a.919.919,0,0,0-.919.919v22.064a.919.919,0,1,1-1.839,0Z" transform="translate(-239 -343)" fill-rule="evenodd"/>
        </g>
        <path id="Trazado_1040313" data-name="Trazado 1040313" d="M487.714,499.891l2,2.248a2.758,2.758,0,1,0,4.122-3.665l-1.81-2.037a6.467,6.467,0,0,1,1.312-.362l5.151-.848A2.758,2.758,0,0,0,502,491l-9.193-9.193a2.758,2.758,0,0,0-4.224,3.51l-.849,5.151a6.436,6.436,0,0,1-1.8,3.5l-1.625,1.624a2.758,2.758,0,0,0,3.406,4.292Zm2.683-2.518a6.472,6.472,0,0,0-.565.5l-.768.768,2.023,2.275a.919.919,0,0,0,1.374-1.222Zm-2.515-2.83L489.173,496a8.239,8.239,0,0,0-.641.576l-1.624,1.625a.919.919,0,0,1-1.3-1.3l1.625-1.624A8.27,8.27,0,0,0,487.882,494.543Zm2.861.451-1.856-2.088a8.233,8.233,0,0,0,.659-2.138l.625-3.793,6.661,6.661-3.793.625a8.291,8.291,0,0,0-2.3.734Zm-.538-10.586a.919.919,0,1,1,1.3-1.3L500.7,492.3a.919.919,0,0,1-1.3,1.3Z" transform="translate(-453.621 -453.42)" fill-rule="evenodd"/>
        <g id="Grupo_1178537" data-name="Grupo 1178537" transform="translate(44.13 28.5)">
          <path id="Trazado_1040314" data-name="Trazado 1040314" d="M251.027,101.269l-2.757,2.758a.919.919,0,0,0,1.3,1.3l2.757-2.758a.919.919,0,0,0-1.3-1.3Z" transform="translate(-248 -101)" fill-rule="evenodd"/>
        </g>
        <g id="Grupo_1178538" data-name="Grupo 1178538" transform="translate(42.291 27.581)">
          <path id="Trazado_1040315" data-name="Trazado 1040315" d="M246.839,103.758v-1.839a.919.919,0,0,0-1.839,0v1.839a.919.919,0,1,0,1.839,0Z" transform="translate(-245 -101)" fill-rule="evenodd"/>
        </g>
        <g id="Grupo_1178539" data-name="Grupo 1178539" transform="translate(45.968 33.097)">
          <path id="Trazado_1040316" data-name="Trazado 1040316" d="M249.919,108.839h1.838a.919.919,0,0,0,0-1.839h-1.838a.919.919,0,1,0,0,1.839Z" transform="translate(-249 -107)" fill-rule="evenodd"/>
        </g>
        <path id="Trazado_1040317" data-name="Trazado 1040317" d="M471.919,472.839H475.6a.919.919,0,0,0,0-1.839h-3.677a.919.919,0,1,0,0,1.839Z" transform="translate(-452.613 -452.613)" fill-rule="evenodd"/>
        <path id="Trazado_1040318" data-name="Trazado 1040318" d="M479.919,472.839h14.71a.919.919,0,0,0,0-1.839h-14.71a.919.919,0,1,0,0,1.839Z" transform="translate(-453.258 -452.613)" fill-rule="evenodd"/>
        <g id="Grupo_1178540" data-name="Grupo 1178540" transform="translate(18.387 22.064)">
          <path id="Trazado_1040319" data-name="Trazado 1040319" d="M471.919,472.839h22.064a.919.919,0,1,0,0-1.839H471.919a.919.919,0,1,0,0,1.839Z" transform="translate(-471 -471)" fill-rule="evenodd"/>
        </g>
        <g id="Grupo_1178541" data-name="Grupo 1178541" transform="translate(18.387 25.742)">
          <path id="Trazado_1040320" data-name="Trazado 1040320" d="M471.919,472.839h11.032a.919.919,0,1,0,0-1.839H471.919a.919.919,0,1,0,0,1.839Z" transform="translate(-471 -471)" fill-rule="evenodd"/>
        </g>
      </g>
    </g>
  </g>
</svg>
