<svg xmlns="http://www.w3.org/2000/svg" xmlns:xlink="http://www.w3.org/1999/xlink" width="113" height="113" viewBox="0 0 113 113">
  <defs>
    <filter id="Trazado_982547" x="0" y="0" width="113" height="113" filterUnits="userSpaceOnUse">
      <feOffset dy="3" input="SourceAlpha"/>
      <feGaussianBlur stdDeviation="3" result="blur"/>
      <feFlood flood-opacity="0.161"/>
      <feComposite operator="in" in2="blur"/>
      <feComposite in="SourceGraphic"/>
    </filter>
  </defs>
  <g id="Grupo_1178543" data-name="Grupo 1178543" transform="translate(-901.56 -3025.253)">
    <g id="Grupo_1178322" data-name="Grupo 1178322" transform="translate(910.561 3031.253)">
      <g id="Grupo_1172010" data-name="Grupo 1172010" transform="translate(0)">
        <g id="Grupo_1171046" data-name="Grupo 1171046">
          <g id="Grupo_1148525" data-name="Grupo 1148525">
            <g transform="matrix(1, 0, 0, 1, -9, -6)" filter="url(#Trazado_982547)">
              <g id="Trazado_982547-2" data-name="Trazado 982547" transform="translate(9 6)" fill="#fef4ec">
                <path d="M 47.5 93.5 C 41.28937149047852 93.5 35.26533508300781 92.28397369384766 29.59518623352051 89.88570404052734 C 24.11771965026855 87.56893157958984 19.19813346862793 84.25196075439453 14.97309303283691 80.02691650390625 C 10.74804019927979 75.80186462402344 7.431066513061523 70.88229370117188 5.114293098449707 65.40481567382812 C 2.716026782989502 59.73468017578125 1.5 53.71062850952148 1.5 47.5 C 1.5 41.28937149047852 2.716026782989502 35.26533508300781 5.114293098449707 29.59518623352051 C 7.431066513061523 24.11771965026855 10.74804019927979 19.19813346862793 14.97309303283691 14.97309303283691 C 19.19813346862793 10.74804019927979 24.11771965026855 7.431066513061523 29.59518623352051 5.114293098449707 C 35.26533508300781 2.716026782989502 41.28937149047852 1.5 47.5 1.5 C 53.71062850952148 1.5 59.73468017578125 2.716026782989502 65.40481567382812 5.114293098449707 C 70.88229370117188 7.431066513061523 75.80186462402344 10.74804019927979 80.02691650390625 14.97309303283691 C 84.25196075439453 19.19813346862793 87.56893157958984 24.11771965026855 89.88570404052734 29.59518623352051 C 92.28397369384766 35.26533508300781 93.5 41.28937149047852 93.5 47.5 C 93.5 53.71062850952148 92.28397369384766 59.73468017578125 89.88570404052734 65.40481567382812 C 87.56893157958984 70.88229370117188 84.25196075439453 75.80186462402344 80.02691650390625 80.02691650390625 C 75.80186462402344 84.25196075439453 70.88229370117188 87.56893157958984 65.40481567382812 89.88570404052734 C 59.73468017578125 92.28397369384766 53.71062850952148 93.5 47.5 93.5 Z" stroke="none"/>
                <path d="M 47.5 3 C 41.49121475219727 3 35.66376876831055 4.176155090332031 30.17950439453125 6.495796203613281 C 24.88084411621094 8.736953735351562 20.12152099609375 11.94598388671875 16.03375244140625 16.03375244140625 C 11.94598388671875 20.12152099609375 8.736953735351562 24.88084411621094 6.495796203613281 30.17950439453125 C 4.176155090332031 35.66376876831055 3 41.49121475219727 3 47.5 C 3 53.50878524780273 4.176155090332031 59.33623123168945 6.495796203613281 64.82049560546875 C 8.736953735351562 70.11915588378906 11.94598388671875 74.87847900390625 16.03375244140625 78.96624755859375 C 20.12152099609375 83.05401611328125 24.88084411621094 86.26304626464844 30.17950439453125 88.50419616699219 C 35.66376876831055 90.82384490966797 41.49121475219727 92 47.5 92 C 53.50878524780273 92 59.33623123168945 90.82384490966797 64.82049560546875 88.50419616699219 C 70.11915588378906 86.26304626464844 74.87847900390625 83.05401611328125 78.96624755859375 78.96624755859375 C 83.05401611328125 74.87847900390625 86.26304626464844 70.11915588378906 88.50419616699219 64.82049560546875 C 90.82384490966797 59.33623123168945 92 53.50878524780273 92 47.5 C 92 41.49121475219727 90.82384490966797 35.66376876831055 88.50419616699219 30.17950439453125 C 86.26304626464844 24.88084411621094 83.05401611328125 20.12152099609375 78.96624755859375 16.03375244140625 C 74.87847900390625 11.94598388671875 70.11915588378906 8.736953735351562 64.82049560546875 6.495796203613281 C 59.33623123168945 4.176155090332031 53.50878524780273 3 47.5 3 M 47.5 0 C 73.7335205078125 0 95 21.2664794921875 95 47.5 C 95 73.7335205078125 73.7335205078125 95 47.5 95 C 21.2664794921875 95 0 73.7335205078125 0 47.5 C 0 21.2664794921875 21.2664794921875 0 47.5 0 Z" stroke="none" fill="#fe9d52"/>
              </g>
            </g>
          </g>
        </g>
      </g>
    </g>
    <g id="analytics_10334134" transform="translate(912.214 2998.265)">
      <path id="Trazado_1040321" data-name="Trazado 1040321" d="M343.174,86.068l-8.46-14.651a1.874,1.874,0,0,0-3.249,0l-8.459,14.649a1.878,1.878,0,0,0,1.626,2.816h16.914a1.878,1.878,0,0,0,1.627-2.815Z" transform="translate(-269.79 -13.935)" fill="#ffdf40"/>
      <path id="Trazado_1040322" data-name="Trazado 1040322" d="M404.451,71.415a1.81,1.81,0,0,0-1.623-.94h0v18.4h8.457a1.878,1.878,0,0,0,1.627-2.815Z" transform="translate(-339.526 -13.933)" fill="#ffbe40"/>
      <path id="Trazado_1040323" data-name="Trazado 1040323" d="M54.842,77.013H71.756A3.943,3.943,0,0,0,75.171,71.1L66.713,56.45a3.94,3.94,0,0,0-6.826,0L51.429,71.1a3.943,3.943,0,0,0,3.414,5.915Zm-1.626-4.881,8.459-14.649a1.874,1.874,0,0,1,3.249,0l8.46,14.65a1.878,1.878,0,0,1-1.627,2.815H54.842a1.878,1.878,0,0,1-1.626-2.816Zm21.46,32.3H72.837V87.22A1.033,1.033,0,0,0,71.8,86.187H66.232A1.033,1.033,0,0,0,65.2,87.22v17.213H63.43v-8.6A1.033,1.033,0,0,0,62.4,94.8H56.826a1.033,1.033,0,0,0-1.033,1.033v8.6H54.02v-12.5A1.033,1.033,0,0,0,52.988,90.9H47.416a1.033,1.033,0,0,0-1.033,1.033v12.5H44.614v-5.96a1.033,1.033,0,0,0-1.033-1.033H38.01a1.033,1.033,0,0,0-1.033,1.033v5.959H35.138a1.033,1.033,0,1,0,0,2.065H74.676a1.033,1.033,0,0,0,0-2.065Zm-7.412-16.18h3.507v16.18H67.265Zm-9.406,8.616h3.507v7.564H57.858Zm-9.41-3.9h3.507v11.464H48.448Zm-9.406,6.538h3.507v4.927H39.042Zm9.306-11.872L54,84.814l2.69,2.76a1.033,1.033,0,0,0,1.256.174l11.19-6.461-.231.862a1.033,1.033,0,1,0,1.994.535l.878-3.271a1.033,1.033,0,0,0-.731-1.265l-3.271-.874a1.032,1.032,0,1,0-.533,1.995l.861.23-10.494,6.06-2.656-2.725a1.033,1.033,0,0,0-1.2-.2L49.613,84.7a18.832,18.832,0,1,0-1.265,2.938Zm.121-9.884h-6.75a10.014,10.014,0,0,0-8.91-8.91V62.09A16.75,16.75,0,0,1,48.469,77.75ZM23.844,78.783a7.932,7.932,0,1,1,2.584,5.86,7.932,7.932,0,0,1-2.584-5.86Zm6.9-16.694v6.75a9.995,9.995,0,0,0-6.727,16.243l-4.769,4.771a16.717,16.717,0,0,1,11.5-27.765Zm1.033,33.424a16.655,16.655,0,0,1-11.068-4.2l4.768-4.771a9.993,9.993,0,0,0,16.244-6.729h6.75a16.608,16.608,0,0,1-1.648,6.273L38.569,90.2a1.033,1.033,0,1,0,.922,1.848L44.609,89.5a16.7,16.7,0,0,1-12.834,6.015ZM60.964,66.857a2.338,2.338,0,0,0,4.675,0l.234-4.612a2.431,2.431,0,0,0-.68-1.812,2.607,2.607,0,0,0-3.786,0,2.429,2.429,0,0,0-.68,1.811Zm1.94-5a.542.542,0,0,1,.791,0,.386.386,0,0,1,.116.284l-.234,4.613a.316.316,0,0,1-.275.326.313.313,0,0,1-.275-.327l-.238-4.614a.384.384,0,0,1,.114-.282Zm.4,7.469a2.341,2.341,0,1,0,2.339,2.342A2.341,2.341,0,0,0,63.3,69.324Zm0,2.616a.275.275,0,1,1,.273-.274.275.275,0,0,1-.273.274Z"/>
      <path id="Trazado_1040324" data-name="Trazado 1040324" d="M83.891,259.761a9.971,9.971,0,0,1-6.3-2.239l-4.768,4.771a16.7,16.7,0,0,0,23.9-1.816l-5.119,2.553a1.033,1.033,0,1,1-.922-1.848l8.251-4.115a16.611,16.611,0,0,0,1.648-6.273h-6.75A10.012,10.012,0,0,1,83.891,259.761Z" transform="translate(-52.116 -170.978)" fill="#ec4c36"/>
      <path id="Trazado_1040325" data-name="Trazado 1040325" d="M175.486,129.111h6.75a16.75,16.75,0,0,0-15.661-15.661v6.75A10.014,10.014,0,0,1,175.486,129.111Z" transform="translate(-133.768 -51.361)" fill="#ffbe40"/>
      <path id="Trazado_1040326" data-name="Trazado 1040326" d="M37.951,136.447A9.995,9.995,0,0,1,44.678,120.2v-6.75a16.717,16.717,0,0,0-11.5,27.764Z" transform="translate(-13.935 -51.364)" fill="#6cf"/>
      <path id="Trazado_1040327" data-name="Trazado 1040327" d="M214.881,403.351h3.507v4.927h-3.507Z" transform="translate(-175.839 -303.845)" fill="#ec4c36"/>
      <path id="Trazado_1040328" data-name="Trazado 1040328" d="M360.667,382.914h3.507v7.564h-3.507Z" transform="translate(-302.809 -286.046)" fill="#8cd96b"/>
      <path id="Trazado_1040329" data-name="Trazado 1040329" d="M287.76,352.7h3.507V364.16H287.76Z" transform="translate(-239.312 -259.728)" fill="#ffbe40"/>
      <path id="Trazado_1040330" data-name="Trazado 1040330" d="M433.546,316.158h3.507v16.18h-3.507Z" transform="translate(-366.281 -227.906)" fill="#6cf"/>
      <path id="Trazado_1040331" data-name="Trazado 1040331" d="M399.38,110.305a.559.559,0,0,0-.4.172.384.384,0,0,0-.115.282l.238,4.614a.279.279,0,1,0,.55,0l.234-4.613a.386.386,0,0,0-.116-.284A.554.554,0,0,0,399.38,110.305Z" transform="translate(-336.079 -48.622)" fill="#ec4c36"/>
      <path id="Trazado_1040332" data-name="Trazado 1040332" d="M400.982,185.508a.275.275,0,1,0,.275.275A.275.275,0,0,0,400.982,185.508Z" transform="translate(-337.681 -114.118)" fill="#ec4c36"/>
      <path id="Trazado_1040333" data-name="Trazado 1040333" d="M109.982,250.79a9.993,9.993,0,0,1-16.243,6.729l-2.375,2.376a13.345,13.345,0,0,0,15.15,1.531,1.03,1.03,0,0,1,.319-.247l.511-.255a13.333,13.333,0,0,0,6-10.133Z" transform="translate(-68.264 -170.975)" fill="#d1311b"/>
      <path id="Trazado_1040334" data-name="Trazado 1040334" d="M55.215,153.048a13.288,13.288,0,0,0,3.206,8.675l2.375-2.377A9.995,9.995,0,0,1,67.523,143.1v-3.356a13.342,13.342,0,0,0-12.308,13.3Z" transform="translate(-36.78 -74.264)" fill="#53bfea"/>
      <path id="Trazado_1040335" data-name="Trazado 1040335" d="M178.847,152.014a13.343,13.343,0,0,0-12.269-12.267V143.1a10.014,10.014,0,0,1,8.91,8.91Z" transform="translate(-133.77 -74.264)" fill="#f4b13b"/>
      <path id="Trazado_1040336" data-name="Trazado 1040336" d="M447.132,316.158h1.753v16.18h-1.753Z" transform="translate(-378.114 -227.906)" fill="#53bfea"/>
      <path id="Trazado_1040337" data-name="Trazado 1040337" d="M374.253,382.914h1.754v7.564h-1.754Z" transform="translate(-314.641 -286.046)" fill="#80c95d"/>
      <path id="Trazado_1040338" data-name="Trazado 1040338" d="M301.346,352.7H303.1V364.16h-1.754Z" transform="translate(-251.144 -259.728)" fill="#f4b13b"/>
      <path id="Trazado_1040339" data-name="Trazado 1040339" d="M228.467,403.351h1.754v4.927h-1.754Z" transform="translate(-187.671 -303.845)" fill="#d1311b"/>
    </g>
  </g>
</svg>
