<svg xmlns="http://www.w3.org/2000/svg" xmlns:xlink="http://www.w3.org/1999/xlink" width="113" height="113" viewBox="0 0 113 113">
  <defs>
    <filter id="Trazado_982547" x="0" y="0" width="113" height="113" filterUnits="userSpaceOnUse">
      <feOffset dy="3" input="SourceAlpha"/>
      <feGaussianBlur stdDeviation="3" result="blur"/>
      <feFlood flood-opacity="0.161"/>
      <feComposite operator="in" in2="blur"/>
      <feComposite in="SourceGraphic"/>
    </filter>
  </defs>
  <g id="Grupo_1178899" data-name="Grupo 1178899" transform="translate(-272 -3422.045)">
    <g id="Grupo_1178491" data-name="Grupo 1178491" transform="translate(281 3428.045)">
      <g id="Grupo_1172010" data-name="Grupo 1172010" transform="translate(0)">
        <g id="Grupo_1171046" data-name="Grupo 1171046">
          <g id="Grupo_1148525" data-name="Grupo 1148525">
            <g transform="matrix(1, 0, 0, 1, -9, -6)" filter="url(#Trazado_982547)">
              <g id="Trazado_982547-2" data-name="Trazado 982547" transform="translate(9 6)" fill="#fdeffe">
                <path d="M 47.5 93.5 C 41.28937149047852 93.5 35.26533508300781 92.28397369384766 29.59518623352051 89.88570404052734 C 24.11771965026855 87.56893157958984 19.19813346862793 84.25196075439453 14.97309303283691 80.02691650390625 C 10.74804019927979 75.80186462402344 7.431066513061523 70.88229370117188 5.114293098449707 65.40481567382812 C 2.716026782989502 59.73468017578125 1.5 53.71062850952148 1.5 47.5 C 1.5 41.28937149047852 2.716026782989502 35.26533508300781 5.114293098449707 29.59518623352051 C 7.431066513061523 24.11771965026855 10.74804019927979 19.19813346862793 14.97309303283691 14.97309303283691 C 19.19813346862793 10.74804019927979 24.11771965026855 7.431066513061523 29.59518623352051 5.114293098449707 C 35.26533508300781 2.716026782989502 41.28937149047852 1.5 47.5 1.5 C 53.71062850952148 1.5 59.73468017578125 2.716026782989502 65.40481567382812 5.114293098449707 C 70.88229370117188 7.431066513061523 75.80186462402344 10.74804019927979 80.02691650390625 14.97309303283691 C 84.25196075439453 19.19813346862793 87.56893157958984 24.11771965026855 89.88570404052734 29.59518623352051 C 92.28397369384766 35.26533508300781 93.5 41.28937149047852 93.5 47.5 C 93.5 53.71062850952148 92.28397369384766 59.73468017578125 89.88570404052734 65.40481567382812 C 87.56893157958984 70.88229370117188 84.25196075439453 75.80186462402344 80.02691650390625 80.02691650390625 C 75.80186462402344 84.25196075439453 70.88229370117188 87.56893157958984 65.40481567382812 89.88570404052734 C 59.73468017578125 92.28397369384766 53.71062850952148 93.5 47.5 93.5 Z" stroke="none"/>
                <path d="M 47.5 3 C 41.49121475219727 3 35.66376876831055 4.176155090332031 30.17950439453125 6.495796203613281 C 24.88084411621094 8.736953735351562 20.12152099609375 11.94598388671875 16.03375244140625 16.03375244140625 C 11.94598388671875 20.12152099609375 8.736953735351562 24.88084411621094 6.495796203613281 30.17950439453125 C 4.176155090332031 35.66376876831055 3 41.49121475219727 3 47.5 C 3 53.50878524780273 4.176155090332031 59.33623123168945 6.495796203613281 64.82049560546875 C 8.736953735351562 70.11915588378906 11.94598388671875 74.87847900390625 16.03375244140625 78.96624755859375 C 20.12152099609375 83.05401611328125 24.88084411621094 86.26304626464844 30.17950439453125 88.50419616699219 C 35.66376876831055 90.82384490966797 41.49121475219727 92 47.5 92 C 53.50878524780273 92 59.33623123168945 90.82384490966797 64.82049560546875 88.50419616699219 C 70.11915588378906 86.26304626464844 74.87847900390625 83.05401611328125 78.96624755859375 78.96624755859375 C 83.05401611328125 74.87847900390625 86.26304626464844 70.11915588378906 88.50419616699219 64.82049560546875 C 90.82384490966797 59.33623123168945 92 53.50878524780273 92 47.5 C 92 41.49121475219727 90.82384490966797 35.66376876831055 88.50419616699219 30.17950439453125 C 86.26304626464844 24.88084411621094 83.05401611328125 20.12152099609375 78.96624755859375 16.03375244140625 C 74.87847900390625 11.94598388671875 70.11915588378906 8.736953735351562 64.82049560546875 6.495796203613281 C 59.33623123168945 4.176155090332031 53.50878524780273 3 47.5 3 M 47.5 0 C 73.7335205078125 0 95 21.2664794921875 95 47.5 C 95 73.7335205078125 73.7335205078125 95 47.5 95 C 21.2664794921875 95 0 73.7335205078125 0 47.5 C 0 21.2664794921875 21.2664794921875 0 47.5 0 Z" stroke="none" fill="#ee70f7"/>
              </g>
            </g>
          </g>
        </g>
      </g>
    </g>
    <g id="agency_4200007" transform="translate(298 3445)">
      <g id="Grupo_1178897" data-name="Grupo 1178897">
        <g id="Grupo_1178876" data-name="Grupo 1178876">
          <path id="Trazado_1041048" data-name="Trazado 1041048" d="M47,25l4,6-4,2.35Z" fill="#cf9e76"/>
        </g>
        <g id="Grupo_1178877" data-name="Grupo 1178877">
          <path id="Trazado_1041049" data-name="Trazado 1041049" d="M15,15.52V29a3.995,3.995,0,0,0-4,4V27.16a6.059,6.059,0,0,1,.43-2.23l3.39-8.48a2.482,2.482,0,0,0,.18-.93Z" fill="#cf9e76"/>
        </g>
        <g id="Grupo_1178878" data-name="Grupo 1178878">
          <path id="Trazado_1041050" data-name="Trazado 1041050" d="M49,42.09a1.657,1.657,0,0,1-1.05,1.51.035.035,0,0,1-.02.01,1.656,1.656,0,0,1-1.82-.33l-.77-.77-2.83,2.83.77.77a1.584,1.584,0,0,1,.36.56L34,41l6.8-4,.2-.12,6-3.53L51,31V41H49Z" fill="#dfb28b"/>
        </g>
        <g id="Grupo_1178879" data-name="Grupo 1178879">
          <path id="Trazado_1041051" data-name="Trazado 1041051" d="M21,36.88l.2.12L28,41l-9.01,5.3a9.481,9.481,0,0,0-.66-2.97l-.76-1.9A7.925,7.925,0,0,1,17,38.46V34.53Z" fill="#dfb28b"/>
        </g>
        <g id="Grupo_1178880" data-name="Grupo 1178880">
          <path id="Trazado_1041052" data-name="Trazado 1041052" d="M18.01,50.97A9.3,9.3,0,0,0,19,46.8c0-.17,0-.33-.01-.5L28,41h6l9.64,5.67a1.716,1.716,0,0,1-.03,1.26.035.035,0,0,1-.01.02A1.657,1.657,0,0,1,42.09,49H41v2H18.01L18,50.99Z" fill="#d3a06c"/>
        </g>
        <g id="Grupo_1178881" data-name="Grupo 1178881">
          <path id="Trazado_1041053" data-name="Trazado 1041053" d="M40.8,37,34,41H28l-6.8-4H40.8Z" fill="#e6e9ed"/>
        </g>
        <g id="Grupo_1178882" data-name="Grupo 1178882">
          <path id="Trazado_1041054" data-name="Trazado 1041054" d="M47,25v8.35l-6,3.53a9.953,9.953,0,0,0-4.31-8.09v-.01q-.39-.27-.81-.51A6.018,6.018,0,0,0,39,23h1a3,3,0,0,0,2.64-4.43A19.483,19.483,0,0,0,43,14.84,9.833,9.833,0,0,0,33.16,5H28.84A9.833,9.833,0,0,0,19,14.84a19.483,19.483,0,0,0,.36,3.73A3,3,0,0,0,22,23h1a6.018,6.018,0,0,0,3.12,5.27q-.42.24-.81.51v.01A9.953,9.953,0,0,0,21,36.88l-4-2.35V31a2.006,2.006,0,0,0-2-2V2a1,1,0,0,1,1-1H46a1,1,0,0,1,1,1Z" fill="#e6e9ed"/>
        </g>
        <g id="Grupo_1178883" data-name="Grupo 1178883">
          <path id="Trazado_1041055" data-name="Trazado 1041055" d="M32,33l2,4H28l2-4Z" fill="#ff826e"/>
        </g>
        <g id="Grupo_1178884" data-name="Grupo 1178884">
          <path id="Trazado_1041056" data-name="Trazado 1041056" d="M33.2,31.2,32,33H30l-1.2-1.8L31,29Z" fill="#fc6e51"/>
        </g>
        <g id="Grupo_1178885" data-name="Grupo 1178885">
          <path id="Trazado_1041057" data-name="Trazado 1041057" d="M34,37l-2-4,1.2-1.8L35,33l1.69-4.21A9.953,9.953,0,0,1,41,36.88l-.2.12Z" fill="#fcd770"/>
        </g>
        <g id="Grupo_1178886" data-name="Grupo 1178886">
          <path id="Trazado_1041058" data-name="Trazado 1041058" d="M27,33l1.8-1.8L30,33l-2,4H21.2l-.2-.12a9.953,9.953,0,0,1,4.31-8.09Z" fill="#fcd770"/>
        </g>
        <g id="Grupo_1178887" data-name="Grupo 1178887">
          <path id="Trazado_1041059" data-name="Trazado 1041059" d="M33,29a6.034,6.034,0,0,0,2.88-.73q.42.24.81.51v.01L35,33l-1.8-1.8L31,29Z" fill="#ffc729"/>
        </g>
        <g id="Grupo_1178888" data-name="Grupo 1178888">
          <path id="Trazado_1041060" data-name="Trazado 1041060" d="M28.8,31.2,27,33l-1.69-4.21v-.01q.39-.27.81-.51A6.034,6.034,0,0,0,29,29h2Z" fill="#ffc729"/>
        </g>
        <g id="Grupo_1178889" data-name="Grupo 1178889">
          <path id="Trazado_1041061" data-name="Trazado 1041061" d="M51,3H61V7H51Z" fill="#ff826e"/>
        </g>
        <g id="Grupo_1178890" data-name="Grupo 1178890">
          <path id="Trazado_1041062" data-name="Trazado 1041062" d="M25.06,13.5A3.989,3.989,0,0,0,23,17H22a3,3,0,0,0-2.64,1.57A19.483,19.483,0,0,1,19,14.84,9.833,9.833,0,0,1,28.84,5h4.32A9.833,9.833,0,0,1,43,14.84a19.483,19.483,0,0,1-.36,3.73A3,3,0,0,0,40,17H39a3.989,3.989,0,0,0-2.06-3.5,8.92,8.92,0,0,1-.53.91A1.955,1.955,0,0,1,35,15H27A2.016,2.016,0,0,1,25.06,13.5Z" fill="#656d78"/>
        </g>
        <g id="Grupo_1178891" data-name="Grupo 1178891">
          <path id="Trazado_1041063" data-name="Trazado 1041063" d="M17,53l2,8H3L5,51Z" fill="#e6e9ed"/>
        </g>
        <g id="Grupo_1178892" data-name="Grupo 1178892">
          <path id="Trazado_1041064" data-name="Trazado 1041064" d="M51,41h2v1.09a1.657,1.657,0,0,0,1.05,1.51.035.035,0,0,0,.02.01,1.656,1.656,0,0,0,1.82-.33l.77-.77,2.83,2.83-.77.77a1.656,1.656,0,0,0-.33,1.82.035.035,0,0,0,.01.02A1.657,1.657,0,0,0,59.91,49H61v4H59.91a1.657,1.657,0,0,0-1.51,1.05.035.035,0,0,0-.01.02,1.656,1.656,0,0,0,.33,1.82l.77.77-2.83,2.83-.77-.77a1.656,1.656,0,0,0-1.82-.33.035.035,0,0,0-.02.01A1.657,1.657,0,0,0,53,59.91V61H49V59.91a1.657,1.657,0,0,0-1.05-1.51.035.035,0,0,0-.02-.01,1.656,1.656,0,0,0-1.82.33l-.77.77-2.83-2.83.77-.77a1.656,1.656,0,0,0,.33-1.82.035.035,0,0,0-.01-.02A1.657,1.657,0,0,0,42.09,53H41V49h1.09a1.657,1.657,0,0,0,1.51-1.05.035.035,0,0,0,.01-.02,1.716,1.716,0,0,0,.03-1.26,1.584,1.584,0,0,0-.36-.56l-.77-.77,2.83-2.83.77.77a1.656,1.656,0,0,0,1.82.33.035.035,0,0,0,.02-.01A1.657,1.657,0,0,0,49,42.09V41Zm4,10a4,4,0,1,0-4,4A4,4,0,0,0,55,51Z" fill="#fcd770"/>
        </g>
        <g id="Grupo_1178893" data-name="Grupo 1178893">
          <path id="Trazado_1041065" data-name="Trazado 1041065" d="M11,33a3.995,3.995,0,0,1,4-4,2.006,2.006,0,0,1,2,2v7.46a7.925,7.925,0,0,0,.57,2.97l.76,1.9a9.481,9.481,0,0,1,.66,2.97c.01.17.01.33.01.5a9.3,9.3,0,0,1-.99,4.17l-.01.02L17,53,5,51,1.14,31.72A7.937,7.937,0,0,1,1,30.26a7.538,7.538,0,0,1,1.25-4.14l7.93-11.88A2.748,2.748,0,0,1,12.48,13a2.516,2.516,0,0,1,2.34,3.45l-3.39,8.48A6.059,6.059,0,0,0,11,27.16Z" fill="#f0d0b4"/>
        </g>
        <g id="Grupo_1178894" data-name="Grupo 1178894">
          <path id="Trazado_1041066" data-name="Trazado 1041066" d="M40,17a3,3,0,0,1,0,6H39V17Z" fill="#f0d0b4"/>
        </g>
        <g id="Grupo_1178895" data-name="Grupo 1178895">
          <path id="Trazado_1041067" data-name="Trazado 1041067" d="M25.06,13.5A2.016,2.016,0,0,0,27,15h8a1.955,1.955,0,0,0,1.41-.59,8.919,8.919,0,0,0,.53-.91A3.989,3.989,0,0,1,39,17v6a5.984,5.984,0,0,1-6,6H29a5.984,5.984,0,0,1-6-6V17A3.989,3.989,0,0,1,25.06,13.5Z" fill="#f0d0b4"/>
        </g>
        <g id="Grupo_1178896" data-name="Grupo 1178896">
          <path id="Trazado_1041068" data-name="Trazado 1041068" d="M23,17v6H22a3,3,0,1,1,0-6Z" fill="#f0d0b4"/>
        </g>
      </g>
      <g id="Grupo_1178898" data-name="Grupo 1178898">
        <path id="Trazado_1041069" data-name="Trazado 1041069" d="M51,46a5,5,0,1,0,5,5A5.006,5.006,0,0,0,51,46Zm0,8a3,3,0,1,1,3-3A3,3,0,0,1,51,54Z"/>
        <path id="Trazado_1041070" data-name="Trazado 1041070" d="M59.313,47.547a.656.656,0,0,1,.109-.726L60.9,45.34,56.659,41.1,55.18,42.576a.666.666,0,0,1-.751.1A.658.658,0,0,1,54,42.089V40H52V30.7l-4-6V2a2,2,0,0,0-2-2H16a2,2,0,0,0-2,2V12.357A3.479,3.479,0,0,0,12.484,12a3.766,3.766,0,0,0-3.14,1.681L1.422,25.564A8.472,8.472,0,0,0,.164,31.921L3.98,51,1.78,62h18.5L18.06,53.116,18.618,52H40v2h2.089a.67.67,0,0,1,.6.453.656.656,0,0,1-.109.726L41.1,56.66,45.341,60.9l1.479-1.481a.67.67,0,0,1,.751-.1.656.656,0,0,1,.43.588V62h6V59.911a.67.67,0,0,1,.453-.6.658.658,0,0,1,.726.109L56.661,60.9l4.245-4.245L59.425,55.18a.65.65,0,0,1-.114-.719l.014-.032a.656.656,0,0,1,.588-.43H62V48H59.911a.668.668,0,0,1-.6-.452ZM48,40v2.089a.67.67,0,0,1-.453.6.656.656,0,0,1-.726-.109L45.34,41.1l-3.41,3.41L35.973,41,50,32.749V40ZM19.775,44.678a10.275,10.275,0,0,0-.513-1.719l-.761-1.9a6.98,6.98,0,0,1-.5-2.6V36.278L26.027,41ZM22,22a2,2,0,0,1,0-4Zm.112-6H22a3.952,3.952,0,0,0-1.919.512C20.03,15.955,20,15.4,20,14.838A8.848,8.848,0,0,1,28.838,6h4.324A8.848,8.848,0,0,1,42,14.838c0,.558-.03,1.117-.081,1.674A3.952,3.952,0,0,0,40,16h-.112A5,5,0,0,0,38,13a3,3,0,0,0-3-3H34v2h1a1,1,0,0,1,0,2H27a1,1,0,0,1,0-2h1V10H27a3,3,0,0,0-3,3h0a5,5,0,0,0-1.888,3ZM40,18a2,2,0,0,1,0,4ZM24,17a2.986,2.986,0,0,1,.785-1.994A2.982,2.982,0,0,0,27,16h8a2.978,2.978,0,0,0,2.215-.995A2.991,2.991,0,0,1,38,17v6a5.006,5.006,0,0,1-5,5H29a5.006,5.006,0,0,1-5-5Zm9.394,12.98a6.958,6.958,0,0,0,1.884-.368l-.643,1.609Zm-6.029,1.241-.643-1.609a6.958,6.958,0,0,0,1.884.368ZM31,30.414l.913.913L31.465,32h-.93l-.449-.673ZM30.618,34h.764l1,2H29.618Zm4,2-1.464-2.928.2-.3,2.01,2.01,1.747-4.367A9.016,9.016,0,0,1,39.93,36H34.618Zm-9.73-5.588,1.747,4.367,2.01-2.01.2.3L27.382,36H22.071a9.016,9.016,0,0,1,2.817-5.588ZM28.273,40l-3.4-2H37.127l-3.4,2Zm21.308-9.326L48,31.6V28.3ZM16,2H46V32.781l-4.156,2.445a11.043,11.043,0,0,0-4.209-6.994A6.982,6.982,0,0,0,39.92,24H40a4,4,0,0,0,3.671-5.583A20.559,20.559,0,0,0,44,14.838,10.85,10.85,0,0,0,33.162,4H28.838A10.85,10.85,0,0,0,18,14.838a20.577,20.577,0,0,0,.329,3.58A3.994,3.994,0,0,0,22,24h.08a6.982,6.982,0,0,0,2.285,4.231,11.043,11.043,0,0,0-4.209,6.994L18,33.957V31a3,3,0,0,0-2-2.816ZM14,28.1a4.965,4.965,0,0,0-2,.924v-1.87a4.983,4.983,0,0,1,.357-1.857L14,21.193ZM2.125,31.529A6.521,6.521,0,0,1,2,30.261a6.453,6.453,0,0,1,1.086-3.587L11.009,14.79A1.773,1.773,0,0,1,12.485,14,1.517,1.517,0,0,1,14,15.516a1.535,1.535,0,0,1-.108.563L10.5,24.556a6.974,6.974,0,0,0-.5,2.6V40h2V33a3,3,0,0,1,3-3,1,1,0,0,1,1,1v7.459a8.984,8.984,0,0,0,.644,3.344l.761,1.9a8.339,8.339,0,0,1-.285,6.822l-.684,1.368L5.845,50.127ZM4.22,60l1.571-7.854,10.4,1.733L17.719,60ZM19.476,50A10.356,10.356,0,0,0,20,46.869L28.272,42h5.455l9.01,5.3a.859.859,0,0,1-.061.27.655.655,0,0,1-.587.429H40v2ZM60,52h-.089a2.645,2.645,0,0,0-2.436,1.666l.924.382-.932-.364a2.654,2.654,0,0,0,.541,2.911l.066.065-1.415,1.415-.067-.067A2.722,2.722,0,0,0,52,59.911V60H50v-.089a2.723,2.723,0,0,0-4.595-1.9l-.065.066L43.925,56.66l.067-.067A2.723,2.723,0,0,0,42.089,52H42V50h.089a2.723,2.723,0,0,0,1.9-4.595l-.066-.065,1.415-1.415.067.067A2.723,2.723,0,0,0,50,42.089V42h2v.089a2.723,2.723,0,0,0,4.595,1.9l.065-.066,1.415,1.415-.067.067A2.723,2.723,0,0,0,59.911,50H60Z"/>
        <path id="Trazado_1041071" data-name="Trazado 1041071" d="M50,2V8H62V2Zm2,2h2V6H52Zm8,2H56V4h4Z"/>
        <path id="Trazado_1041072" data-name="Trazado 1041072" d="M50,10h6v2H50Z"/>
        <path id="Trazado_1041073" data-name="Trazado 1041073" d="M58,10h4v2H58Z"/>
        <path id="Trazado_1041074" data-name="Trazado 1041074" d="M50,14H62v2H50Z"/>
        <path id="Trazado_1041075" data-name="Trazado 1041075" d="M50,18H62v2H50Z"/>
        <path id="Trazado_1041076" data-name="Trazado 1041076" d="M50,22h2v2H50Z"/>
        <path id="Trazado_1041077" data-name="Trazado 1041077" d="M54,22h2v2H54Z"/>
        <path id="Trazado_1041078" data-name="Trazado 1041078" d="M58,22h2v2H58Z"/>
      </g>
    </g>
  </g>
</svg>
