<svg xmlns="http://www.w3.org/2000/svg" xmlns:xlink="http://www.w3.org/1999/xlink" width="113" height="113" viewBox="0 0 113 113">
  <defs>
    <filter id="Trazado_982547" x="0" y="0" width="113" height="113" filterUnits="userSpaceOnUse">
      <feOffset dy="3" input="SourceAlpha"/>
      <feGaussianBlur stdDeviation="3" result="blur"/>
      <feFlood flood-opacity="0.161"/>
      <feComposite operator="in" in2="blur"/>
      <feComposite in="SourceGraphic"/>
    </filter>
  </defs>
  <g id="Grupo_1178620" data-name="Grupo 1178620" transform="translate(-272 -965.183)">
    <g id="Grupo_1178465" data-name="Grupo 1178465" transform="translate(281 971.183)">
      <g id="Grupo_1172010" data-name="Grupo 1172010" transform="translate(0)">
        <g id="Grupo_1171046" data-name="Grupo 1171046">
          <g id="Grupo_1148525" data-name="Grupo 1148525">
            <g transform="matrix(1, 0, 0, 1, -9, -6)" filter="url(#Trazado_982547)">
              <g id="Trazado_982547-2" data-name="Trazado 982547" transform="translate(9 6)" fill="#fdeffe">
                <path d="M 47.5 93.5 C 41.28937149047852 93.5 35.26533508300781 92.28397369384766 29.59518623352051 89.88570404052734 C 24.11771965026855 87.56893157958984 19.19813346862793 84.25196075439453 14.97309303283691 80.02691650390625 C 10.74804019927979 75.80186462402344 7.431066513061523 70.88229370117188 5.114293098449707 65.40481567382812 C 2.716026782989502 59.73468017578125 1.5 53.71062850952148 1.5 47.5 C 1.5 41.28937149047852 2.716026782989502 35.26533508300781 5.114293098449707 29.59518623352051 C 7.431066513061523 24.11771965026855 10.74804019927979 19.19813346862793 14.97309303283691 14.97309303283691 C 19.19813346862793 10.74804019927979 24.11771965026855 7.431066513061523 29.59518623352051 5.114293098449707 C 35.26533508300781 2.716026782989502 41.28937149047852 1.5 47.5 1.5 C 53.71062850952148 1.5 59.73468017578125 2.716026782989502 65.40481567382812 5.114293098449707 C 70.88229370117188 7.431066513061523 75.80186462402344 10.74804019927979 80.02691650390625 14.97309303283691 C 84.25196075439453 19.19813346862793 87.56893157958984 24.11771965026855 89.88570404052734 29.59518623352051 C 92.28397369384766 35.26533508300781 93.5 41.28937149047852 93.5 47.5 C 93.5 53.71062850952148 92.28397369384766 59.73468017578125 89.88570404052734 65.40481567382812 C 87.56893157958984 70.88229370117188 84.25196075439453 75.80186462402344 80.02691650390625 80.02691650390625 C 75.80186462402344 84.25196075439453 70.88229370117188 87.56893157958984 65.40481567382812 89.88570404052734 C 59.73468017578125 92.28397369384766 53.71062850952148 93.5 47.5 93.5 Z" stroke="none"/>
                <path d="M 47.5 3 C 41.49121475219727 3 35.66376876831055 4.176155090332031 30.17950439453125 6.495796203613281 C 24.88084411621094 8.736953735351562 20.12152099609375 11.94598388671875 16.03375244140625 16.03375244140625 C 11.94598388671875 20.12152099609375 8.736953735351562 24.88084411621094 6.495796203613281 30.17950439453125 C 4.176155090332031 35.66376876831055 3 41.49121475219727 3 47.5 C 3 53.50878524780273 4.176155090332031 59.33623123168945 6.495796203613281 64.82049560546875 C 8.736953735351562 70.11915588378906 11.94598388671875 74.87847900390625 16.03375244140625 78.96624755859375 C 20.12152099609375 83.05401611328125 24.88084411621094 86.26304626464844 30.17950439453125 88.50419616699219 C 35.66376876831055 90.82384490966797 41.49121475219727 92 47.5 92 C 53.50878524780273 92 59.33623123168945 90.82384490966797 64.82049560546875 88.50419616699219 C 70.11915588378906 86.26304626464844 74.87847900390625 83.05401611328125 78.96624755859375 78.96624755859375 C 83.05401611328125 74.87847900390625 86.26304626464844 70.11915588378906 88.50419616699219 64.82049560546875 C 90.82384490966797 59.33623123168945 92 53.50878524780273 92 47.5 C 92 41.49121475219727 90.82384490966797 35.66376876831055 88.50419616699219 30.17950439453125 C 86.26304626464844 24.88084411621094 83.05401611328125 20.12152099609375 78.96624755859375 16.03375244140625 C 74.87847900390625 11.94598388671875 70.11915588378906 8.736953735351562 64.82049560546875 6.495796203613281 C 59.33623123168945 4.176155090332031 53.50878524780273 3 47.5 3 M 47.5 0 C 73.7335205078125 0 95 21.2664794921875 95 47.5 C 95 73.7335205078125 73.7335205078125 95 47.5 95 C 21.2664794921875 95 0 73.7335205078125 0 47.5 C 0 21.2664794921875 21.2664794921875 0 47.5 0 Z" stroke="none" fill="#ee70f7"/>
              </g>
            </g>
          </g>
        </g>
      </g>
    </g>
    <g id="binary-code_1331401_1_" data-name="binary-code_1331401 (1)" transform="translate(302.058 991.791)">
      <path id="Trazado_1040546" data-name="Trazado 1040546" d="M58.375,13.185h-21.5l-.7-4.668a.521.521,0,0,0-.515-.443H24.113a.52.52,0,0,0-.515.443l-.7,4.668H21.552l-.7-4.668a.521.521,0,0,0-.515-.443H8.791a.521.521,0,0,0-.515.443l-.7,4.668V58.77a.521.521,0,0,0,.522.522H58.375a.521.521,0,0,0,.522-.522V13.707a.522.522,0,0,0-.521-.521Zm0,0" transform="translate(-6.793 -6.792)" fill="#4172cc"/>
      <path id="Trazado_1040547" data-name="Trazado 1040547" d="M58.9,58.076V103.14a.521.521,0,0,1-.521.522H8.1a.522.522,0,0,1-.522-.522V57.555h50.8a.522.522,0,0,1,.521.521Zm0,0" transform="translate(-6.793 -51.161)" fill="#bebebe"/>
      <path id="Trazado_1040548" data-name="Trazado 1040548" d="M21.553,13.182H7.575l.7-4.668a.522.522,0,0,1,.515-.443H20.336a.522.522,0,0,1,.516.443Zm0,0" transform="translate(-6.794 -6.788)" fill="#4172cc"/>
      <path id="Trazado_1040549" data-name="Trazado 1040549" d="M84.025,58.076V103.14a.521.521,0,0,1-.521.522H36.119a.522.522,0,0,1-.522-.522V57.555H83.5a.522.522,0,0,1,.521.521Zm0,0" transform="translate(-31.922 -51.161)" fill="#ebebf0"/>
      <path id="Trazado_1040550" data-name="Trazado 1040550" d="M46.681,13.182H35.6l.7-4.668a.522.522,0,0,1,.515-.443h8.649a.522.522,0,0,1,.516.443Zm0,0" transform="translate(-31.922 -6.788)" fill="#6990d7"/>
      <path id="Trazado_1040551" data-name="Trazado 1040551" d="M169.881,13.182H155.9l.7-4.668a.522.522,0,0,1,.515-.443h11.543a.522.522,0,0,1,.516.443Zm0,0" transform="translate(-139.8 -6.788)" fill="#4172cc"/>
      <path id="Trazado_1040552" data-name="Trazado 1040552" d="M195.009,13.182H183.926l.7-4.668a.522.522,0,0,1,.515-.443h8.649a.522.522,0,0,1,.516.443Zm0,0" transform="translate(-164.928 -6.788)" fill="#6990d7"/>
      <path id="Trazado_1040553" data-name="Trazado 1040553" d="M58.9,58.076v5.843H7.574V57.555h50.8a.522.522,0,0,1,.521.521Zm0,0" transform="translate(-6.793 -51.161)" fill="#6990d7"/>
      <path id="Trazado_1040554" data-name="Trazado 1040554" d="M84.026,58.076v5.843H35.6V57.555H83.5a.522.522,0,0,1,.521.521Zm0,0" transform="translate(-31.922 -51.161)" fill="#91aee2"/>
      <path id="Trazado_1040555" data-name="Trazado 1040555" d="M365.957,365.075a2.2,2.2,0,0,1-3.106-.008l-9.626-9.675a2.2,2.2,0,1,1,3.113-3.1l9.626,9.675A2.2,2.2,0,0,1,365.957,365.075Zm0,0" transform="translate(-316.169 -314.878)" fill="#ffc14f"/>
      <path id="Trazado_1040556" data-name="Trazado 1040556" d="M269.68,253.025a11.361,11.361,0,1,1-11.361-11.361A11.361,11.361,0,0,1,269.68,253.025Zm0,0" transform="translate(-221.45 -216.253)" fill="#f29500"/>
      <path id="Trazado_1040557" data-name="Trazado 1040557" d="M293.578,284.216a8.16,8.16,0,1,1-4.07-10.788,8.142,8.142,0,0,1,4.07,10.788Zm0,0" transform="translate(-249.28 -244.085)" fill="#d2d2d7"/>
      <path id="Trazado_1040558" data-name="Trazado 1040558" d="M320.743,285.538a8.16,8.16,0,1,1-4.07-10.788,8.142,8.142,0,0,1,4.07,10.788Zm0,0" transform="translate(-276.445 -245.406)" fill="#ebebf0"/>
      <path id="Trazado_1040559" data-name="Trazado 1040559" d="M202.323,180.736c-1.189-.64-4.632-.847-4.632,2.513v3.512a2.952,2.952,0,0,0,5.9,0v-2.806a12.167,12.167,0,0,0,16.464,4.58l3.341,3.358a2.979,2.979,0,1,0,4.223-4.2l-3.232-3.248a12.163,12.163,0,0,0,.76-11.65.782.782,0,0,0-1.419.661,10.6,10.6,0,1,1-1.578-2.437.782.782,0,0,0,1.184-1.023,12.147,12.147,0,0,0-13.742-3.337c0-.012,0-.023,0-.036v-8.182c0-.427-.724-.7-1.07-.4l-1.485,1.133a.708.708,0,0,0-.315.592c0,.546.5.827.831.541l.4-.4v6.721c0,.284.282.454.617.5a12.157,12.157,0,0,0-6.257,13.614Zm-.365,6.025c0,.995-.5,1.448-1.322,1.448s-1.309-.453-1.309-1.448v-3.512c0-.994.479-1.447,1.309-1.447s1.322.453,1.322,1.447Zm21.494-1.042,3.061,3.076a1.414,1.414,0,0,1-2,1.995l-3.11-3.126a12.279,12.279,0,0,0,2.054-1.944Zm0,0" transform="translate(-177.272 -141.151)"/>
      <path id="Trazado_1040560" data-name="Trazado 1040560" d="M279.363,265.129a8.933,8.933,0,1,0,8.933,8.942,8.953,8.953,0,0,0-8.933-8.942Zm3.825,15.232a7.37,7.37,0,1,1-.793-13.011,7.376,7.376,0,0,1,.793,13.011Zm0,0" transform="translate(-242.489 -237.294)"/>
      <path id="Trazado_1040561" data-name="Trazado 1040561" d="M51.4,161.027a2.63,2.63,0,0,0-2.958-2.882,2.621,2.621,0,0,0-2.946,2.882v3.512a2.621,2.621,0,0,0,2.946,2.882,2.63,2.63,0,0,0,2.958-2.882Zm-1.636,3.512c0,.994-.5,1.447-1.321,1.447s-1.309-.453-1.309-1.447v-3.512c0-.994.479-1.447,1.309-1.447s1.321.453,1.321,1.447Zm0,0" transform="translate(-40.795 -141.361)"/>
      <path id="Trazado_1040562" data-name="Trazado 1040562" d="M135.855,166.621v-8.182c0-.427-.724-.7-1.07-.4l-1.485,1.133a.707.707,0,0,0-.315.592c0,.548.5.827.831.541l.4-.4v6.721C134.218,167.311,135.855,167.3,135.855,166.621Zm0,0" transform="translate(-119.249 -141.152)"/>
      <path id="Trazado_1040563" data-name="Trazado 1040563" d="M200.636,158.141a2.621,2.621,0,0,0-2.945,2.883v3.512a2.952,2.952,0,0,0,5.9,0v-3.512A2.63,2.63,0,0,0,200.636,158.141Zm1.322,6.395c0,.994-.5,1.447-1.322,1.447s-1.309-.453-1.309-1.447v-3.512c0-.994.479-1.447,1.309-1.447s1.322.453,1.322,1.447Zm0,0" transform="translate(-177.272 -141.357)"/>
      <path id="Trazado_1040564" data-name="Trazado 1040564" d="M48.438,375.3a2.621,2.621,0,0,0-2.946,2.883v3.512a2.621,2.621,0,0,0,2.946,2.883,2.63,2.63,0,0,0,2.958-2.883V378.18A2.63,2.63,0,0,0,48.438,375.3Zm1.321,6.394c0,.995-.5,1.448-1.321,1.448s-1.309-.453-1.309-1.448V378.18c0-.994.479-1.447,1.309-1.447s1.321.453,1.321,1.447Zm0,0" transform="translate(-40.794 -336.082)"/>
      <path id="Trazado_1040565" data-name="Trazado 1040565" d="M135.855,383.776v-8.182c0-.427-.724-.7-1.07-.4l-1.485,1.133a.707.707,0,0,0-.315.592.607.607,0,0,0,.529.654.456.456,0,0,0,.3-.113l.4-.4v6.721C134.218,384.467,135.855,384.46,135.855,383.776Zm0,0" transform="translate(-119.249 -335.876)"/>
      <path id="Trazado_1040566" data-name="Trazado 1040566" d="M45.772,268.423l.4-.4v6.721c0,.691,1.636.684,1.636,0V266.56c0-.327-.39-.529-.73-.529-.278,0-.242.077-1.825,1.259a.707.707,0,0,0-.315.592c0,.548.5.827.831.541Zm0,0" transform="translate(-40.3 -238.103)"/>
      <path id="Trazado_1040567" data-name="Trazado 1040567" d="M107.941,269.16v3.512a2.953,2.953,0,0,0,5.9,0V269.16a2.953,2.953,0,0,0-5.9,0Zm1.637,0c0-.994.478-1.447,1.309-1.447s1.322.453,1.322,1.447v3.512c0,.994-.5,1.447-1.322,1.447s-1.309-.453-1.309-1.447Zm0,0" transform="translate(-96.792 -238.324)"/>
      <path id="Trazado_1040568" data-name="Trazado 1040568" d="M193.73,267.881c0,.548.5.827.831.541l.4-.4v6.721c0,.34.4.516.818.516s.818-.176.818-.516V266.56c0-.327-.39-.529-.73-.529-.277,0-.242.077-1.825,1.259A.708.708,0,0,0,193.73,267.881Zm0,0" transform="translate(-173.72 -238.103)"/>
      <path id="Trazado_1040569" data-name="Trazado 1040569" d="M336.636,291.767l-2,1.524a.952.952,0,0,0-.423.8.817.817,0,0,0,.711.88c.422,0,.558-.368.948-.694v9.04c0,.929,2.2.92,2.2,0v-11c0-.573-.973-.942-1.439-.542Zm0,0" transform="translate(-299.693 -261.03)"/>
      <path id="Trazado_1040570" data-name="Trazado 1040570" d="M51.582,5.611H48.049a.782.782,0,1,0,0,1.565h3.272v4.8H1.563v-4.8H44.92a.782.782,0,0,0,0-1.565H30.754l-.6-4A1.3,1.3,0,0,0,28.864.5H17.32a1.3,1.3,0,0,0-1.289,1.11l-.6,3.991-.6-3.991A1.3,1.3,0,0,0,13.542.5H2A1.3,1.3,0,0,0,.71,1.61C-.022,6.48,0,6.307,0,6.394V31.1a.782.782,0,1,0,1.565,0V13.539H51.321V51.718H1.563V34.231a.782.782,0,0,0-1.565,0V51.979a1.306,1.306,0,0,0,1.3,1.3H51.582a1.306,1.306,0,0,0,1.3-1.3V6.915a1.306,1.306,0,0,0-1.3-1.3ZM17.545,2.065H28.639l.533,3.546H17.011Zm-15.322,0H13.317l.533,3.546H1.69Zm0,0" transform="translate(0)"/>
      <path id="Trazado_1040571" data-name="Trazado 1040571" d="M68.36,80.277H26.7a.782.782,0,0,0,0,1.565H68.36a.782.782,0,0,0,0-1.565Zm0,0" transform="translate(-23.245 -71.537)"/>
      <path id="Trazado_1040572" data-name="Trazado 1040572" d="M460.391,78.8a1.043,1.043,0,1,1-1.043-1.043A1.043,1.043,0,0,1,460.391,78.8Zm0,0" transform="translate(-410.965 -69.274)"/>
    </g>
  </g>
</svg>
