<svg xmlns="http://www.w3.org/2000/svg" xmlns:xlink="http://www.w3.org/1999/xlink" width="624" height="242.262" viewBox="0 0 624 242.262">
  <defs>
    <filter id="Rectángulo_416633" x="0" y="25.646" width="624" height="165" filterUnits="userSpaceOnUse">
      <feOffset dy="3" input="SourceAlpha"/>
      <feGaussianBlur stdDeviation="3" result="blur"/>
      <feFlood flood-opacity="0.161"/>
      <feComposite operator="in" in2="blur"/>
      <feComposite in="SourceGraphic"/>
    </filter>
    <clipPath id="clip-path">
      <rect id="Rectángulo_416634" data-name="Rectángulo 416634" width="517.639" height="242.262" fill="none"/>
    </clipPath>
    <filter id="Trazado_1040726" x="304.727" y="184.441" width="109.315" height="43.481" filterUnits="userSpaceOnUse">
      <feOffset dy="3" input="SourceAlpha"/>
      <feGaussianBlur stdDeviation="3" result="blur-2"/>
      <feFlood flood-opacity="0.161"/>
      <feComposite operator="in" in2="blur-2"/>
      <feComposite in="SourceGraphic"/>
    </filter>
    <filter id="Trazado_1040734" x="315.409" y="210.116" width="98.638" height="29.502" filterUnits="userSpaceOnUse">
      <feOffset dy="3" input="SourceAlpha"/>
      <feGaussianBlur stdDeviation="3" result="blur-3"/>
      <feFlood flood-opacity="0.161"/>
      <feComposite operator="in" in2="blur-3"/>
      <feComposite in="SourceGraphic"/>
    </filter>
    <filter id="Trazado_1040743" x="308.339" y="222.325" width="105.691" height="30.238" filterUnits="userSpaceOnUse">
      <feOffset dy="3" input="SourceAlpha"/>
      <feGaussianBlur stdDeviation="3" result="blur-4"/>
      <feFlood flood-opacity="0.161"/>
      <feComposite operator="in" in2="blur-4"/>
      <feComposite in="SourceGraphic"/>
    </filter>
  </defs>
  <g id="Grupo_1178711" data-name="Grupo 1178711" transform="translate(9)">
    <g id="Grupo_1178708" data-name="Grupo 1178708" transform="translate(0 31.646)">
      <g transform="matrix(1, 0, 0, 1, -9, -31.65)" filter="url(#Rectángulo_416633)">
        <rect id="Rectángulo_416633-2" data-name="Rectángulo 416633" width="606" height="147" rx="8" transform="translate(9 31.65)" fill="#9d7cf1" opacity="0.39"/>
      </g>
    </g>
    <g id="Grupo_1178710" data-name="Grupo 1178710" transform="translate(44.57)">
      <g id="Grupo_1178709" data-name="Grupo 1178709" clip-path="url(#clip-path)">
        <path id="Trazado_1040640" data-name="Trazado 1040640" d="M1406.363,185.436c.277-.485.683-.912.515-1.477a1.943,1.943,0,0,0-.967-1.238l-1.357,0a3.226,3.226,0,0,0-.6,2.11,3.911,3.911,0,0,0,1.5.9Z" transform="translate(-1187.556 -154.558)" fill="#14065e"/>
        <path id="Trazado_1040641" data-name="Trazado 1040641" d="M1410.111,411.786a7.494,7.494,0,0,1-.3,1.207l.139.187a2.1,2.1,0,0,1,.311.865,2.281,2.281,0,0,0,1.66.45c.729-.486.952-.532,1.147-1.41a2.178,2.178,0,0,0-.095-1.15l-.754-.754-1.207,0Z" transform="translate(-1192.511 -347.804)" fill="#14065e"/>
        <path id="Trazado_1040642" data-name="Trazado 1040642" d="M543.883,109.378l2.257.063c.823,1.064-.467,2.213.9,2.939a4.968,4.968,0,0,0,.4-2.806l2.359-.262.1-.491c-.531-.36-2.389-.31-2.445-.58-.2-.946.3-1.793-.551-2.393l-.479.114a5.98,5.98,0,0,0,.154,2.408c-.933.164-2.475-.081-3.045.6Z" transform="translate(-459.761 -89.534)" fill="#fcfcfb"/>
        <path id="Trazado_1040643" data-name="Trazado 1040643" d="M2103.228,1008.868l.265-.382a5.782,5.782,0,0,1,2.775-2.549,4.177,4.177,0,0,0,1.192-.642l-.114-.6a1.7,1.7,0,0,0-1.514.023,7.241,7.241,0,0,0-3.678,3.614c-.84,1.71-.62,3.729-.608,5.593l1.24-.183c-.018-1.351-.343-3.753.442-4.872" transform="translate(-1777.594 -849.691)" fill="#fcfcfb"/>
        <path id="Trazado_1040644" data-name="Trazado 1040644" d="M2463.678,1505.2a3.253,3.253,0,0,0,2.69-1l.5-4.065-1.068-.01-4.376.2a4.428,4.428,0,0,0,.147,2.586,8.135,8.135,0,0,0,2.11,2.293" transform="translate(-2081.895 -1268.902)" fill="#f5ec92"/>
        <path id="Trazado_1040645" data-name="Trazado 1040645" d="M1300.73,505.432a28.712,28.712,0,0,0,4.612-.014l.172-.4c-1.056-6.052-1.548-13.278-4.168-18.866L1300.994,501a22.559,22.559,0,0,1-.264,4.429" transform="translate(-1100.242 -411.217)" fill="#288fa0"/>
        <path id="Trazado_1040646" data-name="Trazado 1040646" d="M51.512,881.771l-.23-.042-.141-.041a10.1,10.1,0,0,0-2.723-.108,4.445,4.445,0,0,0-2.408,1.806c-.129.212-.084.212-.149.45-.442,1.623-.582,2.172.206,3.774a5.505,5.505,0,0,0,.849,1.2l.187.046a2.769,2.769,0,0,1,.866.556c.9,0,2.01.641,2.859,0A3.557,3.557,0,0,0,53.24,887.9a1.089,1.089,0,0,0,.149-.45,7.431,7.431,0,0,0,.45-2.563L53.7,884.7c-.607-.914-.889-2.5-2.187-2.93" transform="translate(-38.489 -745.666)" fill="#14065e"/>
        <path id="Trazado_1040647" data-name="Trazado 1040647" d="M1553.428,768.194a20.175,20.175,0,0,0,4.6.162l8.691-.021c1.315-.006,3.615.283,4.8-.229a10.066,10.066,0,0,0,.021-2.946,18.977,18.977,0,0,0-4.34-.157l-8.483.023c-1.484.006-3.9-.3-5.283.158a9.284,9.284,0,0,0,0,3.01" transform="translate(-1313.883 -647.027)" fill="#d9447c"/>
        <path id="Trazado_1040648" data-name="Trazado 1040648" d="M1559.2,707.27c3.841,0,8.076.385,11.865-.017a1.78,1.78,0,0,0,.62-.224,10.4,10.4,0,0,0,0-2.945,16.566,16.566,0,0,0-4.286-.188l-8.968.01c-1.349,0-3.683-.289-4.889.268l-.039,2.709a3.13,3.13,0,0,0,.575.379,28.87,28.87,0,0,0,5.122.007" transform="translate(-1314.056 -595.348)" fill="#d9447c"/>
        <path id="Trazado_1040649" data-name="Trazado 1040649" d="M2414.414,1524.691a90.417,90.417,0,0,0,9.749-.3l.159-2.418a2.724,2.724,0,0,0-1.117-2.5,3.252,3.252,0,0,1-2.691,1,8.136,8.136,0,0,1-2.11-2.293c-2.387.46-5.688,1.949-7.109,3.994a8.486,8.486,0,0,0-1.062,2.4,17.293,17.293,0,0,0,4.18.116" transform="translate(-2038.732 -1284.176)" fill="#05033c"/>
        <path id="Trazado_1040650" data-name="Trazado 1040650" d="M1572.918,642.269l-18.218,0,.078,3.688,18.125-.009Z" transform="translate(-1315.066 -543.271)" fill="#8432f6"/>
        <path id="Trazado_1040651" data-name="Trazado 1040651" d="M1701.734,646.123l19.542-.02.009-3.6-19.545,0Z" transform="translate(-1439.437 -543.468)" fill="#fcfcfb"/>
        <path id="Trazado_1040652" data-name="Trazado 1040652" d="M2414.775,278.882a11.182,11.182,0,0,0,2.477-.027,5.94,5.94,0,0,0,3.3-3.648,4.92,4.92,0,0,0-.548-3.877,5.509,5.509,0,0,0-2.85-2.3,7.854,7.854,0,0,0-3.148.01c-1.67,1.065-2.811,1.937-3.236,3.958a4.678,4.678,0,0,0,.789,3.57,4.931,4.931,0,0,0,3.22,2.315m-2.354-7.076a4.622,4.622,0,0,1,3.085-1.866,6.686,6.686,0,0,1,1.8.391,4.165,4.165,0,0,1,2.052,2.359,3.641,3.641,0,0,1-.19,2.96,4.3,4.3,0,0,1-2.94,2.063,4.132,4.132,0,0,1-2.083-.306,3.912,3.912,0,0,1-2.013-2.277,3.986,3.986,0,0,1,.292-3.323" transform="translate(-2039.108 -227.429)" fill="#fcfcfb"/>
        <path id="Trazado_1040653" data-name="Trazado 1040653" d="M2420.843,283.268a4.13,4.13,0,0,0,2.083.306,4.3,4.3,0,0,0,2.94-2.063,3.643,3.643,0,0,0,.19-2.96,4.166,4.166,0,0,0-2.053-2.359,6.686,6.686,0,0,0-1.8-.391,4.621,4.621,0,0,0-3.085,1.866,3.986,3.986,0,0,0-.292,3.323,3.911,3.911,0,0,0,2.013,2.277" transform="translate(-2045.808 -233.292)" fill="#14065e"/>
        <path id="Trazado_1040654" data-name="Trazado 1040654" d="M2001.278,764.429a13.811,13.811,0,0,0-.066,2.8c.939.7,4.268.343,5.6.346,6.067.01,12.367.326,18.407-.132a7.3,7.3,0,0,0,.159-3.01c-1.318-.556-22.23-.49-24.1,0" transform="translate(-1692.716 -646.272)" fill="#fcfcfb"/>
        <path id="Trazado_1040655" data-name="Trazado 1040655" d="M506.868,685.054a2.737,2.737,0,0,1,1.946.611l1.619.26c-.116-2.144-.565-4.32-.89-6.443-.843-5.515-1.769-10.428-4.558-15.333l-1.794,22.383Z" transform="translate(-425.632 -561.781)" fill="#b62d8d"/>
        <path id="Trazado_1040656" data-name="Trazado 1040656" d="M3159.8,1224.134l-.181.451,1.261,1.877c1.077.939,2.209,1.848,3.723,1.764a9.943,9.943,0,0,0,3.985-1.636c2.2-1.227,4.358-2.51,6.628-3.594,1.135-.541,4.773-1.7,5.493-2.522l.075-.114a31.31,31.31,0,0,0-12-2.872c-2.685.2-6.69.432-8.608,2.588a4.308,4.308,0,0,0-.99,2.641l.332.579c3.037-.713,6.23-3.146,9.48-2.717a8.71,8.71,0,0,1-1.306.423,39.428,39.428,0,0,0-7.894,3.134" transform="translate(-2672.249 -1029.831)" fill="#cc4fdd"/>
        <path id="Trazado_1040657" data-name="Trazado 1040657" d="M1700.564,767.117a1.9,1.9,0,0,0,.452.336,10.358,10.358,0,0,0,2.233.006l5.724.013,23.22-.016c3.271-.012,7.01.339,10.206-.106a9.418,9.418,0,0,0,.138-3.034c-2.016-.777-6.308-.219-8.545-.218l-22.426.037-7.16.014a14.912,14.912,0,0,0-3.747.167,13.436,13.436,0,0,0-.1,2.8" transform="translate(-1438.418 -646.159)" fill="#fcfcfb"/>
        <path id="Trazado_1040658" data-name="Trazado 1040658" d="M1701.754,703.742l.03,2.709c1.036.784,30.254.338,34.311.312l7.04-.039c.662-.889.421-2.037.418-3.133a3.159,3.159,0,0,0-.569-.386,11.156,11.156,0,0,0-2.17,0l-5.159.007-25.435.07c-1.658.008-7.485-.457-8.466.457" transform="translate(-1439.454 -594.765)" fill="#fcfcfb"/>
        <path id="Trazado_1040659" data-name="Trazado 1040659" d="M2928.948,1038.8a11.344,11.344,0,0,1,2.6,3.735l1.5,3.465a6.237,6.237,0,0,1,.786,1,1.75,1.75,0,0,0,.3-.126c1.276-.815,2.489-3.365,2.829-4.827a8.41,8.41,0,0,0-1.041-5.931c-2.911-4.688-8.879-6.617-13.986-7.73-1.836-.4-8.936-1.772-10.531-.747l.47.647c2.688.046,4.433,1.189,6.693,2.511a47.232,47.232,0,0,1,10.384,8" transform="translate(-2462.652 -868.932)" fill="#f7c236"/>
        <path id="Trazado_1040660" data-name="Trazado 1040660" d="M2935.624,1051.593l-1.5-3.465a11.341,11.341,0,0,0-2.6-3.735,47.228,47.228,0,0,0-10.383-8c-2.26-1.322-4.006-2.465-6.693-2.511,4.25,5.021,11.054,19.5,17.706,20.02a8.179,8.179,0,0,0,3.016-.572l.4-1.472Z" transform="translate(-2465.229 -874.525)" fill="#f5ec92"/>
        <path id="Trazado_1040661" data-name="Trazado 1040661" d="M41.638,421.6a2.691,2.691,0,0,0-1.337.43,4.5,4.5,0,0,0,1.213,2.558,6.5,6.5,0,0,0,1.389-.3l1.364,1.5-.125,1.5a5.277,5.277,0,0,0,2.288,1.035l.853-1.109.214-.377,1.751.087c.373.581.539,1.032,1.191,1.322.826-.476,1.546-.653,1.892-1.559-.086-.245-.37-.8-.263-1.017a5.826,5.826,0,0,1,1.134-1.453c.647.248.865.429,1.55.257a12.356,12.356,0,0,0,1.008-2.4,7.04,7.04,0,0,0-1.316-.652,5.793,5.793,0,0,1-.189-2.048l1.2-.332c.2-.71.107-.846-.248-1.5l-.805-1.194a3.629,3.629,0,0,0-1.412.473l-1.378-1.4a2.768,2.768,0,0,1,.681-1.217,3.721,3.721,0,0,0-2.191-1.052l-.119,0-.662,1.2a5.761,5.761,0,0,1-2.075.063l-.669-1.18a3.444,3.444,0,0,0-2.2.816l.16,1.2-1.568,1.6a5.479,5.479,0,0,1-1.15-.438,3.863,3.863,0,0,0-1.356,1.849l1.462,1.2-.094,2.107Zm3.441-1.527c.111-.946.926-1.545,1.614-2.107a4.026,4.026,0,0,1,1.47-.212,2.864,2.864,0,0,1,2.151.877,3.577,3.577,0,0,1,.953,2.646,3.5,3.5,0,0,1-1.689,2.107,4.8,4.8,0,0,1-1.494.422,3.374,3.374,0,0,1-2.211-1.024,3.314,3.314,0,0,1-.794-2.709" transform="translate(-34.089 -349.472)" fill="#fcfcfb"/>
        <path id="Trazado_1040662" data-name="Trazado 1040662" d="M74.142,449.066a4.8,4.8,0,0,0,1.494-.422,3.5,3.5,0,0,0,1.689-2.107,3.577,3.577,0,0,0-.953-2.646,2.864,2.864,0,0,0-2.151-.877,4.021,4.021,0,0,0-1.47.213c-.688.562-1.5,1.161-1.614,2.107a3.313,3.313,0,0,0,.794,2.709,3.374,3.374,0,0,0,2.211,1.024" transform="translate(-60.147 -374.73)" fill="#14065e"/>
        <path id="Trazado_1040663" data-name="Trazado 1040663" d="M3037.92,116.817a3.939,3.939,0,0,1-1.2.752,3.257,3.257,0,0,0,.8,2.107,3.731,3.731,0,0,1,2.673,1.409l-.259,1.3a7.888,7.888,0,0,0,2.315,1.2c1.11-1.093,1.454-.892,3.013-.9l.09.155a1.794,1.794,0,0,0,.81.873l.9-.314c.277-.18,1.1-.605,1.141-.906a2.127,2.127,0,0,0-.28-1.091l1.454-1.493,1.3.258a9.319,9.319,0,0,0,1.021-2.3l-1.147-.9-.045-2.107c.353-.279.954-.6.988-1.047.045-.625-.593-1.444-.918-1.963a4.21,4.21,0,0,0-1.4.2l-1.5-1.421a7.008,7.008,0,0,1,.126-1.484,3.639,3.639,0,0,0-2.233-.5l-.8.8-1.908-.085c-.346-.387-.5-.709-1.017-.818l-1.438.6a3.793,3.793,0,0,0-.135,1.655,8.348,8.348,0,0,1-1.321,1.252c-.292.134-1.294-.121-1.5.039a3.6,3.6,0,0,0-.873,2.069c1.159,1.037,1.138,1.109,1.354,2.659m3.678-1.763a3.058,3.058,0,0,1,1.749-1.7,12.58,12.58,0,0,1,1.466-.064,3.733,3.733,0,0,1,1.884,1.412,2.6,2.6,0,0,1,.46,2.056,3.406,3.406,0,0,1-1.893,2.171l-1.053.25a4.82,4.82,0,0,1-2.345-1.312,3.561,3.561,0,0,1-.268-2.816" transform="translate(-2568.524 -91.81)" fill="#fcfcfb"/>
        <path id="Trazado_1040664" data-name="Trazado 1040664" d="M3070.86,145.26l1.053-.25a3.406,3.406,0,0,0,1.893-2.171,2.6,2.6,0,0,0-.46-2.056,3.733,3.733,0,0,0-1.884-1.412,12.55,12.55,0,0,0-1.466.064,3.058,3.058,0,0,0-1.749,1.7,3.562,3.562,0,0,0,.268,2.816,4.82,4.82,0,0,0,2.344,1.312" transform="translate(-2595.174 -117.888)" fill="#14065e"/>
        <path id="Trazado_1040665" data-name="Trazado 1040665" d="M1181.195,274.309l.07.807c1.356-.665,1.857-2.382,2.312-3.718l1.061-3.546c4.572,2.094,8.441,4.987,13.686,4.588l1.239-.519a4.978,4.978,0,0,0,2.483-2.921,4.287,4.287,0,0,0,.089-3.328,7.218,7.218,0,0,1-3.892,1.078c-1.82-.17-3-1.383-4.3-2.529-1.977-1.74-4.179-3.592-6.961-3.657a7.434,7.434,0,0,0-5.646,2.153c-2.746,2.626-2.85,5.45-2.935,9.024l1.067.191c.956.781,1.582,1.055,1.726,2.377" transform="translate(-996.769 -220.4)" fill="#05033c"/>
        <path id="Trazado_1040666" data-name="Trazado 1040666" d="M1904.612,644.417a12.47,12.47,0,0,0,.189-3.823l-47.56.154-1.005.145c-.5.924-.253,2.592-.235,3.645l47.563.018Z" transform="translate(-1569.862 -541.856)" fill="#8432f6"/>
        <path id="Trazado_1040667" data-name="Trazado 1040667" d="M3184.187,727.53l-.626,1.268c-.533.021-2.056.23-2.4-.087-.416-.379-.638-1.188-1.237-1.149a6.055,6.055,0,0,0-2.808,1.521l-.069.1.048.177a3.481,3.481,0,0,1,.148,1.3l-1.3,1.523-1.655-.64c-.972.686-1.34,2.407-1.734,3.5.788.644,1.649,1.033,1.788,2.1a6.957,6.957,0,0,1-.115,1.633l-1.294.974a5.1,5.1,0,0,0,1.463,2.962l.343.212.665-.687.156.1a1.723,1.723,0,0,0,.807.148l1.382,1.613-.43,1.04a4.153,4.153,0,0,0,2.959,1.427l.933-1.394,2.059.062a4.17,4.17,0,0,1,.65,1.4,4.831,4.831,0,0,0,2.712-.827,2.865,2.865,0,0,0,.785-.708l-.09-1.4,1.559-1.534,1.354.785c1.084-.71,1.343-1.76,1.7-2.94.079-.257.024-.159.178-.343l-1.478-.951-.223-1.71c.539-1.046.894-1.16,1.878-1.752a12.092,12.092,0,0,0-1.237-3.276,2.517,2.517,0,0,0-.364-.3l-1.354.862c-.752-.647-1.309-1.412-2.119-2.007a6.148,6.148,0,0,0,.521-1.58,6.556,6.556,0,0,0-3.545-1.43m1.49,10.685a3.323,3.323,0,0,1-2.158,1.956,7.96,7.96,0,0,1-1.863.113,3.963,3.963,0,0,1-1.957-1.564,3.257,3.257,0,0,1-.343-2.727,3.971,3.971,0,0,1,2.191-2.142,5.239,5.239,0,0,1,1.914-.046,4.348,4.348,0,0,1,2.122,1.994,3.078,3.078,0,0,1,.093,2.417" transform="translate(-2683.547 -615.392)" fill="#fcfcfb"/>
        <path id="Trazado_1040668" data-name="Trazado 1040668" d="M3219.964,767.87a5.241,5.241,0,0,0-1.915.046,3.97,3.97,0,0,0-2.191,2.142,3.256,3.256,0,0,0,.343,2.727,3.961,3.961,0,0,0,1.956,1.564,7.966,7.966,0,0,0,1.863-.113,3.322,3.322,0,0,0,2.158-1.956,3.078,3.078,0,0,0-.093-2.417,4.348,4.348,0,0,0-2.122-1.994" transform="translate(-2720.05 -649.458)" fill="#14065e"/>
        <path id="Trazado_1040669" data-name="Trazado 1040669" d="M2838.779,1175.165c.481-.306.43-.432.548-.98a5.232,5.232,0,0,0-.954-4.218c-2.748-4.078-9.231-6-13.839-6.84a44.823,44.823,0,0,0-10.636-.715c-1.442.137-5.026.05-6.143.724,4.18,2.836,7.984,6,11.882,9.209,2.414,1.987,4.773,4.272,7.569,5.706a10.343,10.343,0,0,0,6.525,1.27,6.569,6.569,0,0,0,4.2-2.454,2.475,2.475,0,0,0,.346-.885,24.606,24.606,0,0,0-6.48-4.76l-5.21-2.706.3-.231a36,36,0,0,1,11.888,6.88" transform="translate(-2374.981 -983.184)" fill="#cc4fdd"/>
        <path id="Trazado_1040670" data-name="Trazado 1040670" d="M139.238,56.536a4.372,4.372,0,0,0,2.333-.3,15.171,15.171,0,0,1,1.917-7.971c2.042-3.525,5.4-5.54,9.229-6.6l.09-9.161L152.622,31c-1.516-.582-5.784,1.188-7.286,1.861A22.366,22.366,0,0,0,133.5,45.581a29.27,29.27,0,0,0-1.531,10.957Z" transform="translate(-111.621 -26.123)" fill="#5aaabe"/>
        <path id="Trazado_1040671" data-name="Trazado 1040671" d="M307.866,45.328c2.112,3.052,2.532,6.175,2.236,9.78l9.29-.09c.673-6.917-.311-12.714-4.838-18.219a22.563,22.563,0,0,0-15.187-7.915l-.468-.034-.106,11.06c3.783.654,6.84,2.191,9.072,5.418" transform="translate(-252.739 -24.404)" fill="#e15e50"/>
        <path id="Trazado_1040672" data-name="Trazado 1040672" d="M1174.323,326.408a9.21,9.21,0,0,0,2.82,1.1,5.236,5.236,0,0,1,.982.327l.24.11a9.868,9.868,0,0,0,5.733-1.711c3.921-2.7,4.855-9.472,5.711-13.788-5.245.4-9.115-2.493-13.686-4.588l-1.062,3.546c-.455,1.336-.956,3.053-2.312,3.718l-.07-.807c-.144-1.322-.769-1.6-1.726-2.377a3.461,3.461,0,0,0-2.263,1.163,3.021,3.021,0,0,0-.218,2.386l1.176,1.526-.391,1.987c.844,3.064,2.2,5.73,5.063,7.4" transform="translate(-988.254 -260.408)" fill="#fcfcfb"/>
        <path id="Trazado_1040673" data-name="Trazado 1040673" d="M3145.732,1073.825c-5.763.744-12.912,2.386-16.707,7.194a10.335,10.335,0,0,0-1.746,3.562,6.463,6.463,0,0,0,.3,4.253l.385.151a54.484,54.484,0,0,1,11.889-8.09l.145.278a54.589,54.589,0,0,0-10.209,7.567l-1.255,1.679a8.861,8.861,0,0,0,3.494,2.62,6.543,6.543,0,0,0,4.707-.148,21.654,21.654,0,0,0,4.629-3.381l7.584-6.564a104.4,104.4,0,0,1,11.747-8.069,48.828,48.828,0,0,0-14.964-1.051" transform="translate(-2645.056 -908.155)" fill="#cc4fdd"/>
        <path id="Trazado_1040674" data-name="Trazado 1040674" d="M169.365,224.374a11.676,11.676,0,0,1-7.237.038,12.9,12.9,0,0,1-7.649-6.871l-10.409,3.854c3.408,5.971,8.528,10.673,15.263,12.524a24.458,24.458,0,0,0,18.342-2.57,21.653,21.653,0,0,0,8.519-9.086l-9.38-4.355-.151.31a13.132,13.132,0,0,1-7.3,6.156" transform="translate(-121.864 -184.01)" fill="#8767ef"/>
        <path id="Trazado_1040675" data-name="Trazado 1040675" d="M208.439,121.256a15.084,15.084,0,0,0-.955,3.54,16.767,16.767,0,0,0,.635,4.984,12.9,12.9,0,0,0,7.649,6.871,11.676,11.676,0,0,0,7.237-.038,13.13,13.13,0,0,0,7.3-6.156l.151-.31a13.992,13.992,0,0,0,.661-6.9,11.781,11.781,0,0,0-5.048-7.637c-3.006-1.994-6.3-2.134-9.739-1.463a13.26,13.26,0,0,0-7.889,7.105" transform="translate(-175.503 -96.25)" fill="#5927e2"/>
        <path id="Trazado_1040676" data-name="Trazado 1040676" d="M1391.661,752.036a13.1,13.1,0,0,0-.021,2.674c-.022,2.764-.429,6.117-.05,8.819l16.582-.062a5.637,5.637,0,0,0-.2-2.07c-.811-5-2.361-10.5-6.05-14.171a38.14,38.14,0,0,0-4.8-3.647c-.713,3.01-2.246,4.706-4.2,6.994a9.544,9.544,0,0,0-1.259,1.462" transform="translate(-1176.961 -628.969)" fill="#14065e"/>
        <path id="Trazado_1040677" data-name="Trazado 1040677" d="M1358.9,703.973a11.551,11.551,0,0,1-.03,1.956l-.1,14.683c0,2.2-.285,4.814.119,6.957l4.995.032c-.379-2.7.028-6.056.05-8.819a13.11,13.11,0,0,1,.021-2.674,9.545,9.545,0,0,1,1.259-1.462c1.958-2.288,3.491-3.984,4.2-6.994,1.85-2.284,4.6-4.436,6.725-6.524l-13.628-.023a19.652,19.652,0,0,0-3.614,2.869" transform="translate(-1149.25 -593.039)" fill="#05033c"/>
        <path id="Trazado_1040678" data-name="Trazado 1040678" d="M3023.937,1184.03l0-4.719-10.871.016a18.6,18.6,0,0,1-4.638-.133,22.7,22.7,0,0,1,8.133-11.113v-.41l-.5.15c-4.364,1.818-6.552,7.393-8.229,11.379l-1.2.106-.413-.543c.331-6.452,1.032-12.475,4.03-18.322.86-1.678,2.019-3.178,2.859-4.853l-.458-.231a31.962,31.962,0,0,0-5.987,13.356c-.46,2.129-.674,9.646-1.387,10.535-.726-.469-.464-1.271-.473-2.105a90.63,90.63,0,0,0-.677-12.191,77.736,77.736,0,0,0-3.895-14.444l-.4,1.472c3.705,8.657,4.268,17.659,4.271,26.935l-.481.4c-1.056-.743-1.465-3.131-2.038-4.332-1.486-3.124-4.312-6.909-7.443-8.509l-.247.255c4.048,3.9,7.058,7,8.707,12.588l-11.708-.04.048,4.864a3.578,3.578,0,0,0,2.257.462l28.52-.08c.927-.022,1.544.178,2.218-.488" transform="translate(-2529.891 -973.174)" fill="#dfdef3"/>
        <path id="Trazado_1040679" data-name="Trazado 1040679" d="M3013.231,1373.722l20.969-.079.172-2.477-28.52.08a12.433,12.433,0,0,0,.214,2.79c1.2-.754,5.628-.309,7.166-.314" transform="translate(-2542.544 -1159.821)" fill="#a79ef0"/>
        <path id="Trazado_1040680" data-name="Trazado 1040680" d="M3035.372,1386.981l-20.969.079c-1.538.005-5.968-.439-7.166.314l.638,6.181,26.916-.041a64.807,64.807,0,0,1,.581-6.533" transform="translate(-2543.716 -1173.159)" fill="#dfdef3"/>
        <path id="Trazado_1040681" data-name="Trazado 1040681" d="M3030.542,1449.73c1.553,0,4.5.371,5.83-.142l1.92-19.968-26.916.041,1.968,19.946c5.544.593,11.6.134,17.2.122" transform="translate(-2547.217 -1209.266)" fill="#fcfcfb"/>
        <path id="Trazado_1040682" data-name="Trazado 1040682" d="M2654.648,701.5a10.226,10.226,0,0,1,3.229,4.472,5.5,5.5,0,0,1-.493,4.414,7.666,7.666,0,0,1-3.44,3.127l-.154.222-1.366.569c-1.671,1.211-5.15,1.311-7.169,1.31l.442,1.463,1.12,4.308.2.139a98.2,98.2,0,0,0,11.56.166,16.037,16.037,0,0,1,3.32-.027,4.1,4.1,0,0,1,.677.562,7.372,7.372,0,0,1-.4,2.413,16.56,16.56,0,0,0,8.945-7.059c3.792-6.518,1.225-15.466-2.6-21.413-.9-1.4-2.748-2.841-3.124-4.443l-.033-.175-10.9,9.7Z" transform="translate(-2237.528 -584.958)" fill="#f19fcd"/>
        <path id="Trazado_1040683" data-name="Trazado 1040683" d="M2671.577,886.177a16.035,16.035,0,0,0-3.32.027,98.228,98.228,0,0,1-11.56-.166l.042,3.77,9.051-.312c1.793,0,4.436.343,6.067-.345a7.377,7.377,0,0,0,.4-2.413,4.086,4.086,0,0,0-.677-.562" transform="translate(-2247.207 -749.469)" fill="#14065e"/>
        <path id="Trazado_1040684" data-name="Trazado 1040684" d="M2690.793,766.587a7.667,7.667,0,0,0,3.44-3.127,5.5,5.5,0,0,0,.493-4.414,10.228,10.228,0,0,0-3.229-4.472l-.184-.253-.12-.029a8.612,8.612,0,0,1-2.182,1.006l-.193.376.454,11.7,1.366-.569Z" transform="translate(-2274.377 -638.029)" fill="#3c2285"/>
        <path id="Trazado_1040685" data-name="Trazado 1040685" d="M1036.1,627.368c5.326,3.184,11.237,3.692,17.3,3.639.317-1.156,2.99-3.795,3.949-4.736a5.877,5.877,0,0,1,1.7-1.245c1.266-.341,3.868,0,5.266,0l17.1,0,13.628.023a10.754,10.754,0,0,0,2.117-1.775l-9.775-.1-.293-.034a25.306,25.306,0,0,1-7.057-3.021c-2.8-1.78-6.045-5.693-6.781-8.958a28.7,28.7,0,0,1-4.612.014l-.163,12.372a40.341,40.341,0,0,0-5.327-.285c-6.061-.259-15.945-.5-20.435-5a10.23,10.23,0,0,1-2.836-6.763l-9.524-.042c-1.14,0-3.039-.25-4.006.327l.277,2.632a19.882,19.882,0,0,0,9.468,12.952" transform="translate(-868.157 -516.956)" fill="#f4f2fb"/>
        <path id="Trazado_1040686" data-name="Trazado 1040686" d="M1052.838,649.814a7.567,7.567,0,0,0,1.05-.926c-6.066.053-11.977-.455-17.3-3.639a19.883,19.883,0,0,1-9.468-12.952c-.008,2.75-.565,15.955.276,17.471,2.849.005,24.754.4,25.445.046" transform="translate(-868.643 -534.838)" fill="#5aaabe"/>
        <path id="Trazado_1040687" data-name="Trazado 1040687" d="M353.942,452.536a.5.5,0,0,0-.248.006,4.185,4.185,0,0,1-2.476-.09c-1.285-.718-1.511-1.889-1.8-3.233.678-.913,1.335-2.053,2.472-2.4a3.051,3.051,0,0,1,2.483.728,3.277,3.277,0,0,1,1,2.481l-.031.715.139.7.32.21a3.368,3.368,0,0,0,.5-.462c1.428-1.641.579-6.5.431-8.618l13.324.718.424-.157a7.022,7.022,0,0,0,3.6-3.833c1.206-3.011.656-5.314-.592-8.174a11.217,11.217,0,0,1-3.746,2.439l-11.295-.016a26.377,26.377,0,0,0-5.453.083,5.984,5.984,0,0,0-3,1.779,6.126,6.126,0,0,0-1.283,1.824l-.08.17c-1.173,2.551-.246,6.937-.054,9.716l.1.145c.1,2.625.015,6.607.882,9.077l.193.083a4.566,4.566,0,0,0,3.038-1.168,3.378,3.378,0,0,0,1.153-2.723" transform="translate(-294.4 -364.675)" fill="#05033c"/>
        <path id="Trazado_1040688" data-name="Trazado 1040688" d="M358.431,550.307a5.817,5.817,0,0,0,3.808,2.209,6.044,6.044,0,0,0,4.747-1.309,6.811,6.811,0,0,0,2.073-2.741c.215-.545.234-1.394.641-1.8-1.845-.4-3.958-.322-5.435-1.642-1.624-1.451-2.516-4.365-2.637-6.477a2.885,2.885,0,0,1,1.217-1.729l.031-.715a3.277,3.277,0,0,0-1-2.481,3.05,3.05,0,0,0-2.483-.728c-1.136.347-1.794,1.487-2.472,2.4.293,1.344.519,2.515,1.8,3.233a4.185,4.185,0,0,0,2.477.09.493.493,0,0,1,.248-.006,3.379,3.379,0,0,1-1.153,2.723,4.566,4.566,0,0,1-3.038,1.168,13.268,13.268,0,0,1,.3,2.275c-.311,2.04-.473,3.776.876,5.53" transform="translate(-301.905 -450.75)" fill="#f19fcd"/>
        <path id="Trazado_1040689" data-name="Trazado 1040689" d="M390.072,505.388c.148,2.117,1,6.977-.431,8.618a3.372,3.372,0,0,1-.5.462l-.32-.21-.139-.7a2.883,2.883,0,0,0-1.217,1.729c.121,2.112,1.013,5.026,2.637,6.477,1.477,1.32,3.59,1.24,5.435,1.642l3.438.22a9.349,9.349,0,0,0,2.272-1.42c2.288-2.07,1.719-8.68,1.9-11.672l.246-4.427Z" transform="translate(-327.746 -427.49)" fill="#fcfcfb"/>
        <path id="Trazado_1040690" data-name="Trazado 1040690" d="M2055.578,1084.81a5.522,5.522,0,0,1,.488-2.424,7.568,7.568,0,0,0,5.9-2.213,6.9,6.9,0,0,0,1.866-5.016c-.2-2.951-2.3-6-5.357-6.527-.984-.17-1.953.128-2.721-.546l-.054-3.712-11.079-.058-1.24.183-10.48-.152-.03,13.379c0,2.818-.575,7.093.767,9.629l.1.19a12.651,12.651,0,0,0,2.847,3.177l12.821.194c3.118-.761,5.625-2.824,6.173-6.1m.352-13.717a3.983,3.983,0,0,1,2.865.55,4.682,4.682,0,0,1,2.2,2.915c.367,1.53-.295,2.71-1.1,3.958a6.851,6.851,0,0,1-3.675,1.267l-.427-.413c-.024-2.649-.343-5.681.142-8.277" transform="translate(-1719.429 -900.266)" fill="#f2b32e"/>
        <path id="Trazado_1040691" data-name="Trazado 1040691" d="M2181.982,1116.627a6.85,6.85,0,0,0,3.675-1.267c.807-1.248,1.469-2.428,1.1-3.958a4.683,4.683,0,0,0-2.2-2.915,3.984,3.984,0,0,0-2.865-.55c-.485,2.6-.166,5.628-.141,8.277Z" transform="translate(-1845.194 -937.11)" fill="#14065e"/>
        <path id="Trazado_1040692" data-name="Trazado 1040692" d="M1017.963,43.069a17.067,17.067,0,0,0,5.256,2.477,23.055,23.055,0,0,1,3.279.563,10.933,10.933,0,0,1,1.311,1.818l3.687,5.042.752.756.284-.227.09-7.89c4.7-1.36,8.814-3.984,11.222-8.362a13.314,13.314,0,0,0,1.171-10.292,16.084,16.084,0,0,0-7.935-9.3,18.815,18.815,0,0,0-11.156-2.136c-5.031.881-9.487,3.149-12.461,7.394a14.01,14.01,0,0,0-2.286,10.553c.7,3.893,3.6,7.412,6.787,9.608m4.412-13.669,4.112,4.551c1.136-1.005,6.322-5.01,6.6-6.174a6.556,6.556,0,0,1-1.032-.763l1.493-1.5c.91.041,2.1,1.677,2.765,2.376a3.68,3.68,0,0,1-.752,1.429,2.619,2.619,0,0,0-.954-.458l-8.136,7.4c-1.282-1.339-2.747-3.254-4.3-4.224l-.9.9-.6.517c-.5-.492-1.2-.9-1.209-1.617Z" transform="translate(-855.126 -12.992)" fill="#cc4fdd"/>
        <path id="Trazado_1040693" data-name="Trazado 1040693" d="M1067.321,89.14l.6-.517.9-.9c1.556.97,3.021,2.884,4.3,4.223l8.136-7.4a2.622,2.622,0,0,1,.954.458,3.684,3.684,0,0,0,.752-1.429c-.669-.7-1.854-2.336-2.765-2.376l-1.493,1.5a6.564,6.564,0,0,0,1.032.763c-.276,1.164-5.462,5.169-6.6,6.174l-4.112-4.551-2.924,2.429c.009.717.705,1.124,1.21,1.617" transform="translate(-901.786 -68.687)" fill="#f8fee6"/>
        <path id="Trazado_1040694" data-name="Trazado 1040694" d="M2462.529,612.152a10.9,10.9,0,0,1,1.4,1.22,10.089,10.089,0,0,1,.879,2.422l2.182,7.144,4.972,15.577c2.019,0,5.5-.1,7.169-1.31l-.455-11.7-.078-.048c.108-2.33-1.691-3.548-3.124-5.2a16.2,16.2,0,0,1-2.841-4.3c2.964,1.387,6.248,5.695,8.418,8.17l.12.029,10.9-9.7.012-.472a45.843,45.843,0,0,0-7.609-7.23c-6.384-4.982-13.18-6.115-21.029-6.214.033,2.111.575,6.036-.819,7.689a5.575,5.575,0,0,1-3.976,1.571,3.7,3.7,0,0,1-2.769-.88c-1.562-1.5-.978-6.347-.969-8.513l-3.819,2c-4.376,2.64-7.807,5.185-10.715,9.47l16.43-.1c1.481-.008,4.475-.406,5.716.384" transform="translate(-2064.234 -507.856)" fill="#f7c236"/>
        <path id="Trazado_1040695" data-name="Trazado 1040695" d="M2658.027,709.458c-2.17-2.475-5.454-6.783-8.418-8.17a16.215,16.215,0,0,0,2.841,4.3c1.433,1.653,3.232,2.871,3.124,5.2l.079.048.192-.376a8.61,8.61,0,0,0,2.182-1.006" transform="translate(-2241.211 -593.195)" fill="#f2b32e"/>
        <path id="Trazado_1040696" data-name="Trazado 1040696" d="M2542.582,561.29l0-5.4-.123-1.883a10.351,10.351,0,0,1-6.3,3.357l-2.029.039-.021,2.775-.06.98c-.009,2.166-.593,7.018.969,8.513a3.7,3.7,0,0,0,2.769.88,5.573,5.573,0,0,0,3.976-1.571c1.394-1.653.852-5.578.819-7.689" transform="translate(-2143.366 -468.614)" fill="#f19fcd"/>
        <path id="Trazado_1040697" data-name="Trazado 1040697" d="M1079.155,707.73a15.511,15.511,0,0,1,.016-3.058,6.417,6.417,0,0,1,.9-.9h.383l.229,1.354a11.551,11.551,0,0,0,.03-1.956,19.644,19.644,0,0,1,3.613-2.869l-17.1,0c-1.4,0-4-.34-5.266,0a5.879,5.879,0,0,0-1.7,1.245c-.959.941-3.632,3.579-3.949,4.736a7.552,7.552,0,0,1-1.05.926c-.69.355-22.6-.041-25.444-.046.118,2.267-.184,4.68.111,6.907a15.267,15.267,0,0,0,5.242,9.255,14.6,14.6,0,0,0,9.9,3.424c5.592-1.472,9.845-3.88,14.676-6.975a130.468,130.468,0,0,0,19.07-15.2l.051,22.188c.738-1.188.279-16.283.293-19.032" transform="translate(-871.066 -592.234)" fill="#14065e"/>
        <path id="Trazado_1040698" data-name="Trazado 1040698" d="M1143.552,744.045c-4.831,3.1-9.083,5.5-14.676,6.975l33.8.012-.051-22.188a130.5,130.5,0,0,1-19.07,15.2" transform="translate(-954.876 -616.504)" fill="#05033c"/>
        <path id="Trazado_1040699" data-name="Trazado 1040699" d="M608.213,717.147c2.123-4.257,3.777-8.806,5.7-13.159l3.516-7.9a14.347,14.347,0,0,0,1.411-3.551c.092-.74-.177-.876-.617-1.436-3.644-.273-7.376-.1-11.032-.1l-19.314.041-6.586.027a9.9,9.9,0,0,0-3.1.192,2.634,2.634,0,0,0-1.369,1.049,32.477,32.477,0,0,0-1.973,4.661l-5.606,13.7-2.866,6.349Zm-19.162-11.883a10,10,0,0,1,5.3-5.371,3.742,3.742,0,0,1,2.047.018,2.02,2.02,0,0,1,1.065,1.3c.588,1.78-.067,3.868-.878,5.471a9.316,9.316,0,0,1-5.247,4.792,4.007,4.007,0,0,1-1.485-.034A2.3,2.3,0,0,1,588.429,710c-.553-1.341.091-3.472.622-4.737" transform="translate(-479.079 -584.444)" fill="#fcfcfb"/>
        <path id="Trazado_1040700" data-name="Trazado 1040700" d="M709.706,759.793a4,4,0,0,0,1.485.034,9.316,9.316,0,0,0,5.247-4.792c.811-1.6,1.465-3.692.878-5.471a2.021,2.021,0,0,0-1.065-1.3,3.743,3.743,0,0,0-2.047-.018,10,10,0,0,0-5.3,5.371c-.531,1.265-1.176,3.4-.622,4.737a2.3,2.3,0,0,0,1.427,1.437" transform="translate(-598.929 -632.8)" fill="#bbb8f0"/>
        <path id="Trazado_1040701" data-name="Trazado 1040701" d="M2459.566,429.125l.021-2.775-1.306-.392a10.069,10.069,0,0,1-5.574-5.615c-1.932-4.546-1.439-9.959.37-14.427.641,2.312,1.162,4.012,3.019,5.7a10.091,10.091,0,0,0,6.886,2.44c1.83-.08,3.726,1.554,5.36,2.328.68-1.106.909-1.908,2.128-2.472a2.3,2.3,0,0,1,1.764,1.182,5.14,5.14,0,0,1-.9,3.93,4.4,4.4,0,0,1-1.436.886,19.359,19.359,0,0,1-1.986,3.05l.123,1.883,0,5.4c7.849.1,14.645,1.232,21.029,6.214l1.454-1.3c2.022-1.916,4.081-4.453,4.578-7.291a35.549,35.549,0,0,0,.169-5.006,16.116,16.116,0,0,0-2.068-5.51l-1.679-2.025a23.3,23.3,0,0,0-3.84-2.4,12.739,12.739,0,0,0-9.73-.235,21.039,21.039,0,0,0-2.546,1.877,19.948,19.948,0,0,0-.729-5.763,13.966,13.966,0,0,0-7.151-8.136,14.326,14.326,0,0,0-10.995-.9,14.74,14.74,0,0,0-8.638,7.329,19.948,19.948,0,0,0-1.1,15.021c.96,2.817,2.772,5.9,5.276,7.57a29.452,29.452,0,0,1,3.624,2.412l3.819-2Z" transform="translate(-2068.823 -337.563)" fill="#14065e"/>
        <path id="Trazado_1040702" data-name="Trazado 1040702" d="M2593.562,501.3a4.408,4.408,0,0,0,1.436-.886,5.143,5.143,0,0,0,.9-3.93,2.3,2.3,0,0,0-1.764-1.182c-1.219.563-1.448,1.365-2.128,2.472l.9.516a17.988,17.988,0,0,0,.653,3.01" transform="translate(-2192.487 -418.961)" fill="#f19fcd"/>
        <path id="Trazado_1040703" data-name="Trazado 1040703" d="M2498.986,460.5a19.348,19.348,0,0,0,1.986-3.05,18.039,18.039,0,0,1-.653-3.01l-.9-.516c-1.635-.774-3.531-2.407-5.36-2.328a10.092,10.092,0,0,1-6.886-2.44c-1.857-1.684-2.378-3.383-3.019-5.7-1.809,4.468-2.3,9.881-.37,14.427a10.068,10.068,0,0,0,5.574,5.615l1.306.393,2.028-.039a10.35,10.35,0,0,0,6.3-3.357" transform="translate(-2099.897 -375.108)" fill="#fcfcfb"/>
        <path id="Trazado_1040704" data-name="Trazado 1040704" d="M1068.349,435.614a7.814,7.814,0,0,1,1.889,3.425c.681,2.727.369,6.329.485,9.161a73.419,73.419,0,0,1,.361,8.19l-.057.4a10.232,10.232,0,0,0,2.836,6.763c4.49,4.5,14.374,4.737,20.435,5a40.34,40.34,0,0,1,5.326.285l.163-12.371a22.579,22.579,0,0,0,.264-4.429l.351-14.853a16.872,16.872,0,0,0-7.5-5.7c-1.067-.463-2.736-.814-3.49-1.7l-.24-.11-.184,1.46-.117.548c-.44,1.792-1,3.327-2.664,4.3a4.257,4.257,0,0,1-3.426.395,7.824,7.824,0,0,1-4.455-4.04,4.834,4.834,0,0,1-.39-4.078c-5.352.825-10.233,2.217-14.763,5.273,2.18.084,3.658.425,5.177,2.085" transform="translate(-899.3 -362.247)" fill="#5aaabe"/>
        <path id="Trazado_1040705" data-name="Trazado 1040705" d="M1167.659,388.664a9.2,9.2,0,0,1-2.82-1.1c-2.867-1.674-4.219-4.341-5.063-7.4l-1.131,3.634-1.239,3.78a4.834,4.834,0,0,0,.39,4.077,7.825,7.825,0,0,0,4.455,4.04,4.258,4.258,0,0,0,3.426-.395c1.668-.969,2.225-2.505,2.664-4.3l.117-.548.184-1.459a5.234,5.234,0,0,0-.982-.328" transform="translate(-978.771 -321.563)" fill="#f4f2fb"/>
        <path id="Trazado_1040706" data-name="Trazado 1040706" d="M1024.372,485.686l9.524.042.057-.4a73.423,73.423,0,0,0-.361-8.19c-.116-2.831.2-6.434-.485-9.161a7.808,7.808,0,0,0-1.889-3.425c-1.519-1.659-3-2-5.177-2.085-3.758,3.1-6.065,6.056-6.547,11.121-.273,2.87-.169,5.827-.17,8.708,0,.62-.186,2.755.163,3.163a2.188,2.188,0,0,0,.878.553c.968-.577,2.866-.328,4.006-.327" transform="translate(-862.168 -391.186)" fill="#288fa0"/>
        <path id="Trazado_1040707" data-name="Trazado 1040707" d="M2243.685,707.264l10.423.055,26.29.191c3.723.007,7.783.358,11.473.012a7.747,7.747,0,0,0-.653-2.787l-2.351-6.983-4.177-14c-1.023-3.265-2.312-6.45-3.085-9.79-1.24-.79-4.235-.393-5.716-.384l-16.43.1-22.389.034c-2.627,0-5.908-.448-8.451.009a2.777,2.777,0,0,0-1.339.833,2.473,2.473,0,0,0-.789,1.957c0,1.648,1.342,4.071,1.905,5.651l8.629,23.917a5.27,5.27,0,0,0,1.905,1.125,32.554,32.554,0,0,0,4.755.066m8.719-19.4c.557-1.78,1.836-2.662,3.4-3.509a8.565,8.565,0,0,1,4.009.491,9.316,9.316,0,0,1,4.936,4.9,7.718,7.718,0,0,1,.481,5.993,5.282,5.282,0,0,1-3.109,2.811,11.872,11.872,0,0,1-3.437-.216,8.944,8.944,0,0,1-5.424-4.292,7.43,7.43,0,0,1-.861-6.174" transform="translate(-1883.309 -569.662)" fill="#fcfcfb"/>
        <path id="Trazado_1040708" data-name="Trazado 1040708" d="M2593.491,703.019l-4.972-15.577-2.182-7.144a10.074,10.074,0,0,0-.879-2.422,10.859,10.859,0,0,0-1.4-1.22c.773,3.34,2.062,6.525,3.085,9.79l4.177,14,2.351,6.983a7.757,7.757,0,0,1,.653,2.787c.551-.421.548-.792.729-1.428l-1.12-4.307Z" transform="translate(-2185.764 -572.36)" fill="#dfdef3"/>
        <path id="Trazado_1040709" data-name="Trazado 1040709" d="M2350.651,888.941l-.042-3.77-.2-.139c-.18.636-.177,1.007-.728,1.428-3.69.346-7.75,0-11.473-.011l-26.29-.191-10.423-.055a32.571,32.571,0,0,1-4.755-.066,5.265,5.265,0,0,1-1.905-1.125,6.031,6.031,0,0,0,2.868,3.573c1.665.771,4.813.418,6.646.42l15.274-.019,21.6.14c2.956,0,6.546.4,9.429-.185" transform="translate(-1941.118 -748.602)" fill="#f4f2fb"/>
        <path id="Trazado_1040710" data-name="Trazado 1040710" d="M2399.064,757.787a11.873,11.873,0,0,0,3.437.216,5.283,5.283,0,0,0,3.109-2.811,7.719,7.719,0,0,0-.481-5.993,9.318,9.318,0,0,0-4.936-4.9,8.563,8.563,0,0,0-4.009-.491c-1.568.847-2.847,1.729-3.4,3.509a7.429,7.429,0,0,0,.861,6.174,8.943,8.943,0,0,0,5.423,4.293" transform="translate(-2023.686 -629.119)" fill="#dfdef3"/>
        <path id="Trazado_1040711" data-name="Trazado 1040711" d="M1650.412,8.618a17.41,17.41,0,0,0-.262-4.67,6.209,6.209,0,0,0-3.028-3.373,5.788,5.788,0,0,0-2.516-.513L1621.657.036h-45.736l-31.9-.008-7.98.011a13.172,13.172,0,0,0-3.863.21,6.078,6.078,0,0,0-3.623,2.924l-.074.151C1527.76,4.768,1528,6.7,1528,8.285l.03,8.937,122.378-.027ZM1537.74,11.781a1.883,1.883,0,0,1-.621.163,2.683,2.683,0,0,1-2.165-.853,2.754,2.754,0,0,1-.6-2.186,3.112,3.112,0,0,1,1.512-1.806,1.392,1.392,0,0,1,.425-.1,2.683,2.683,0,0,1,2.172.59,2.892,2.892,0,0,1,.913,2.37,3.169,3.169,0,0,1-1.639,1.822m11.437-1.532a3.807,3.807,0,0,1-1.806,1.66,3.949,3.949,0,0,1-2.408-.552,3.274,3.274,0,0,1-.729-2.6,3.4,3.4,0,0,1,1.827-1.655l.493-.09a2.541,2.541,0,0,1,1.945.657c.831.777.7,1.573.677,2.582m10.064-.29a3.033,3.033,0,0,1-1.637,1.8,4.228,4.228,0,0,1-1.956-.037,3.368,3.368,0,0,1-1.083-.939,2.452,2.452,0,0,1-.232-2.112,2.774,2.774,0,0,1,1.616-1.575,3.325,3.325,0,0,1,2.558.586,3,3,0,0,1,.734,2.273m86.247.545c-2.709.505-61.775.256-62.584-.094A8.375,8.375,0,0,1,1582.961,8c2.152-.576,5.255-.157,7.536-.156l18.341,0,24.842.009c3.792,0,8.1-.385,11.828.127a6.177,6.177,0,0,1-.021,2.519" transform="translate(-1292.448 -0.002)" fill="#5927e2"/>
        <path id="Trazado_1040712" data-name="Trazado 1040712" d="M1699.906,45.771a2.775,2.775,0,0,0-1.616,1.575,2.453,2.453,0,0,0,.232,2.112,3.366,3.366,0,0,0,1.083.939,4.225,4.225,0,0,0,1.956.037,3.032,3.032,0,0,0,1.637-1.8,3,3,0,0,0-.734-2.273,3.325,3.325,0,0,0-2.558-.587" transform="translate(-1436.405 -38.673)" fill="#14065e"/>
        <path id="Trazado_1040713" data-name="Trazado 1040713" d="M1573.556,45.841a2.685,2.685,0,0,0-2.172-.59,1.4,1.4,0,0,0-.425.1,3.112,3.112,0,0,0-1.513,1.806,2.754,2.754,0,0,0,.6,2.186,2.683,2.683,0,0,0,2.165.853,1.885,1.885,0,0,0,.621-.163,3.169,3.169,0,0,0,1.639-1.822,2.892,2.892,0,0,0-.913-2.37" transform="translate(-1327.538 -38.253)" fill="#14065e"/>
        <path id="Trazado_1040714" data-name="Trazado 1040714" d="M1635.852,45.42l-.494.09a3.4,3.4,0,0,0-1.827,1.655,3.274,3.274,0,0,0,.729,2.6,3.948,3.948,0,0,0,2.408.552,3.809,3.809,0,0,0,1.806-1.66c.018-1.009.153-1.8-.677-2.582a2.54,2.54,0,0,0-1.944-.657" transform="translate(-1381.744 -38.412)" fill="#14065e"/>
        <path id="Trazado_1040715" data-name="Trazado 1040715" d="M1934.852,50.1l-24.842-.009-18.341,0c-2.281,0-5.385-.42-7.536.156a8.377,8.377,0,0,0-.057,2.408c.81.35,59.875.6,62.584.094a6.181,6.181,0,0,0,.021-2.519c-3.732-.511-8.036-.124-11.828-.127" transform="translate(-1593.619 -42.244)" fill="#8767ef"/>
        <path id="Trazado_1040716" data-name="Trazado 1040716" d="M490.771,308.519a7.021,7.021,0,0,1-3.6,3.833l-.424.157-.245,4.427,7.939-7.7a14.04,14.04,0,0,1,2.079-1.995,11.414,11.414,0,0,1,2.341,0l7.983,0,44.937-.065c1.321-.037,2.343-.026,3.271-1.106a3.076,3.076,0,0,0,.755-1.708c.484-3.892.09-8.415.1-12.372.009-3.921.421-8.3-.041-12.152a3.788,3.788,0,0,0-1.5-2.561,3.242,3.242,0,0,0-1.73-.623c-4.682-.316-9.6-.031-14.309-.036L509,276.622H494.555a33.4,33.4,0,0,0-5.951.08,4.072,4.072,0,0,0-2.15,1.865c-.547,1.062-.616,22.607-.08,24.07l.059.145a11.216,11.216,0,0,0,3.746-2.439c1.249,2.86,1.8,5.163.592,8.174m47.73-8.706c-2.036.794-5.925.306-8.18.3l-22.423-.089c-3.4-.014-7.266-.383-10.617.07l-.754-.662.021-.955.777-.645,40.076.1c.844.091.888.166,1.426.843Zm-41.328-15.4,31.726-.194.548,1.02a3.652,3.652,0,0,1-.488,1.063l-.781.109c-8.072.456-16.432,0-24.534-.01h-4.887a6.184,6.184,0,0,1-1.433,0,3.911,3.911,0,0,1-.645-.557c-.063-.813-.027-.792.494-1.428m-.217,4.437c2.064-.384,40.347-.27,41-.034a5.04,5.04,0,0,1,.82.551l.1.988-.567.6a38.273,38.273,0,0,1-5.089.018L523.6,290.9l-19.373-.028c-2.074,0-5.583.467-7.4-.22-.32-.943-.3-.909.137-1.806m.207,4.515c3.22-.413,6.845-.1,10.1-.1l20.635.012h7.192a12.46,12.46,0,0,1,2.56,0,4.616,4.616,0,0,1,.818.6l.087.988-.594.6c-3.786.406-8.166-.045-12-.057l-22.131.034c-1.551,0-5.349.431-6.65-.11-.539-.224-.55-.567-.714-1.071Z" transform="translate(-411.095 -233.893)" fill="#d9447c"/>
        <path id="Trazado_1040717" data-name="Trazado 1040717" d="M555.77,328.658a6.186,6.186,0,0,0,1.433,0h4.887c8.1.008,16.462.466,24.534.01l.781-.109a3.659,3.659,0,0,0,.488-1.063l-.548-1.02-31.725.194c-.521.636-.557.615-.494,1.428a3.912,3.912,0,0,0,.645.557" transform="translate(-469.542 -276.157)" fill="#fcfcfb"/>
        <path id="Trazado_1040718" data-name="Trazado 1040718" d="M554.58,386.622c1.3.541,5.1.111,6.65.11l22.131-.034c3.838.011,8.218.463,12,.057l.594-.6-.087-.988a4.635,4.635,0,0,0-.818-.6,12.449,12.449,0,0,0-2.56,0H585.3l-20.635-.012c-3.26,0-6.884-.317-10.1.1l-.7.9c.164.5.175.847.714,1.071" transform="translate(-468.496 -325.181)" fill="#f4f2fb"/>
        <path id="Trazado_1040719" data-name="Trazado 1040719" d="M562.357,357.178l19.373.028,9.625.072a38.249,38.249,0,0,0,5.088-.018l.567-.6-.1-.988a5.072,5.072,0,0,0-.82-.551c-.652-.236-38.935-.35-41,.034-.44.9-.457.863-.137,1.806,1.821.687,5.329.219,7.4.22" transform="translate(-469.23 -300.2)" fill="#fcfcfb"/>
        <path id="Trazado_1040720" data-name="Trazado 1040720" d="M595.135,414.927l-40.077-.1-.777.645-.02.955.754.662c3.351-.453,7.218-.084,10.617-.07l22.423.089c2.255.006,6.144.494,8.18-.3l.325-1.035c-.538-.677-.582-.752-1.426-.843" transform="translate(-468.83 -350.885)" fill="#f4f2fb"/>
        <path id="Trazado_1040721" data-name="Trazado 1040721" d="M153.591,1041.166l9.34-54.089c-.527-1.084,1.844-10.291,2.206-12.143l1.156-7.093a53.257,53.257,0,0,1-23.266-4.769l-11.845,77.763c.576.55,1.083.419,1.854.464l13.307-.1c2.289.031,5.013.355,7.248-.032" transform="translate(-110.961 -814.629)" fill="#f7c236"/>
        <path id="Trazado_1040722" data-name="Trazado 1040722" d="M248.295,1172.884l-.553-.18c-.773-5.289-.364-11.309-.467-16.7l-.76-25.008c-.088-3.966.246-8.281-.38-12.178l-9.34,54.089c-2.236.388-4.959.063-7.248.032,1.948,2.653,3.4,4.007,6.663,4.863a10.514,10.514,0,0,1,6.773,4.1,11.539,11.539,0,0,1,1.756,4.879,35.651,35.651,0,0,1,3.806.061l.043-8.679a16.19,16.19,0,0,0-.292-5.28" transform="translate(-194.165 -946.366)" fill="#3c2285"/>
        <path id="Trazado_1040723" data-name="Trazado 1040723" d="M231.073,667.974l1.4.074a47.745,47.745,0,0,0,17.808-3.079l1.665-11.441a21.382,21.382,0,0,1-4.681-.233l-.367-.07a23.3,23.3,0,0,0-3.567.965,30.024,30.024,0,0,1-12.288.394c-7.88-1.448-12.192-6.859-16.437-13.1l-1.243-2.642c1.719-.694,3.6-.932,5.343-1.626,2.87-1.142,5.434-2.792,8.195-4.144a17.406,17.406,0,0,0,8.155,7.8c5.562,2.547,12.851.645,18.244-1.356L255.1,617.13c-2.058-3.055-4.821-4.758-8.121-6.234l-3.438-.22c-.407.408-.425,1.256-.641,1.8a6.813,6.813,0,0,1-2.073,2.741,6.045,6.045,0,0,1-4.747,1.309,5.818,5.818,0,0,1-3.808-2.209c-1.348-1.754-1.186-3.49-.876-5.53-5.654-.731-11.793.251-16.4,3.821a15.637,15.637,0,0,0-5.979,10.286,16.207,16.207,0,0,0,.179,5.588c.538,2.355,1.873,4.371,1.386,6.84-.282,3.137-3.18,27.19-2.768,27.881a53.255,53.255,0,0,0,23.266,4.769" transform="translate(-175.742 -514.761)" fill="#d54fb1"/>
        <path id="Trazado_1040724" data-name="Trazado 1040724" d="M275.822,784.606a2.958,2.958,0,0,1,1.065-2.172c1.131-1.119,6.094-.7,7.78-.7,1.127-.92,2.518-1.561,3.722-2.408,1.134-.8,2.266-1.726,2.454-3.192.164-1.275-.48-2.04-1.2-3a2.737,2.737,0,0,0-1.946-.611L284.021,774c-5.394,2-12.682,3.9-18.244,1.356a17.407,17.407,0,0,1-8.155-7.8c-2.761,1.352-5.325,3-8.195,4.144-1.742.693-3.625.931-5.344,1.626l1.243,2.642c4.245,6.245,8.557,11.657,16.437,13.1a30.027,30.027,0,0,0,12.288-.394,23.3,23.3,0,0,1,3.567-.965l-.405-.36a3.694,3.694,0,0,1-1.39-2.751" transform="translate(-206.461 -649.253)" fill="#f19fcd"/>
        <path id="Trazado_1040725" data-name="Trazado 1040725" d="M513.566,806.735c-.189,1.465-1.32,2.395-2.454,3.192-1.2.847-2.6,1.488-3.722,2.408l6.479.077,2.613.013,2.865-6.349L513.983,804l-1.619-.26c.722.956,1.365,1.721,1.2,3" transform="translate(-429.182 -679.855)" fill="#d54fb1"/>
        <g transform="matrix(1, 0, 0, 1, -53.57, 0)" filter="url(#Trazado_1040726)">
          <path id="Trazado_1040726-2" data-name="Trazado 1040726" d="M1711.744,1235.595l-11.768.009c-2,.006-4.458-.271-6.372.321a8.012,8.012,0,0,0-4.623,3.706,7.317,7.317,0,0,0-1.072,4.351c2.278,1.722,2.5,4.462,3.271,7.073a13.477,13.477,0,0,0,3.958-.111c2.164-.846,6.031-.349,8.385-.353l19.425-.01.524.413.039,1.527a5.219,5.219,0,0,1-2.7.435,7.932,7.932,0,0,0,2.712.213l.09.421-12.4.008a33.211,33.211,0,0,0-6.194.159l13.634.2c1.032.006,3.22-.277,4.138.024a1.505,1.505,0,0,1,.479.391,3.926,3.926,0,0,1,.37.833l-.247.587c-1.944.614-4.873.181-6.946.171l-13.152.061c-1.321.01-4.25.375-5.333-.171l-1.27.406c-.37.905.6,3.263,1.026,4.214a2.66,2.66,0,0,0,.355.55c1.628-.545,3.991-.225,5.745-.227h13.092a44.064,44.064,0,0,0,9.041-.425,21.369,21.369,0,0,1,3.567-.074l7.72-.087c11.852-.169,23.942-.706,35.773-.11a3.654,3.654,0,0,1,1.875.556,5.942,5.942,0,0,0,1.138-.421,6.32,6.32,0,0,0,2.934-3.774,6.467,6.467,0,0,0-.831-5.114,5.406,5.406,0,0,0-3.578-2.414,16.036,16.036,0,0,1-4.858.3l-9.785.027-35.286-.072-22.043.105c-2.026-.01-5.405.432-7.262-.26a1.9,1.9,0,0,1,.458-1.561l28.1.174,35.3.077c4.6.029,9.417-.317,13.989.032a2.318,2.318,0,0,1,1.52.557l.449-.114a5.844,5.844,0,0,0,3.332-3.028,6.469,6.469,0,0,0,.385-4.7l-.054-.164a5.341,5.341,0,0,0-1.138-2.084,6.926,6.926,0,0,0-3.085-2.117c-1.526-.442-3.8-.186-5.432-.193l-11.482-.165-12.821-.194-22.558.055-6.113-.006Zm5.222,7.647a2.38,2.38,0,0,1-.638,2.03c-1.068.768-13.61.62-15.488.318-.909-.145-1.008-.52-1.511-1.218.018-1.162-.108-1.354.683-2.257,1.207-.465,3.217-.205,4.524-.206l11.19.016a2.493,2.493,0,0,1,1.24,1.317" transform="translate(-1374.13 -1045.1)" fill="#f4f2fb"/>
        </g>
        <path id="Trazado_1040727" data-name="Trazado 1040727" d="M1736.771,1312.958a1.9,1.9,0,0,0-.458,1.561c1.857.692,5.237.251,7.262.26l22.043-.106a3.608,3.608,0,0,0-.743-1.542Z" transform="translate(-1468.686 -1110.585)" fill="#cc4fdd"/>
        <path id="Trazado_1040728" data-name="Trazado 1040728" d="M1753.48,1355.382c1.083.545,4.012.181,5.333.171l13.153-.061c2.073.01,5,.443,6.946-.171l.247-.587a3.932,3.932,0,0,0-.37-.833,1.508,1.508,0,0,0-.479-.391c-.918-.3-3.106-.018-4.138-.025l-13.634-.2-6.8-.077a5.381,5.381,0,0,1-.253,2.175" transform="translate(-1483.207 -1144.63)" fill="#cc4fdd"/>
        <path id="Trazado_1040729" data-name="Trazado 1040729" d="M1767.512,1276.447c-1.306,0-3.317-.259-4.523.206-.792.9-.665,1.1-.683,2.257.5.7.6,1.073,1.511,1.218,1.878.3,14.42.45,15.488-.318a2.382,2.382,0,0,0,.638-2.03,2.494,2.494,0,0,0-1.24-1.316Z" transform="translate(-1490.672 -1079.641)" fill="#5927e2"/>
        <path id="Trazado_1040730" data-name="Trazado 1040730" d="M1956.926,1313.9l-35.3-.077a3.615,3.615,0,0,1,.743,1.542l35.286.071,9.784-.027a16.033,16.033,0,0,0,4.858-.3l.142-.617a2.319,2.319,0,0,0-1.52-.557c-4.572-.349-9.393,0-13.989-.032" transform="translate(-1625.432 -1111.277)" fill="#dfdef3"/>
        <path id="Trazado_1040731" data-name="Trazado 1040731" d="M1737.795,1334.5l.087.191c2.426-.424,5.463-.09,7.973-.085,4.93.009,10.043-.245,14.946.151a5.218,5.218,0,0,0,2.7-.435l-.039-1.527-.524-.413-19.425.01c-2.354,0-6.221-.492-8.385.353a3.669,3.669,0,0,1,2.67,1.756" transform="translate(-1467.681 -1126.902)" fill="#cc4fdd"/>
        <path id="Trazado_1040732" data-name="Trazado 1040732" d="M1760.984,1346.818c-2.51,0-5.547-.338-7.973.085l.325.79,6.8.077a33.2,33.2,0,0,1,6.194-.159l12.4-.008-.09-.421a7.93,7.93,0,0,1-2.712-.214c-4.9-.4-10.016-.142-14.946-.151" transform="translate(-1482.81 -1139.117)" fill="#fcfcfb"/>
        <path id="Trazado_1040733" data-name="Trazado 1040733" d="M1793.368,1393.476l-7.72.087a21.353,21.353,0,0,0-3.566.074,44.064,44.064,0,0,1-9.041.425h-13.092c-1.755,0-4.117-.318-5.745.227l.454.928,33.856-.132,28.011.012,9.363-.009c1.791-.013,3.684.131,5.354-.6l-.226-.562a3.654,3.654,0,0,0-1.875-.556c-11.831-.6-23.921-.059-35.773.11" transform="translate(-1483.819 -1178.368)" fill="#dfdef3"/>
        <g transform="matrix(1, 0, 0, 1, -53.57, 0)" filter="url(#Trazado_1040734)">
          <path id="Trazado_1040734-2" data-name="Trazado 1040734" d="M1828.381,1402.728l-9.363.008-28.012-.012-33.856.132a27.454,27.454,0,0,0,1.535,4.776l11.97-.012a17.069,17.069,0,0,1,3.687,0,5.73,5.73,0,0,1,.918.683,2.87,2.87,0,0,1,.141,2.107,8.379,8.379,0,0,1-.909.787c-.707.438-2.781.231-3.636.233h-10.937l.626,2.127,10.748,0a43.875,43.875,0,0,0,5.213-.021l57.681.035.551-.184a5.463,5.463,0,0,0,2.486-2.748,7.012,7.012,0,0,0,.132-5.146,6.278,6.278,0,0,0-3.621-3.361c-1.671.736-3.564.591-5.354.6" transform="translate(-1432.74 -1186.01)" fill="#f4f2fb"/>
        </g>
        <path id="Trazado_1040735" data-name="Trazado 1040735" d="M1779.28,1440.934c.855,0,2.928.2,3.636-.233a8.407,8.407,0,0,0,.909-.787,2.87,2.87,0,0,0-.142-2.107,5.735,5.735,0,0,0-.918-.683,17.069,17.069,0,0,0-3.687,0l-11.97.012,1.234,3.794Z" transform="translate(-1494.735 -1215.513)" fill="#5927e2"/>
        <path id="Trazado_1040736" data-name="Trazado 1040736" d="M516.9,1557.86c-1.619-.44-4.012-.109-5.749-.1l-14.278.062c-2.4.008-5.384-.375-7.723.04-1.327.512-4.277.139-5.83.142-5.6.011-11.654.47-17.2-.122-3.678-.536-8.132-.07-11.876-.073l-25.733.087-10.748.362a12.525,12.525,0,0,1-2.579.038,3.38,3.38,0,0,1-.554-.488c-.518-.333-26.4-.025-29.206-.056a90.388,90.388,0,0,1-9.749.3,17.294,17.294,0,0,1-4.18-.116c-2.257-.461-5.147-.128-7.464-.128l-16.271-.1c-3,.67-6.552.285-9.64.285l-18.5-.011-35.665,0-20.2-.032-16.921-.084-131.138-.12-31.749.126c-3.838.529-8.134.166-12.02.165l-17.562-.022a35.618,35.618,0,0,0-3.805-.061c-4.038.484-8.562.1-12.646.1-5.216,0-10.773.384-15.949-.157l-16.67-.083c-1.049,0-3.789-.305-4.706.11a3.818,3.818,0,0,0-.6.583c.052.225.082.694.275.815,1.159.727,19.6.274,22.407.277l72.01-.05,115.283.047,134.463.2,91.21-.233,64.525.24,11.578-.13c1.658-.023,3.874.207,5.46-.236l.129-.039.3-.753c-.238-.411-.259-.651-.734-.781" transform="translate(0 -1317.537)" fill="#14065e"/>
        <path id="Trazado_1040737" data-name="Trazado 1040737" d="M2700.724,1519.536c-1.15-.305-2.375-1.72-3.338-2.464-1.9,1.183-4.773,2.373-6.164,4.086a9.652,9.652,0,0,0-1.135,2.348,3.362,3.362,0,0,0,.554.488,12.524,12.524,0,0,0,2.579-.038l10.748-.362.072-.339c.208-1.184.385-3.181-.328-4.189l-1.111-1.486-.268.467c-.518.818-.656,1.274-1.61,1.489" transform="translate(-2275.451 -1283.238)" fill="#05033c"/>
        <path id="Trazado_1040738" data-name="Trazado 1040738" d="M2734.331,1497.856c.963.744,2.188,2.158,3.338,2.464.954-.215,1.093-.672,1.61-1.489l.268-.467-1.068-4.009a24.642,24.642,0,0,1-4.608,1.183c-.292.984.072,1.388.46,2.319" transform="translate(-2312.395 -1264.023)" fill="#f5ec92"/>
        <path id="Trazado_1040739" data-name="Trazado 1040739" d="M158.535,1510.569c4.085,0,8.609.387,12.646-.1a11.542,11.542,0,0,0-1.756-4.879,10.515,10.515,0,0,0-6.773-4.1l-20.027.068-.04,8.855c5.176.541,10.734.156,15.949.157" transform="translate(-120.608 -1270.057)" fill="#fcfcfb"/>
        <path id="Trazado_1040740" data-name="Trazado 1040740" d="M156.208,1469.941l-13.307.1-.057,4.83,20.027-.068c-3.265-.856-4.715-2.21-6.664-4.863" transform="translate(-120.827 -1243.372)" fill="#8432f6"/>
        <path id="Trazado_1040741" data-name="Trazado 1040741" d="M374.56,1503.2l-21.717.1-.043,8.679,17.562.022c3.886,0,8.182.364,12.02-.165a9.131,9.131,0,0,0-.955-3.8c-1.608-2.769-3.858-4.015-6.867-4.834" transform="translate(-298.421 -1271.504)" fill="#fcfcfb"/>
        <path id="Trazado_1040742" data-name="Trazado 1040742" d="M351.184,1469.481a16.191,16.191,0,0,1,.292,5.28l21.717-.1a22.5,22.5,0,0,1-7.693-5.1l-11.722-.1Z" transform="translate(-297.054 -1242.964)" fill="#8432f6"/>
        <g transform="matrix(1, 0, 0, 1, -53.57, 0)" filter="url(#Trazado_1040743)">
          <path id="Trazado_1040743-2" data-name="Trazado 1040743" d="M1786.992,1482.123l-12.623.077-19.4-.047c-3.386-.021-6.9.133-10.269-.1-2.212,1.338-19.22.622-23,.606l-.156,1.063,21.222.152.5.6-.105.9c-1.438.861-19.13.329-22.242.324l-.536,1.179,17.483.016c1.186,0,3.883-.329,4.9,0a3.837,3.837,0,0,1,.659.432l.081,1.2a3.359,3.359,0,0,1-.59.4c-1.147.362-3.934.019-5.234.025l-18.693.09a14.824,14.824,0,0,1-4.824,3.348,11.6,11.6,0,0,0-2.883,1.008l20.2.032,35.665,0,18.5.011c3.088,0,6.643.385,9.64-.285a7.553,7.553,0,0,0,3.181-3.244,6.61,6.61,0,0,0,.018-5.054,6.313,6.313,0,0,0-3.777-3.544,2.947,2.947,0,0,1-1.372.68c-2.05.229-4.268.094-6.339.114" transform="translate(-1393.94 -1253)" fill="#f4f2fb"/>
        </g>
        <path id="Trazado_1040744" data-name="Trazado 1040744" d="M1796.068,1498.512l.105-.9-.5-.6-21.221-.152a11.679,11.679,0,0,1-.623,1.982c3.112.005,20.8.537,22.242-.324" transform="translate(-1500.417 -1266.136)" fill="#cc4fdd"/>
        <path id="Trazado_1040745" data-name="Trazado 1040745" d="M1778.884,1478.249c3.78.015,20.788.731,23-.606l-.464-.637a4.587,4.587,0,0,0-.87-.807,7.08,7.08,0,0,0-1.427-.021l-4.235-.062a43.875,43.875,0,0,1-5.213.021l-10.748,0a13.316,13.316,0,0,1-.045,2.108" transform="translate(-1504.695 -1248.594)" fill="#cc4fdd"/>
        <path id="Trazado_1040746" data-name="Trazado 1040746" d="M1779.983,1518.747c1.3-.006,4.087.337,5.234-.025a3.351,3.351,0,0,0,.59-.4l-.081-1.2a3.819,3.819,0,0,0-.659-.432c-1.014-.334-3.711,0-4.9,0l-17.484-.016-1.4,2.176Z" transform="translate(-1489.813 -1282.781)" fill="#cc4fdd"/>
        <path id="Trazado_1040747" data-name="Trazado 1040747" d="M1886.96,1476.177a7.077,7.077,0,0,1,1.427.021,4.582,4.582,0,0,1,.87.807l.463.637c3.368.234,6.883.08,10.269.1l19.4.047,12.623-.077c2.071-.021,4.289.115,6.338-.114a2.947,2.947,0,0,0,1.373-.68c.009-.235.5-.594.686-.769l-57.681-.034Z" transform="translate(-1592.531 -1248.594)" fill="#dfdef3"/>
        <path id="Trazado_1040748" data-name="Trazado 1040748" d="M837.832,1499.667c-3.565-.469-7.672-.1-11.3-.1l-24.064-.017-61.013-.039-31.063-.027a5.8,5.8,0,0,0,.322,3.942c1.062,2.669,3.166,4.046,5.7,5.1l131.138.12-3.184-1.336c-3.449-1.578-5.25-4.228-6.532-7.638" transform="translate(-600.7 -1268.314)" fill="#bbb8f0"/>
        <path id="Trazado_1040749" data-name="Trazado 1040749" d="M2662.921,300.81a23.278,23.278,0,0,1,3.84,2.4l41.932-.067,8.794,0a14.7,14.7,0,0,1,3.016,0,4.251,4.251,0,0,1,.68.58l0,.857a4.616,4.616,0,0,1-.828.563,14.433,14.433,0,0,1-2.958,0l-8.027.011-40.927.072a16.1,16.1,0,0,1,2.068,5.51c.353.413.187,2.926.2,3.609l8.208-.025-1.74,14.19a51.017,51.017,0,0,0,5.553-4.057l10.368-7.65a22.01,22.01,0,0,1,3.4-2.451,8.873,8.873,0,0,1,2.185-.068l7.094,0,35.665-.023a7.6,7.6,0,0,0,2.92-2.621,3.566,3.566,0,0,0,.454-1.6c.214-3.026.036-6.183.036-9.219l-.012-17.546-.012-9.112a14.8,14.8,0,0,0-.19-4.218,4.853,4.853,0,0,0-2.3-2.651l-.166-.085a3.728,3.728,0,0,0-1.5-.492c-4.975-.4-10.3-.035-15.3-.025l-30.573.017h-26.275c-3.711,0-7.939-.382-11.6.041-1.607.186-2.769,1.693-3.636,2.9a44.823,44.823,0,0,0-.18,6.266l-.054,10.85-.03,8.9a24.306,24.306,0,0,0,.169,4.912,12.738,12.738,0,0,1,9.73.235m53.368-21.307,1.58,0-.71-.255.184-.222c3.01-.22,6.073-.1,9.095-.088,1.354.008,2.88-.163,4.105.5l.067.52.535.9-.358.8c-3.181.971-7.178-.228-10.461.352,2.344.492,5.276.168,7.717.174a8.824,8.824,0,0,1,2.682.13,20.193,20.193,0,0,1-4.981.237,87.585,87.585,0,0,1-9.448-.165,2.086,2.086,0,0,1-.906-1.529Zm1.415,12.466a9.919,9.919,0,0,1,2.772.087c.518.189.56.533.759.988l-.4.9c-2,.516-5.047.107-7.193.1l-17.688-.076-19.822.064c-2.308.007-5.381.384-7.615-.025-.731-.134-.831-.378-1.192-.96l.295-.9a15.6,15.6,0,0,1,3.91-.157l7.5,0,31.087-.021ZM2667.878,280.1c2.817-.475,6.239-.109,9.113-.114l21.7.017,5.457.016a10.9,10.9,0,0,1,2.206.007,4.277,4.277,0,0,1,.749.525l.081.752-.53.653a74.23,74.23,0,0,1-9.086.077l-19.714.014-7.1,0a13.266,13.266,0,0,1-2.622,0,4.1,4.1,0,0,1-.716-.448l-.081-.9Zm-.169,6.019a60.226,60.226,0,0,1,8.129-.161l14.606.008,10.434.015a40.737,40.737,0,0,1,5.923.138l.479.753-.343.752-.126.08c-1.442.822-5.836.313-7.575.317l-24.589-.013c-1.628-.005-4.951.421-6.42-.111-.608-.22-.626-.331-.9-.875Zm.638,11.136c4.181-.223,51.168-.342,52.156.066a4.7,4.7,0,0,1,.725.536l-.1.926-.927.427-35.885.081-10.429.017a43.429,43.429,0,0,1-5.821-.105c-.536-.073-.587-.329-.9-.744.3-.823.395-.789,1.18-1.2" transform="translate(-2244.064 -225.45)" fill="#9d7cf1"/>
        <path id="Trazado_1040750" data-name="Trazado 1040750" d="M3058.776,350.21a87.55,87.55,0,0,0,9.448.165,20.19,20.19,0,0,0,4.981-.237,8.825,8.825,0,0,0-2.682-.13c-2.441-.007-5.372.317-7.717-.174-1.517-.033-3.058.289-4.238-.7l.09-.752a4.149,4.149,0,0,1,.713-.565,15.363,15.363,0,0,1,3.229-.008l10.489-.023-.066-.52c-1.225-.664-2.751-.494-4.105-.5-3.021-.017-6.085-.132-9.095.088l-.184.222.71.255-1.58,0-.9,1.351a2.085,2.085,0,0,0,.906,1.529" transform="translate(-2586.545 -293.276)" fill="#8767ef"/>
        <path id="Trazado_1040751" data-name="Trazado 1040751" d="M3063.2,353.273a4.145,4.145,0,0,0-.713.565l-.09.752c1.18.99,2.721.669,4.238.7,3.283-.58,7.28.619,10.461-.351l.358-.8-.536-.9-10.489.023a15.363,15.363,0,0,0-3.229.008" transform="translate(-2590.375 -298.734)" fill="#fcfcfb"/>
        <path id="Trazado_1040752" data-name="Trazado 1040752" d="M2746.934,394.207c1.469.531,4.792.105,6.42.111l24.589.013c1.74,0,6.134.505,7.575-.317l.126-.08.343-.752-.479-.752a40.734,40.734,0,0,0-5.923-.138l-10.435-.015-14.606-.008a60.2,60.2,0,0,0-8.129.161l-.385.9c.277.544.3.655.9.875" transform="translate(-2322.771 -331.757)" fill="#fcfcfb"/>
        <path id="Trazado_1040753" data-name="Trazado 1040753" d="M2746.906,355.186a13.262,13.262,0,0,0,2.622,0l7.1,0,19.714-.014a74.2,74.2,0,0,0,9.086-.077l.53-.653-.081-.753a4.263,4.263,0,0,0-.75-.525,10.912,10.912,0,0,0-2.206-.007l-5.457-.016-21.7-.017c-2.874,0-6.3-.361-9.114.114l-.542.6.081.9a4.1,4.1,0,0,0,.716.447" transform="translate(-2322.837 -298.582)" fill="#fcfcfb"/>
        <path id="Trazado_1040754" data-name="Trazado 1040754" d="M2750.255,431.271a15.6,15.6,0,0,0-3.91.157l-.295.9c.361.582.46.826,1.192.96,2.233.409,5.306.032,7.615.025l19.822-.064,17.688.076c2.146.011,5.192.421,7.193-.1l.4-.9c-.2-.455-.241-.8-.759-.988a9.914,9.914,0,0,0-2.772-.087l-7.587-.008-31.088.021Z" transform="translate(-2322.787 -364.738)" fill="#fcfcfb"/>
        <path id="Trazado_1040755" data-name="Trazado 1040755" d="M2793.012,505.591a14.433,14.433,0,0,0,2.959,0,4.617,4.617,0,0,0,.828-.563l0-.857a4.236,4.236,0,0,0-.68-.58,14.7,14.7,0,0,0-3.016,0l-8.794,0-41.931.067,1.679,2.025,40.927-.072Z" transform="translate(-2319.683 -425.889)" fill="#fcfcfb"/>
        <path id="Trazado_1040756" data-name="Trazado 1040756" d="M2745.916,466.7a43.462,43.462,0,0,0,5.821.105l10.429-.017,35.885-.081.927-.427.1-.926a4.694,4.694,0,0,0-.725-.536c-.987-.408-47.975-.289-52.156-.066-.786.415-.882.381-1.18,1.2.313.415.364.671.9.744" transform="translate(-2321.913 -392.945)" fill="#fcfcfb"/>
        <path id="Trazado_1040757" data-name="Trazado 1040757" d="M724.593,876.331l-1.522,1.93.014,91.808c-2.146-.006-9.979-.522-11.44.266l31.063.027,61.013.039,24.064.017c3.63,0,7.737-.365,11.3.1a13.742,13.742,0,0,1,.023-5.659l-74.864-.052-22.441.02c-3.7,0-7.686.333-11.336-.13-.581-.39-1.256-.671-1.391-1.432a29.926,29.926,0,0,1-.016-4.64l-.011-11.059.017-52.084.026-10.894a17.152,17.152,0,0,1,.017-3.639,6.4,6.4,0,0,1,.676-1.053,2.346,2.346,0,0,1,.983-.4c5.239-.484,11.013-.028,16.3-.018l33.3.014,110.082-.079-.018,50.258,6.113.006a11.283,11.283,0,0,0,.027-2.452l-.006-5.746.09-24.475.036-11.227a23.417,23.417,0,0,0-.12-4.909,8.392,8.392,0,0,0-2.29-3.972,10.82,10.82,0,0,0-5.387-2.815,39.6,39.6,0,0,0-6.423-.178l-11.69,0-39.181.131c-1.53.489-3.56.273-5.181.281l-9.66.093c-1.6.026-4.176.4-5.656-.136l-.132-.054a10.53,10.53,0,0,1-3.523.237l-6.255-.015-18.9.008c-2.436-.008-6.668.437-8.851-.438l-43.292-.105c-2.2.175-4.088.692-5.569,2.425" transform="translate(-601.956 -739.169)" fill="#a79ef0"/>
        <path id="Trazado_1040758" data-name="Trazado 1040758" d="M1121.5,747.37l18.9-.008,6.255.015a10.527,10.527,0,0,0,3.523-.237l.132.054c1.481.538,4.06.161,5.657.136l9.66-.093c1.621-.008,3.651.208,5.181-.281-3.283-.308-18.132.726-20.019-.338-.4-2.143-.116-4.762-.118-6.956l.1-14.683-.229-1.354h-.384a6.43,6.43,0,0,0-.9.9,15.519,15.519,0,0,0-.016,3.058c-.014,2.749.446,17.844-.293,19.032-1.724.858-6.257.306-8.264.308l-22.366-.019c-1.343,0-4.516-.408-5.668.025,2.183.876,6.415.431,8.851.438" transform="translate(-941.15 -612.089)" fill="#9d7cf1"/>
        <path id="Trazado_1040759" data-name="Trazado 1040759" d="M850.669,989.561l-15.581-.04c-1.139,0-3.4.3-4.434-.014a5.106,5.106,0,0,1-.9-.614,1.87,1.87,0,0,1-.395-1.076l-.01-44.532.012-17.363c0-3.012-.161-6.138.056-9.139a2.467,2.467,0,0,1,.609-1.761,1.791,1.791,0,0,1,.965-.345l17.023-.013,32.457.017,100.6-.056.006,44.74,4.436.011.018-50.258-110.082.079-33.3-.014c-5.29-.01-11.065-.465-16.3.018a2.345,2.345,0,0,0-.983.4,6.422,6.422,0,0,0-.676,1.053,17.162,17.162,0,0,0-.017,3.64l-.026,10.894-.016,52.084.01,11.059a29.955,29.955,0,0,0,.017,4.64c.135.761.81,1.042,1.391,1.432,3.649.463,7.633.132,11.335.13l22.441-.02,74.863.052,1.537-5.02Z" transform="translate(-697.023 -768.874)" fill="#14065e"/>
        <path id="Trazado_1040760" data-name="Trazado 1040760" d="M2450.651,1083.662l10.522-43.915-.686-.29-5.5-13.854c-.46-1.227-1.538-3.3-1.21-4.562a2.117,2.117,0,0,1,1.445.255c1.042,2.15,1.67,4.619,2.5,6.87,1.282,3.482,3.094,7.4,3.627,11.068a11.666,11.666,0,0,1,1.378,3.515l2.221,6.309c4.972,13.639,9.878,27.506,15.84,40.745.373.828,1.414,3.761,2.076,4.178a3.153,3.153,0,0,0,.653.174l.563.018a24.632,24.632,0,0,0,4.608-1.183l.7-.444c.124-3.425-.536-7.225-.882-10.651l-1.126-13.307-3.265-48.467c-4.494-.544-9.625-.088-14.209-.1L2438.45,1020l1.794,73.849a37.239,37.239,0,0,1,6.257.032l1.068.01c1.686-2.438,2.309-7.31,3.082-10.229" transform="translate(-2062.599 -862.659)" fill="#14065e"/>
        <path id="Trazado_1040761" data-name="Trazado 1040761" d="M2541.466,1034.423c-.828-2.25-1.457-4.72-2.5-6.87a2.118,2.118,0,0,0-1.445-.255c-.328,1.264.75,3.335,1.21,4.562l5.5,13.854.686.29.168-.513c-.533-3.671-2.344-7.586-3.627-11.068" transform="translate(-2146.35 -868.915)" fill="#05033c"/>
        <path id="Trazado_1040762" data-name="Trazado 1040762" d="M2484.423,921.7l-2.107-8.147-1.246-5.081-9.05.312c-2.883.583-6.474.188-9.429.185l-21.6-.14-.3,1.356c-1.074,4.866-2.561,10.6-2.351,15.6l31.446.023c4.584.011,9.715-.445,14.209.1a2.29,2.29,0,0,0,1.258-.33,16.78,16.78,0,0,0-.828-3.877" transform="translate(-2062.487 -768.447)" fill="#f7c236"/>
        <path id="Trazado_1040763" data-name="Trazado 1040763" d="M2531.855,1202.848c-.388-.93-.752-1.334-.46-2.319l-.563-.018a3.128,3.128,0,0,1-.653-.174c-.662-.416-1.7-3.35-2.077-4.178-5.962-13.239-10.868-27.106-15.84-40.745l-2.221-6.309a11.66,11.66,0,0,0-1.378-3.515l-.168.513-10.522,43.915c-.774,2.918-1.4,7.791-3.082,10.229l-.5,4.065a2.724,2.724,0,0,1,1.117,2.5l-.16,2.418c2.8.031,28.689-.277,29.206.056a9.673,9.673,0,0,1,1.135-2.348c1.391-1.713,4.265-2.9,6.164-4.086" transform="translate(-2109.919 -969.015)" fill="#3c2285"/>
        <path id="Trazado_1040764" data-name="Trazado 1040764" d="M485.629,996.633a5.806,5.806,0,0,1-.322-3.942c1.461-.788,9.293-.271,11.44-.266l-.014-91.808-44.91-.325-1.665,11.441-.053,76.433-6.041-.048a22.507,22.507,0,0,0,7.693,5.1c3.009.819,5.259,2.065,6.867,4.834a9.134,9.134,0,0,1,.955,3.8l31.749-.126c-2.532-1.054-4.637-2.431-5.7-5.1" transform="translate(-375.617 -761.527)" fill="#3c2285"/>
        <path id="Trazado_1040765" data-name="Trazado 1040765" d="M465.327,859.159l-6.48-.077c-1.686,0-6.649-.417-7.78.7A2.958,2.958,0,0,0,450,861.956a3.694,3.694,0,0,0,1.39,2.751l.406.36.367.07a21.39,21.39,0,0,0,4.681.233l44.911.325,1.522-1.93c1.481-1.733,3.373-2.25,5.569-2.425l.929-2.035-41.835-.133Z" transform="translate(-380.641 -726.603)" fill="#f4f2fb"/>
        <path id="Trazado_1040766" data-name="Trazado 1040766" d="M379.738,1050.9l6.041.048.053-76.433a47.745,47.745,0,0,1-17.808,3.079l-.007,73.209Z" transform="translate(-311.292 -824.311)" fill="#f7c236"/>
        <path id="Trazado_1040767" data-name="Trazado 1040767" d="M337.129,1025.428l.76,25.008c.1,5.393-.306,11.413.467,16.7l.553.181,2.594-.022.007-73.208-1.4-.074-1.156,7.093c-.362,1.853-2.732,11.059-2.206,12.143.626,3.9.293,8.211.38,12.178" transform="translate(-284.78 -840.802)" fill="#f2b32e"/>
        <path id="Trazado_1040768" data-name="Trazado 1040768" d="M1527.635,168.887c0,2.285-.362,5.36.445,7.506l.065.177a7.232,7.232,0,0,0,3.7,3.691,5.155,5.155,0,0,0,2.3.5l20.745.039,40.743.011,33.179-.006,10.459.007c1.971,0,4.259.257,6.128-.392a7.057,7.057,0,0,0,3.982-3.636c1.111-2.287.683-5.623.689-8.112l.015-13.065-.024-44.063-122.378.027-.024,43.282Zm46.676,1.028-10.161.023.088-17.125,10.092.118Zm3.654.029.018-29.025,10.417-.015.045,29.013Zm14.064.022.03-20.692,10.191-.039,0,20.717Zm27.75-41,10.721-.015-.1,40.963-10.636.047Zm-3.4,41-10.456.01.123-28.217,10.357.029Zm-64-24.754a4.307,4.307,0,0,1,1.553-2.775,4.206,4.206,0,0,1,3.371-.846c1.454.226,2.14,1.1,2.949,2.247l20.427-12.362a2.561,2.561,0,0,1,.662-1.413,2.737,2.737,0,0,1,2.059-.607,2.526,2.526,0,0,1,1.306,2.1c.126.658,9.228,6.811,10.329,7.58,1.111-.714,1.5-.16,2.558-.477,1.026-.307,9.177-8.483,10.7-9.817a4.136,4.136,0,0,1-.587-3.311,4.638,4.638,0,0,1,2.095-2.634,4.423,4.423,0,0,1,3.35-.424,4.123,4.123,0,0,1,2.594,2.076,5.622,5.622,0,0,1,.328,3.089,5.222,5.222,0,0,1-3.019,2.919,4.555,4.555,0,0,1-3.485-.471l-.659-.384-7.864,7.337a16.7,16.7,0,0,0-2.594,2.338,5.8,5.8,0,0,0-.178,1.132,2.957,2.957,0,0,1-.9,1.576,2.269,2.269,0,0,1-2.038,0,2.4,2.4,0,0,1-.759-2.184l-10.392-7.2-.175.09a2.273,2.273,0,0,1-1.785.261,4.055,4.055,0,0,1-.891-.48,37.333,37.333,0,0,0-5.351,3.143l-9.724,5.766-3.976,2.4a7.442,7.442,0,0,0-1.613,1.053l.027.969a3.474,3.474,0,0,1-1.264,2.537,3.955,3.955,0,0,1-3.022,1.178,4.331,4.331,0,0,1-3.067-1.46,3.978,3.978,0,0,1-.972-2.95m8.307,12.4-.021,12.3-10.221.041-.009-12.329Z" transform="translate(-1292.104 -94.353)" fill="#9d7cf1"/>
        <path id="Trazado_1040769" data-name="Trazado 1040769" d="M1692.5,314.187a3.954,3.954,0,0,0,3.022-1.178,3.474,3.474,0,0,0,1.264-2.537l-.027-.969-.424-1.1c-.81-1.144-1.5-2.02-2.95-2.247a4.206,4.206,0,0,0-3.371.846,4.306,4.306,0,0,0-1.553,2.775,3.978,3.978,0,0,0,.972,2.95,4.33,4.33,0,0,0,3.067,1.46" transform="translate(-1428.191 -258.915)" fill="#e15e50"/>
        <path id="Trazado_1040770" data-name="Trazado 1040770" d="M2048.764,189.208a4.555,4.555,0,0,0,3.485.471,5.222,5.222,0,0,0,3.019-2.919,5.626,5.626,0,0,0-.328-3.089,4.123,4.123,0,0,0-2.594-2.076,4.423,4.423,0,0,0-3.35.424,4.637,4.637,0,0,0-2.095,2.634,4.135,4.135,0,0,0,.587,3.311l.617.859Z" transform="translate(-1731.298 -153.478)" fill="#e15e50"/>
        <path id="Trazado_1040771" data-name="Trazado 1040771" d="M1741.712,238.8l3.976-2.4,9.724-5.766a37.316,37.316,0,0,1,5.351-3.143,4.049,4.049,0,0,0,.891.48,2.273,2.273,0,0,0,1.785-.261l.175-.09,10.393,7.2a2.4,2.4,0,0,0,.758,2.184,2.269,2.269,0,0,0,2.038,0,2.956,2.956,0,0,0,.9-1.577,5.8,5.8,0,0,1,.177-1.132,16.716,16.716,0,0,1,2.594-2.338l7.865-7.337-.617-.859c-1.526,1.335-9.676,9.51-10.7,9.817-1.059.317-1.448-.236-2.558.477-1.1-.769-10.2-6.922-10.329-7.58a2.527,2.527,0,0,0-1.306-2.1,2.739,2.739,0,0,0-2.059.606,2.562,2.562,0,0,0-.662,1.413l-20.427,12.362.424,1.1a7.435,7.435,0,0,1,1.613-1.053" transform="translate(-1471.53 -189.263)" fill="#5927e2"/>
        <path id="Trazado_1040772" data-name="Trazado 1040772" d="M1686.209,422.719l.021-12.3-10.251.011.009,12.329Z" transform="translate(-1417.652 -347.16)" fill="#fcfcfb"/>
        <path id="Trazado_1040773" data-name="Trazado 1040773" d="M1764.981,396.409l10.161-.023.018-16.984-10.092-.118Z" transform="translate(-1492.935 -320.823)" fill="#fcfcfb"/>
        <path id="Trazado_1040774" data-name="Trazado 1040774" d="M1945.885,356.108l-.03,20.692,10.224-.014,0-20.717Z" transform="translate(-1645.93 -301.187)" fill="#f4f2fb"/>
        <path id="Trazado_1040775" data-name="Trazado 1040775" d="M2035.989,335.8l10.456-.01.024-28.178-10.357-.029Z" transform="translate(-1722.172 -260.17)" fill="#f4f2fb"/>
        <path id="Trazado_1040776" data-name="Trazado 1040776" d="M1854.626,302.038l-.018,29.025,10.48-.026-.045-29.013Z" transform="translate(-1568.747 -255.471)" fill="#fcfcfb"/>
        <path id="Trazado_1040777" data-name="Trazado 1040777" d="M2136.511,224.468l-10.72.015-.018,40.994,10.636-.047Z" transform="translate(-1798.116 -189.87)" fill="#f4f2fb"/>
        <path id="Trazado_1040778" data-name="Trazado 1040778" d="M909.368,945.668l-32.457-.018-17.023.013a1.79,1.79,0,0,0-.965.345,2.466,2.466,0,0,0-.609,1.761c-.217,3-.052,6.127-.056,9.139l-.012,17.363.01,44.532a1.87,1.87,0,0,0,.395,1.076,5.1,5.1,0,0,0,.9.614c1.037.314,3.295.011,4.434.014l15.581.04,85.047-.014c.785-3.34,2.484-6.493,3.188-9.817a3.726,3.726,0,0,1-1.522-2.421,2.68,2.68,0,0,1,.8-2.093c1.088-.887,3.145-.514,4.487-.462.5-1.571.966-5.894,2.222-6.815.821-.6,2.17-.392,3.155-.4a60.626,60.626,0,0,1,9.195.213,7.318,7.318,0,0,1,1.071-4.351,8.014,8.014,0,0,1,4.623-3.706c1.914-.592,4.373-.314,6.372-.321l11.768-.009-.006-44.74Zm82.3,6.962.009.7-.274.185c-.584.337-38.519.538-40.658.027l-.041-.909c1.013-.4,39.818-.487,40.964,0m-72.826,38.106-1.613.06c-1.082,1.712-1.348,4.31-2.186,6.241-2.936,6.761-9.505,11.6-16.582,13.215a23.894,23.894,0,0,1-16.316-2.562,1.81,1.81,0,0,1-.658-.708c-1.538-1.593-3.848-2.565-5.533-4.15A23.863,23.863,0,0,1,868.747,987a23.589,23.589,0,0,1,6.379-17.216,22.742,22.742,0,0,1,16.711-7.089,23.024,23.024,0,0,1,16.876,6.8,25.246,25.246,0,0,1,6.079,9.494c1.075.041,1.606-.117,2.4.707a2.9,2.9,0,0,1,.531.992l1.161.533.395,9.029ZM882.606,953.7l-10.719-.017a15.67,15.67,0,0,1-3.3-.006,3.116,3.116,0,0,1-.464-.449l.4-.9c5.415-.4,11.069-.08,16.513-.082l38.469.194c2.061,0,18.745-.336,19.419-.016a2.9,2.9,0,0,1,.468.353l-.167.854-.753.065-19.664.027Zm116.453,19.438a2.933,2.933,0,0,1-2.227,1.045,5.625,5.625,0,0,1-1.989-.363l-9.965,7.625a28.545,28.545,0,0,1-4.494,3.24l-.909.9c.018,1.441,0,2.526-1.05,3.608a3.266,3.266,0,0,1-2.612.966,2.959,2.959,0,0,1-2.376-1.117,3.3,3.3,0,0,1-.854-2.721,9.465,9.465,0,0,1,.246-1.488l-11.27-8.007c-1.284.648-2.171,1.073-3.607.616a7.318,7.318,0,0,1-1.332-.573c-2.59,1.363-4.776,3.379-7.374,4.7l-.014.131a4.273,4.273,0,0,1-1.406,3.1,3.177,3.177,0,0,1-2.4.659l-1.3-.28a46.525,46.525,0,0,1-5.6,5.1,9.483,9.483,0,0,1-2.715,1.895c.314,1.392.623,2.565-.2,3.854a3.416,3.416,0,0,1-2.148,1.523,3.748,3.748,0,0,1-2.828-.575,3.645,3.645,0,0,1-.932-1.033,3.427,3.427,0,0,1-.119-3.08,3.691,3.691,0,0,1,1.933-1.926,3.422,3.422,0,0,1,2.811.213,8.657,8.657,0,0,1,1.482,1.025c.326-.822,1.3-1.4,1.976-1.954l4.835-4.142a7.886,7.886,0,0,0,.98-1.093c-.013-.889-1.526-1.621-1.376-3.161a3.884,3.884,0,0,1,1.2-2.465,3.433,3.433,0,0,1,2.583-.84c1.532.158,2.272,1.177,3.161,2.322,2.242-1.239,5.2-2.737,6.953-4.583a2.879,2.879,0,0,1-.357-1.13,3.769,3.769,0,0,1,.8-3.163,3.163,3.163,0,0,1,2.322-1.141,3.3,3.3,0,0,1,2.639.925c1.721,1.641.726,2.791.776,4.659l10.853,7.98.541-.389a3.365,3.365,0,0,1,2.065-.835c1.611-.081,2.478.789,3.582,1.82l.8-.563c4.49-3.849,9.917-6.993,14.079-11.173-.241-1.424-.731-2.935.193-4.226a4.439,4.439,0,0,1,1.481-1.154c1.195-.118,2.215-.268,3.2.576a2.8,2.8,0,0,1,.951,2.17,3.158,3.158,0,0,1-.99,2.528" transform="translate(-725.924 -799.86)" fill="#5927e2"/>
        <path id="Trazado_1040779" data-name="Trazado 1040779" d="M1321.54,1238.514a3.692,3.692,0,0,0-1.932,1.925,3.427,3.427,0,0,0,.119,3.081,3.649,3.649,0,0,0,.932,1.033,3.75,3.75,0,0,0,2.828.575,3.417,3.417,0,0,0,2.148-1.523c.821-1.289.512-2.462.2-3.854a8.657,8.657,0,0,0-1.482-1.025,3.421,3.421,0,0,0-2.811-.212m2.075,5.219a2.087,2.087,0,0,1-1.656.031c-.841-.322-1.076-.972-1.407-1.721a3.056,3.056,0,0,1,1.15-2.107,4.834,4.834,0,0,1,1.762-.13,3.171,3.171,0,0,1,1.43,1.936,2.6,2.6,0,0,1-1.279,1.991" transform="translate(-1115.945 -1047.438)" fill="#f8fee6"/>
        <path id="Trazado_1040780" data-name="Trazado 1040780" d="M1330.37,1247.948a4.835,4.835,0,0,0-1.763.13,3.058,3.058,0,0,0-1.15,2.107c.332.749.566,1.4,1.407,1.721a2.087,2.087,0,0,0,1.655-.031,2.6,2.6,0,0,0,1.279-1.991,3.17,3.17,0,0,0-1.43-1.936" transform="translate(-1122.85 -1055.58)" fill="#5927e2"/>
        <path id="Trazado_1040781" data-name="Trazado 1040781" d="M1668.28,1090.064c-.987-.844-2.008-.694-3.2-.576a4.442,4.442,0,0,0-1.481,1.154c-.924,1.291-.433,2.8-.193,4.226-4.162,4.18-9.589,7.323-14.079,11.173l.241.269a28.524,28.524,0,0,0,4.494-3.24l9.965-7.625a5.625,5.625,0,0,0,1.989.363,2.933,2.933,0,0,0,2.227-1.045,3.158,3.158,0,0,0,.99-2.528,2.8,2.8,0,0,0-.951-2.17m-1.7,4.457-1.2.029a2.418,2.418,0,0,1-1.074-2.09,3.331,3.331,0,0,1,1.5-1.655l.138-.031a2.236,2.236,0,0,1,1.884.632l.123,1.5a2.95,2.95,0,0,1-1.373,1.61" transform="translate(-1395.106 -921.482)" fill="#fcfcfb"/>
        <path id="Trazado_1040782" data-name="Trazado 1040782" d="M1748.152,1098.21l-.138.03a3.332,3.332,0,0,0-1.5,1.655,2.419,2.419,0,0,0,1.074,2.09l1.2-.029a2.949,2.949,0,0,0,1.372-1.61l-.123-1.5a2.235,2.235,0,0,0-1.884-.632" transform="translate(-1477.311 -928.918)" fill="#f4f2fb"/>
        <path id="Trazado_1040783" data-name="Trazado 1040783" d="M1499.063,990.187l.274-.185-.009-.7c-1.147-.487-39.951-.4-40.964,0l.041.909c2.139.511,40.074.31,40.658-.027" transform="translate(-1233.579 -836.535)" fill="#8767ef"/>
        <path id="Trazado_1040784" data-name="Trazado 1040784" d="M997.652,989.384l.167-.854a2.929,2.929,0,0,0-.468-.353c-.674-.32-17.358.017-19.419.016L939.463,988c-5.445,0-11.1-.317-16.513.082l-.4.9a3.1,3.1,0,0,0,.464.448,15.678,15.678,0,0,0,3.3.006l10.719.017,40.2.019,19.664-.027Z" transform="translate(-780.35 -835.614)" fill="#8767ef"/>
        <path id="Trazado_1040785" data-name="Trazado 1040785" d="M1599.058,1288.53c-.985.008-2.334-.2-3.155.4-1.256.921-1.724,5.244-2.222,6.815l12.923.028a28.452,28.452,0,0,1,4.921.043c-.773-2.611-.993-5.352-3.271-7.073a60.61,60.61,0,0,0-9.195-.213" transform="translate(-1348.039 -1089.865)" fill="#14065e"/>
        <path id="Trazado_1040786" data-name="Trazado 1040786" d="M1405.248,1123.285c-1.1-1.031-1.972-1.9-3.582-1.82a3.364,3.364,0,0,0-2.065.835l-.541.389-10.853-7.98c-.05-1.868.945-3.018-.776-4.659a3.3,3.3,0,0,0-2.638-.925,3.164,3.164,0,0,0-2.322,1.141,3.77,3.77,0,0,0-.8,3.163,2.883,2.883,0,0,0,.357,1.129c-1.753,1.847-4.711,3.344-6.953,4.584-.889-1.144-1.63-2.164-3.161-2.322a3.434,3.434,0,0,0-2.583.84,3.884,3.884,0,0,0-1.2,2.465c-.15,1.54,1.363,2.272,1.377,3.161a7.867,7.867,0,0,1-.98,1.093l-4.835,4.142c-.675.551-1.65,1.133-1.976,1.954a9.486,9.486,0,0,0,2.715-1.9,46.514,46.514,0,0,0,5.6-5.1l1.3.28a3.176,3.176,0,0,0,2.4-.659,4.272,4.272,0,0,0,1.406-3.1l.014-.131c2.6-1.326,4.784-3.342,7.374-4.7a7.314,7.314,0,0,0,1.332.573c1.436.458,2.322.033,3.607-.616l11.27,8.007a9.442,9.442,0,0,0-.246,1.487,3.3,3.3,0,0,0,.854,2.721,2.959,2.959,0,0,0,2.376,1.117,3.267,3.267,0,0,0,2.612-.966c1.047-1.081,1.068-2.167,1.05-3.608l.909-.9-.241-.269Zm-32.806-.953a2.976,2.976,0,0,1-2.223-.4,2.434,2.434,0,0,1-.69-2.107c.223-.881.741-1.082,1.444-1.5a3.38,3.38,0,0,1,1.771.172,3.029,3.029,0,0,1,1.049,2.236,2.945,2.945,0,0,1-1.35,1.6m13.243-7.657a2.977,2.977,0,0,1-2.107-.528,2.608,2.608,0,0,1-.7-2,3.221,3.221,0,0,1,1.518-1.656,2.862,2.862,0,0,1,2.188.465,2.527,2.527,0,0,1,.726,1.943,3.237,3.237,0,0,1-1.629,1.771m17.156,12.247a2.888,2.888,0,0,1-1.956-.03,2.672,2.672,0,0,1-1.177-1.8,3.43,3.43,0,0,1,1.2-1.956,3.008,3.008,0,0,1,1.931-.113,3.535,3.535,0,0,1,1.3,2.069,2.812,2.812,0,0,1-1.3,1.829" transform="translate(-1151.829 -938.163)" fill="#f8fee6"/>
        <path id="Trazado_1040787" data-name="Trazado 1040787" d="M1413.521,1168.524c-.7.422-1.221.623-1.444,1.5a2.433,2.433,0,0,0,.69,2.107,2.175,2.175,0,0,0,3.573-1.2,3.027,3.027,0,0,0-1.049-2.236,3.378,3.378,0,0,0-1.771-.172" transform="translate(-1194.379 -988.366)" fill="#5927e2"/>
        <path id="Trazado_1040788" data-name="Trazado 1040788" d="M1611.313,1198.775a3.006,3.006,0,0,0-1.931.113,3.429,3.429,0,0,0-1.2,1.956,2.671,2.671,0,0,0,1.177,1.8,2.888,2.888,0,0,0,1.956.03,2.813,2.813,0,0,0,1.3-1.83,3.533,3.533,0,0,0-1.3-2.069" transform="translate(-1360.302 -1013.915)" fill="#5927e2"/>
        <path id="Trazado_1040789" data-name="Trazado 1040789" d="M1502.728,1118.442a2.861,2.861,0,0,0-2.188-.465,3.22,3.22,0,0,0-1.518,1.656,2.608,2.608,0,0,0,.7,2,2.978,2.978,0,0,0,2.107.529,3.237,3.237,0,0,0,1.629-1.772,2.526,2.526,0,0,0-.726-1.943" transform="translate(-1267.97 -945.645)" fill="#5927e2"/>
        <path id="Trazado_1040790" data-name="Trazado 1040790" d="M1084.352,1065.977a20.309,20.309,0,0,1,7.087,7.028c2.416,0,5.6.384,7.9-.265a25.246,25.246,0,0,0-6.079-9.494,23.024,23.024,0,0,0-16.876-6.8l-.005,7.532a16.82,16.82,0,0,1,7.971,2" transform="translate(-910.473 -893.611)" fill="#fcfcfb"/>
        <path id="Trazado_1040791" data-name="Trazado 1040791" d="M1045.525,1173.179l.358,8.359c-.92.7-2.1.188-2.773.762a28.1,28.1,0,0,1-5.889,11.885c-4.761,4.89-10.17,7.628-17.1,7.735a23.41,23.41,0,0,1-10.821-2.448,1.806,1.806,0,0,0,.658.708,23.892,23.892,0,0,0,16.316,2.562c7.078-1.616,13.647-6.454,16.582-13.215.838-1.931,1.1-4.529,2.186-6.241l1.613-.06.429-.484-.395-9.029Z" transform="translate(-853.728 -992.351)" fill="#14065e"/>
        <path id="Trazado_1040792" data-name="Trazado 1040792" d="M1161.247,1229.743a19.485,19.485,0,0,1-3.331,6.725l5.017,5.419a28.1,28.1,0,0,0,5.889-11.885c-1.27-.773-5.908-.265-7.575-.259" transform="translate(-979.44 -1040.053)" fill="#fcfcfb"/>
        <path id="Trazado_1040793" data-name="Trazado 1040793" d="M1174.074,1162.422a15.942,15.942,0,0,1,.841,10.3c1.667-.006,6.3-.514,7.575.259.669-.574,1.853-.062,2.773-.762l-.358-8.359a2.9,2.9,0,0,0-.531-.992c-.791-.823-1.323-.666-2.4-.706-2.3.648-5.486.268-7.9.265" transform="translate(-993.108 -983.028)" fill="#d9447c"/>
        <path id="Trazado_1040794" data-name="Trazado 1040794" d="M950.114,1103.181c6.933-.107,12.343-2.845,17.1-7.735l-5.017-5.419a23.438,23.438,0,0,1-2.878,2.568,16.2,16.2,0,0,1-12.4,2.579c-3.049-.534-7.2-2.806-9.027-5.385a15.608,15.608,0,0,1-3.656-8.046,15.159,15.159,0,0,1,3.064-11.52c3.128-4.127,7.38-5.579,12.334-6.243l.005-7.532a22.742,22.742,0,0,0-16.711,7.089,23.59,23.59,0,0,0-6.379,17.216,23.864,23.864,0,0,0,7.211,15.83c1.685,1.585,3.995,2.558,5.533,4.15a23.407,23.407,0,0,0,10.821,2.448" transform="translate(-783.725 -893.612)" fill="#8767ef"/>
        <path id="Trazado_1040795" data-name="Trazado 1040795" d="M1015.486,1120.807a20.307,20.307,0,0,0-7.087-7.028l-.169.01c-1.248.035-2.332-.6-3.56-.734a16.331,16.331,0,0,0-13.484,4.867,15.238,15.238,0,0,0-4.6,11.24,14.372,14.372,0,0,0,.714,4.672c.421,1.2,1.4,2.49,1.383,3.756,1.831,2.579,5.979,4.85,9.027,5.385a16.2,16.2,0,0,0,12.405-2.579,23.478,23.478,0,0,0,2.878-2.568,19.48,19.48,0,0,0,3.331-6.725,15.942,15.942,0,0,0-.841-10.3" transform="translate(-834.519 -941.413)" fill="#5927e2"/>
        <path id="Trazado_1040796" data-name="Trazado 1040796" d="M977.122,1122.693a15.238,15.238,0,0,1,4.6-11.24,16.33,16.33,0,0,1,13.483-4.867c1.229.132,2.313.769,3.56.734l.169-.01a16.818,16.818,0,0,0-7.971-2c-4.955.665-9.207,2.117-12.335,6.244a15.159,15.159,0,0,0-3.064,11.52,15.609,15.609,0,0,0,3.656,8.046c.014-1.267-.963-2.559-1.383-3.756a14.364,14.364,0,0,1-.714-4.672" transform="translate(-825.054 -934.945)" fill="#14065e"/>
        <path id="Trazado_1040797" data-name="Trazado 1040797" d="M1571.258,1365.218l1.4-2.176.536-1.179a11.661,11.661,0,0,0,.623-1.982l.157-1.063a13.331,13.331,0,0,0,.045-2.108l-.626-2.127-1.234-3.794a27.465,27.465,0,0,1-1.535-4.776l-.455-.928a2.674,2.674,0,0,1-.355-.55c-.43-.951-1.4-3.308-1.026-4.214l1.27-.406a5.376,5.376,0,0,0,.253-2.175l-.325-.79-.087-.191a3.669,3.669,0,0,0-2.67-1.756,13.485,13.485,0,0,1-3.958.111,28.439,28.439,0,0,0-4.921-.043l-12.923-.028c-1.342-.052-3.4-.426-4.487.462a2.679,2.679,0,0,0-.8,2.093,3.725,3.725,0,0,0,1.522,2.421c-.7,3.324-2.4,6.477-3.188,9.817l-1.537,5.02a13.739,13.739,0,0,0-.023,5.659c1.282,3.41,3.083,6.06,6.532,7.638l3.184,1.336,16.921.083a11.6,11.6,0,0,1,2.883-1.008,14.823,14.823,0,0,0,4.825-3.348m-10.72-11.144a4.268,4.268,0,0,1-2.98,1.917c-1.21.341-.3,2.706-.9,3.725l-1.5.063-.412-.8a5.967,5.967,0,0,0-.2-2.585,6.418,6.418,0,0,1-3.307-1.326,4.126,4.126,0,0,1-1.492-2.862l.436-.438a8.674,8.674,0,0,1,1.655-.418c1.059,0,1.315,1.8,2.5,2.236l.542-.326-.1-2.849-2.2-.949a4.212,4.212,0,0,1-1.911-5.676c.846-1.64,2.441-2.263,4.1-2.8a6.713,6.713,0,0,1,.491-1.87,2.31,2.31,0,0,1,1.616.164,8.125,8.125,0,0,0,.28,1.883,8.182,8.182,0,0,1,2.043.967,3.658,3.658,0,0,1,1.46,2.554l-.388.452-1.968.141-1.1-1.1-.391.354a12.49,12.49,0,0,0,0,2.784c.126.575,1.6.889,2.173,1.2a3.758,3.758,0,0,1,1.917,2.263,4.641,4.641,0,0,1-.379,3.292" transform="translate(-1299.781 -1129.163)" fill="#eb7d2d"/>
        <path id="Trazado_1040798" data-name="Trazado 1040798" d="M1631.023,1371.184c-.569-.311-2.047-.625-2.173-1.2a12.5,12.5,0,0,1,0-2.784l.391-.354,1.1,1.1,1.968-.141.388-.451a3.659,3.659,0,0,0-1.46-2.554,8.176,8.176,0,0,0-2.044-.967,8.138,8.138,0,0,1-.28-1.883,2.311,2.311,0,0,0-1.616-.163,6.712,6.712,0,0,0-.491,1.869c-1.658.54-3.254,1.163-4.1,2.8a4.212,4.212,0,0,0,1.911,5.676l2.2.949.1,2.849-.542.325c-1.189-.439-1.445-2.232-2.5-2.235a8.666,8.666,0,0,0-1.655.418l-.436.438a4.126,4.126,0,0,0,1.492,2.862,6.419,6.419,0,0,0,3.308,1.326,5.967,5.967,0,0,1,.2,2.585l.412.8,1.5-.063c.593-1.02-.313-3.385.9-3.725a4.269,4.269,0,0,0,2.98-1.917,4.64,4.64,0,0,0,.379-3.292,3.758,3.758,0,0,0-1.917-2.263" transform="translate(-1371.805 -1151.828)" fill="#f4f2fb"/>
      </g>
    </g>
  </g>
</svg>
