<svg xmlns="http://www.w3.org/2000/svg" xmlns:xlink="http://www.w3.org/1999/xlink" width="113" height="113" viewBox="0 0 113 113">
  <defs>
    <filter id="Trazado_982547" x="0" y="0" width="113" height="113" filterUnits="userSpaceOnUse">
      <feOffset dy="3" input="SourceAlpha"/>
      <feGaussianBlur stdDeviation="3" result="blur"/>
      <feFlood flood-opacity="0.161"/>
      <feComposite operator="in" in2="blur"/>
      <feComposite in="SourceGraphic"/>
    </filter>
  </defs>
  <g id="Grupo_1178901" data-name="Grupo 1178901" transform="translate(-586.06 -3422.045)">
    <g id="Grupo_1178492" data-name="Grupo 1178492" transform="translate(595.061 3428.045)">
      <g id="Grupo_1172010" data-name="Grupo 1172010" transform="translate(0)">
        <g id="Grupo_1171046" data-name="Grupo 1171046">
          <g id="Grupo_1148525" data-name="Grupo 1148525">
            <g transform="matrix(1, 0, 0, 1, -9, -6)" filter="url(#Trazado_982547)">
              <g id="Trazado_982547-2" data-name="Trazado 982547" transform="translate(9 6)" fill="#fdeffe">
                <path d="M 47.5 93.5 C 41.28937149047852 93.5 35.26533508300781 92.28397369384766 29.59518623352051 89.88570404052734 C 24.11771965026855 87.56893157958984 19.19813346862793 84.25196075439453 14.97309303283691 80.02691650390625 C 10.74804019927979 75.80186462402344 7.431066513061523 70.88229370117188 5.114293098449707 65.40481567382812 C 2.716026782989502 59.73468017578125 1.5 53.71062850952148 1.5 47.5 C 1.5 41.28937149047852 2.716026782989502 35.26533508300781 5.114293098449707 29.59518623352051 C 7.431066513061523 24.11771965026855 10.74804019927979 19.19813346862793 14.97309303283691 14.97309303283691 C 19.19813346862793 10.74804019927979 24.11771965026855 7.431066513061523 29.59518623352051 5.114293098449707 C 35.26533508300781 2.716026782989502 41.28937149047852 1.5 47.5 1.5 C 53.71062850952148 1.5 59.73468017578125 2.716026782989502 65.40481567382812 5.114293098449707 C 70.88229370117188 7.431066513061523 75.80186462402344 10.74804019927979 80.02691650390625 14.97309303283691 C 84.25196075439453 19.19813346862793 87.56893157958984 24.11771965026855 89.88570404052734 29.59518623352051 C 92.28397369384766 35.26533508300781 93.5 41.28937149047852 93.5 47.5 C 93.5 53.71062850952148 92.28397369384766 59.73468017578125 89.88570404052734 65.40481567382812 C 87.56893157958984 70.88229370117188 84.25196075439453 75.80186462402344 80.02691650390625 80.02691650390625 C 75.80186462402344 84.25196075439453 70.88229370117188 87.56893157958984 65.40481567382812 89.88570404052734 C 59.73468017578125 92.28397369384766 53.71062850952148 93.5 47.5 93.5 Z" stroke="none"/>
                <path d="M 47.5 3 C 41.49121475219727 3 35.66376876831055 4.176155090332031 30.17950439453125 6.495796203613281 C 24.88084411621094 8.736953735351562 20.12152099609375 11.94598388671875 16.03375244140625 16.03375244140625 C 11.94598388671875 20.12152099609375 8.736953735351562 24.88084411621094 6.495796203613281 30.17950439453125 C 4.176155090332031 35.66376876831055 3 41.49121475219727 3 47.5 C 3 53.50878524780273 4.176155090332031 59.33623123168945 6.495796203613281 64.82049560546875 C 8.736953735351562 70.11915588378906 11.94598388671875 74.87847900390625 16.03375244140625 78.96624755859375 C 20.12152099609375 83.05401611328125 24.88084411621094 86.26304626464844 30.17950439453125 88.50419616699219 C 35.66376876831055 90.82384490966797 41.49121475219727 92 47.5 92 C 53.50878524780273 92 59.33623123168945 90.82384490966797 64.82049560546875 88.50419616699219 C 70.11915588378906 86.26304626464844 74.87847900390625 83.05401611328125 78.96624755859375 78.96624755859375 C 83.05401611328125 74.87847900390625 86.26304626464844 70.11915588378906 88.50419616699219 64.82049560546875 C 90.82384490966797 59.33623123168945 92 53.50878524780273 92 47.5 C 92 41.49121475219727 90.82384490966797 35.66376876831055 88.50419616699219 30.17950439453125 C 86.26304626464844 24.88084411621094 83.05401611328125 20.12152099609375 78.96624755859375 16.03375244140625 C 74.87847900390625 11.94598388671875 70.11915588378906 8.736953735351562 64.82049560546875 6.495796203613281 C 59.33623123168945 4.176155090332031 53.50878524780273 3 47.5 3 M 47.5 0 C 73.7335205078125 0 95 21.2664794921875 95 47.5 C 95 73.7335205078125 73.7335205078125 95 47.5 95 C 21.2664794921875 95 0 73.7335205078125 0 47.5 C 0 21.2664794921875 21.2664794921875 0 47.5 0 Z" stroke="none" fill="#ee70f7"/>
              </g>
            </g>
          </g>
        </g>
      </g>
    </g>
    <g id="_08-Marketing" data-name="08-Marketing" transform="translate(613.266 3446.266)">
      <path id="Trazado_1041079" data-name="Trazado 1041079" d="M16.8,50.717v11.15H1V50.717H8.433L12.15,47v3.717Z" transform="translate(-0.071 -3.329)" fill="#f0f0f0"/>
      <path id="Trazado_1041080" data-name="Trazado 1041080" d="M61.8,46.717v11.15H46V46.717h4.646V43l3.717,3.717Z" transform="translate(-3.258 -3.045)" fill="#f0f0f0"/>
      <path id="Trazado_1041081" data-name="Trazado 1041081" d="M48.292,5v9.292H39A9.292,9.292,0,0,1,48.292,5Z" transform="translate(-2.762 -0.354)" fill="#64e1dc"/>
      <path id="Trazado_1041082" data-name="Trazado 1041082" d="M49,5a9.292,9.292,0,0,1,6.569,15.861L55.5,20.8l-6.5-6.5Z" transform="translate(-3.47 -0.354)" fill="#ff7d81"/>
      <path id="Trazado_1041083" data-name="Trazado 1041083" d="M54.8,21.5l.065.065A9.292,9.292,0,0,1,39,15h9.292Z" transform="translate(-2.762 -1.062)" fill="#19cffc"/>
      <path id="Trazado_1041084" data-name="Trazado 1041084" d="M61.017,2.858v22.3a1.864,1.864,0,0,1-1.858,1.858H47.079l-4.646,4.646V27.017H36.858A1.864,1.864,0,0,1,35,25.159V2.858A1.864,1.864,0,0,1,36.858,1h22.3a1.864,1.864,0,0,1,1.858,1.858ZM57.3,14.008a9.292,9.292,0,1,0-2.722,6.569A9.292,9.292,0,0,0,57.3,14.008Z" transform="translate(-2.479 -0.071)" fill="#f0f0f0"/>
      <path id="Trazado_1041085" data-name="Trazado 1041085" d="M37.788,25.159V2.858A1.864,1.864,0,0,1,39.646,1H36.858A1.864,1.864,0,0,0,35,2.858v22.3a1.864,1.864,0,0,0,1.858,1.858h2.788A1.864,1.864,0,0,1,37.788,25.159Z" transform="translate(-2.479 -0.071)" fill="#e4e4e4"/>
      <path id="Trazado_1041086" data-name="Trazado 1041086" d="M51.894,5a9.319,9.319,0,0,0-1.394.116,9.279,9.279,0,0,1,0,18.351A9.287,9.287,0,1,0,51.894,5Z" transform="translate(-3.577 -0.354)" fill="#e4e4e4"/>
      <path id="Trazado_1041087" data-name="Trazado 1041087" d="M37.238,27.371v6.5a1.864,1.864,0,0,1-1.858,1.858H16.8V40.38L12.15,35.734H2.858A1.864,1.864,0,0,1,1,33.875V7.858A1.864,1.864,0,0,1,2.858,6H32.592V25.513a1.864,1.864,0,0,0,1.858,1.858Z" transform="translate(-0.071 -0.425)" fill="#ffcf94"/>
      <path id="Trazado_1041088" data-name="Trazado 1041088" d="M34.45,27.371a1.864,1.864,0,0,1-1.858-1.858V6H2.858A1.864,1.864,0,0,0,1,7.858v.929H29.8V28.3a1.864,1.864,0,0,0,1.858,1.858H34.45v5.575h.929a1.864,1.864,0,0,0,1.858-1.858v-6.5Z" transform="translate(-0.071 -0.425)" fill="#ffc170"/>
      <g id="Grupo_1178900" data-name="Grupo 1178900" transform="translate(3.717 46.459)">
        <path id="Trazado_1041089" data-name="Trazado 1041089" d="M49,50h1.858v1.858H49Z" transform="translate(-7.187 -50)" fill="#848484"/>
        <path id="Trazado_1041090" data-name="Trazado 1041090" d="M53,50h6.5v1.858H53Z" transform="translate(-7.47 -50)" fill="#848484"/>
        <path id="Trazado_1041091" data-name="Trazado 1041091" d="M49,54H59.221v1.858H49Z" transform="translate(-7.187 -50.283)" fill="#848484"/>
        <path id="Trazado_1041092" data-name="Trazado 1041092" d="M4,54H5.858v1.858H4Z" transform="translate(-4 -50.283)" fill="#848484"/>
        <path id="Trazado_1041093" data-name="Trazado 1041093" d="M8,54h6.5v1.858H8Z" transform="translate(-4.283 -50.283)" fill="#848484"/>
        <path id="Trazado_1041094" data-name="Trazado 1041094" d="M4,58H14.221v1.858H4Z" transform="translate(-4 -50.567)" fill="#848484"/>
      </g>
      <path id="Trazado_1041095" data-name="Trazado 1041095" d="M48.292,8.717V5A9.292,9.292,0,0,0,39,14.292h3.717A5.575,5.575,0,0,1,48.292,8.717Z" transform="translate(-2.762 -0.354)" fill="#00c8c8"/>
      <path id="Trazado_1041096" data-name="Trazado 1041096" d="M49,5V8.717a5.575,5.575,0,0,1,3.942,9.518L55.5,20.8l.065.065A9.292,9.292,0,0,0,49,5Z" transform="translate(-3.47 -0.354)" fill="#ff636e"/>
      <path id="Trazado_1041097" data-name="Trazado 1041097" d="M52.234,18.942A5.575,5.575,0,0,1,42.717,15H39a9.292,9.292,0,0,0,15.861,6.569L54.8,21.5Z" transform="translate(-2.762 -1.062)" fill="#1ea1e3"/>
      <path id="Trazado_1041098" data-name="Trazado 1041098" d="M0,0H3.572V5.539H0Z" transform="translate(9.345 27.397) rotate(-22.153)" fill="#9c9c9c"/>
      <path id="Trazado_1041099" data-name="Trazado 1041099" d="M20.486,12.29l5.566,13.677-3.81.1L17.68,14.882Z" transform="translate(-1.252 -0.87)" fill="#9c9c9c"/>
      <path id="Trazado_1041100" data-name="Trazado 1041100" d="M23.3,9l6.96,17.1-1.654.669a1.823,1.823,0,0,1-2.351-1.031L20.689,12.057a1.818,1.818,0,0,1,.957-2.388Z" transform="translate(-1.455 -0.637)" fill="#ff7d81"/>
      <path id="Trazado_1041101" data-name="Trazado 1041101" d="M9.71,28.805l-.827.335a1.82,1.82,0,0,1-2.351-1.031L5.139,24.689A1.826,1.826,0,0,1,6.1,22.3l5.789-2.351,2.788,6.839-1.654.669Z" transform="translate(-0.354 -1.413)" fill="#ff7d81"/>
      <path id="Trazado_1041102" data-name="Trazado 1041102" d="M17.307,15.08l4.562,11.187-6.671.177L12.41,19.605Z" transform="translate(-0.879 -1.068)" fill="#f0f0f0"/>
      <path id="Trazado_1041103" data-name="Trazado 1041103" d="M20.38,21.532l2.053,5.034,3.81-.1-2.9-7.136a23.77,23.77,0,0,1-2.959,2.2Z" transform="translate(-1.443 -1.369)" fill="#848484"/>
      <path id="Trazado_1041104" data-name="Trazado 1041104" d="M26.267,16.28a21.226,21.226,0,0,1-2.7,2.834l2.9,7.136a1.823,1.823,0,0,0,2.351,1.031l1.654-.669Z" transform="translate(-1.669 -1.153)" fill="#ff475a"/>
      <path id="Trazado_1041105" data-name="Trazado 1041105" d="M5.779,26.453l.809,1.987a1.82,1.82,0,0,0,2.351,1.031l.827-.335,3.308-1.347,1.654-.669-1.017-2.495a37.384,37.384,0,0,1-7.932,1.828Z" transform="translate(-0.409 -1.744)" fill="#ff636e"/>
      <path id="Trazado_1041106" data-name="Trazado 1041106" d="M14.316,24.418l1.017,2.495L22,26.736,19.951,21.7a28.051,28.051,0,0,1-5.635,2.718Z" transform="translate(-1.014 -1.537)" fill="#d9d9d9"/>
      <path id="Trazado_1041107" data-name="Trazado 1041107" d="M31.646,54.792l-1.858,1.858L27,53.863v-.232l2.788-.7Z" transform="translate(-1.912 -3.749)" fill="#966857"/>
      <path id="Trazado_1041108" data-name="Trazado 1041108" d="M36.646,53.631v.232l-2.788,2.788L32,54.792l1.858-1.858Z" transform="translate(-2.266 -3.749)" fill="#966857"/>
      <path id="Trazado_1041109" data-name="Trazado 1041109" d="M41.292,54.845v7.433H32V54.845L33.858,56.7l2.788-2.788v-.232Z" transform="translate(-2.266 -3.802)" fill="#cfa388"/>
      <path id="Trazado_1041110" data-name="Trazado 1041110" d="M31.292,54.845v7.433H22V54.845l4.646-1.161v.232L29.433,56.7Z" transform="translate(-1.558 -3.802)" fill="#a37862"/>
      <path id="Trazado_1041111" data-name="Trazado 1041111" d="M38.867,38.367v2.788H37.008c-8.363,0-8.363-2.788-8.363-2.788a2.73,2.73,0,0,1-2.788,2.788H24V38.367a7.433,7.433,0,0,1,14.867,0Z" transform="translate(-1.7 -2.191)" fill="#6e6e6e"/>
      <path id="Trazado_1041112" data-name="Trazado 1041112" d="M36.693,33.109A7.433,7.433,0,0,0,24,38.367v1.858a7.433,7.433,0,0,1,14.867,0V38.367a7.443,7.443,0,0,0-2.175-5.259Z" transform="translate(-1.7 -2.19)" fill="#595959"/>
      <path id="Trazado_1041113" data-name="Trazado 1041113" d="M33.717,50.584v2.184l-1.858,1.858L30,52.768V50.584A5.472,5.472,0,0,0,33.717,50.584Z" transform="translate(-2.125 -3.583)" fill="#e09380"/>
      <path id="Trazado_1041114" data-name="Trazado 1041114" d="M25.788,41.934v2.788h-.929A1.864,1.864,0,0,1,23,42.863v-.929Z" transform="translate(-1.629 -2.97)" fill="#e09380"/>
      <path id="Trazado_1041115" data-name="Trazado 1041115" d="M40.788,41.934v.929a1.864,1.864,0,0,1-1.858,1.858H38V41.934Z" transform="translate(-2.691 -2.97)" fill="#e09380"/>
      <path id="Trazado_1041116" data-name="Trazado 1041116" d="M33.433,49.759A5.574,5.574,0,0,1,26,44.509V41.722a2.73,2.73,0,0,0,2.788-2.788s0,2.788,8.363,2.788v2.788a5.557,5.557,0,0,1-3.717,5.25Z" transform="translate(-1.841 -2.757)" fill="#ffcdbe"/>
      <path id="Trazado_1041117" data-name="Trazado 1041117" d="M28.788,38.934A2.73,2.73,0,0,1,26,41.722V43.58a2.73,2.73,0,0,0,2.788-2.788s0,2.788,8.363,2.788V41.722C28.788,41.722,28.788,38.934,28.788,38.934Z" transform="translate(-1.841 -2.757)" fill="#ffbeaa"/>
      <path id="Trazado_1041118" data-name="Trazado 1041118" d="M35,58.934h3.717v1.858H35Z" transform="translate(-2.479 -4.174)" fill="#6e6e6e"/>
      <path id="Trazado_1041119" data-name="Trazado 1041119" d="M25,58.934h3.717v1.858H25Z" transform="translate(-1.771 -4.174)" fill="#6e6e6e"/>
      <path id="Trazado_1041120" data-name="Trazado 1041120" d="M35,59h3.717v1.858H35Z" transform="translate(-2.479 -4.179)"/>
      <path id="Trazado_1041121" data-name="Trazado 1041121" d="M25,59h3.717v1.858H25Z" transform="translate(-1.771 -4.179)"/>
      <path id="Trazado_1041122" data-name="Trazado 1041122" d="M40.738,52.328l-6.73-1.683v-.836a6.512,6.512,0,0,0,3.642-4.942h.074a2.788,2.788,0,0,0,2.788-2.788V41.15a.929.929,0,0,0-.929-.929V38.363a8.363,8.363,0,1,0-16.725,0v1.858a.929.929,0,0,0-.929.929v.929a2.788,2.788,0,0,0,2.788,2.788h.074a6.512,6.512,0,0,0,3.642,4.939v.836L21.7,52.328a.929.929,0,0,0-.7.9v7.433a.929.929,0,0,0,.929.929H40.513a.929.929,0,0,0,.929-.929V53.229a.929.929,0,0,0-.7-.9Zm-6.5.29-1.155,1.156-.544-.544.83-.83Zm3.491-9.61v-.929h.929A.929.929,0,0,1,37.725,43.008Zm-13.938-.929h.929v.929A.929.929,0,0,1,23.788,42.079Zm.929-1.858V38.363a6.5,6.5,0,1,1,13.008,0v1.858H36.8c-6.776,0-7.417-1.858-7.433-1.858a.929.929,0,1,0-1.858,0,1.749,1.749,0,0,1-1.858,1.858Zm1.858,3.717V41.962a3.664,3.664,0,0,0,2.23-1.53c1.122.8,3.2,1.534,7.062,1.635v1.87a4.646,4.646,0,0,1-9.292,0Zm4.646,6.5a6.528,6.528,0,0,0,.929-.074v.619l-.929.929-.929-.929v-.619a6.528,6.528,0,0,0,.929.074ZM29.077,52.4l.83.83-.544.544-1.156-1.156Zm-6.219,1.555,3.246-.812,2.6,2.6a.929.929,0,0,0,1.314,0l.272-.272v4.261H22.858Zm16.725,5.779H32.15V55.472l.272.272a.929.929,0,0,0,1.314,0l2.6-2.6,3.246.812Z" transform="translate(-1.487 -2.125)"/>
      <path id="Trazado_1041123" data-name="Trazado 1041123" d="M48.221,4A10.221,10.221,0,1,0,58.442,14.221,10.221,10.221,0,0,0,48.221,4Zm-.929,1.913v7.379H39.913a8.375,8.375,0,0,1,7.379-7.379ZM39.913,15.15h7.923l5.6,5.6a8.35,8.35,0,0,1-13.521-5.6Zm14.835,4.284-5.6-5.6V5.913a8.35,8.35,0,0,1,5.6,13.521Z" transform="translate(-2.691 -0.283)"/>
      <path id="Trazado_1041124" data-name="Trazado 1041124" d="M59.088,0h-22.3A2.788,2.788,0,0,0,34,2.788v22.3a2.788,2.788,0,0,0,2.788,2.788h4.646v3.717a.929.929,0,0,0,1.586.657l4.374-4.374H59.088a2.788,2.788,0,0,0,2.788-2.788V2.788A2.788,2.788,0,0,0,59.088,0Zm.929,25.088a.929.929,0,0,1-.929.929H47.008a.929.929,0,0,0-.657.272l-3.06,3.06v-2.4a.929.929,0,0,0-.929-.929H36.788a.929.929,0,0,1-.929-.929V2.788a.929.929,0,0,1,.929-.929h22.3a.929.929,0,0,1,.929.929Z" transform="translate(-2.408)"/>
      <path id="Trazado_1041125" data-name="Trazado 1041125" d="M24.562,26.605a2.764,2.764,0,0,0,2.223,1.15,2.654,2.654,0,0,0,1-.2l1.653-.672a.929.929,0,0,0,.51-1.208l-6.961-17.1a.929.929,0,0,0-1.208-.51l-1.658.671a2.666,2.666,0,0,0-1.477,1.487,2.767,2.767,0,0,0-.162,1.44L11.308,18.3,5.678,20.6A2.663,2.663,0,0,0,4.2,22.083a2.788,2.788,0,0,0,.01,2.1L5.6,27.605A2.788,2.788,0,0,0,7.066,29.12a2.7,2.7,0,0,0,1.095.234,2.643,2.643,0,0,0,.969-.186l1.739,4.274a.929.929,0,0,0,.861.579.911.911,0,0,0,.349-.069l3.307-1.345A.929.929,0,0,0,15.9,31.4L14.16,27.132l.636-.259Zm-2.672-1.787-4.071-10,1.343-1.243,4.553,11.192ZM20.37,10.924a.819.819,0,0,1,.453-.465l.793-.322L27.88,25.516l-.793.322a.891.891,0,0,1-1.139-.527L20.379,11.634a.943.943,0,0,1-.009-.71Zm-4.012,5.241,3.544,8.7L15.214,25,12.92,19.348ZM7.814,27.42a.94.94,0,0,1-.491-.512L5.93,23.488a.941.941,0,0,1-.007-.709.826.826,0,0,1,.453-.465l4.925-2,2.083,5.12-4.925,2a.822.822,0,0,1-.646-.015Zm6.009,3.81-1.585.645L10.85,28.466l1.585-.645Z" transform="translate(-0.283 -0.567)"/>
      <path id="Trazado_1041126" data-name="Trazado 1041126" d="M20.442,34.734H16.725a.929.929,0,0,0-.929.929v2.4l-3.06-3.06a.929.929,0,0,0-.657-.272H2.788a.929.929,0,0,1-.929-.929V7.788a.929.929,0,0,1,.929-.929H29.734V5H2.788A2.788,2.788,0,0,0,0,7.788V33.8a2.788,2.788,0,0,0,2.788,2.788h8.907l4.374,4.374a.929.929,0,0,0,1.586-.657V36.592h2.788Z" transform="translate(0 -0.354)"/>
      <path id="Trazado_1041127" data-name="Trazado 1041127" d="M61.725,45.717H54.676l-3.444-3.444a.929.929,0,0,0-1.586.657v2.788H45.929a.929.929,0,0,0-.929.929V57.8a.929.929,0,0,0,.929.929h15.8a.929.929,0,0,0,.929-.929V46.646A.929.929,0,0,0,61.725,45.717ZM60.8,56.867H46.858V47.575h3.717a.929.929,0,0,0,.929-.929V45.172L53.635,47.3a.929.929,0,0,0,.657.272h6.5Z" transform="translate(-3.187 -2.975)"/>
      <path id="Trazado_1041128" data-name="Trazado 1041128" d="M16.725,49.717H13.008V46.929a.929.929,0,0,0-1.586-.657L7.978,49.717H.929A.929.929,0,0,0,0,50.646V61.8a.929.929,0,0,0,.929.929h15.8a.929.929,0,0,0,.929-.929V50.646A.929.929,0,0,0,16.725,49.717ZM15.8,60.867H1.858V51.575h6.5a.929.929,0,0,0,.657-.272l2.131-2.131v1.474a.929.929,0,0,0,.929.929H15.8Z" transform="translate(0 -3.258)"/>
      <path id="Trazado_1041129" data-name="Trazado 1041129" d="M49,50h1.858v1.858H49Z" transform="translate(-3.47 -3.541)"/>
      <path id="Trazado_1041130" data-name="Trazado 1041130" d="M53,50h6.5v1.858H53Z" transform="translate(-3.754 -3.541)"/>
      <path id="Trazado_1041131" data-name="Trazado 1041131" d="M49,54H59.221v1.858H49Z" transform="translate(-3.47 -3.824)"/>
      <path id="Trazado_1041132" data-name="Trazado 1041132" d="M4,54H5.858v1.858H4Z" transform="translate(-0.283 -3.824)"/>
      <path id="Trazado_1041133" data-name="Trazado 1041133" d="M8,54h6.5v1.858H8Z" transform="translate(-0.567 -3.824)"/>
      <path id="Trazado_1041134" data-name="Trazado 1041134" d="M4,58H14.221v1.858H4Z" transform="translate(-0.283 -4.108)"/>
    </g>
  </g>
</svg>
