<svg xmlns="http://www.w3.org/2000/svg" xmlns:xlink="http://www.w3.org/1999/xlink" width="113" height="113" viewBox="0 0 113 113">
  <defs>
    <filter id="Trazado_982547" x="0" y="0" width="113" height="113" filterUnits="userSpaceOnUse">
      <feOffset dy="3" input="SourceAlpha"/>
      <feGaussianBlur stdDeviation="3" result="blur"/>
      <feFlood flood-opacity="0.161"/>
      <feComposite operator="in" in2="blur"/>
      <feComposite in="SourceGraphic"/>
    </filter>
  </defs>
  <g id="Grupo_1178593" data-name="Grupo 1178593" transform="translate(-272 -5911.161)">
    <g id="Grupo_1178434" data-name="Grupo 1178434" transform="translate(281 5917.161)">
      <g id="Grupo_1172010" data-name="Grupo 1172010" transform="translate(0)">
        <g id="Grupo_1171046" data-name="Grupo 1171046">
          <g id="Grupo_1148525" data-name="Grupo 1148525">
            <g transform="matrix(1, 0, 0, 1, -9, -6)" filter="url(#Trazado_982547)">
              <g id="Trazado_982547-2" data-name="Trazado 982547" transform="translate(9 6)" fill="#fef4ec">
                <path d="M 47.5 93.5 C 41.28937149047852 93.5 35.26533508300781 92.28397369384766 29.59518623352051 89.88570404052734 C 24.11771965026855 87.56893157958984 19.19813346862793 84.25196075439453 14.97309303283691 80.02691650390625 C 10.74804019927979 75.80186462402344 7.431066513061523 70.88229370117188 5.114293098449707 65.40481567382812 C 2.716026782989502 59.73468017578125 1.5 53.71062850952148 1.5 47.5 C 1.5 41.28937149047852 2.716026782989502 35.26533508300781 5.114293098449707 29.59518623352051 C 7.431066513061523 24.11771965026855 10.74804019927979 19.19813346862793 14.97309303283691 14.97309303283691 C 19.19813346862793 10.74804019927979 24.11771965026855 7.431066513061523 29.59518623352051 5.114293098449707 C 35.26533508300781 2.716026782989502 41.28937149047852 1.5 47.5 1.5 C 53.71062850952148 1.5 59.73468017578125 2.716026782989502 65.40481567382812 5.114293098449707 C 70.88229370117188 7.431066513061523 75.80186462402344 10.74804019927979 80.02691650390625 14.97309303283691 C 84.25196075439453 19.19813346862793 87.56893157958984 24.11771965026855 89.88570404052734 29.59518623352051 C 92.28397369384766 35.26533508300781 93.5 41.28937149047852 93.5 47.5 C 93.5 53.71062850952148 92.28397369384766 59.73468017578125 89.88570404052734 65.40481567382812 C 87.56893157958984 70.88229370117188 84.25196075439453 75.80186462402344 80.02691650390625 80.02691650390625 C 75.80186462402344 84.25196075439453 70.88229370117188 87.56893157958984 65.40481567382812 89.88570404052734 C 59.73468017578125 92.28397369384766 53.71062850952148 93.5 47.5 93.5 Z" stroke="none"/>
                <path d="M 47.5 3 C 41.49121475219727 3 35.66376876831055 4.176155090332031 30.17950439453125 6.495796203613281 C 24.88084411621094 8.736953735351562 20.12152099609375 11.94598388671875 16.03375244140625 16.03375244140625 C 11.94598388671875 20.12152099609375 8.736953735351562 24.88084411621094 6.495796203613281 30.17950439453125 C 4.176155090332031 35.66376876831055 3 41.49121475219727 3 47.5 C 3 53.50878524780273 4.176155090332031 59.33623123168945 6.495796203613281 64.82049560546875 C 8.736953735351562 70.11915588378906 11.94598388671875 74.87847900390625 16.03375244140625 78.96624755859375 C 20.12152099609375 83.05401611328125 24.88084411621094 86.26304626464844 30.17950439453125 88.50419616699219 C 35.66376876831055 90.82384490966797 41.49121475219727 92 47.5 92 C 53.50878524780273 92 59.33623123168945 90.82384490966797 64.82049560546875 88.50419616699219 C 70.11915588378906 86.26304626464844 74.87847900390625 83.05401611328125 78.96624755859375 78.96624755859375 C 83.05401611328125 74.87847900390625 86.26304626464844 70.11915588378906 88.50419616699219 64.82049560546875 C 90.82384490966797 59.33623123168945 92 53.50878524780273 92 47.5 C 92 41.49121475219727 90.82384490966797 35.66376876831055 88.50419616699219 30.17950439453125 C 86.26304626464844 24.88084411621094 83.05401611328125 20.12152099609375 78.96624755859375 16.03375244140625 C 74.87847900390625 11.94598388671875 70.11915588378906 8.736953735351562 64.82049560546875 6.495796203613281 C 59.33623123168945 4.176155090332031 53.50878524780273 3 47.5 3 M 47.5 0 C 73.7335205078125 0 95 21.2664794921875 95 47.5 C 95 73.7335205078125 73.7335205078125 95 47.5 95 C 21.2664794921875 95 0 73.7335205078125 0 47.5 C 0 21.2664794921875 21.2664794921875 0 47.5 0 Z" stroke="none" fill="#fe9d52"/>
              </g>
            </g>
          </g>
        </g>
      </g>
    </g>
    <g id="graph_6331020_1_" data-name="graph_6331020 (1)" transform="translate(298.465 5934.626)">
      <path id="Trazado_1040414" data-name="Trazado 1040414" d="M13,19.8V2H27.049l1.873,2.81H48.591V19.8Z" transform="translate(-0.761 -0.063)" fill="#af2f73"/>
      <path id="Trazado_1040415" data-name="Trazado 1040415" d="M23.136,7H46.844V20.112H15V15.136A8.136,8.136,0,0,1,23.136,7Z" transform="translate(-0.888 -0.38)" fill="#c13d88"/>
      <path id="Trazado_1040416" data-name="Trazado 1040416" d="M17,19.3V14.62L23.556,9H45.1V19.3Z" transform="translate(-1.014 -0.507)" fill="#fff"/>
      <path id="Trazado_1040417" data-name="Trazado 1040417" d="M54.7,52.035V25.81A2.81,2.81,0,0,0,51.894,23H8.81A2.81,2.81,0,0,0,6,25.81V52.035Z" transform="translate(-0.317 -1.395)" fill="#7288a0"/>
      <path id="Trazado_1040418" data-name="Trazado 1040418" d="M52.957,53.035H8V27.746A3.746,3.746,0,0,1,11.746,24H49.21a3.746,3.746,0,0,1,3.746,3.746Z" transform="translate(-0.444 -1.458)" fill="#95afd1"/>
      <path id="Trazado_1040419" data-name="Trazado 1040419" d="M2,54H58.2A7.493,7.493,0,0,1,50.7,61.493H9.493A7.493,7.493,0,0,1,2,54Z" transform="translate(-0.063 -3.36)" fill="#636363"/>
      <path id="Trazado_1040420" data-name="Trazado 1040420" d="M9.683,58.683h41.21A4.683,4.683,0,0,0,55.577,54H5A4.683,4.683,0,0,0,9.683,58.683Z" transform="translate(-0.254 -3.36)" fill="#717272"/>
      <path id="Trazado_1040421" data-name="Trazado 1040421" d="M30.605,45.971H50.274L51.21,16H39.971L38.1,18.81H10l.937,27.161Z" transform="translate(-0.571 -0.951)" fill="#ce4a95"/>
      <path id="Trazado_1040422" data-name="Trazado 1040422" d="M17,14.62h6.556V9Z" transform="translate(-1.014 -0.507)" fill="#d7e0ef"/>
      <path id="Trazado_1040423" data-name="Trazado 1040423" d="M39.859,54,39.6,55.021a3.6,3.6,0,0,1-3.492,2.726H26.746a3.6,3.6,0,0,1-3.492-2.725L23,54Z" transform="translate(-1.395 -3.36)" fill="#adadad"/>
      <path id="Trazado_1040424" data-name="Trazado 1040424" d="M39.3,21.4a3.156,3.156,0,0,1-2.622,1.4H14.138l.129,3.759A20.359,20.359,0,0,0,34.614,46.225H50.536L51.356,20H41.919A3.156,3.156,0,0,0,39.3,21.4Z" transform="translate(-0.833 -1.205)" fill="#db5dab"/>
      <g id="Grupo_1178592" data-name="Grupo 1178592" transform="translate(16.922 22.542)">
        <path id="Trazado_1040425" data-name="Trazado 1040425" d="M18,36h3.746v7.493H18Z" transform="translate(-18 -24.761)" fill="#edb23a"/>
        <path id="Trazado_1040426" data-name="Trazado 1040426" d="M26,32h3.746V43.239H26Z" transform="translate(-18.507 -24.507)" fill="#edb23a"/>
        <path id="Trazado_1040427" data-name="Trazado 1040427" d="M34,28h3.746V42.986H34Z" transform="translate(-19.014 -24.254)" fill="#edb23a"/>
        <path id="Trazado_1040428" data-name="Trazado 1040428" d="M42,24h3.746V42.732H42Z" transform="translate(-19.522 -24)" fill="#edb23a"/>
      </g>
      <path id="Trazado_1040429" data-name="Trazado 1040429" d="M20,36h1.873v7.493H20Z" transform="translate(-1.205 -2.219)" fill="#ffd98c"/>
      <path id="Trazado_1040430" data-name="Trazado 1040430" d="M28,32h1.873V43.239H28Z" transform="translate(-1.712 -1.965)" fill="#ffd98c"/>
      <path id="Trazado_1040431" data-name="Trazado 1040431" d="M36,28h1.873V42.986H36Z" transform="translate(-2.219 -1.712)" fill="#ffd98c"/>
      <path id="Trazado_1040432" data-name="Trazado 1040432" d="M44,24h1.873V42.732H44Z" transform="translate(-2.726 -1.458)" fill="#ffd98c"/>
      <path id="Trazado_1040433" data-name="Trazado 1040433" d="M58.133,49.7h-2.81V24.415a3.746,3.746,0,0,0-3.746-3.746H51.4l.176-5.591a.937.937,0,0,0-.937-.966H48.767V4.746a.937.937,0,0,0-.937-.937H28.663L27.07,1.417A.937.937,0,0,0,26.288,1H12.239a.937.937,0,0,0-.937.937V16.922H9.429a.937.937,0,0,0-.937.968l.094,2.778H8.493a3.746,3.746,0,0,0-3.746,3.746V49.7H1.937A.937.937,0,0,0,1,50.64a8.439,8.439,0,0,0,8.429,8.429H50.64a8.439,8.439,0,0,0,8.429-8.429.937.937,0,0,0-.937-.937ZM13.176,2.873H25.787l1.592,2.393a.937.937,0,0,0,.782.417H46.894v8.429H45.02V8.493a.937.937,0,0,0-.937-.937H22.542a.931.931,0,0,0-.609.226L15.377,13.4a.937.937,0,0,0-.328.711v2.81H13.176Zm3.746,12.176h5.62a.937.937,0,0,0,.937-.937V9.429H43.147v4.683H39.4a.937.937,0,0,0-.779.417l-1.595,2.393h-20.1Zm1.592-1.873,3.091-2.647v2.647ZM37.527,18.8a.937.937,0,0,0,.779-.417L39.9,15.986h9.773l-.879,28.1H11.271L10.4,18.8ZM6.62,24.415a1.873,1.873,0,0,1,1.873-1.873h.161l.776,22.51a.937.937,0,0,0,.937.9H49.7a.937.937,0,0,0,.937-.908l.7-22.507h.234a1.873,1.873,0,0,1,1.873,1.873V49.7H6.62ZM37.252,51.577a2.655,2.655,0,0,1-2.534,1.873H25.352a2.655,2.655,0,0,1-2.534-1.873ZM50.64,57.2H9.429a6.567,6.567,0,0,1-6.49-5.62H20.875l.078.311a4.528,4.528,0,0,0,4.4,3.435h9.366a4.528,4.528,0,0,0,4.4-3.435l.075-.311H57.13a6.567,6.567,0,0,1-6.49,5.62Z" transform="translate(0 0)"/>
      <path id="Trazado_1040434" data-name="Trazado 1040434" d="M17.937,44.366h3.746a.937.937,0,0,0,.937-.937V35.937A.937.937,0,0,0,21.683,35H17.937a.937.937,0,0,0-.937.937v7.493A.937.937,0,0,0,17.937,44.366Zm.937-7.493h1.873v5.62H18.873Z" transform="translate(-1.014 -2.156)"/>
      <path id="Trazado_1040435" data-name="Trazado 1040435" d="M25.937,44.112h3.746a.937.937,0,0,0,.937-.937V31.937A.937.937,0,0,0,29.683,31H25.937a.937.937,0,0,0-.937.937V43.176A.937.937,0,0,0,25.937,44.112Zm.937-11.239h1.873v9.366H26.873Z" transform="translate(-1.522 -1.902)"/>
      <path id="Trazado_1040436" data-name="Trazado 1040436" d="M33.937,43.859h3.746a.937.937,0,0,0,.937-.937V27.937A.937.937,0,0,0,37.683,27H33.937a.937.937,0,0,0-.937.937V42.922A.937.937,0,0,0,33.937,43.859Zm.937-14.986h1.873V41.986H34.873Z" transform="translate(-2.029 -1.648)"/>
      <path id="Trazado_1040437" data-name="Trazado 1040437" d="M41.937,43.605h3.746a.937.937,0,0,0,.937-.937V23.937A.937.937,0,0,0,45.683,23H41.937a.937.937,0,0,0-.937.937V42.669A.937.937,0,0,0,41.937,43.605Zm.937-18.732h1.873V41.732H42.873Z" transform="translate(-2.536 -1.395)"/>
    </g>
  </g>
</svg>
