<svg xmlns="http://www.w3.org/2000/svg" xmlns:xlink="http://www.w3.org/1999/xlink" width="113" height="113" viewBox="0 0 113 113">
  <defs>
    <filter id="Trazado_982547" x="0" y="0" width="113" height="113" filterUnits="userSpaceOnUse">
      <feOffset dy="3" input="SourceAlpha"/>
      <feGaussianBlur stdDeviation="3" result="blur"/>
      <feFlood flood-opacity="0.161"/>
      <feComposite operator="in" in2="blur"/>
      <feComposite in="SourceGraphic"/>
    </filter>
  </defs>
  <g id="Grupo_1178907" data-name="Grupo 1178907" transform="translate(-901.56 -3422.045)">
    <g id="Grupo_1178493" data-name="Grupo 1178493" transform="translate(910.561 3428.045)">
      <g id="Grupo_1172010" data-name="Grupo 1172010" transform="translate(0)">
        <g id="Grupo_1171046" data-name="Grupo 1171046">
          <g id="Grupo_1148525" data-name="Grupo 1148525">
            <g transform="matrix(1, 0, 0, 1, -9, -6)" filter="url(#Trazado_982547)">
              <g id="Trazado_982547-2" data-name="Trazado 982547" transform="translate(9 6)" fill="#fdeffe">
                <path d="M 47.5 93.5 C 41.28937149047852 93.5 35.26533508300781 92.28397369384766 29.59518623352051 89.88570404052734 C 24.11771965026855 87.56893157958984 19.19813346862793 84.25196075439453 14.97309303283691 80.02691650390625 C 10.74804019927979 75.80186462402344 7.431066513061523 70.88229370117188 5.114293098449707 65.40481567382812 C 2.716026782989502 59.73468017578125 1.5 53.71062850952148 1.5 47.5 C 1.5 41.28937149047852 2.716026782989502 35.26533508300781 5.114293098449707 29.59518623352051 C 7.431066513061523 24.11771965026855 10.74804019927979 19.19813346862793 14.97309303283691 14.97309303283691 C 19.19813346862793 10.74804019927979 24.11771965026855 7.431066513061523 29.59518623352051 5.114293098449707 C 35.26533508300781 2.716026782989502 41.28937149047852 1.5 47.5 1.5 C 53.71062850952148 1.5 59.73468017578125 2.716026782989502 65.40481567382812 5.114293098449707 C 70.88229370117188 7.431066513061523 75.80186462402344 10.74804019927979 80.02691650390625 14.97309303283691 C 84.25196075439453 19.19813346862793 87.56893157958984 24.11771965026855 89.88570404052734 29.59518623352051 C 92.28397369384766 35.26533508300781 93.5 41.28937149047852 93.5 47.5 C 93.5 53.71062850952148 92.28397369384766 59.73468017578125 89.88570404052734 65.40481567382812 C 87.56893157958984 70.88229370117188 84.25196075439453 75.80186462402344 80.02691650390625 80.02691650390625 C 75.80186462402344 84.25196075439453 70.88229370117188 87.56893157958984 65.40481567382812 89.88570404052734 C 59.73468017578125 92.28397369384766 53.71062850952148 93.5 47.5 93.5 Z" stroke="none"/>
                <path d="M 47.5 3 C 41.49121475219727 3 35.66376876831055 4.176155090332031 30.17950439453125 6.495796203613281 C 24.88084411621094 8.736953735351562 20.12152099609375 11.94598388671875 16.03375244140625 16.03375244140625 C 11.94598388671875 20.12152099609375 8.736953735351562 24.88084411621094 6.495796203613281 30.17950439453125 C 4.176155090332031 35.66376876831055 3 41.49121475219727 3 47.5 C 3 53.50878524780273 4.176155090332031 59.33623123168945 6.495796203613281 64.82049560546875 C 8.736953735351562 70.11915588378906 11.94598388671875 74.87847900390625 16.03375244140625 78.96624755859375 C 20.12152099609375 83.05401611328125 24.88084411621094 86.26304626464844 30.17950439453125 88.50419616699219 C 35.66376876831055 90.82384490966797 41.49121475219727 92 47.5 92 C 53.50878524780273 92 59.33623123168945 90.82384490966797 64.82049560546875 88.50419616699219 C 70.11915588378906 86.26304626464844 74.87847900390625 83.05401611328125 78.96624755859375 78.96624755859375 C 83.05401611328125 74.87847900390625 86.26304626464844 70.11915588378906 88.50419616699219 64.82049560546875 C 90.82384490966797 59.33623123168945 92 53.50878524780273 92 47.5 C 92 41.49121475219727 90.82384490966797 35.66376876831055 88.50419616699219 30.17950439453125 C 86.26304626464844 24.88084411621094 83.05401611328125 20.12152099609375 78.96624755859375 16.03375244140625 C 74.87847900390625 11.94598388671875 70.11915588378906 8.736953735351562 64.82049560546875 6.495796203613281 C 59.33623123168945 4.176155090332031 53.50878524780273 3 47.5 3 M 47.5 0 C 73.7335205078125 0 95 21.2664794921875 95 47.5 C 95 73.7335205078125 73.7335205078125 95 47.5 95 C 21.2664794921875 95 0 73.7335205078125 0 47.5 C 0 21.2664794921875 21.2664794921875 0 47.5 0 Z" stroke="none" fill="#ee70f7"/>
              </g>
            </g>
          </g>
        </g>
      </g>
    </g>
    <g id="idea_5387595" transform="translate(927.355 3446.355)">
      <g id="Grupo_1178902" data-name="Grupo 1178902" transform="translate(1.956 1.956)">
        <circle id="Elipse_12558" data-name="Elipse 12558" cx="3" cy="3" r="3" transform="translate(4.688 18.688)" fill="#ffd55d"/>
        <circle id="Elipse_12559" data-name="Elipse 12559" cx="5" cy="5" r="5" transform="translate(47.688 -0.312)" fill="#ffd55d"/>
        <circle id="Elipse_12560" data-name="Elipse 12560" cx="3" cy="3" r="3" transform="translate(46.688 32.688)" fill="#ffd55d"/>
        <circle id="Elipse_12561" data-name="Elipse 12561" cx="5" cy="5" r="5" transform="translate(-0.312 47.688)" fill="#ffd55d"/>
      </g>
      <g id="Grupo_1178905" data-name="Grupo 1178905" transform="translate(11.519 1)">
        <path id="Trazado_1041135" data-name="Trazado 1041135" d="M39.732,42.164V38.209a19.126,19.126,0,1,0-17.213,0v3.954Z" transform="translate(-12 -1.044)" fill="#ffc239"/>
        <path id="Trazado_1041136" data-name="Trazado 1041136" d="M31.363,2A19.05,19.05,0,0,0,17.421,8.062,32.533,32.533,0,0,0,44.442,35.07,19.119,19.119,0,0,0,31.363,2Z" transform="translate(-12.237 -1.044)" fill="#ffd55d"/>
        <g id="Grupo_1178903" data-name="Grupo 1178903" transform="translate(12.712 22.275)">
          <path id="Trazado_1041137" data-name="Trazado 1041137" d="M29.794,43.138H27.882v-14.9l-2.589-2.589,1.352-1.352,2.869,2.869a.954.954,0,0,1,.28.676Z" transform="translate(-25.293 -24.293)" fill="#f1f1f3"/>
        </g>
        <g id="Grupo_1178904" data-name="Grupo 1178904" transform="translate(21.038 22.275)">
          <path id="Trazado_1041138" data-name="Trazado 1041138" d="M35.913,43.138H34v-15.3a.954.954,0,0,1,.28-.676l2.869-2.869L38.5,25.645l-2.589,2.589Z" transform="translate(-34 -24.293)" fill="#f1f1f3"/>
        </g>
        <path id="Trazado_1041139" data-name="Trazado 1041139" d="M23,48v2.869H40.213V48Z" transform="translate(-12.481 -3.055)" fill="#393a3a"/>
        <path id="Trazado_1041140" data-name="Trazado 1041140" d="M38.388,55A6.694,6.694,0,0,1,25,55Z" transform="translate(-12.568 -3.361)" fill="#393a3a"/>
        <path id="Trazado_1041141" data-name="Trazado 1041141" d="M41.082,47.825H21.956A.957.957,0,0,1,21,46.869V44.956A.957.957,0,0,1,21.956,44H41.082a.957.957,0,0,1,.956.956v1.913A.957.957,0,0,1,41.082,47.825Z" transform="translate(-12.394 -2.88)" fill="#d5d6d8"/>
        <path id="Trazado_1041142" data-name="Trazado 1041142" d="M41.169,44H23v.956a1.912,1.912,0,0,0,1.913,1.913H42.126V44.956A.957.957,0,0,0,41.169,44Z" transform="translate(-12.481 -2.88)" fill="#f1f1f3"/>
        <path id="Trazado_1041143" data-name="Trazado 1041143" d="M41.082,54.825H21.956A.957.957,0,0,1,21,53.869V51.956A.957.957,0,0,1,21.956,51H41.082a.957.957,0,0,1,.956.956v1.913A.957.957,0,0,1,41.082,54.825Z" transform="translate(-12.394 -3.186)" fill="#d5d6d8"/>
        <path id="Trazado_1041144" data-name="Trazado 1041144" d="M41.169,51H23v.956a1.912,1.912,0,0,0,1.913,1.913H42.126V51.956A.957.957,0,0,0,41.169,51Z" transform="translate(-12.481 -3.186)" fill="#f1f1f3"/>
        <path id="Trazado_1041145" data-name="Trazado 1041145" d="M55.091,1A5.735,5.735,0,0,0,50.1,3.912c-5.05.31-11.868,3.555-18.918,8.841C24.542,7.776,18.2,4.7,13.339,4.039c.071.66.156,1.315.25,1.967,4.164.709,9.812,3.362,16.026,7.951a91.562,91.562,0,0,0-7.994,7.124c-.8.8-1.577,1.615-2.336,2.43.314.6.642,1.182.976,1.763.876-.955,1.776-1.9,2.712-2.841a88.452,88.452,0,0,1,8.23-7.272,89.32,89.32,0,0,1,8.19,7.272,84.411,84.411,0,0,1,10.15,12.18,3.821,3.821,0,0,0,2.679,6.55,3.772,3.772,0,0,0,1.074-.172c2.081,4.22,2.994,7.851,2.675,10.41.625.135,1.257.253,1.89.367.425-3-.552-7-2.915-11.751a3.821,3.821,0,0,0-2.723-6.5,3.762,3.762,0,0,0-1.011.153q-1.011-1.5-2.145-3.021c5.361-7.163,8.552-13.984,8.86-18.926A5.734,5.734,0,0,0,55.091,1ZM52.222,35.426a1.913,1.913,0,1,1-1.913,1.913A1.914,1.914,0,0,1,52.222,35.426Zm-4.365-6.357a91.49,91.49,0,0,0-7.11-7.987,91.474,91.474,0,0,0-7.972-7.112c6.2-4.568,12.188-7.534,16.651-8.092a5.547,5.547,0,0,0-.073.86,5.7,5.7,0,0,0,6.587,5.668c-.559,4.375-3.486,10.422-8.083,16.663Zm7.234-18.506a3.825,3.825,0,1,1,3.825-3.825A3.829,3.829,0,0,1,55.091,10.563Z" transform="translate(-12.059 -1)" fill="#81b4fc"/>
      </g>
      <g id="Grupo_1178906" data-name="Grupo 1178906" transform="translate(1 1)">
        <path id="Trazado_1041146" data-name="Trazado 1041146" d="M6.738,60.289a5.738,5.738,0,0,0,4.985-2.908C14.788,57.19,18.6,55.9,22.834,53.6h.227a7.643,7.643,0,0,0,15.168,0h.227c4.639,2.523,8.714,3.81,11.892,3.81a7.1,7.1,0,0,0,5.208-1.85c2.848-2.848,2.429-8.353-1.148-15.539a3.82,3.82,0,0,0-2.724-6.5,3.762,3.762,0,0,0-1.011.153q-1.011-1.5-2.143-3.018C53.9,23.475,57.08,16.684,57.386,11.72a5.734,5.734,0,1,0-7.821-7.808,21.541,21.541,0,0,0-6.341,1.54,20,20,0,0,0-25.172.011C12.615,3.368,8.166,3.3,5.734,5.734,2.886,8.581,3.3,14.087,6.882,21.272a3.821,3.821,0,0,0,4.651,5.981,19.955,19.955,0,0,0,1.35,3.222c-5.361,7.11-8.66,14-8.972,19.09A5.733,5.733,0,0,0,6.738,60.289ZM22.469,37.313a18.159,18.159,0,0,1-7.291-6.668A88.98,88.98,0,0,1,30.665,15.162a89.319,89.319,0,0,1,8.19,7.272,89.062,89.062,0,0,1,7.262,8.2c-.032.052-.068.1-.1.151l-.022.029,0,0a18.17,18.17,0,0,1-7.175,6.494.956.956,0,0,0-.527.854v3H34.47V27.215l2.589-2.589-1.352-1.352-2.869,2.869a.954.954,0,0,0-.28.676V41.164H28.732V26.819a.954.954,0,0,0-.28-.676l-2.869-2.869-1.352,1.352,2.589,2.589V41.164H22.994v-3a.955.955,0,0,0-.525-.853ZM48.814,21.082A18.186,18.186,0,0,1,47.1,28.8a91.58,91.58,0,0,0-6.892-7.716,91.474,91.474,0,0,0-7.972-7.112A55.443,55.443,0,0,1,42.854,7.664,18.112,18.112,0,0,1,48.814,21.082ZM40.207,43.076v1.913H21.082V43.076ZM38.295,46.9v.956h-15.3V46.9Zm1.913,2.869v1.913H21.082V49.77Zm-9.563,8.606A5.743,5.743,0,0,1,24.993,53.6H36.3A5.743,5.743,0,0,1,30.645,58.377ZM53.6,37.338a1.913,1.913,0,1,1-1.913-1.913A1.914,1.914,0,0,1,53.6,37.338Zm-1.913,3.825a3.772,3.772,0,0,0,1.074-.172c3.037,6.161,3.59,11.068,1.447,13.212-2.1,2.1-6.734,1.639-12.644-1.169a1.91,1.91,0,0,0,.56-1.352V49.77a1.914,1.914,0,0,0-1.913-1.913V46.9a1.914,1.914,0,0,0,1.913-1.913V43.076a1.914,1.914,0,0,0-1.913-1.913V38.745a20.059,20.059,0,0,0,7.136-6.49c.581.789,1.132,1.576,1.661,2.359a3.821,3.821,0,0,0,2.679,6.55ZM54.551,2.913a3.825,3.825,0,1,1-3.825,3.825A3.829,3.829,0,0,1,54.551,2.913Zm0,9.563a5.793,5.793,0,0,0,.85-.07c-.418,3.3-2.169,7.51-4.968,12.056a20.378,20.378,0,0,0,.293-3.379A20.019,20.019,0,0,0,44.841,6.893a19.9,19.9,0,0,1,4.043-1.015,5.7,5.7,0,0,0,5.667,6.6ZM30.645,2.913a18.043,18.043,0,0,1,10.544,3.4,59.013,59.013,0,0,0-10.543,6.439A58.67,58.67,0,0,0,20.09,6.322,18.043,18.043,0,0,1,30.645,2.913ZM7.086,7.086c1.651-1.651,5-1.7,9.357-.188A20.009,20.009,0,0,0,10.6,20.274a3.8,3.8,0,0,0-1-.148,3.772,3.772,0,0,0-1.074.172C5.5,14.136,4.942,9.23,7.086,7.086ZM9.606,25.863a1.913,1.913,0,1,1,1-3.544A20.185,20.185,0,0,0,11,25.248,1.9,1.9,0,0,1,9.606,25.863Zm2.869-4.781A18.1,18.1,0,0,1,18.432,7.669a54.031,54.031,0,0,1,10.643,6.288,93.318,93.318,0,0,0-14.89,14.831A18.186,18.186,0,0,1,12.475,21.082Zm1.476,11.181a20.065,20.065,0,0,0,7.131,6.483v2.418a1.914,1.914,0,0,0-1.913,1.913v1.913A1.914,1.914,0,0,0,21.082,46.9v.956a1.914,1.914,0,0,0-1.913,1.913v1.913a1.909,1.909,0,0,0,.557,1.347A24.945,24.945,0,0,1,12.4,55.4a5.7,5.7,0,0,0-6.527-6.519c.558-4.456,3.516-10.436,8.073-16.623ZM6.738,50.726a3.825,3.825,0,1,1-3.825,3.825A3.829,3.829,0,0,1,6.738,50.726Z" transform="translate(-1 -1)"/>
      </g>
    </g>
  </g>
</svg>
