<svg xmlns="http://www.w3.org/2000/svg" xmlns:xlink="http://www.w3.org/1999/xlink" width="113" height="113" viewBox="0 0 113 113">
  <defs>
    <filter id="Trazado_982547" x="0" y="0" width="113" height="113" filterUnits="userSpaceOnUse">
      <feOffset dy="3" input="SourceAlpha"/>
      <feGaussianBlur stdDeviation="3" result="blur"/>
      <feFlood flood-opacity="0.161"/>
      <feComposite operator="in" in2="blur"/>
      <feComposite in="SourceGraphic"/>
    </filter>
  </defs>
  <g id="Grupo_1178609" data-name="Grupo 1178609" transform="translate(-586.06 -5911.161)">
    <g id="Grupo_1178435" data-name="Grupo 1178435" transform="translate(595.061 5917.161)">
      <g id="Grupo_1172010" data-name="Grupo 1172010" transform="translate(0)">
        <g id="Grupo_1171046" data-name="Grupo 1171046">
          <g id="Grupo_1148525" data-name="Grupo 1148525">
            <g transform="matrix(1, 0, 0, 1, -9, -6)" filter="url(#Trazado_982547)">
              <g id="Trazado_982547-2" data-name="Trazado 982547" transform="translate(9 6)" fill="#fef4ec">
                <path d="M 47.5 93.5 C 41.28937149047852 93.5 35.26533508300781 92.28397369384766 29.59518623352051 89.88570404052734 C 24.11771965026855 87.56893157958984 19.19813346862793 84.25196075439453 14.97309303283691 80.02691650390625 C 10.74804019927979 75.80186462402344 7.431066513061523 70.88229370117188 5.114293098449707 65.40481567382812 C 2.716026782989502 59.73468017578125 1.5 53.71062850952148 1.5 47.5 C 1.5 41.28937149047852 2.716026782989502 35.26533508300781 5.114293098449707 29.59518623352051 C 7.431066513061523 24.11771965026855 10.74804019927979 19.19813346862793 14.97309303283691 14.97309303283691 C 19.19813346862793 10.74804019927979 24.11771965026855 7.431066513061523 29.59518623352051 5.114293098449707 C 35.26533508300781 2.716026782989502 41.28937149047852 1.5 47.5 1.5 C 53.71062850952148 1.5 59.73468017578125 2.716026782989502 65.40481567382812 5.114293098449707 C 70.88229370117188 7.431066513061523 75.80186462402344 10.74804019927979 80.02691650390625 14.97309303283691 C 84.25196075439453 19.19813346862793 87.56893157958984 24.11771965026855 89.88570404052734 29.59518623352051 C 92.28397369384766 35.26533508300781 93.5 41.28937149047852 93.5 47.5 C 93.5 53.71062850952148 92.28397369384766 59.73468017578125 89.88570404052734 65.40481567382812 C 87.56893157958984 70.88229370117188 84.25196075439453 75.80186462402344 80.02691650390625 80.02691650390625 C 75.80186462402344 84.25196075439453 70.88229370117188 87.56893157958984 65.40481567382812 89.88570404052734 C 59.73468017578125 92.28397369384766 53.71062850952148 93.5 47.5 93.5 Z" stroke="none"/>
                <path d="M 47.5 3 C 41.49121475219727 3 35.66376876831055 4.176155090332031 30.17950439453125 6.495796203613281 C 24.88084411621094 8.736953735351562 20.12152099609375 11.94598388671875 16.03375244140625 16.03375244140625 C 11.94598388671875 20.12152099609375 8.736953735351562 24.88084411621094 6.495796203613281 30.17950439453125 C 4.176155090332031 35.66376876831055 3 41.49121475219727 3 47.5 C 3 53.50878524780273 4.176155090332031 59.33623123168945 6.495796203613281 64.82049560546875 C 8.736953735351562 70.11915588378906 11.94598388671875 74.87847900390625 16.03375244140625 78.96624755859375 C 20.12152099609375 83.05401611328125 24.88084411621094 86.26304626464844 30.17950439453125 88.50419616699219 C 35.66376876831055 90.82384490966797 41.49121475219727 92 47.5 92 C 53.50878524780273 92 59.33623123168945 90.82384490966797 64.82049560546875 88.50419616699219 C 70.11915588378906 86.26304626464844 74.87847900390625 83.05401611328125 78.96624755859375 78.96624755859375 C 83.05401611328125 74.87847900390625 86.26304626464844 70.11915588378906 88.50419616699219 64.82049560546875 C 90.82384490966797 59.33623123168945 92 53.50878524780273 92 47.5 C 92 41.49121475219727 90.82384490966797 35.66376876831055 88.50419616699219 30.17950439453125 C 86.26304626464844 24.88084411621094 83.05401611328125 20.12152099609375 78.96624755859375 16.03375244140625 C 74.87847900390625 11.94598388671875 70.11915588378906 8.736953735351562 64.82049560546875 6.495796203613281 C 59.33623123168945 4.176155090332031 53.50878524780273 3 47.5 3 M 47.5 0 C 73.7335205078125 0 95 21.2664794921875 95 47.5 C 95 73.7335205078125 73.7335205078125 95 47.5 95 C 21.2664794921875 95 0 73.7335205078125 0 47.5 C 0 21.2664794921875 21.2664794921875 0 47.5 0 Z" stroke="none" fill="#fe9d52"/>
              </g>
            </g>
          </g>
        </g>
      </g>
    </g>
    <g id="predictive-chart_18263490" transform="translate(602.125 5923.72)">
      <g id="Grupo_1178606" data-name="Grupo 1178606" transform="translate(12.842 16.681)">
        <g id="Grupo_1178594" data-name="Grupo 1178594" transform="translate(5.475 42.315)">
          <path id="Trazado_1040438" data-name="Trazado 1040438" d="M70.917,403.743h4.576v11.1H70.917Z" transform="translate(-70.917 -403.743)" fill="#f7c5b8" fill-rule="evenodd"/>
        </g>
        <g id="Grupo_1178595" data-name="Grupo 1178595" transform="translate(15.54 32.275)">
          <path id="Trazado_1040439" data-name="Trazado 1040439" d="M153.273,321.588h4.576v21.136h-4.576Z" transform="translate(-153.273 -321.588)" fill="#f7c5b8" fill-rule="evenodd"/>
        </g>
        <g id="Grupo_1178596" data-name="Grupo 1178596" transform="translate(25.605 22.735)">
          <path id="Trazado_1040440" data-name="Trazado 1040440" d="M235.631,243.521h4.576V274.2h-4.576Z" transform="translate(-235.631 -243.521)" fill="#f7c5b8" fill-rule="evenodd"/>
        </g>
        <g id="Grupo_1178597" data-name="Grupo 1178597" transform="translate(36.071 29.003)">
          <path id="Trazado_1040441" data-name="Trazado 1040441" d="M321.278,294.811h4.576v24.408h-4.576Z" transform="translate(-321.278 -294.811)" fill="#f7c5b8" fill-rule="evenodd"/>
        </g>
        <g id="Grupo_1178598" data-name="Grupo 1178598" transform="translate(46.04 37.647)">
          <path id="Trazado_1040442" data-name="Trazado 1040442" d="M402.849,365.545h4.576v15.716h-4.576Z" transform="translate(-402.849 -365.545)" fill="#f7c5b8" fill-rule="evenodd"/>
        </g>
        <g id="Grupo_1178599" data-name="Grupo 1178599" transform="translate(0 33.681)">
          <path id="Trazado_1040443" data-name="Trazado 1040443" d="M28.309,337.484a2.2,2.2,0,1,0-2.2-2.2A2.2,2.2,0,0,0,28.309,337.484Z" transform="translate(-26.113 -333.092)" fill="#08a9f1" fill-rule="evenodd"/>
        </g>
        <g id="Grupo_1178600" data-name="Grupo 1178600" transform="translate(16.381 23.612)">
          <path id="Trazado_1040444" data-name="Trazado 1040444" d="M162.349,255.088a2.2,2.2,0,1,0-2.2-2.2A2.2,2.2,0,0,0,162.349,255.088Z" transform="translate(-160.153 -250.696)" fill="#08a9f1" fill-rule="evenodd"/>
        </g>
        <g id="Grupo_1178601" data-name="Grupo 1178601" transform="translate(46.214 19.906)">
          <path id="Trazado_1040445" data-name="Trazado 1040445" d="M0,0H3.566V14.265H0Z" transform="translate(7.139 13.78) rotate(164.991)" fill="#9be6fb" fill-rule="evenodd"/>
        </g>
        <g id="Grupo_1178602" data-name="Grupo 1178602" transform="translate(46.622 27.106)">
          <path id="Trazado_1040446" data-name="Trazado 1040446" d="M410.786,279.438a4.292,4.292,0,0,1,5.241,3.026l2.216,8.267a4.28,4.28,0,0,1-8.268,2.216l-2.215-8.268A4.292,4.292,0,0,1,410.786,279.438Z" transform="translate(-407.614 -279.293)" fill="#08a9f1" fill-rule="evenodd"/>
        </g>
        <g id="Grupo_1178603" data-name="Grupo 1178603" transform="translate(34.039 0)">
          <path id="Trazado_1040447" data-name="Trazado 1040447" d="M313.107,57.878a11.412,11.412,0,1,1-8.07,13.977,11.411,11.411,0,0,1,8.07-13.977Zm.981,3.66a7.623,7.623,0,1,0,9.336,5.39A7.624,7.624,0,0,0,314.088,61.537Z" transform="translate(-304.645 -57.486)" fill="#6c8cc7" fill-rule="evenodd"/>
        </g>
        <g id="Grupo_1178604" data-name="Grupo 1178604" transform="translate(25.114 7.809)">
          <path id="Trazado_1040448" data-name="Trazado 1040448" d="M233.81,125.776a2.2,2.2,0,1,0-2.2-2.2A2.2,2.2,0,0,0,233.81,125.776Z" transform="translate(-231.614 -121.384)" fill="#08a9f1" fill-rule="evenodd"/>
        </g>
        <g id="Grupo_1178605" data-name="Grupo 1178605" transform="translate(9.323 19.57)">
          <path id="Trazado_1040449" data-name="Trazado 1040449" d="M104.595,222.015a2.2,2.2,0,1,0-2.2-2.2A2.2,2.2,0,0,0,104.595,222.015Z" transform="translate(-102.399 -217.623)" fill="#08a9f1" fill-rule="evenodd"/>
        </g>
      </g>
      <g id="Grupo_1178608" data-name="Grupo 1178608" transform="translate(10.994 11)">
        <g id="Grupo_1178607" data-name="Grupo 1178607" transform="translate(0 0)">
          <path id="Trazado_1040450" data-name="Trazado 1040450" d="M69.355,395.832a.832.832,0,0,0-.832-.832H63.832a.832.832,0,0,0-.832.832v11.291a.832.832,0,0,0,.832.832h4.692a.832.832,0,0,0,.832-.832V395.832Zm-1.711,10.411H64.711v-9.532h2.933Z" transform="translate(-56.644 -348.072)"/>
          <path id="Trazado_1040451" data-name="Trazado 1040451" d="M153.354,312.832a.832.832,0,0,0-.832-.832h-4.692a.832.832,0,0,0-.832.832v21.434a.832.832,0,0,0,.832.832h4.692a.832.832,0,0,0,.832-.832Zm-1.711,20.555h-3.055V313.711h3.055Z" transform="translate(-130.378 -275.216)"/>
          <path id="Trazado_1040452" data-name="Trazado 1040452" d="M236.354,233.832a.832.832,0,0,0-.832-.832H230.83a.831.831,0,0,0-.831.832V264.92a.831.831,0,0,0,.831.832h4.692a.832.832,0,0,0,.832-.832Zm-1.711,30.209H231.71V234.589h2.933Z" transform="translate(-203.235 -205.87)"/>
          <path id="Trazado_1040453" data-name="Trazado 1040453" d="M320.354,285.832a.832.832,0,0,0-.832-.832h-4.692a.832.832,0,0,0-.832.832v24.734a.832.832,0,0,0,.832.832h4.692a.832.832,0,0,0,.832-.832Zm-1.711,23.854h-3.055v-23.1h3.055Z" transform="translate(-276.969 -251.515)"/>
          <path id="Trazado_1040454" data-name="Trazado 1040454" d="M19.8,28.616a8.808,8.808,0,1,0-8.808-8.808A8.818,8.818,0,0,0,19.8,28.616Zm0-15.953a7.145,7.145,0,1,1-7.145,7.145A7.153,7.153,0,0,1,19.8,12.663Z" transform="translate(-10.994 -11)"/>
          <path id="Trazado_1040455" data-name="Trazado 1040455" d="M45.322,35.166H49.2a.857.857,0,0,0,.847-.846V28.364a.856.856,0,0,0-1.711,0v5.092H45.322a.856.856,0,0,0,0,1.711Z" transform="translate(-40.397 -25.512)"/>
          <path id="Trazado_1040456" data-name="Trazado 1040456" d="M77.369,88.664l-2.248-8.387a5.182,5.182,0,0,0-3.6-3.638l-1.037-3.87A12.407,12.407,0,1,0,52.4,62.391l-2.659-1.414A3.059,3.059,0,1,0,44.6,62.5L38.759,73.072a3.05,3.05,0,0,0-2.869.826L34,72.854a3.059,3.059,0,1,0-5.3,1.292l-6.118,9.207a3.068,3.068,0,1,0,1.384.922l6.118-9.207a3.053,3.053,0,0,0,3.108-.76l1.887,1.044a3.059,3.059,0,1,0,5.13-1.476l5.846-10.571a3.048,3.048,0,0,0,2.9-.862l3.722,1.98c.039.176.082.352.129.528a12.423,12.423,0,0,0,11.979,9.2c.2,0,.4-.006.6-.016L66.423,78a5.184,5.184,0,0,0-1.3,4.955l1.062,3.969H65.7a.856.856,0,0,0-.868.822v15.944a.864.864,0,0,0,.868.832h4.642a.843.843,0,0,0,.844-.832V95.033a4.983,4.983,0,0,0,1.195.142,5.168,5.168,0,0,0,4.984-6.511Zm-55.719-1a1.4,1.4,0,1,1,1.4-1.4A1.4,1.4,0,0,1,21.65,87.662Zm9.375-14.109a1.4,1.4,0,1,1,1.4-1.4A1.4,1.4,0,0,1,31.025,73.553Zm7.036,3.894a1.4,1.4,0,1,1,1.4-1.4A1.4,1.4,0,0,1,38.061,77.446Zm8.695-15.722a1.4,1.4,0,1,1,1.4-1.4A1.4,1.4,0,0,1,46.756,61.724Zm7.664,2.8a10.731,10.731,0,1,1,10.371,7.967A10.674,10.674,0,0,1,54.42,64.522Zm12.637,9.42c.32-.059.638-.13.953-.214s.629-.182.934-.29l.809,3.02a5.127,5.127,0,0,0-1.888.506Zm2.422,28.875H66.546V88.64h.089l.722,2.731a5.291,5.291,0,0,0,2.122,2.94v8.506Zm3.8-9.423a3.478,3.478,0,0,1-.9.12,3.519,3.519,0,0,1-3.4-2.6l-2.248-8.387a3.514,3.514,0,0,1,2.481-4.3,3.476,3.476,0,0,1,.9-.12,3.519,3.519,0,0,1,3.4,2.6l2.248,8.387A3.513,3.513,0,0,1,73.28,93.393Z" transform="translate(-17.663 -44.645)"/>
          <path id="Trazado_1040457" data-name="Trazado 1040457" d="M342.592,93.638a8.564,8.564,0,1,0-7.423,4.284,8.579,8.579,0,0,0,7.423-4.284Zm-5.631,2.383a6.9,6.9,0,1,1,4.191-3.215A6.922,6.922,0,0,1,336.962,96.021Z" transform="translate(-288.039 -72.259)"/>
          <path id="Trazado_1040458" data-name="Trazado 1040458" d="M161.249,59.614h6.509l-1.133,1.126a.83.83,0,0,0,1.176,1.171l2.554-2.554a.832.832,0,0,0,0-1.177L167.8,55.627a.833.833,0,0,0-1.176,0,.812.812,0,0,0,0,1.16l1.133,1.116h-6.509a.856.856,0,0,0,0,1.711Z" transform="translate(-142.156 -49.96)"/>
        </g>
      </g>
    </g>
  </g>
</svg>
