<svg xmlns="http://www.w3.org/2000/svg" xmlns:xlink="http://www.w3.org/1999/xlink" width="98" height="98" viewBox="0 0 98 98">
  <defs>
    <filter id="Trazado_982547" x="0" y="0" width="98" height="98" filterUnits="userSpaceOnUse">
      <feOffset dy="3" input="SourceAlpha"/>
      <feGaussianBlur stdDeviation="3" result="blur"/>
      <feFlood flood-opacity="0.161"/>
      <feComposite operator="in" in2="blur"/>
      <feComposite in="SourceGraphic"/>
    </filter>
  </defs>
  <g id="Grupo_1178917" data-name="Grupo 1178917" transform="translate(-278 -3422.045)">
    <g id="Grupo_1178491" data-name="Grupo 1178491" transform="translate(287 3428.045)">
      <g id="Grupo_1172010" data-name="Grupo 1172010" transform="translate(0)">
        <g id="Grupo_1171046" data-name="Grupo 1171046">
          <g id="Grupo_1148525" data-name="Grupo 1148525">
            <g transform="matrix(1, 0, 0, 1, -9, -6)" filter="url(#Trazado_982547)">
              <g id="Trazado_982547-2" data-name="Trazado 982547" transform="translate(9 6)" fill="#fdeffe">
                <path d="M 40 78.5 C 34.80187606811523 78.5 29.76003265380859 77.48227691650391 25.01452255249023 75.47509765625 C 20.43014526367188 73.53606414794922 16.31264495849609 70.75986480712891 12.77638912200928 67.22360992431641 C 9.240133285522461 63.68735504150391 6.46393346786499 59.56985473632812 4.524899959564209 54.98547744750977 C 2.517722129821777 50.23996734619141 1.5 45.19812393188477 1.5 40 C 1.5 34.80187606811523 2.517722129821777 29.76003265380859 4.524899959564209 25.01452255249023 C 6.46393346786499 20.43014526367188 9.240133285522461 16.31264495849609 12.77638912200928 12.77638912200928 C 16.31264495849609 9.240133285522461 20.43014526367188 6.46393346786499 25.01452255249023 4.524899959564209 C 29.76003265380859 2.517722129821777 34.80187606811523 1.5 40 1.5 C 45.19812393188477 1.5 50.23996734619141 2.517722129821777 54.98547744750977 4.524899959564209 C 59.56985473632812 6.46393346786499 63.68735504150391 9.240133285522461 67.22360992431641 12.77638912200928 C 70.75986480712891 16.31264495849609 73.53606414794922 20.43014526367188 75.47509765625 25.01452255249023 C 77.48227691650391 29.76003265380859 78.5 34.80187606811523 78.5 40 C 78.5 45.19812393188477 77.48227691650391 50.23996734619141 75.47509765625 54.98547744750977 C 73.53606414794922 59.56985473632812 70.75986480712891 63.68735504150391 67.22360992431641 67.22360992431641 C 63.68735504150391 70.75986480712891 59.56985473632812 73.53606414794922 54.98547744750977 75.47509765625 C 50.23996734619141 77.48227691650391 45.19812393188477 78.5 40 78.5 Z" stroke="none"/>
                <path d="M 40 3 C 35.00370788574219 3 30.15846633911133 3.977851867675781 25.59885406494141 5.906410217285156 C 21.19327926635742 7.769813537597656 17.23603820800781 10.43806457519531 13.83705139160156 13.83705139160156 C 10.43806457519531 17.23603820800781 7.769813537597656 21.19327926635742 5.906410217285156 25.59885406494141 C 3.977851867675781 30.15846633911133 3 35.00370788574219 3 40 C 3 44.99629211425781 3.977851867675781 49.84153366088867 5.906410217285156 54.40114593505859 C 7.769813537597656 58.80672073364258 10.43806457519531 62.76396179199219 13.83705139160156 66.16294860839844 C 17.23603820800781 69.56193542480469 21.19327926635742 72.23018646240234 25.59885406494141 74.09358978271484 C 30.15846633911133 76.02214813232422 35.00370788574219 77 40 77 C 44.99629211425781 77 49.84153366088867 76.02214813232422 54.40114593505859 74.09358978271484 C 58.80672073364258 72.23018646240234 62.76396179199219 69.56193542480469 66.16294860839844 66.16294860839844 C 69.56193542480469 62.76396179199219 72.23018646240234 58.80672073364258 74.09358978271484 54.40114593505859 C 76.02214813232422 49.84153366088867 77 44.99629211425781 77 40 C 77 35.00370788574219 76.02214813232422 30.15846633911133 74.09358978271484 25.59885406494141 C 72.23018646240234 21.19327926635742 69.56193542480469 17.23603820800781 66.16294860839844 13.83705139160156 C 62.76396179199219 10.43806457519531 58.80672073364258 7.769813537597656 54.40114593505859 5.906410217285156 C 49.84153366088867 3.977851867675781 44.99629211425781 3 40 3 M 40 0 C 62.09138488769531 0 80 17.90861511230469 80 40 C 80 62.09138488769531 62.09138488769531 80 40 80 C 17.90861511230469 80 0 62.09138488769531 0 40 C 0 17.90861511230469 17.90861511230469 0 40 0 Z" stroke="none" fill="#ee70f7"/>
              </g>
            </g>
          </g>
        </g>
      </g>
    </g>
    <g id="software_18594383" transform="translate(297.241 3423.905)">
      <g id="Grupo_1178922" data-name="Grupo 1178922" transform="translate(8.703 21.325)">
        <g id="Grupo_1178919" data-name="Grupo 1178919" transform="translate(0 6.353)">
          <path id="Trazado_1041176" data-name="Trazado 1041176" d="M160.175,370.448H146.329c1.106-1.564,2.021-5.595,1.623-8.7h10.5C158.057,364.853,159.07,368.884,160.175,370.448Z" transform="translate(-133.166 -334.583)" fill="#a9b0bb" fill-rule="evenodd"/>
          <path id="Trazado_1041177" data-name="Trazado 1041177" d="M54.873,90.775a2.119,2.119,0,0,1,2.119,2.119v23.828a2.883,2.883,0,0,1-2.883,2.883H19.7a2.883,2.883,0,0,1-2.885-2.883V93.66A2.884,2.884,0,0,1,19.7,90.775Z" transform="translate(-16.636 -90.775)" fill="#a4d4ff" fill-rule="evenodd"/>
          <g id="Grupo_1178918" data-name="Grupo 1178918" transform="translate(0 23.092)">
            <path id="Trazado_1041178" data-name="Trazado 1041178" d="M55.187,321.148V324a2.883,2.883,0,0,1-2.883,2.883H17.9A2.883,2.883,0,0,1,15.012,324v-2.854Z" transform="translate(-15.012 -321.148)" fill="#cad0d7" fill-rule="evenodd"/>
            <path id="Trazado_1041179" data-name="Trazado 1041179" d="M107.77,448.564h18.781a1.756,1.756,0,0,1,0,3.512H107.77a1.756,1.756,0,1,1,0-3.512Z" transform="translate(-96.892 -435.792)" fill="#cad0d7" fill-rule="evenodd"/>
          </g>
        </g>
        <g id="Grupo_1178920" data-name="Grupo 1178920" transform="translate(4.321 0)">
          <path id="Trazado_1041180" data-name="Trazado 1041180" d="M77.2,38.9a2.185,2.185,0,0,0-1.544,3.729.649.649,0,0,1,0,.917l-1.4,1.4a.649.649,0,0,1-.917,0,2.185,2.185,0,0,0-3.729,1.544.647.647,0,0,1-.648.648H67a.647.647,0,0,1-.648-.648,2.184,2.184,0,0,0-3.729-1.544.648.648,0,0,1-.916,0l-1.4-1.4a.649.649,0,0,1,0-.917A2.185,2.185,0,0,0,58.764,38.9a.648.648,0,0,1-.648-.648V36.278a.648.648,0,0,1,.648-.648A2.185,2.185,0,0,0,60.308,31.9a.648.648,0,0,1,0-.916l1.4-1.4a.648.648,0,0,1,.916,0,2.185,2.185,0,0,0,3.729-1.544A.648.648,0,0,1,67,27.4H68.97a.648.648,0,0,1,.648.648,2.185,2.185,0,0,0,3.729,1.544.649.649,0,0,1,.917,0l1.4,1.4a.648.648,0,0,1,0,.916A2.185,2.185,0,0,0,77.2,35.63a.647.647,0,0,1,.648.648v1.973A.647.647,0,0,1,77.2,38.9Z" transform="translate(-58.116 -27.397)" fill="#cad0d7" fill-rule="evenodd"/>
          <path id="Trazado_1041181" data-name="Trazado 1041181" d="M114,88.022a4.741,4.741,0,1,0-4.741-4.741A4.751,4.751,0,0,0,114,88.022Z" transform="translate(-104.132 -73.413)" fill="#f4f6f8" fill-rule="evenodd"/>
        </g>
        <g id="Grupo_1178921" data-name="Grupo 1178921" transform="translate(27.087 9.946)">
          <path id="Trazado_1041182" data-name="Trazado 1041182" d="M299,131.621h6.737a.467.467,0,0,1,.464.469v11.4a.467.467,0,0,1-.464.469H285.7a.461.461,0,0,1-.328-.137.471.471,0,0,1-.136-.332v-16.4a.471.471,0,0,1,.136-.332.462.462,0,0,1,.328-.137h7.7Z" transform="translate(-285.231 -126.62)" fill="#fdcd56" fill-rule="evenodd"/>
        </g>
      </g>
      <path id="Trazado_1041183" data-name="Trazado 1041183" d="M22.881,57.1H11.587A3.585,3.585,0,0,1,8,53.513V30.451a3.585,3.585,0,0,1,3.587-3.587h3.471a1.49,1.49,0,0,0-.338-.513,1.35,1.35,0,0,1,0-1.908l1.4-1.4a1.35,1.35,0,0,1,1.908,0A1.483,1.483,0,0,0,20.555,22a1.35,1.35,0,0,1,1.35-1.35h1.973A1.35,1.35,0,0,1,25.228,22a1.483,1.483,0,0,0,2.531,1.048,1.352,1.352,0,0,1,1.91,0l1.4,1.4a1.35,1.35,0,0,1,0,1.908,1.49,1.49,0,0,0-.338.513H46.758a2.821,2.821,0,0,1,2.82,2.82v5.5l.311.274h5.925a1.7,1.7,0,0,1,1.7,1.7V47.355a1.7,1.7,0,0,1-1.7,1.7H49.578v4.453A3.585,3.585,0,0,1,45.994,57.1H34.61a15.6,15.6,0,0,0,1.212,5.62h2.358a2.457,2.457,0,1,1,0,4.915H19.4a2.457,2.457,0,1,1,0-4.915h2.351a15.6,15.6,0,0,0,1.13-5.62ZM14.874,28.268H11.587A2.182,2.182,0,0,0,9.4,30.451V49.957H48.175v-.9H35.868a.7.7,0,0,1-.7-.7V32.221a1.7,1.7,0,0,1,1.7-1.7h7.147a.7.7,0,0,1,.464.175l3.694,3.257V29.685a1.417,1.417,0,0,0-1.417-1.417H30.909a1.45,1.45,0,0,0,1.2.614,1.348,1.348,0,0,1,1.35,1.35v1.973a1.348,1.348,0,0,1-1.35,1.35,1.483,1.483,0,0,0-1.048,2.531,1.352,1.352,0,0,1,0,1.91l-1.4,1.4a1.352,1.352,0,0,1-1.91,0,1.483,1.483,0,0,0-2.531,1.048,1.348,1.348,0,0,1-1.35,1.35H21.9a1.348,1.348,0,0,1-1.35-1.35,1.483,1.483,0,0,0-2.531-1.048,1.35,1.35,0,0,1-1.908,0l-1.4-1.4a1.352,1.352,0,0,1,0-1.91,1.483,1.483,0,0,0-1.048-2.531,1.35,1.35,0,0,1-1.35-1.35V30.232a1.35,1.35,0,0,1,1.35-1.35,1.45,1.45,0,0,0,1.2-.614ZM9.4,51.36v2.153a2.182,2.182,0,0,0,2.183,2.181H45.994a2.181,2.181,0,0,0,2.181-2.181V51.36Zm27.467-3.7H55.814a.3.3,0,0,0,.3-.3V37.164a.3.3,0,0,0-.3-.3H36.57V47.355a.3.3,0,0,0,.3.3Zm-.3-12.2h11.2l-4.015-3.54H36.87a.3.3,0,0,0-.3.3ZM34.3,62.717a17.8,17.8,0,0,1-1.1-5.62H24.284a17.912,17.912,0,0,1-1.021,5.62Zm3.878,1.4H19.4a1.054,1.054,0,0,0,0,2.108H38.181a1.054,1.054,0,0,0,0-2.108ZM27.2,54.229a.7.7,0,1,1,0-1.4h3.172a.7.7,0,0,1,0,1.4ZM45.884,45a.7.7,0,1,1-1.281-.574l2.2-4.905a.7.7,0,0,1,1.281.574Zm3.238-4.384a.7.7,0,1,1,.7-1.215l3.9,2.252a.7.7,0,0,1,0,1.215l-3.9,2.252a.7.7,0,1,1-.7-1.215L51.97,42.26ZM43.52,43.9a.7.7,0,1,1-.7,1.215l-3.9-2.252a.7.7,0,0,1,0-1.215l3.9-2.252a.7.7,0,1,1,.7,1.215L40.671,42.26ZM13.725,30.285v1.867a2.887,2.887,0,0,1,2.024,4.888l1.321,1.32a2.886,2.886,0,0,1,4.887,2.025h1.867a2.887,2.887,0,0,1,4.888-2.024l1.321-1.321a2.887,2.887,0,0,1,2.024-4.888V30.285A2.887,2.887,0,0,1,30.033,25.4l-1.32-1.321a2.887,2.887,0,0,1-4.888-2.024H21.958a2.887,2.887,0,0,1-4.887,2.025L15.75,25.4A2.887,2.887,0,0,1,13.725,30.285Zm9.167,6.377a5.443,5.443,0,1,1,5.443-5.443A5.454,5.454,0,0,1,22.892,36.662Zm0-1.4a4.04,4.04,0,1,0-4.04-4.04A4.048,4.048,0,0,0,22.892,35.259Z" fill-rule="evenodd"/>
    </g>
  </g>
</svg>
