<svg xmlns="http://www.w3.org/2000/svg" xmlns:xlink="http://www.w3.org/1999/xlink" width="113" height="113" viewBox="0 0 113 113">
  <defs>
    <filter id="Trazado_982547" x="0" y="0" width="113" height="113" filterUnits="userSpaceOnUse">
      <feOffset dy="3" input="SourceAlpha"/>
      <feGaussianBlur stdDeviation="3" result="blur"/>
      <feFlood flood-opacity="0.161"/>
      <feComposite operator="in" in2="blur"/>
      <feComposite in="SourceGraphic"/>
    </filter>
  </defs>
  <g id="Grupo_1178636" data-name="Grupo 1178636" transform="translate(-586.06 -965.183)">
    <g id="Grupo_1178466" data-name="Grupo 1178466" transform="translate(595.061 971.183)">
      <g id="Grupo_1172010" data-name="Grupo 1172010" transform="translate(0)">
        <g id="Grupo_1171046" data-name="Grupo 1171046">
          <g id="Grupo_1148525" data-name="Grupo 1148525">
            <g transform="matrix(1, 0, 0, 1, -9, -6)" filter="url(#Trazado_982547)">
              <g id="Trazado_982547-2" data-name="Trazado 982547" transform="translate(9 6)" fill="#fdeffe">
                <path d="M 47.5 93.5 C 41.28937149047852 93.5 35.26533508300781 92.28397369384766 29.59518623352051 89.88570404052734 C 24.11771965026855 87.56893157958984 19.19813346862793 84.25196075439453 14.97309303283691 80.02691650390625 C 10.74804019927979 75.80186462402344 7.431066513061523 70.88229370117188 5.114293098449707 65.40481567382812 C 2.716026782989502 59.73468017578125 1.5 53.71062850952148 1.5 47.5 C 1.5 41.28937149047852 2.716026782989502 35.26533508300781 5.114293098449707 29.59518623352051 C 7.431066513061523 24.11771965026855 10.74804019927979 19.19813346862793 14.97309303283691 14.97309303283691 C 19.19813346862793 10.74804019927979 24.11771965026855 7.431066513061523 29.59518623352051 5.114293098449707 C 35.26533508300781 2.716026782989502 41.28937149047852 1.5 47.5 1.5 C 53.71062850952148 1.5 59.73468017578125 2.716026782989502 65.40481567382812 5.114293098449707 C 70.88229370117188 7.431066513061523 75.80186462402344 10.74804019927979 80.02691650390625 14.97309303283691 C 84.25196075439453 19.19813346862793 87.56893157958984 24.11771965026855 89.88570404052734 29.59518623352051 C 92.28397369384766 35.26533508300781 93.5 41.28937149047852 93.5 47.5 C 93.5 53.71062850952148 92.28397369384766 59.73468017578125 89.88570404052734 65.40481567382812 C 87.56893157958984 70.88229370117188 84.25196075439453 75.80186462402344 80.02691650390625 80.02691650390625 C 75.80186462402344 84.25196075439453 70.88229370117188 87.56893157958984 65.40481567382812 89.88570404052734 C 59.73468017578125 92.28397369384766 53.71062850952148 93.5 47.5 93.5 Z" stroke="none"/>
                <path d="M 47.5 3 C 41.49121475219727 3 35.66376876831055 4.176155090332031 30.17950439453125 6.495796203613281 C 24.88084411621094 8.736953735351562 20.12152099609375 11.94598388671875 16.03375244140625 16.03375244140625 C 11.94598388671875 20.12152099609375 8.736953735351562 24.88084411621094 6.495796203613281 30.17950439453125 C 4.176155090332031 35.66376876831055 3 41.49121475219727 3 47.5 C 3 53.50878524780273 4.176155090332031 59.33623123168945 6.495796203613281 64.82049560546875 C 8.736953735351562 70.11915588378906 11.94598388671875 74.87847900390625 16.03375244140625 78.96624755859375 C 20.12152099609375 83.05401611328125 24.88084411621094 86.26304626464844 30.17950439453125 88.50419616699219 C 35.66376876831055 90.82384490966797 41.49121475219727 92 47.5 92 C 53.50878524780273 92 59.33623123168945 90.82384490966797 64.82049560546875 88.50419616699219 C 70.11915588378906 86.26304626464844 74.87847900390625 83.05401611328125 78.96624755859375 78.96624755859375 C 83.05401611328125 74.87847900390625 86.26304626464844 70.11915588378906 88.50419616699219 64.82049560546875 C 90.82384490966797 59.33623123168945 92 53.50878524780273 92 47.5 C 92 41.49121475219727 90.82384490966797 35.66376876831055 88.50419616699219 30.17950439453125 C 86.26304626464844 24.88084411621094 83.05401611328125 20.12152099609375 78.96624755859375 16.03375244140625 C 74.87847900390625 11.94598388671875 70.11915588378906 8.736953735351562 64.82049560546875 6.495796203613281 C 59.33623123168945 4.176155090332031 53.50878524780273 3 47.5 3 M 47.5 0 C 73.7335205078125 0 95 21.2664794921875 95 47.5 C 95 73.7335205078125 73.7335205078125 95 47.5 95 C 21.2664794921875 95 0 73.7335205078125 0 47.5 C 0 21.2664794921875 21.2664794921875 0 47.5 0 Z" stroke="none" fill="#ee70f7"/>
              </g>
            </g>
          </g>
        </g>
      </g>
    </g>
    <g id="mathematics_2941603" transform="translate(614.59 990.59)">
      <g id="Grupo_1178634" data-name="Grupo 1178634" transform="translate(1.884 1.884)">
        <g id="Grupo_1178621" data-name="Grupo 1178621">
          <path id="Trazado_1040573" data-name="Trazado 1040573" d="M55.052,2.884V4.653a.887.887,0,0,1-.884.884H2.884A.887.887,0,0,1,2,4.653V2.884A.887.887,0,0,1,2.884,2H54.167A.887.887,0,0,1,55.052,2.884Z" transform="translate(-2 -2)" fill="#ccd1d9"/>
        </g>
        <g id="Grupo_1178622" data-name="Grupo 1178622" transform="translate(1.768 3.537)">
          <path id="Trazado_1040574" data-name="Trazado 1040574" d="M4,6H53.515V44.9H4Z" transform="translate(-4 -6)" fill="#e6e9ed"/>
        </g>
        <g id="Grupo_1178623" data-name="Grupo 1178623" transform="translate(45.978 44.21)">
          <path id="Trazado_1040575" data-name="Trazado 1040575" d="M61.074,52v3.537H54V52h7.074Z" transform="translate(-54 -52)" fill="#ffeaa7"/>
        </g>
        <g id="Grupo_1178624" data-name="Grupo 1178624" transform="translate(45.978 47.747)">
          <path id="Trazado_1040576" data-name="Trazado 1040576" d="M61.074,56v2.653a2.649,2.649,0,0,1-2.653,2.653H56.653A2.649,2.649,0,0,1,54,58.653V56Z" transform="translate(-54 -56)" fill="#dfb28b"/>
        </g>
        <g id="Grupo_1178625" data-name="Grupo 1178625" transform="translate(45.978 19.452)">
          <path id="Trazado_1040577" data-name="Trazado 1040577" d="M58.73,24.831l.575,1.53,1.768,4.713H54l2.343-6.242a1.273,1.273,0,0,1,2.387,0Z" transform="translate(-54 -24)" fill="#dfb28b"/>
        </g>
        <g id="Grupo_1178626" data-name="Grupo 1178626" transform="translate(45.978 26.526)">
          <path id="Trazado_1040578" data-name="Trazado 1040578" d="M57.537,32V49.684H54V32Z" transform="translate(-54 -32)" fill="#b4dd7f"/>
        </g>
        <g id="Grupo_1178627" data-name="Grupo 1178627" transform="translate(49.515 26.526)">
          <path id="Trazado_1040579" data-name="Trazado 1040579" d="M58,32h3.537V49.684H58Z" transform="translate(-58 -32)" fill="#ff826e"/>
        </g>
        <g id="Grupo_1178628" data-name="Grupo 1178628" transform="translate(24.757 8.842)">
          <path id="Trazado_1040580" data-name="Trazado 1040580" d="M37.958,24.379l7.958,12.379L30,27.916V12Z" transform="translate(-30 -12)" fill="#ff826e"/>
        </g>
        <g id="Grupo_1178629" data-name="Grupo 1178629" transform="translate(13.387 8.842)">
          <path id="Trazado_1040581" data-name="Trazado 1040581" d="M21.437,31.841V30.568a.887.887,0,0,0-.884-.884H17.14l4.792-7.463L28.511,12V27.916Z" transform="translate(-17.14 -12)" fill="#b4dd7f"/>
        </g>
        <g id="Grupo_1178630" data-name="Grupo 1178630" transform="translate(17.684 24.757)">
          <path id="Trazado_1040582" data-name="Trazado 1040582" d="M44.989,38.842H22V33.926L29.074,30Z" transform="translate(-22 -30)" fill="#fcd770"/>
        </g>
        <g id="Grupo_1178631" data-name="Grupo 1178631" transform="translate(0 26.526)">
          <path id="Trazado_1040583" data-name="Trazado 1040583" d="M19.684,32.884V57.642a.887.887,0,0,1-.884.884H2.884A.887.887,0,0,1,2,57.642V32.884A.887.887,0,0,1,2.884,32H18.8A.887.887,0,0,1,19.684,32.884Z" transform="translate(-2 -32)" fill="#aab2bd"/>
        </g>
        <g id="Grupo_1178632" data-name="Grupo 1178632" transform="translate(3.537 37.136)">
          <path id="Trazado_1040584" data-name="Trazado 1040584" d="M6,44H16.61V56.379H6Z" transform="translate(-6 -44)" fill="#ff826e"/>
        </g>
        <g id="Grupo_1178633" data-name="Grupo 1178633" transform="translate(3.537 30.063)">
          <path id="Trazado_1040585" data-name="Trazado 1040585" d="M6,36H16.61v3.537H6Z" transform="translate(-6 -36)" fill="#69d6f4"/>
        </g>
      </g>
      <g id="Grupo_1178635" data-name="Grupo 1178635" transform="translate(1 1)">
        <path id="Trazado_1040586" data-name="Trazado 1040586" d="M5,40.305H17.379V35H5Zm1.768-3.537H15.61v1.768H6.768Z" transform="translate(-1.463 -4.937)"/>
        <path id="Trazado_1040587" data-name="Trazado 1040587" d="M5,57.147H17.379V43H5Zm1.768-5.305H8.537v3.537H6.768Zm5.305-3.537v1.768H10.305V48.305Zm-1.768-1.768V44.768h1.768v1.768Zm3.537,1.768H15.61v1.768H13.842Zm-1.768,3.537v3.537H10.305V51.842ZM8.537,50.074H6.768V48.305H8.537Zm5.305,5.305V51.842H15.61v3.537Zm1.768-8.842H13.842V44.768H15.61ZM8.537,44.768v1.768H6.768V44.768Z" transform="translate(-1.463 -5.864)"/>
        <path id="Trazado_1040588" data-name="Trazado 1040588" d="M55.82,4.537V2.768A1.77,1.77,0,0,0,54.052,1H2.768A1.77,1.77,0,0,0,1,2.768V4.537A1.77,1.77,0,0,0,2.768,6.305V27.526A1.77,1.77,0,0,0,1,29.294V54.052A1.77,1.77,0,0,0,2.768,55.82H18.684a1.77,1.77,0,0,0,1.768-1.768V45.21H46.978v7.074a3.54,3.54,0,0,0,3.537,3.537h1.768a3.54,3.54,0,0,0,3.537-3.537V28.25l-1.768-4.717V6.305A1.77,1.77,0,0,0,55.82,4.537ZM2.768,2.768H54.052V4.537H2.768Zm0,51.283V29.294H18.684l0,24.757ZM25.757,13.737V26.122l-5.326,2.959a1.765,1.765,0,0,0-1.747-1.555H16.893ZM39.91,33l-12.384-6.88V13.737ZM20.452,31.091l6.189-3.438,12.5,6.946H20.452Zm31.882-7.1h-1.87l.568-1.513a.41.41,0,0,1,.736,0ZM49.8,25.757H53l.663,1.768H49.139ZM48.747,46.978h5.305v1.768H48.747Zm3.537-1.768V29.294h1.768V45.21ZM48.747,29.294h1.768V45.21H48.747Zm3.537,24.757H50.515a1.77,1.77,0,0,1-1.768-1.768V50.515h5.305v1.768A1.77,1.77,0,0,1,52.283,54.052Zm0-33.4a2.145,2.145,0,0,0-.884-.2,2.173,2.173,0,0,0-2.023,1.4l-2.4,6.4V43.441H20.452V36.368H44.177L35.729,23.226l4.542-4.542h8.476V16.916H39.539L34.75,21.7,26.642,9.091l-6.724,10.46-4.4-4.4H6.305v1.768h8.476l4.157,4.157-4.148,6.453H4.537V6.305H52.283Z" transform="translate(-1 -1)"/>
        <path id="Trazado_1040589" data-name="Trazado 1040589" d="M27,43h1.768v1.768H27Z" transform="translate(-4.011 -5.864)"/>
        <path id="Trazado_1040590" data-name="Trazado 1040590" d="M31,43h1.768v1.768H31Z" transform="translate(-4.474 -5.864)"/>
        <path id="Trazado_1040591" data-name="Trazado 1040591" d="M35,43h1.768v1.768H35Z" transform="translate(-4.937 -5.864)"/>
        <path id="Trazado_1040592" data-name="Trazado 1040592" d="M45,11h8.842v1.768H45Z" transform="translate(-6.095 -2.158)"/>
        <path id="Trazado_1040593" data-name="Trazado 1040593" d="M53,15h1.768v1.768H53Z" transform="translate(-7.022 -2.621)"/>
        <path id="Trazado_1040594" data-name="Trazado 1040594" d="M45,15h5.305v1.768H45Z" transform="translate(-6.095 -2.621)"/>
        <path id="Trazado_1040595" data-name="Trazado 1040595" d="M7,9h8.842v1.768H7Z" transform="translate(-1.695 -1.926)"/>
        <path id="Trazado_1040596" data-name="Trazado 1040596" d="M7,13h5.305v1.768H7Z" transform="translate(-1.695 -2.39)"/>
        <path id="Trazado_1040597" data-name="Trazado 1040597" d="M15,13h1.768v1.768H15Z" transform="translate(-2.621 -2.39)"/>
      </g>
    </g>
  </g>
</svg>
