<svg xmlns="http://www.w3.org/2000/svg" xmlns:xlink="http://www.w3.org/1999/xlink" width="113" height="113" viewBox="0 0 113 113">
  <defs>
    <filter id="Trazado_982547" x="0" y="0" width="113" height="113" filterUnits="userSpaceOnUse">
      <feOffset dy="3" input="SourceAlpha"/>
      <feGaussianBlur stdDeviation="3" result="blur"/>
      <feFlood flood-opacity="0.161"/>
      <feComposite operator="in" in2="blur"/>
      <feComposite in="SourceGraphic"/>
    </filter>
  </defs>
  <g id="Grupo_1178638" data-name="Grupo 1178638" transform="translate(-901.56 -965.183)">
    <g id="Grupo_1178467" data-name="Grupo 1178467" transform="translate(910.561 971.183)">
      <g id="Grupo_1172010" data-name="Grupo 1172010" transform="translate(0)">
        <g id="Grupo_1171046" data-name="Grupo 1171046">
          <g id="Grupo_1148525" data-name="Grupo 1148525">
            <g transform="matrix(1, 0, 0, 1, -9, -6)" filter="url(#Trazado_982547)">
              <g id="Trazado_982547-2" data-name="Trazado 982547" transform="translate(9 6)" fill="#fdeffe">
                <path d="M 47.5 93.5 C 41.28937149047852 93.5 35.26533508300781 92.28397369384766 29.59518623352051 89.88570404052734 C 24.11771965026855 87.56893157958984 19.19813346862793 84.25196075439453 14.97309303283691 80.02691650390625 C 10.74804019927979 75.80186462402344 7.431066513061523 70.88229370117188 5.114293098449707 65.40481567382812 C 2.716026782989502 59.73468017578125 1.5 53.71062850952148 1.5 47.5 C 1.5 41.28937149047852 2.716026782989502 35.26533508300781 5.114293098449707 29.59518623352051 C 7.431066513061523 24.11771965026855 10.74804019927979 19.19813346862793 14.97309303283691 14.97309303283691 C 19.19813346862793 10.74804019927979 24.11771965026855 7.431066513061523 29.59518623352051 5.114293098449707 C 35.26533508300781 2.716026782989502 41.28937149047852 1.5 47.5 1.5 C 53.71062850952148 1.5 59.73468017578125 2.716026782989502 65.40481567382812 5.114293098449707 C 70.88229370117188 7.431066513061523 75.80186462402344 10.74804019927979 80.02691650390625 14.97309303283691 C 84.25196075439453 19.19813346862793 87.56893157958984 24.11771965026855 89.88570404052734 29.59518623352051 C 92.28397369384766 35.26533508300781 93.5 41.28937149047852 93.5 47.5 C 93.5 53.71062850952148 92.28397369384766 59.73468017578125 89.88570404052734 65.40481567382812 C 87.56893157958984 70.88229370117188 84.25196075439453 75.80186462402344 80.02691650390625 80.02691650390625 C 75.80186462402344 84.25196075439453 70.88229370117188 87.56893157958984 65.40481567382812 89.88570404052734 C 59.73468017578125 92.28397369384766 53.71062850952148 93.5 47.5 93.5 Z" stroke="none"/>
                <path d="M 47.5 3 C 41.49121475219727 3 35.66376876831055 4.176155090332031 30.17950439453125 6.495796203613281 C 24.88084411621094 8.736953735351562 20.12152099609375 11.94598388671875 16.03375244140625 16.03375244140625 C 11.94598388671875 20.12152099609375 8.736953735351562 24.88084411621094 6.495796203613281 30.17950439453125 C 4.176155090332031 35.66376876831055 3 41.49121475219727 3 47.5 C 3 53.50878524780273 4.176155090332031 59.33623123168945 6.495796203613281 64.82049560546875 C 8.736953735351562 70.11915588378906 11.94598388671875 74.87847900390625 16.03375244140625 78.96624755859375 C 20.12152099609375 83.05401611328125 24.88084411621094 86.26304626464844 30.17950439453125 88.50419616699219 C 35.66376876831055 90.82384490966797 41.49121475219727 92 47.5 92 C 53.50878524780273 92 59.33623123168945 90.82384490966797 64.82049560546875 88.50419616699219 C 70.11915588378906 86.26304626464844 74.87847900390625 83.05401611328125 78.96624755859375 78.96624755859375 C 83.05401611328125 74.87847900390625 86.26304626464844 70.11915588378906 88.50419616699219 64.82049560546875 C 90.82384490966797 59.33623123168945 92 53.50878524780273 92 47.5 C 92 41.49121475219727 90.82384490966797 35.66376876831055 88.50419616699219 30.17950439453125 C 86.26304626464844 24.88084411621094 83.05401611328125 20.12152099609375 78.96624755859375 16.03375244140625 C 74.87847900390625 11.94598388671875 70.11915588378906 8.736953735351562 64.82049560546875 6.495796203613281 C 59.33623123168945 4.176155090332031 53.50878524780273 3 47.5 3 M 47.5 0 C 73.7335205078125 0 95 21.2664794921875 95 47.5 C 95 73.7335205078125 73.7335205078125 95 47.5 95 C 21.2664794921875 95 0 73.7335205078125 0 47.5 C 0 21.2664794921875 21.2664794921875 0 47.5 0 Z" stroke="none" fill="#ee70f7"/>
              </g>
            </g>
          </g>
        </g>
      </g>
    </g>
    <g id="Laptop" transform="translate(926 982)">
      <path id="Trazado_1040598" data-name="Trazado 1040598" d="M5,53H3v4a4,4,0,0,0,4,4H57a4,4,0,0,0,4-4V53Z" fill="#00479b"/>
      <path id="Trazado_1040599" data-name="Trazado 1040599" d="M26,55a2,2,0,0,0,2,2h8a2,2,0,0,0,2-2V53H26Z" fill="#f1f2f2"/>
      <path id="Trazado_1040600" data-name="Trazado 1040600" d="M59,14V53H5V14a2.006,2.006,0,0,1,2-2H57a2.006,2.006,0,0,1,2,2Z" fill="#006df0"/>
      <path id="Trazado_1040601" data-name="Trazado 1040601" d="M8,15H56V50H8Z" fill="#d1e7f8"/>
      <path id="Trazado_1040602" data-name="Trazado 1040602" d="M54,15V32A16,16,0,0,1,38,48H8v2H56V15Z" fill="#bcd0df"/>
      <path id="Trazado_1040603" data-name="Trazado 1040603" d="M44,21v2h8V19H44Z" fill="#006df0"/>
      <path id="Trazado_1040604" data-name="Trazado 1040604" d="M20,19H12v4h8Z" fill="#d80027"/>
      <path id="Trazado_1040605" data-name="Trazado 1040605" d="M44,46h8V42H44Z" fill="#5eac24"/>
      <path id="Trazado_1040606" data-name="Trazado 1040606" d="M37.51,24.49A10.93,10.93,0,0,0,32,23V34l10.009-4.545a11.033,11.033,0,0,0-4.5-4.965Z" fill="#ed1c24"/>
      <path id="Trazado_1040607" data-name="Trazado 1040607" d="M42.009,29.455,32,34V45A10.985,10.985,0,0,0,42.009,29.455Z" fill="#ffcd00"/>
      <path id="Trazado_1040608" data-name="Trazado 1040608" d="M21.582,30.489A10.983,10.983,0,0,0,32,45V23a11,11,0,0,0-10.418,7.489Z" fill="#7ed63e"/>
      <g id="Grupo_1178637" data-name="Grupo 1178637">
        <path id="Trazado_1040609" data-name="Trazado 1040609" d="M61,52H60V14a3.009,3.009,0,0,0-3-3H7a3.009,3.009,0,0,0-3,3V52H3a1,1,0,0,0-1,1v4a5,5,0,0,0,5,5H57a5,5,0,0,0,5-5V53A1,1,0,0,0,61,52ZM6,14a1,1,0,0,1,1-1H57a1,1,0,0,1,1,1V52H6ZM37,54v1a1,1,0,0,1-1,1H28a1,1,0,0,1-1-1V54Zm23,3a3.009,3.009,0,0,1-3,3H7a3.009,3.009,0,0,1-3-3V54H25v1a3.009,3.009,0,0,0,3,3h8a3.009,3.009,0,0,0,3-3V54H60Z" fill="#231f20"/>
        <path id="Trazado_1040610" data-name="Trazado 1040610" d="M57,50V15a1,1,0,0,0-1-1H8a1,1,0,0,0-1,1V50a1,1,0,0,0,1,1H56A1,1,0,0,0,57,50Zm-2-1H9V16H55Z" fill="#231f20"/>
        <path id="Trazado_1040611" data-name="Trazado 1040611" d="M12,24h3v3a1,1,0,0,0,.47.848l4.941,3.088A11.987,11.987,0,0,0,43.3,38H47v3H44a1,1,0,0,0-1,1v4a1,1,0,0,0,1,1h8a1,1,0,0,0,1-1V42a1,1,0,0,0-1-1H49V37a1,1,0,0,0-1-1H43.819a11.669,11.669,0,0,0-.871-6.89c-.009-.024-.007-.05-.017-.073s-.04-.049-.056-.077a12.061,12.061,0,0,0-3.794-4.626L41.414,22H43v1a1,1,0,0,0,1,1h8a1,1,0,0,0,1-1V19a1,1,0,0,0-1-1H44a1,1,0,0,0-1,1v1H41a1,1,0,0,0-.707.293l-2.969,2.969A11.947,11.947,0,0,0,21.1,29.009L17,26.446V24h3a1,1,0,0,0,1-1V19a1,1,0,0,0-1-1H12a1,1,0,0,0-1,1v4A1,1,0,0,0,12,24ZM51,45H45V43h6ZM45,20h6v2H45ZM40,38h1.159A10.019,10.019,0,0,1,33,43.949v-9.3L41.466,30.8A9.91,9.91,0,0,1,41.8,36H40a1,1,0,0,0,0,2ZM35.293,26.707a1,1,0,0,0,1.414,0l.947-.947a10.073,10.073,0,0,1,2.981,3.221L33,32.448v-8.4a9.873,9.873,0,0,1,2.823.712l-.53.53a1,1,0,0,0,0,1.417ZM31,24.051v19.9a9.989,9.989,0,0,1-8.806-11.9l1.276.8a1,1,0,0,0,1.06-1.7l-1.725-1.078A10.023,10.023,0,0,1,31,24.051ZM13,20h6v2H13Z" fill="#231f20"/>
        <path id="Trazado_1040612" data-name="Trazado 1040612" d="M12,41h1a1,1,0,0,0,0-2H12a1,1,0,0,0,0,2Z" fill="#231f20"/>
        <path id="Trazado_1040613" data-name="Trazado 1040613" d="M12,44h1a1,1,0,0,0,0-2H12a1,1,0,0,0,0,2Z" fill="#231f20"/>
        <path id="Trazado_1040614" data-name="Trazado 1040614" d="M12,47h1a1,1,0,0,0,0-2H12a1,1,0,0,0,0,2Z" fill="#231f20"/>
        <path id="Trazado_1040615" data-name="Trazado 1040615" d="M16,41h2a1,1,0,0,0,0-2H16a1,1,0,0,0,0,2Z" fill="#231f20"/>
        <path id="Trazado_1040616" data-name="Trazado 1040616" d="M16,44h4a1,1,0,0,0,0-2H16a1,1,0,0,0,0,2Z" fill="#231f20"/>
        <path id="Trazado_1040617" data-name="Trazado 1040617" d="M22,45H16a1,1,0,0,0,0,2h6a1,1,0,0,0,0-2Z" fill="#231f20"/>
      </g>
    </g>
  </g>
</svg>
