<svg xmlns="http://www.w3.org/2000/svg" xmlns:xlink="http://www.w3.org/1999/xlink" width="113" height="113" viewBox="0 0 113 113">
  <defs>
    <filter id="Trazado_982547" x="0" y="0" width="113" height="113" filterUnits="userSpaceOnUse">
      <feOffset dy="3" input="SourceAlpha"/>
      <feGaussianBlur stdDeviation="3" result="blur"/>
      <feFlood flood-opacity="0.161"/>
      <feComposite operator="in" in2="blur"/>
      <feComposite in="SourceGraphic"/>
    </filter>
  </defs>
  <g id="Grupo_1178645" data-name="Grupo 1178645" transform="translate(-1216.56 -965.183)">
    <g id="Grupo_1178468" data-name="Grupo 1178468" transform="translate(1225.561 971.183)">
      <g id="Grupo_1172010" data-name="Grupo 1172010" transform="translate(0)">
        <g id="Grupo_1171046" data-name="Grupo 1171046">
          <g id="Grupo_1148525" data-name="Grupo 1148525">
            <g transform="matrix(1, 0, 0, 1, -9, -6)" filter="url(#Trazado_982547)">
              <g id="Trazado_982547-2" data-name="Trazado 982547" transform="translate(9 6)" fill="#fdeffe">
                <path d="M 47.5 93.5 C 41.28937149047852 93.5 35.26533508300781 92.28397369384766 29.59518623352051 89.88570404052734 C 24.11771965026855 87.56893157958984 19.19813346862793 84.25196075439453 14.97309303283691 80.02691650390625 C 10.74804019927979 75.80186462402344 7.431066513061523 70.88229370117188 5.114293098449707 65.40481567382812 C 2.716026782989502 59.73468017578125 1.5 53.71062850952148 1.5 47.5 C 1.5 41.28937149047852 2.716026782989502 35.26533508300781 5.114293098449707 29.59518623352051 C 7.431066513061523 24.11771965026855 10.74804019927979 19.19813346862793 14.97309303283691 14.97309303283691 C 19.19813346862793 10.74804019927979 24.11771965026855 7.431066513061523 29.59518623352051 5.114293098449707 C 35.26533508300781 2.716026782989502 41.28937149047852 1.5 47.5 1.5 C 53.71062850952148 1.5 59.73468017578125 2.716026782989502 65.40481567382812 5.114293098449707 C 70.88229370117188 7.431066513061523 75.80186462402344 10.74804019927979 80.02691650390625 14.97309303283691 C 84.25196075439453 19.19813346862793 87.56893157958984 24.11771965026855 89.88570404052734 29.59518623352051 C 92.28397369384766 35.26533508300781 93.5 41.28937149047852 93.5 47.5 C 93.5 53.71062850952148 92.28397369384766 59.73468017578125 89.88570404052734 65.40481567382812 C 87.56893157958984 70.88229370117188 84.25196075439453 75.80186462402344 80.02691650390625 80.02691650390625 C 75.80186462402344 84.25196075439453 70.88229370117188 87.56893157958984 65.40481567382812 89.88570404052734 C 59.73468017578125 92.28397369384766 53.71062850952148 93.5 47.5 93.5 Z" stroke="none"/>
                <path d="M 47.5 3 C 41.49121475219727 3 35.66376876831055 4.176155090332031 30.17950439453125 6.495796203613281 C 24.88084411621094 8.736953735351562 20.12152099609375 11.94598388671875 16.03375244140625 16.03375244140625 C 11.94598388671875 20.12152099609375 8.736953735351562 24.88084411621094 6.495796203613281 30.17950439453125 C 4.176155090332031 35.66376876831055 3 41.49121475219727 3 47.5 C 3 53.50878524780273 4.176155090332031 59.33623123168945 6.495796203613281 64.82049560546875 C 8.736953735351562 70.11915588378906 11.94598388671875 74.87847900390625 16.03375244140625 78.96624755859375 C 20.12152099609375 83.05401611328125 24.88084411621094 86.26304626464844 30.17950439453125 88.50419616699219 C 35.66376876831055 90.82384490966797 41.49121475219727 92 47.5 92 C 53.50878524780273 92 59.33623123168945 90.82384490966797 64.82049560546875 88.50419616699219 C 70.11915588378906 86.26304626464844 74.87847900390625 83.05401611328125 78.96624755859375 78.96624755859375 C 83.05401611328125 74.87847900390625 86.26304626464844 70.11915588378906 88.50419616699219 64.82049560546875 C 90.82384490966797 59.33623123168945 92 53.50878524780273 92 47.5 C 92 41.49121475219727 90.82384490966797 35.66376876831055 88.50419616699219 30.17950439453125 C 86.26304626464844 24.88084411621094 83.05401611328125 20.12152099609375 78.96624755859375 16.03375244140625 C 74.87847900390625 11.94598388671875 70.11915588378906 8.736953735351562 64.82049560546875 6.495796203613281 C 59.33623123168945 4.176155090332031 53.50878524780273 3 47.5 3 M 47.5 0 C 73.7335205078125 0 95 21.2664794921875 95 47.5 C 95 73.7335205078125 73.7335205078125 95 47.5 95 C 21.2664794921875 95 0 73.7335205078125 0 47.5 C 0 21.2664794921875 21.2664794921875 0 47.5 0 Z" stroke="none" fill="#ee70f7"/>
              </g>
            </g>
          </g>
        </g>
      </g>
    </g>
    <g id="financial-report_10063852_1_" data-name="financial-report_10063852 (1)" transform="translate(1225.46 981.753)">
      <g id="Grupo_1178644" data-name="Grupo 1178644" transform="translate(21.012 8.933)">
        <g id="Grupo_1178639" data-name="Grupo 1178639" transform="translate(0)">
          <path id="Trazado_1040618" data-name="Trazado 1040618" d="M65.081,16H34.647a.959.959,0,0,0-.7.291l-5.574,5.574a.959.959,0,0,0-.291.7V64.251a1,1,0,0,0,.993.993H65.081a1,1,0,0,0,.993-.993V16.993A1,1,0,0,0,65.081,16Z" transform="translate(-28.08 -16)" fill="#eceff1" fill-rule="evenodd"/>
          <path id="Trazado_1040619" data-name="Trazado 1040619" d="M331.518,16H329.7V65.244h1.816a1,1,0,0,0,.993-.993V16.993a1,1,0,0,0-.993-.993Z" transform="translate(-294.517 -16)" fill="#d1d1d6" fill-rule="evenodd"/>
          <path id="Trazado_1040620" data-name="Trazado 1040620" d="M34.887,16.738a1,1,0,0,0-.291.2l-5.574,5.574a1,1,0,0,0-.2.291H34.39a.5.5,0,0,0,.5-.5V16.738Z" transform="translate(-28.731 -16.652)" fill="#a79ba7" fill-rule="evenodd"/>
        </g>
        <g id="Grupo_1178640" data-name="Grupo 1178640" transform="translate(3.793 21.831)">
          <path id="Trazado_1040621" data-name="Trazado 1040621" d="M61.375,304.3h3.066a.783.783,0,0,1,.781.781v7.479a.783.783,0,0,1-.781.781H61.375a.783.783,0,0,1-.781-.781v-7.479A.783.783,0,0,1,61.375,304.3Z" transform="translate(-60.594 -292.501)" fill="#fe646f" fill-rule="evenodd"/>
          <path id="Trazado_1040622" data-name="Trazado 1040622" d="M83.584,304.3h1.165a.783.783,0,0,1,.781.781v7.479a.783.783,0,0,1-.781.781H83.584a.783.783,0,0,0,.781-.781v-7.479A.783.783,0,0,0,83.584,304.3Z" transform="translate(-80.902 -292.501)" fill="#fd4755" fill-rule="evenodd"/>
          <path id="Trazado_1040623" data-name="Trazado 1040623" d="M135.041,255.183h3.066a.783.783,0,0,1,.781.781v13.209a.783.783,0,0,1-.781.781h-3.066a.783.783,0,0,1-.781-.781V255.964A.783.783,0,0,1,135.041,255.183Z" transform="translate(-125.667 -249.112)" fill="#ffe177" fill-rule="evenodd"/>
          <path id="Trazado_1040624" data-name="Trazado 1040624" d="M157.25,255.183h1.165a.783.783,0,0,1,.781.781v13.209a.783.783,0,0,1-.781.781H157.25a.783.783,0,0,0,.781-.781V255.964A.783.783,0,0,0,157.25,255.183Z" transform="translate(-145.975 -249.112)" fill="#ffd064" fill-rule="evenodd"/>
          <path id="Trazado_1040625" data-name="Trazado 1040625" d="M208.707,271.719h3.066a.783.783,0,0,1,.781.781v11.28a.783.783,0,0,1-.781.781h-3.066a.783.783,0,0,1-.781-.781V272.5A.783.783,0,0,1,208.707,271.719Z" transform="translate(-190.739 -263.719)" fill="#6cf5c2" fill-rule="evenodd"/>
          <path id="Trazado_1040626" data-name="Trazado 1040626" d="M230.916,271.719h1.165a.783.783,0,0,1,.781.781v11.28a.783.783,0,0,1-.781.781h-1.165a.783.783,0,0,0,.781-.781V272.5a.783.783,0,0,0-.781-.781Z" transform="translate(-211.048 -263.719)" fill="#00e499" fill-rule="evenodd"/>
          <path id="Trazado_1040627" data-name="Trazado 1040627" d="M282.373,203.142h3.065a.783.783,0,0,1,.781.781V223.2a.783.783,0,0,1-.781.781h-3.065a.783.783,0,0,1-.781-.781v-19.28A.783.783,0,0,1,282.373,203.142Z" transform="translate(-255.812 -203.142)" fill="#8ac9fe" fill-rule="evenodd"/>
          <path id="Trazado_1040628" data-name="Trazado 1040628" d="M304.581,203.142h1.165a.783.783,0,0,1,.781.781V223.2a.783.783,0,0,1-.781.781h-1.165a.783.783,0,0,0,.781-.781v-19.28A.783.783,0,0,0,304.581,203.142Z" transform="translate(-276.119 -203.142)" fill="#60b7ff" fill-rule="evenodd"/>
        </g>
        <g id="Grupo_1178641" data-name="Grupo 1178641" transform="translate(24.905 27.723)">
          <circle id="Elipse_12552" data-name="Elipse 12552" cx="14.135" cy="14.135" r="14.135" transform="translate(0 0)" fill="#8d9ca8"/>
          <path id="Trazado_1040629" data-name="Trazado 1040629" d="M355.9,253.655a14.135,14.135,0,0,1,0,28.27c-.3,0-.605-.011-.9-.03a14.134,14.134,0,0,0,0-28.211C355.29,253.666,355.592,253.655,355.9,253.655Z" transform="translate(-341.761 -253.655)" fill="#8192a5" fill-rule="evenodd"/>
        </g>
        <g id="Grupo_1178643" data-name="Grupo 1178643" transform="translate(30.754 30.613)">
          <path id="Trazado_1040630" data-name="Trazado 1040630" d="M295.677,349.2q.01,10.29,0,10.274h-3.42a.541.541,0,0,1-.54-.54v-9.194a.541.541,0,0,1,.54-.54h3.42Z" transform="translate(-291.718 -340.943)" fill="#d1d1d6" fill-rule="evenodd"/>
          <path id="Trazado_1040631" data-name="Trazado 1040631" d="M291.718,358.934a.541.541,0,0,0,.54.54h3.423V349.2h-.54v9.734h-3.423Z" transform="translate(-291.718 -340.944)" fill="#b1b1b5" fill-rule="evenodd"/>
          <path id="Trazado_1040632" data-name="Trazado 1040632" d="M333.579,297.988c-3.982.686-6.3,1.187-8.612-1.03V286.684c1.824-1.37,4.234-2.545,4.234-5.137v-3.119a3.751,3.751,0,0,1,3.741,3.74v2.419a3.6,3.6,0,0,1-1.037,1.9C337.7,287.982,335.231,298.059,333.579,297.988Z" transform="translate(-321.088 -278.428)" fill="#f6dccd" fill-rule="evenodd"/>
          <path id="Trazado_1040633" data-name="Trazado 1040633" d="M325.876,297.691a6.512,6.512,0,0,1-.909-.733V286.684c1.824-1.37,4.234-2.545,4.234-5.137v-3.119a3.728,3.728,0,0,1,2.613,1.071,3.71,3.71,0,0,0-1.915-.531v3.119c0,2.592-2.409,3.766-4.234,5.137V297.5Q325.771,297.6,325.876,297.691Z" transform="translate(-321.088 -278.428)" fill="#f1cbbc" fill-rule="evenodd"/>
          <path id="Trazado_1040634" data-name="Trazado 1040634" d="M386.675,356.671h2.4a1.486,1.486,0,1,0,0-2.973h.887a1.486,1.486,0,0,0,0-2.973H391a1.486,1.486,0,1,0,0-2.973h-.626a1.486,1.486,0,0,0,0-2.973h-3.7a1.486,1.486,0,0,0,0,2.973h-.626a1.486,1.486,0,1,0,0,2.973h.626a3.324,3.324,0,0,1-1.486,4.459A1.49,1.49,0,0,0,386.675,356.671Z" transform="translate(-373.732 -337.04)" fill="#f6dccd" fill-rule="evenodd"/>
          <g id="Grupo_1178642" data-name="Grupo 1178642" transform="translate(10.83 9.226)">
            <path id="Trazado_1040635" data-name="Trazado 1040635" d="M391.416,435.457h2.4a1.491,1.491,0,0,0,1.486-1.486H389.93A1.491,1.491,0,0,0,391.416,435.457Z" transform="translate(-389.304 -425.053)" fill="#f1cbbc" fill-rule="evenodd"/>
            <path id="Trazado_1040636" data-name="Trazado 1040636" d="M393.814,409.973h.886a1.491,1.491,0,0,0,1.486-1.486h-6.259a1.491,1.491,0,0,0,1.486,1.486Z" transform="translate(-389.302 -402.542)" fill="#f1cbbc" fill-rule="evenodd"/>
            <path id="Trazado_1040637" data-name="Trazado 1040637" d="M389.959,384.491H391a1.491,1.491,0,0,0,1.486-1.486h-7.928a1.491,1.491,0,0,0,1.486,1.486h3.912Z" transform="translate(-384.561 -380.032)" fill="#f1cbbc" fill-rule="evenodd"/>
            <path id="Trazado_1040638" data-name="Trazado 1040638" d="M395.119,359.007a1.491,1.491,0,0,0,1.486-1.486H389.93a1.491,1.491,0,0,0,1.486,1.486Z" transform="translate(-389.304 -357.521)" fill="#f1cbbc" fill-rule="evenodd"/>
          </g>
        </g>
      </g>
      <path id="Trazado_1040639" data-name="Trazado 1040639" d="M69.052,52.3H64.088a.556.556,0,0,1,0-1.112h4.964a.556.556,0,0,1,0,1.112Zm-1.045,2.978H64.716a.556.556,0,0,1,0-1.112h3.292a.556.556,0,0,1,0,1.112Zm-.888,2.978h-2.4a.564.564,0,0,1-.555-.556.559.559,0,0,1,.556-.555h2.4a.556.556,0,0,1,0,1.112Zm-10.466-.582c0-.069,0-6.214,0-9.408.151-.108.306-.218.466-.33,1.731-1.221,3.693-2.6,3.693-5.287V40.621a2.819,2.819,0,0,1,1.881,2.655v2.348a2.763,2.763,0,0,1-.766,1.323.934.934,0,0,0-.11,1.187,2.016,2.016,0,0,1,.418,1.616,4.012,4.012,0,0,1-1.947,2.11.934.934,0,1,0,.93,1.619A8.28,8.28,0,0,0,62,52.97a2.429,2.429,0,0,0,.561.656,2.419,2.419,0,0,0,.248,2.591,2.406,2.406,0,0,0-.381,2.273c-2.81.453-4.272.469-5.773-.81Zm-3.97-8.947h2.1c0,4.85,0,7.282,0,8.426h-2.1V48.732Zm15.742-.516a.555.555,0,1,1,0,1.111H64.716a.555.555,0,1,1,0-1.111Zm3.049,3.533a2.42,2.42,0,0,0-.893-1.877,2.421,2.421,0,0,0-2.157-3.523H64.716a2.45,2.45,0,0,0-.293.019,3.316,3.316,0,0,0,.126-.541.982.982,0,0,0,.009-.128V43.276a4.686,4.686,0,0,0-4.681-4.68.933.933,0,0,0-.933.933v3.124c0,1.716-1.345,2.664-2.9,3.762-.208.147-.42.3-.63.45H51.75a.933.933,0,0,0-.933.933V58.091a.933.933,0,0,0,.933.933h3.6a6.194,6.194,0,0,0,4.381,1.616,25.683,25.683,0,0,0,4.2-.513l.29-.051a2.349,2.349,0,0,0,.492.052h2.4A2.426,2.426,0,0,0,69.541,57.7a2.4,2.4,0,0,0-.2-.958,2.422,2.422,0,0,0,.92-2.9,2.422,2.422,0,0,0,1.211-2.1ZM60.052,63.993a13.2,13.2,0,1,0-13.2-13.2A13.217,13.217,0,0,0,60.052,63.993ZM42.925,50.673V39.7h2.762v6.545a15,15,0,0,0-.7,4.432Zm11.355-13.8a15.011,15.011,0,0,0-2.761,1.506V31.7H54.28ZM22.005,57.244H46.437a14.955,14.955,0,0,1-1.352-4.7H41.992a.934.934,0,0,1-.933-.933V38.764a.933.933,0,0,1,.933-.933H46.62a.933.933,0,0,1,.933.933v3.621a15.192,15.192,0,0,1,2.1-2.487V30.764a.933.933,0,0,1,.933-.933h4.628a.933.933,0,0,1,.933.933v5.474a14.9,14.9,0,0,1,1.927-.384V9.926a.062.062,0,0,0-.059-.06H28.1v4.727a1.431,1.431,0,0,1-1.43,1.429H21.946V57.184A.061.061,0,0,0,22.005,57.244Zm4.23-46.058v2.97h-2.97ZM60.052,35.724H59.94V9.926A1.929,1.929,0,0,0,58.014,8H27.579a1.887,1.887,0,0,0-1.362.565l-5.574,5.574a1.89,1.89,0,0,0-.564,1.362V57.185a1.928,1.928,0,0,0,1.926,1.926H47.5A15.066,15.066,0,1,0,60.052,35.724ZM35.148,14.6a.933.933,0,0,1,.933-.933H48.655a.933.933,0,0,1,0,1.867H36.081A.933.933,0,0,1,35.148,14.6Zm-4.976,0a.933.933,0,0,1,.933-.933h1.344a.933.933,0,1,1,0,1.867H31.105A.933.933,0,0,1,30.172,14.6Zm4.976,4.206a.933.933,0,0,1,.933-.933H48.655a.933.933,0,1,1,0,1.866H36.081A.933.933,0,0,1,35.148,18.808Zm-4.976,0a.933.933,0,0,1,.933-.933h1.344a.933.933,0,1,1,0,1.866H31.105A.933.933,0,0,1,30.172,18.808Zm4.976,4.207a.933.933,0,0,1,.933-.933H48.655a.933.933,0,1,1,0,1.866H36.081A.933.933,0,0,1,35.148,23.014Zm-4.976,0a.933.933,0,0,1,.933-.933h1.344a.933.933,0,1,1,0,1.866H31.105A.933.933,0,0,1,30.172,23.014ZM26.383,38.344a.934.934,0,0,1,.163-1.31l8.593-6.69A.933.933,0,0,1,36,30.191L44.048,32.8l6.395-6.45-.259.022a.933.933,0,1,1-.163-1.859l2.8-.245A.933.933,0,0,1,53.827,25.3l-.312,2.791a.934.934,0,0,1-.926.831.846.846,0,0,1-.1-.007.932.932,0,0,1-.824-1.03l.014-.126-6.705,6.762a.934.934,0,0,1-.95.231L35.9,32.119l-8.2,6.387a.934.934,0,0,1-1.31-.162ZM28.5,50.673H25.739V43.5H28.5Zm.933-9.042a.934.934,0,0,1,.933.934v9.042a.934.934,0,0,1-.933.933H24.806a.933.933,0,0,1-.933-.933V42.565a.934.934,0,0,1,.933-.934Zm7.66,9.042H34.332V37.768h2.762ZM38.027,35.9a.934.934,0,0,1,.933.933V51.606a.933.933,0,0,1-.933.933H33.4a.933.933,0,0,1-.933-.933V36.834A.934.934,0,0,1,33.4,35.9Z" fill-rule="evenodd"/>
    </g>
  </g>
</svg>
