<svg xmlns="http://www.w3.org/2000/svg" xmlns:xlink="http://www.w3.org/1999/xlink" width="113" height="113" viewBox="0 0 113 113">
  <defs>
    <filter id="Trazado_982547" x="0" y="0" width="113" height="113" filterUnits="userSpaceOnUse">
      <feOffset dy="3" input="SourceAlpha"/>
      <feGaussianBlur stdDeviation="3" result="blur"/>
      <feFlood flood-opacity="0.161"/>
      <feComposite operator="in" in2="blur"/>
      <feComposite in="SourceGraphic"/>
    </filter>
  </defs>
  <g id="Grupo_1178517" data-name="Grupo 1178517" transform="translate(-272 -3025.253)">
    <g id="Grupo_1178324" data-name="Grupo 1178324" transform="translate(281 3031.253)">
      <g id="Grupo_1172010" data-name="Grupo 1172010" transform="translate(0)">
        <g id="Grupo_1171046" data-name="Grupo 1171046">
          <g id="Grupo_1148525" data-name="Grupo 1148525">
            <g transform="matrix(1, 0, 0, 1, -9, -6)" filter="url(#Trazado_982547)">
              <g id="Trazado_982547-2" data-name="Trazado 982547" transform="translate(9 6)" fill="#fef4ec">
                <path d="M 47.5 93.5 C 41.28937149047852 93.5 35.26533508300781 92.28397369384766 29.59518623352051 89.88570404052734 C 24.11771965026855 87.56893157958984 19.19813346862793 84.25196075439453 14.97309303283691 80.02691650390625 C 10.74804019927979 75.80186462402344 7.431066513061523 70.88229370117188 5.114293098449707 65.40481567382812 C 2.716026782989502 59.73468017578125 1.5 53.71062850952148 1.5 47.5 C 1.5 41.28937149047852 2.716026782989502 35.26533508300781 5.114293098449707 29.59518623352051 C 7.431066513061523 24.11771965026855 10.74804019927979 19.19813346862793 14.97309303283691 14.97309303283691 C 19.19813346862793 10.74804019927979 24.11771965026855 7.431066513061523 29.59518623352051 5.114293098449707 C 35.26533508300781 2.716026782989502 41.28937149047852 1.5 47.5 1.5 C 53.71062850952148 1.5 59.73468017578125 2.716026782989502 65.40481567382812 5.114293098449707 C 70.88229370117188 7.431066513061523 75.80186462402344 10.74804019927979 80.02691650390625 14.97309303283691 C 84.25196075439453 19.19813346862793 87.56893157958984 24.11771965026855 89.88570404052734 29.59518623352051 C 92.28397369384766 35.26533508300781 93.5 41.28937149047852 93.5 47.5 C 93.5 53.71062850952148 92.28397369384766 59.73468017578125 89.88570404052734 65.40481567382812 C 87.56893157958984 70.88229370117188 84.25196075439453 75.80186462402344 80.02691650390625 80.02691650390625 C 75.80186462402344 84.25196075439453 70.88229370117188 87.56893157958984 65.40481567382812 89.88570404052734 C 59.73468017578125 92.28397369384766 53.71062850952148 93.5 47.5 93.5 Z" stroke="none"/>
                <path d="M 47.5 3 C 41.49121475219727 3 35.66376876831055 4.176155090332031 30.17950439453125 6.495796203613281 C 24.88084411621094 8.736953735351562 20.12152099609375 11.94598388671875 16.03375244140625 16.03375244140625 C 11.94598388671875 20.12152099609375 8.736953735351562 24.88084411621094 6.495796203613281 30.17950439453125 C 4.176155090332031 35.66376876831055 3 41.49121475219727 3 47.5 C 3 53.50878524780273 4.176155090332031 59.33623123168945 6.495796203613281 64.82049560546875 C 8.736953735351562 70.11915588378906 11.94598388671875 74.87847900390625 16.03375244140625 78.96624755859375 C 20.12152099609375 83.05401611328125 24.88084411621094 86.26304626464844 30.17950439453125 88.50419616699219 C 35.66376876831055 90.82384490966797 41.49121475219727 92 47.5 92 C 53.50878524780273 92 59.33623123168945 90.82384490966797 64.82049560546875 88.50419616699219 C 70.11915588378906 86.26304626464844 74.87847900390625 83.05401611328125 78.96624755859375 78.96624755859375 C 83.05401611328125 74.87847900390625 86.26304626464844 70.11915588378906 88.50419616699219 64.82049560546875 C 90.82384490966797 59.33623123168945 92 53.50878524780273 92 47.5 C 92 41.49121475219727 90.82384490966797 35.66376876831055 88.50419616699219 30.17950439453125 C 86.26304626464844 24.88084411621094 83.05401611328125 20.12152099609375 78.96624755859375 16.03375244140625 C 74.87847900390625 11.94598388671875 70.11915588378906 8.736953735351562 64.82049560546875 6.495796203613281 C 59.33623123168945 4.176155090332031 53.50878524780273 3 47.5 3 M 47.5 0 C 73.7335205078125 0 95 21.2664794921875 95 47.5 C 95 73.7335205078125 73.7335205078125 95 47.5 95 C 21.2664794921875 95 0 73.7335205078125 0 47.5 C 0 21.2664794921875 21.2664794921875 0 47.5 0 Z" stroke="none" fill="#fe9d52"/>
              </g>
            </g>
          </g>
        </g>
      </g>
    </g>
    <g id="performance-metrics_18420086" transform="translate(297.699 3006.218)">
      <g id="Grupo_1178515" data-name="Grupo 1178515" transform="translate(1.899 58.711)">
        <path id="Trazado_1040276" data-name="Trazado 1040276" d="M15.85,328.24h7.21v15.646H15.85Z" transform="translate(-15.85 -307.453)" fill="#fd4755" fill-rule="evenodd"/>
        <path id="Trazado_1040277" data-name="Trazado 1040277" d="M125.27,241.35h7.21v26.039h-7.21Z" transform="translate(-112.182 -230.957)" fill="#70da40" fill-rule="evenodd"/>
        <path id="Trazado_1040278" data-name="Trazado 1040278" d="M234.69,154.46h7.21v36.432h-7.21Z" transform="translate(-208.514 -154.46)" fill="#fd4755" fill-rule="evenodd"/>
        <path id="Trazado_1040279" data-name="Trazado 1040279" d="M273.672,176.75A14.651,14.651,0,0,1,288.323,191.4h-6.5a8.148,8.148,0,0,0-16.3,0h-6.5A14.649,14.649,0,0,1,273.672,176.75Z" transform="translate(-229.933 -174.084)" fill="#fcd751" fill-rule="evenodd"/>
        <path id="Trazado_1040280" data-name="Trazado 1040280" d="M381.51,176.75A14.651,14.651,0,0,1,396.162,191.4h-6.5a8.146,8.146,0,0,0-8.148-8.148Z" transform="translate(-337.772 -174.084)" fill="#fea832" fill-rule="evenodd"/>
        <path id="Trazado_1040281" data-name="Trazado 1040281" d="M434.278,212.63a14.619,14.619,0,0,1,4.292,10.36h-6.5a8.123,8.123,0,0,0-2.386-5.763Z" transform="translate(-380.18 -205.672)" fill="#fd4755" fill-rule="evenodd"/>
        <path id="Trazado_1040282" data-name="Trazado 1040282" d="M263.3,212.63a14.619,14.619,0,0,0-4.292,10.36h6.5a8.123,8.123,0,0,1,2.386-5.763Z" transform="translate(-229.925 -205.672)" fill="#70da40" fill-rule="evenodd"/>
        <path id="Trazado_1040283" data-name="Trazado 1040283" d="M321.529,231.11a8.146,8.146,0,0,1,8.148,8.148h-16.3A8.149,8.149,0,0,1,321.529,231.11Z" transform="translate(-277.791 -221.942)" fill="#daeafa" fill-rule="evenodd"/>
        <path id="Trazado_1040284" data-name="Trazado 1040284" d="M276.766,348.3a12.16,12.16,0,0,0,3.021-1.254.727.727,0,0,1,.714-.02l1.761.895a.739.739,0,0,0,.866-.135L284.915,346a.738.738,0,0,0,.139-.866l-.9-1.761a.727.727,0,0,1,.023-.714,12.134,12.134,0,0,0,1.254-3.025.719.719,0,0,1,.49-.52l1.876-.609a.739.739,0,0,0,.517-.711V336.53h-29.3v1.264a.739.739,0,0,0,.517.711l1.876.609a.719.719,0,0,1,.49.52,12.115,12.115,0,0,0,1.257,3.025.727.727,0,0,1,.02.714l-.9,1.761a.735.735,0,0,0,.139.866l1.787,1.787a.735.735,0,0,0,.866.135l1.761-.895a.724.724,0,0,1,.714.02,12.021,12.021,0,0,0,3.025,1.254.72.72,0,0,1,.517.49l.612,1.876a.735.735,0,0,0,.708.517h2.527a.737.737,0,0,0,.708-.517l.612-1.876A.708.708,0,0,1,276.766,348.3Z" transform="translate(-229.925 -314.752)" fill="#2f5274" fill-rule="evenodd"/>
        <path id="Trazado_1040285" data-name="Trazado 1040285" d="M366.614,286.368a2.024,2.024,0,1,0-2.024-2.024A2.026,2.026,0,0,0,366.614,286.368Z" transform="translate(-322.876 -267.026)" fill="#2f5274" fill-rule="evenodd"/>
        <path id="Trazado_1040286" data-name="Trazado 1040286" d="M15.85,328.24h1.514v15.646H15.85Z" transform="translate(-15.85 -307.453)" fill="#e4404d" fill-rule="evenodd"/>
        <path id="Trazado_1040287" data-name="Trazado 1040287" d="M125.27,241.35h1.514v26.039H125.27Z" transform="translate(-112.182 -230.957)" fill="#65c43a" fill-rule="evenodd"/>
        <path id="Trazado_1040288" data-name="Trazado 1040288" d="M234.69,154.46H236.2v36.432H234.69Z" transform="translate(-208.514 -154.46)" fill="#e4404d" fill-rule="evenodd"/>
        <path id="Trazado_1040289" data-name="Trazado 1040289" d="M339.919,336.55a6.539,6.539,0,1,1-13.079,0Z" transform="translate(-289.641 -314.769)" fill="#daeafa" fill-rule="evenodd"/>
        <path id="Trazado_1040290" data-name="Trazado 1040290" d="M333.92,343.06a6.543,6.543,0,0,1-5.99-6.52h-1.1a6.54,6.54,0,0,0,6.539,6.543C333.555,343.084,333.739,343.073,333.92,343.06Z" transform="translate(-289.632 -314.761)" fill="#c4d3e1" fill-rule="evenodd"/>
        <path id="Trazado_1040291" data-name="Trazado 1040291" d="M313.38,239.259h1.1a8.154,8.154,0,0,1,7.6-8.133c-.181-.01-.365-.017-.549-.017a8.147,8.147,0,0,0-8.149,8.149Z" transform="translate(-277.791 -221.942)" fill="#c4d3e1" fill-rule="evenodd"/>
      </g>
      <g id="Grupo_1178516" data-name="Grupo 1178516" transform="translate(0.004 45.702)">
        <path id="Trazado_1040292" data-name="Trazado 1040292" d="M8.283,78.2H.96A.955.955,0,0,0,0,79.157v15.9a.955.955,0,0,0,.956.956H8.284a.955.955,0,0,0,.956-.956v-15.9a.956.956,0,0,0-.957-.956ZM7.327,94.1H1.916V80.114H7.327ZM.211,74.968a.955.955,0,0,1,.154-1.343L32.559,48.058,29.468,47.6a.956.956,0,0,1,.279-1.891l5.276.776a.954.954,0,0,1,.806,1.085l-.776,5.276a.956.956,0,0,1-.945.817.919.919,0,0,1-.14-.011.954.954,0,0,1-.806-1.085l.423-2.886L1.555,75.122a.957.957,0,0,1-1.343-.154Zm21.374-7.329H14.258a.955.955,0,0,0-.956.956V95.056a.955.955,0,0,0,.956.956h7.328a.955.955,0,0,0,.956-.956V68.595A.956.956,0,0,0,21.585,67.639ZM20.628,94.1H15.213V69.552h5.415ZM60.289,79.212H35.84V76.591h6.707a3.009,3.009,0,0,0,5.708,0H60.289a.955.955,0,0,0,.956-.956,15.789,15.789,0,0,0-4.557-11.107,1.041,1.041,0,0,0-.083-.1.907.907,0,0,0-.1-.083A15.813,15.813,0,0,0,35.838,63.01V58.038a.955.955,0,0,0-.956-.956H27.555a.955.955,0,0,0-.956.956V95.057a.955.955,0,0,0,.956.956h7.328a.955.955,0,0,0,.956-.956V92.713A1.73,1.73,0,0,0,37.1,92.6l1.69-.862A13.3,13.3,0,0,0,41.9,93.025l.586,1.8a1.705,1.705,0,0,0,1.629,1.191h2.571a1.7,1.7,0,0,0,1.628-1.185l.587-1.8a13.262,13.262,0,0,0,3.112-1.291l1.7.865a1.719,1.719,0,0,0,1.987-.317L57.5,90.472a1.7,1.7,0,0,0,.321-1.992l-.861-1.7a13.409,13.409,0,0,0,1.292-3.114l1.8-.584a1.705,1.705,0,0,0,1.191-1.629V80.173a.956.956,0,0,0-.956-.962Zm-9.281,1.911a5.688,5.688,0,0,1-11.215,0Zm-2.981-6.96L49.38,72.6a.957.957,0,0,0-1.447-1.251l-1.321,1.529a2.986,2.986,0,0,0-1.21-.256,3.017,3.017,0,0,0-2.855,2.059h-4.4a7.321,7.321,0,0,1,14.519,0H48.256a2.975,2.975,0,0,0-.228-.516Zm3.191-5.7a9.192,9.192,0,0,0-4.861-2.019v-4.71a13.878,13.878,0,0,1,8.191,3.4Zm-6.774-2.019a9.192,9.192,0,0,0-4.861,2.019l-3.33-3.33a13.875,13.875,0,0,1,8.191-3.4Zm-9.543.042,3.331,3.331a9.2,9.2,0,0,0-2.018,4.86H31.5a13.856,13.856,0,0,1,3.4-8.191ZM45.4,76.732a1.1,1.1,0,1,1,1.1-1.1A1.1,1.1,0,0,1,45.4,76.732Zm9.188-2.054a9.2,9.2,0,0,0-2.018-4.86L55.9,66.487a13.876,13.876,0,0,1,3.4,8.191ZM28.512,94.1V58.993h5.415v5.726a15.787,15.787,0,0,0-4.371,10.916.955.955,0,0,0,.956.956h3.414v2.621H30.512a.955.955,0,0,0-.956.956v1.285a1.7,1.7,0,0,0,1.187,1.628l1.806.587a13.281,13.281,0,0,0,1.288,3.112l-.858,1.689a1.694,1.694,0,0,0,.312,1.993l.636.638v3H28.512ZM59.333,81.306l-1.773.577a1.691,1.691,0,0,0-1.126,1.2,11.441,11.441,0,0,1-1.173,2.826,1.68,1.68,0,0,0-.049,1.644l.843,1.663-1.609,1.612-1.658-.844a1.675,1.675,0,0,0-1.646.045A11.406,11.406,0,0,1,48.311,91.2a1.68,1.68,0,0,0-1.195,1.127L46.539,94.1H44.262l-.575-1.767A1.685,1.685,0,0,0,42.494,91.2a11.407,11.407,0,0,1-2.829-1.171,1.693,1.693,0,0,0-1.651-.051l-1.659.847-.78-.781c-.012-.012-.024-.025-.036-.036l-.794-.8.841-1.658a1.673,1.673,0,0,0-.044-1.643,11.342,11.342,0,0,1-1.173-2.834,1.705,1.705,0,0,0-1.128-1.195l-1.774-.577v-.182h6.392a7.6,7.6,0,0,0,15.079,0H59.33v.179Z" transform="translate(-0.004 -45.702)"/>
      </g>
    </g>
  </g>
</svg>
