<svg xmlns="http://www.w3.org/2000/svg" xmlns:xlink="http://www.w3.org/1999/xlink" width="103" height="103" viewBox="0 0 103 103">
  <defs>
    <filter id="Trazado_978624" x="0" y="0" width="103" height="103" filterUnits="userSpaceOnUse">
      <feOffset dy="3" input="SourceAlpha"/>
      <feGaussianBlur stdDeviation="3" result="blur"/>
      <feFlood flood-opacity="0.161"/>
      <feComposite operator="in" in2="blur"/>
      <feComposite in="SourceGraphic"/>
    </filter>
  </defs>
  <g id="Grupo_1178729" data-name="Grupo 1178729" transform="translate(-185 -2213)">
    <g id="Grupo_1178486" data-name="Grupo 1178486" transform="translate(14 -653)">
      <g id="Grupo_1176881" data-name="Grupo 1176881">
        <g id="Grupo_1175148" data-name="Grupo 1175148" transform="translate(0 1580)">
          <g id="Grupo_1173798" data-name="Grupo 1173798" transform="translate(-3 -3520)">
            <g id="Grupo_1171925" data-name="Grupo 1171925" transform="translate(-22 -2246)">
              <g id="Grupo_1164524" data-name="Grupo 1164524" transform="translate(205 7058)">
                <g id="Grupo_1144123" data-name="Grupo 1144123">
                  <g transform="matrix(1, 0, 0, 1, -9, -6)" filter="url(#Trazado_978624)">
                    <g id="Trazado_978624-2" data-name="Trazado 978624" transform="translate(9 6)" fill="#f4f4f4">
                      <path d="M 42.5 83.5 C 36.96437835693359 83.5 31.59512901306152 82.41617584228516 26.54141235351562 80.27863311767578 C 21.65934181213379 78.21369171142578 17.27447128295898 75.25723266601562 13.50862312316895 71.49137878417969 C 9.742764472961426 67.72553253173828 6.786305904388428 63.34066009521484 4.721364498138428 58.45858764648438 C 2.583823442459106 53.40486907958984 1.5 48.03562164306641 1.5 42.5 C 1.5 36.96437835693359 2.583823442459106 31.59512901306152 4.721364498138428 26.54141235351562 C 6.786305904388428 21.65934181213379 9.742764472961426 17.27447128295898 13.50862312316895 13.50862312316895 C 17.27447128295898 9.742764472961426 21.65934181213379 6.786305904388428 26.54141235351562 4.721364498138428 C 31.59512901306152 2.583823442459106 36.96437835693359 1.5 42.5 1.5 C 48.03562164306641 1.5 53.40486907958984 2.583823442459106 58.45858764648438 4.721364498138428 C 63.34066009521484 6.786305904388428 67.72553253173828 9.742764472961426 71.49137878417969 13.50862312316895 C 75.25723266601562 17.27447128295898 78.21369171142578 21.65934181213379 80.27863311767578 26.54141235351562 C 82.41617584228516 31.59512901306152 83.5 36.96437835693359 83.5 42.5 C 83.5 48.03562164306641 82.41617584228516 53.40486907958984 80.27863311767578 58.45858764648438 C 78.21369171142578 63.34066009521484 75.25723266601562 67.72553253173828 71.49137878417969 71.49137878417969 C 67.72553253173828 75.25723266601562 63.34066009521484 78.21369171142578 58.45858764648438 80.27863311767578 C 53.40486907958984 82.41617584228516 48.03562164306641 83.5 42.5 83.5 Z" stroke="none"/>
                      <path d="M 42.5 3 C 37.16621398925781 3 31.99356079101562 4.043960571289062 27.125732421875 6.102882385253906 C 22.42246627807617 8.092185974121094 18.19785308837891 10.94070434570312 14.56928253173828 14.56928253173828 C 10.94070434570312 18.19785308837891 8.092185974121094 22.42246627807617 6.102882385253906 27.125732421875 C 4.043960571289062 31.99356079101562 3 37.16621398925781 3 42.5 C 3 47.83378601074219 4.043960571289062 53.00643920898438 6.102882385253906 57.87425231933594 C 8.092185974121094 62.57753372192383 10.94070434570312 66.80213165283203 14.56928253173828 70.43071746826172 C 18.19786834716797 74.05929565429688 22.42246627807617 76.90781402587891 27.125732421875 78.89711761474609 C 31.99356079101562 80.95603942871094 37.16621398925781 82 42.5 82 C 47.83378601074219 82 53.00642395019531 80.95603942871094 57.87425231933594 78.89711761474609 C 62.57753372192383 76.90781402587891 66.80213165283203 74.05929565429688 70.43071746826172 70.43071746826172 C 74.05929565429688 66.80213165283203 76.90781402587891 62.57753372192383 78.89711761474609 57.87425231933594 C 80.95603942871094 53.00642395019531 82 47.83378601074219 82 42.5 C 82 37.16621398925781 80.95603942871094 31.99356079101562 78.89711761474609 27.125732421875 C 76.90781402587891 22.42246627807617 74.05929565429688 18.19786834716797 70.43071746826172 14.56928253173828 C 66.80213165283203 10.94070434570312 62.57753372192383 8.092185974121094 57.87425231933594 6.102882385253906 C 53.00643920898438 4.043960571289062 47.83378601074219 3 42.5 3 M 42.5 0 C 65.97209167480469 0 85 19.02789306640625 85 42.5 C 85 65.97209167480469 65.97209167480469 85 42.5 85 C 19.02789306640625 85 0 65.97209167480469 0 42.5 C 0 19.02789306640625 19.02789306640625 0 42.5 0 Z" stroke="none" fill="#797979"/>
                    </g>
                  </g>
                </g>
              </g>
            </g>
          </g>
        </g>
      </g>
    </g>
    <g id="investment_2980029" transform="translate(208.177 2233.177)">
      <g id="Grupo_1178727" data-name="Grupo 1178727" transform="translate(1.865 1.865)">
        <g id="Grupo_1178712" data-name="Grupo 1178712" transform="translate(0 0)">
          <path id="Trazado_1040799" data-name="Trazado 1040799" d="M34.015,7.192a5.142,5.142,0,0,0,1.7,3.833l-.009.009-1.955,2.154a14.71,14.71,0,1,0-14.45,23.189,14.269,14.269,0,0,0,2.6.234H32.57l-.355.242a17.98,17.98,0,0,1-7.026,2.907L24.5,41.8H19.305l-.692-2.042a17.98,17.98,0,0,1-7.026-2.907L9.666,37.8,6,34.136l.952-1.921a17.98,17.98,0,0,1-2.907-7.026L2,24.5V19.305l2.042-.692a17.98,17.98,0,0,1,2.907-7.026L6,9.666,9.666,6l1.921.952a17.98,17.98,0,0,1,7.026-2.907L19.305,2H24.5l.692,2.042a17.98,17.98,0,0,1,7.026,2.907L34.136,6l.017.009a4.885,4.885,0,0,0-.138,1.185Z" transform="translate(-2 -2)" fill="#fcd770"/>
        </g>
        <g id="Grupo_1178713" data-name="Grupo 1178713" transform="translate(34.61 13.844)">
          <path id="Trazado_1040800" data-name="Trazado 1040800" d="M47.192,29.1v.009A8.645,8.645,0,0,0,42,37.036V18h5.192Z" transform="translate(-42 -18)" fill="#b4dd7f"/>
        </g>
        <g id="Grupo_1178714" data-name="Grupo 1178714" transform="translate(25.958 22.497)">
          <path id="Trazado_1040801" data-name="Trazado 1040801" d="M37.192,28V40.114H32V28Z" transform="translate(-32 -28)" fill="#b4dd7f"/>
        </g>
        <g id="Grupo_1178715" data-name="Grupo 1178715" transform="translate(17.305 20.766)">
          <path id="Trazado_1040802" data-name="Trazado 1040802" d="M27.192,26V39.844H24.6a14.269,14.269,0,0,1-2.6-.234V26Z" transform="translate(-22 -26)" fill="#b4dd7f"/>
        </g>
        <g id="Grupo_1178716" data-name="Grupo 1178716" transform="translate(27.688 43.263)">
          <ellipse id="Elipse_12553" data-name="Elipse 12553" cx="1.5" cy="2" rx="1.5" ry="2" transform="translate(0.27 -0.305)" fill="#ff826e"/>
        </g>
        <g id="Grupo_1178717" data-name="Grupo 1178717" transform="translate(20.766 43.263)">
          <ellipse id="Elipse_12554" data-name="Elipse 12554" cx="1.5" cy="2" rx="1.5" ry="2" transform="translate(0.192 -0.305)" fill="#ff826e"/>
        </g>
        <g id="Grupo_1178718" data-name="Grupo 1178718" transform="translate(13.844 43.263)">
          <ellipse id="Elipse_12555" data-name="Elipse 12555" cx="1.5" cy="2" rx="1.5" ry="2" transform="translate(0.114 -0.305)" fill="#ff826e"/>
        </g>
        <g id="Grupo_1178719" data-name="Grupo 1178719" transform="translate(6.922 43.263)">
          <ellipse id="Elipse_12556" data-name="Elipse 12556" cx="1.5" cy="2" rx="1.5" ry="2" transform="translate(0.036 -0.305)" fill="#ff826e"/>
        </g>
        <g id="Grupo_1178720" data-name="Grupo 1178720" transform="translate(36.341 41.532)">
          <path id="Trazado_1040803" data-name="Trazado 1040803" d="M54.383,50h1.731a1.736,1.736,0,0,1,1.731,1.731v1.731a1.736,1.736,0,0,1-1.731,1.731H45.731A1.736,1.736,0,0,1,44,53.461V51.731A1.736,1.736,0,0,1,45.731,50h8.653Z" transform="translate(-44 -50)" fill="#ffc729"/>
        </g>
        <g id="Grupo_1178721" data-name="Grupo 1178721" transform="translate(36.341 46.724)">
          <path id="Trazado_1040804" data-name="Trazado 1040804" d="M56.114,56a1.736,1.736,0,0,1,1.731,1.731v1.731a1.736,1.736,0,0,1-1.731,1.731H45.731A1.736,1.736,0,0,1,44,59.461V57.731A1.736,1.736,0,0,1,45.731,56H56.114Z" transform="translate(-44 -56)" fill="#fcd770"/>
        </g>
        <g id="Grupo_1178722" data-name="Grupo 1178722" transform="translate(34.61 24.227)">
          <path id="Trazado_1040805" data-name="Trazado 1040805" d="M50.653,30a8.666,8.666,0,1,1-3.461.727A8.55,8.55,0,0,1,50.653,30Z" transform="translate(-42 -30)" fill="#fcd770"/>
        </g>
        <g id="Grupo_1178723" data-name="Grupo 1178723" transform="translate(35.476 3.461)">
          <circle id="Elipse_12557" data-name="Elipse 12557" cx="1.5" cy="1.5" r="1.5" transform="translate(0.482 0.497)" fill="#fc6e51"/>
        </g>
        <g id="Grupo_1178724" data-name="Grupo 1178724" transform="translate(32.015)">
          <path id="Trazado_1040806" data-name="Trazado 1040806" d="M44.192,2a5.192,5.192,0,0,1,0,10.383A5.1,5.1,0,0,1,40.7,11.025,5.142,5.142,0,0,1,39,7.192a4.885,4.885,0,0,1,.138-1.185A5.2,5.2,0,0,1,44.192,2Z" transform="translate(-39 -2)" fill="#ff826e"/>
        </g>
        <g id="Grupo_1178725" data-name="Grupo 1178725" transform="translate(25.958 12.114)">
          <path id="Trazado_1040807" data-name="Trazado 1040807" d="M34.6,16A2.6,2.6,0,1,1,32,18.6a2.492,2.492,0,0,1,.052-.511A2.592,2.592,0,0,1,34.6,16Z" transform="translate(-32 -16)" fill="#ff826e"/>
        </g>
        <g id="Grupo_1178726" data-name="Grupo 1178726" transform="translate(17.305 10.383)">
          <path id="Trazado_1040808" data-name="Trazado 1040808" d="M24.6,14a2.592,2.592,0,0,1,2.6,2.6,2.492,2.492,0,0,1-.052.511A2.6,2.6,0,1,1,24.6,14Z" transform="translate(-22 -14)" fill="#ff826e"/>
        </g>
      </g>
      <g id="Grupo_1178728" data-name="Grupo 1178728" transform="translate(1 1)">
        <path id="Trazado_1040809" data-name="Trazado 1040809" d="M52.326,45.114V43.383a2.6,2.6,0,0,0,0-5.192H50.6a.865.865,0,0,1,0-1.731h1.731a.866.866,0,0,1,.865.865h1.731a2.6,2.6,0,0,0-2.6-2.6V33H50.6v1.731a2.6,2.6,0,0,0,0,5.192h1.731a.865.865,0,0,1,0,1.731H50.6a.866.866,0,0,1-.865-.865H48a2.6,2.6,0,0,0,2.6,2.6v1.731Z" transform="translate(-7.333 -5.312)"/>
        <path id="Trazado_1040810" data-name="Trazado 1040810" d="M50.552,42.556A9.5,9.5,0,0,0,42.532,25.6V14.844H35.61v19.9c0,.292.018.58.044.865H33.88V23.5H26.958V35.61H25.227V21.766H18.305V35.154A13.836,13.836,0,1,1,32.488,13.012l-.467.514a3.413,3.413,0,0,0-1.6-.412,3.454,3.454,0,0,0-3.1,1.958l-2.108-.421a3.464,3.464,0,1,0-.339,1.7l2.108.421a3.454,3.454,0,1,0,6.333-2.088l2.371-2.608a6.055,6.055,0,1,0-2.388-6.828l-1.149.57A18.768,18.768,0,0,0,25.71,3.156L24.983,1H18.548l-.727,2.155a18.789,18.789,0,0,0-6.433,2.659L9.358,4.807l-4.55,4.55,1.007,2.032a18.794,18.794,0,0,0-2.66,6.434L1,18.549v6.434l2.155.727a18.8,18.8,0,0,0,2.66,6.434L4.807,34.176l4.55,4.55,2.032-1.007a18.772,18.772,0,0,0,6.433,2.659l.727,2.155h6.435l.727-2.155a18.812,18.812,0,0,0,6.856-2.943l.135-.093H35.98A9.543,9.543,0,0,0,39.7,42.556a2.591,2.591,0,0,0-2.364,2.572v1.731a2.579,2.579,0,0,0,.675,1.731,2.575,2.575,0,0,0-.675,1.731V52.05a2.6,2.6,0,0,0,2.6,2.6H50.32a2.6,2.6,0,0,0,2.6-2.6V50.32a2.579,2.579,0,0,0-.675-1.731,2.575,2.575,0,0,0,.675-1.731V45.128A2.591,2.591,0,0,0,50.552,42.556ZM21.766,16.575A1.731,1.731,0,1,1,23.5,14.844,1.732,1.732,0,0,1,21.766,16.575Zm8.653,1.731a1.731,1.731,0,1,1,1.731-1.731A1.732,1.732,0,0,1,30.419,18.305ZM20.036,23.5H23.5V35.61H21.766a13.761,13.761,0,0,1-1.731-.12ZM39.071,2.731a4.326,4.326,0,1,1-4.326,4.326A4.331,4.331,0,0,1,39.071,2.731ZM24.895,38.774l-.5.091L23.741,40.8H19.793l-.653-1.936-.5-.091a17.105,17.105,0,0,1-6.69-2.766l-.42-.289-1.825.9L6.91,33.83,7.814,32l-.29-.419A17.117,17.117,0,0,1,4.758,24.9l-.092-.5-1.936-.653V19.792l1.936-.652.092-.5a17.1,17.1,0,0,1,2.766-6.69l.29-.419L6.91,9.7,9.7,6.911l1.825.9.42-.289a17.1,17.1,0,0,1,6.69-2.766l.5-.091.653-1.938H23.74l.653,1.936.5.091a17.108,17.108,0,0,1,6.69,2.765l.419.29,1.023-.506a6.025,6.025,0,0,0,1.373,3.6l-.739.812A15.573,15.573,0,1,0,21.766,37.341h7.478a17.152,17.152,0,0,1-4.349,1.433Zm7.254-3.163H28.688V25.227h3.461Zm5.192-19.036H40.8v9.7a9.573,9.573,0,0,0-3.461,3.012Zm0,18.17a7.787,7.787,0,1,1,7.787,7.787A7.8,7.8,0,0,1,37.341,34.745ZM51.185,52.05a.866.866,0,0,1-.865.865H39.937a.866.866,0,0,1-.865-.865V50.32a.866.866,0,0,1,.865-.865H40.8v1.731h1.731V49.454h1.73v1.731h1.731V49.454h1.731v1.731h1.731V49.454h.865a.866.866,0,0,1,.865.865Zm0-5.192a.866.866,0,0,1-.865.865H39.937a.866.866,0,0,1-.865-.865V45.128a.866.866,0,0,1,.865-.865H40.8v1.731h1.731V44.263h1.73v1.731h1.731V44.263h1.731v1.731h1.731V44.263h.865a.866.866,0,0,1,.865.865Z" transform="translate(-1 -1)"/>
        <path id="Trazado_1040811" data-name="Trazado 1040811" d="M44.6,10.192A2.6,2.6,0,1,0,42,7.6,2.6,2.6,0,0,0,44.6,10.192Zm0-3.461a.865.865,0,1,1-.865.865A.866.866,0,0,1,44.6,6.731Z" transform="translate(-6.524 -1.539)"/>
        <path id="Trazado_1040812" data-name="Trazado 1040812" d="M11.6,51a2.6,2.6,0,1,0,2.6,2.6A2.6,2.6,0,0,0,11.6,51Zm0,3.461a.865.865,0,1,1,.865-.865A.866.866,0,0,1,11.6,54.461Z" transform="translate(-2.078 -7.737)"/>
        <path id="Trazado_1040813" data-name="Trazado 1040813" d="M19.6,51a2.6,2.6,0,1,0,2.6,2.6A2.6,2.6,0,0,0,19.6,51Zm0,3.461a.865.865,0,1,1,.865-.865A.866.866,0,0,1,19.6,54.461Z" transform="translate(-3.156 -7.737)"/>
        <path id="Trazado_1040814" data-name="Trazado 1040814" d="M27.6,51a2.6,2.6,0,1,0,2.6,2.6A2.6,2.6,0,0,0,27.6,51Zm0,3.461a.865.865,0,1,1,.865-.865A.866.866,0,0,1,27.6,54.461Z" transform="translate(-4.234 -7.737)"/>
        <path id="Trazado_1040815" data-name="Trazado 1040815" d="M35.6,51a2.6,2.6,0,1,0,2.6,2.6A2.6,2.6,0,0,0,35.6,51Zm0,3.461a.865.865,0,1,1,.865-.865A.866.866,0,0,1,35.6,54.461Z" transform="translate(-5.312 -7.737)"/>
      </g>
    </g>
  </g>
</svg>
