<svg xmlns="http://www.w3.org/2000/svg" xmlns:xlink="http://www.w3.org/1999/xlink" width="113" height="113" viewBox="0 0 113 113">
  <defs>
    <filter id="Trazado_982547" x="0" y="0" width="113" height="113" filterUnits="userSpaceOnUse">
      <feOffset dy="3" input="SourceAlpha"/>
      <feGaussianBlur stdDeviation="3" result="blur"/>
      <feFlood flood-opacity="0.161"/>
      <feComposite operator="in" in2="blur"/>
      <feComposite in="SourceGraphic"/>
    </filter>
  </defs>
  <g id="Grupo_1178567" data-name="Grupo 1178567" transform="translate(-1216.56 -3025.253)">
    <g id="Grupo_1178323" data-name="Grupo 1178323" transform="translate(1225.561 3031.253)">
      <g id="Grupo_1172010" data-name="Grupo 1172010" transform="translate(0)">
        <g id="Grupo_1171046" data-name="Grupo 1171046">
          <g id="Grupo_1148525" data-name="Grupo 1148525">
            <g transform="matrix(1, 0, 0, 1, -9, -6)" filter="url(#Trazado_982547)">
              <g id="Trazado_982547-2" data-name="Trazado 982547" transform="translate(9 6)" fill="#fef4ec">
                <path d="M 47.5 93.5 C 41.28937149047852 93.5 35.26533508300781 92.28397369384766 29.59518623352051 89.88570404052734 C 24.11771965026855 87.56893157958984 19.19813346862793 84.25196075439453 14.97309303283691 80.02691650390625 C 10.74804019927979 75.80186462402344 7.431066513061523 70.88229370117188 5.114293098449707 65.40481567382812 C 2.716026782989502 59.73468017578125 1.5 53.71062850952148 1.5 47.5 C 1.5 41.28937149047852 2.716026782989502 35.26533508300781 5.114293098449707 29.59518623352051 C 7.431066513061523 24.11771965026855 10.74804019927979 19.19813346862793 14.97309303283691 14.97309303283691 C 19.19813346862793 10.74804019927979 24.11771965026855 7.431066513061523 29.59518623352051 5.114293098449707 C 35.26533508300781 2.716026782989502 41.28937149047852 1.5 47.5 1.5 C 53.71062850952148 1.5 59.73468017578125 2.716026782989502 65.40481567382812 5.114293098449707 C 70.88229370117188 7.431066513061523 75.80186462402344 10.74804019927979 80.02691650390625 14.97309303283691 C 84.25196075439453 19.19813346862793 87.56893157958984 24.11771965026855 89.88570404052734 29.59518623352051 C 92.28397369384766 35.26533508300781 93.5 41.28937149047852 93.5 47.5 C 93.5 53.71062850952148 92.28397369384766 59.73468017578125 89.88570404052734 65.40481567382812 C 87.56893157958984 70.88229370117188 84.25196075439453 75.80186462402344 80.02691650390625 80.02691650390625 C 75.80186462402344 84.25196075439453 70.88229370117188 87.56893157958984 65.40481567382812 89.88570404052734 C 59.73468017578125 92.28397369384766 53.71062850952148 93.5 47.5 93.5 Z" stroke="none"/>
                <path d="M 47.5 3 C 41.49121475219727 3 35.66376876831055 4.176155090332031 30.17950439453125 6.495796203613281 C 24.88084411621094 8.736953735351562 20.12152099609375 11.94598388671875 16.03375244140625 16.03375244140625 C 11.94598388671875 20.12152099609375 8.736953735351562 24.88084411621094 6.495796203613281 30.17950439453125 C 4.176155090332031 35.66376876831055 3 41.49121475219727 3 47.5 C 3 53.50878524780273 4.176155090332031 59.33623123168945 6.495796203613281 64.82049560546875 C 8.736953735351562 70.11915588378906 11.94598388671875 74.87847900390625 16.03375244140625 78.96624755859375 C 20.12152099609375 83.05401611328125 24.88084411621094 86.26304626464844 30.17950439453125 88.50419616699219 C 35.66376876831055 90.82384490966797 41.49121475219727 92 47.5 92 C 53.50878524780273 92 59.33623123168945 90.82384490966797 64.82049560546875 88.50419616699219 C 70.11915588378906 86.26304626464844 74.87847900390625 83.05401611328125 78.96624755859375 78.96624755859375 C 83.05401611328125 74.87847900390625 86.26304626464844 70.11915588378906 88.50419616699219 64.82049560546875 C 90.82384490966797 59.33623123168945 92 53.50878524780273 92 47.5 C 92 41.49121475219727 90.82384490966797 35.66376876831055 88.50419616699219 30.17950439453125 C 86.26304626464844 24.88084411621094 83.05401611328125 20.12152099609375 78.96624755859375 16.03375244140625 C 74.87847900390625 11.94598388671875 70.11915588378906 8.736953735351562 64.82049560546875 6.495796203613281 C 59.33623123168945 4.176155090332031 53.50878524780273 3 47.5 3 M 47.5 0 C 73.7335205078125 0 95 21.2664794921875 95 47.5 C 95 73.7335205078125 73.7335205078125 95 47.5 95 C 21.2664794921875 95 0 73.7335205078125 0 47.5 C 0 21.2664794921875 21.2664794921875 0 47.5 0 Z" stroke="none" fill="#fe9d52"/>
              </g>
            </g>
          </g>
        </g>
      </g>
    </g>
    <g id="feedback_5823758" transform="translate(1246.153 3052.345)">
      <g id="Grupo_1178565" data-name="Grupo 1178565" transform="translate(0.852 0.852)">
        <g id="Grupo_1178544" data-name="Grupo 1178544" transform="translate(0)">
          <path id="Trazado_1040340" data-name="Trazado 1040340" d="M40.185,1.852V9.519a1.709,1.709,0,0,0-1.7,1.7v5.111H23.148V18.54a1.2,1.2,0,0,1-1.2,1.2,1.135,1.135,0,0,1-.239-.026,1.194,1.194,0,0,1-.613-.324l-3.058-3.058H1.852A.854.854,0,0,1,1,15.482V1.852A.854.854,0,0,1,1.852,1H39.333A.854.854,0,0,1,40.185,1.852Z" transform="translate(-1 -1)" fill="#e6e9ed"/>
        </g>
        <g id="Grupo_1178545" data-name="Grupo 1178545" transform="translate(5.111 18.741)">
          <path id="Trazado_1040341" data-name="Trazado 1040341" d="M13.815,29.815a3.406,3.406,0,0,0-3.407,3.407H9.556a2.547,2.547,0,0,0-1.883.826l-.358-1.814A15.8,15.8,0,0,1,7,29.065,4.5,4.5,0,0,1,10.407,24.7,5.823,5.823,0,0,1,14.522,23h6.1a6.81,6.81,0,0,1,6.823,6.823,6.823,6.823,0,0,1-.2,1.661l-.6,2.428a2.534,2.534,0,0,0-1.746-.69h-.852a1.709,1.709,0,0,0-1.7-1.7H15.519a1.716,1.716,0,0,1-1.7-1.7Z" transform="translate(-7 -23)" fill="#b27946"/>
        </g>
        <g id="Grupo_1178546" data-name="Grupo 1178546" transform="translate(0 41.724)">
          <path id="Trazado_1040342" data-name="Trazado 1040342" d="M8.973,49.98a8.372,8.372,0,0,0-1.159,4.276v5.111H1V55.96a5.115,5.115,0,0,1,5.111-5.111,5.107,5.107,0,0,0,2.854-.869Z" transform="translate(-1 -49.98)" fill="#b4dd7f"/>
        </g>
        <g id="Grupo_1178547" data-name="Grupo 1178547" transform="translate(22.693 41.724)">
          <path id="Trazado_1040343" data-name="Trazado 1040343" d="M35.613,55.96v3.407H28.8V54.256A8.456,8.456,0,0,0,27.64,49.98h.009a5.107,5.107,0,0,0,2.854.869A5.115,5.115,0,0,1,35.613,55.96Z" transform="translate(-27.64 -49.98)" fill="#e6e9ed"/>
        </g>
        <g id="Grupo_1178548" data-name="Grupo 1178548" transform="translate(16.185 38.998)">
          <path id="Trazado_1040344" data-name="Trazado 1040344" d="M20,50.375l1.022-1.533,1.533,1.533L24,46.78a8.557,8.557,0,0,1,3.671,7v5.111H21.7Z" transform="translate(-20 -46.78)" fill="#fcd770"/>
        </g>
        <g id="Grupo_1178549" data-name="Grupo 1178549" transform="translate(6.815 38.998)">
          <path id="Trazado_1040345" data-name="Trazado 1040345" d="M14.111,50.375l1.533-1.533,1.022,1.533-2.044,8.519H9V53.782a8.557,8.557,0,0,1,3.671-7Z" transform="translate(-9 -46.78)" fill="#fcd770"/>
        </g>
        <g id="Grupo_1178550" data-name="Grupo 1178550" transform="translate(12.437 42.593)">
          <path id="Trazado_1040346" data-name="Trazado 1040346" d="M17.644,51h1.7l1.7,8.519H15.6Z" transform="translate(-15.6 -51)" fill="#b4dd7f"/>
        </g>
        <g id="Grupo_1178551" data-name="Grupo 1178551" transform="translate(13.459 39.185)">
          <path id="Trazado_1040347" data-name="Trazado 1040347" d="M20.548,48.874l-1.022,1.533h-1.7L16.8,48.874,18.674,47Z" transform="translate(-16.8 -47)" fill="#a0d468"/>
        </g>
        <g id="Grupo_1178552" data-name="Grupo 1178552" transform="translate(15.333 38.563)">
          <path id="Trazado_1040348" data-name="Trazado 1040348" d="M20.874,48.766,19,46.892h1.7a5.14,5.14,0,0,0,2.453-.622q.358.2.69.434L22.407,50.3Z" transform="translate(-19 -46.27)" fill="#ffc729"/>
        </g>
        <g id="Grupo_1178553" data-name="Grupo 1178553" transform="translate(10.486 38.563)">
          <path id="Trazado_1040349" data-name="Trazado 1040349" d="M16.283,48.766,14.75,50.3,13.31,46.7q.332-.23.69-.434a5.14,5.14,0,0,0,2.453.622h1.7Z" transform="translate(-13.31 -46.27)" fill="#ffc729"/>
        </g>
        <g id="Grupo_1178554" data-name="Grupo 1178554" transform="translate(0 32.37)">
          <path id="Trazado_1040350" data-name="Trazado 1040350" d="M12.176,45.193q-.358.2-.69.434a8.45,8.45,0,0,0-2.513,2.726H8.965A5.112,5.112,0,1,1,6.111,39h.153a2.417,2.417,0,0,0,.6.954,2.549,2.549,0,0,0,1.806.75h.852A5.127,5.127,0,0,0,12.176,45.193Z" transform="translate(-1 -39)" fill="#f0d0b4"/>
        </g>
        <g id="Grupo_1178555" data-name="Grupo 1178555" transform="translate(19.49 32.37)">
          <path id="Trazado_1040351" data-name="Trazado 1040351" d="M27.091,48.353h-.009a8.45,8.45,0,0,0-2.513-2.726q-.332-.23-.69-.434A5.127,5.127,0,0,0,26.538,40.7h.852a2.549,2.549,0,0,0,1.806-.75,2.417,2.417,0,0,0,.6-.954h.153a5.111,5.111,0,1,1-2.854,9.353Z" transform="translate(-23.88 -39)" fill="#f0d0b4"/>
        </g>
        <g id="Grupo_1178556" data-name="Grupo 1178556" transform="translate(22.148 28.963)">
          <path id="Trazado_1040352" data-name="Trazado 1040352" d="M29.6,35.69a2.54,2.54,0,0,1,.809,1.866l-.153.852a2.417,2.417,0,0,1-.6.954,2.549,2.549,0,0,1-1.806.75H27V35h.852A2.534,2.534,0,0,1,29.6,35.69Z" transform="translate(-27 -35)" fill="#f0d0b4"/>
        </g>
        <g id="Grupo_1178557" data-name="Grupo 1178557" transform="translate(8.519 25.556)">
          <path id="Trazado_1040353" data-name="Trazado 1040353" d="M24.63,34.407v5.111a5.1,5.1,0,0,1-5.111,5.111H16.111A5.1,5.1,0,0,1,11,39.519V34.407A3.406,3.406,0,0,1,14.407,31a1.716,1.716,0,0,0,1.7,1.7h6.815A1.709,1.709,0,0,1,24.63,34.407Z" transform="translate(-11 -31)" fill="#f0d0b4"/>
        </g>
        <g id="Grupo_1178558" data-name="Grupo 1178558" transform="translate(5.111 28.963)">
          <path id="Trazado_1040354" data-name="Trazado 1040354" d="M10.407,35v5.111H9.556a2.549,2.549,0,0,1-1.806-.75,2.417,2.417,0,0,1-.6-.954A2.361,2.361,0,0,1,7,37.556,2.554,2.554,0,0,1,9.556,35Z" transform="translate(-7 -35)" fill="#f0d0b4"/>
        </g>
        <g id="Grupo_1178559" data-name="Grupo 1178559" transform="translate(34.074 40.889)">
          <path id="Trazado_1040355" data-name="Trazado 1040355" d="M58.037,51.76v7.462H41V51.76A3.078,3.078,0,0,1,42.7,49h13.63a3.078,3.078,0,0,1,1.7,2.76Z" transform="translate(-41 -49)" fill="#ff826e"/>
        </g>
        <g id="Grupo_1178560" data-name="Grupo 1178560" transform="translate(34.074 35.778)">
          <path id="Trazado_1040356" data-name="Trazado 1040356" d="M56.512,43.094a2.75,2.75,0,0,1,0,4.924l-.179.094H42.7l-.179-.094a2.75,2.75,0,0,1,0-4.924L42.7,43h13.63Z" transform="translate(-41 -43)" fill="#fc6e51"/>
        </g>
        <g id="Grupo_1178561" data-name="Grupo 1178561" transform="translate(28.963 8.519)">
          <path id="Trazado_1040357" data-name="Trazado 1040357" d="M53.741,21.222a1.709,1.709,0,0,1,1.7-1.7,1.716,1.716,0,0,1,1.7,1.7v9.822a16.078,16.078,0,0,1-1.7,7.215H41.815a10.275,10.275,0,0,1-5.631-8.246L36.031,28.3a26.05,26.05,0,0,0-.656-3.884L35.043,23.1A1.724,1.724,0,0,1,35,22.739a1.52,1.52,0,0,1,1.516-1.516,3.606,3.606,0,0,1,3.595,3.595v1.516a1.709,1.709,0,0,0,1.7,1.7,1.716,1.716,0,0,0,1.7-1.7V12.7a1.709,1.709,0,0,1,1.7-1.7,1.716,1.716,0,0,1,1.7,1.7v6.815a1.709,1.709,0,0,1,1.7-1.7,1.716,1.716,0,0,1,1.7,1.7,1.709,1.709,0,0,1,1.7-1.7,1.716,1.716,0,0,1,1.7,1.7Z" transform="translate(-35 -11)" fill="#f0d0b4"/>
        </g>
        <g id="Grupo_1178562" data-name="Grupo 1178562" transform="translate(27.259 3.407)">
          <path id="Trazado_1040358" data-name="Trazado 1040358" d="M41.519,8.041l-2.632,2.223,1.005,3.254-2.632-2.01-2.632,2.01,1.005-3.254L33,8.041h3.254L37.259,5l1.005,3.041Z" transform="translate(-33 -5)" fill="#fcd770"/>
        </g>
        <g id="Grupo_1178563" data-name="Grupo 1178563" transform="translate(15.333 3.407)">
          <path id="Trazado_1040359" data-name="Trazado 1040359" d="M27.519,8.041l-2.632,2.223,1.005,3.254-2.632-2.01-2.632,2.01,1.005-3.254L19,8.041h3.254L23.259,5l1.005,3.041Z" transform="translate(-19 -5)" fill="#fcd770"/>
        </g>
        <g id="Grupo_1178564" data-name="Grupo 1178564" transform="translate(3.407 3.407)">
          <path id="Trazado_1040360" data-name="Trazado 1040360" d="M13.519,8.041l-2.632,2.223,1.005,3.254-2.632-2.01-2.632,2.01,1.005-3.254L5,8.041H8.254L9.259,5l1.005,3.041Z" transform="translate(-5 -5)" fill="#fcd770"/>
        </g>
      </g>
      <g id="Grupo_1178566" data-name="Grupo 1178566">
        <path id="Trazado_1040361" data-name="Trazado 1040361" d="M52.815,19.593a2.547,2.547,0,0,0-3.506-2.368A2.533,2.533,0,0,0,45.148,16a2.477,2.477,0,0,0-2.556-.508V11.074a2.552,2.552,0,0,0-1.7-2.4V1.7a1.705,1.705,0,0,0-1.7-1.7H1.7A1.705,1.705,0,0,0,0,1.7v13.63a1.705,1.705,0,0,0,1.7,1.7H17.536l1.7,1.7H13.483a6.62,6.62,0,0,0-4.548,1.791A5.343,5.343,0,0,0,5.111,25.66a17.04,17.04,0,0,0,.331,3.334l.286,1.431a3.376,3.376,0,0,0-.617,1.945c0,.023.006.044.007.067A5.951,5.951,0,0,0,2.907,43.445,5.961,5.961,0,0,0,0,48.556v4.259H52.815V44.5a3.907,3.907,0,0,0-1.1-2.721,3.6,3.6,0,0,0-.359-5.484,17.092,17.092,0,0,0,1.46-6.88Zm-9.37-2.556a.853.853,0,0,1,.852.852v5.963H46V17.889a.852.852,0,0,1,1.7,0v5.963h1.7V19.593a.852.852,0,1,1,1.7,0v9.82a15.367,15.367,0,0,1-1.4,6.365H36.856a9.341,9.341,0,0,1-5.006-7.472l-.156-1.711a26.448,26.448,0,0,0-.681-4.014l-.327-1.308a.71.71,0,0,1-.02-.164.666.666,0,0,1,.665-.665,2.745,2.745,0,0,1,2.742,2.742V24.7a2.556,2.556,0,0,0,5.111,0V11.074a.852.852,0,0,1,1.7,0V23.852h1.7V17.889a.853.853,0,0,1,.852-.852Zm6.614,23.852H36.831a1.9,1.9,0,0,1,0-3.407H50.057a1.9,1.9,0,0,1,0,3.407Zm-39.08.351,1.488,3.72,1.712-1.712.239.359-1.8,7.5h-4.1V46.852A7.67,7.67,0,0,1,10.979,41.24ZM23.852,30.667a1.7,1.7,0,0,1,0,3.407Zm-.068,5.111h.068a3.4,3.4,0,0,0,2.914-1.667,4.248,4.248,0,1,1-2.619,7.823,9.383,9.383,0,0,0-2.308-2.553A5.952,5.952,0,0,0,23.784,35.778Zm-7.2,6.815h-.792l-.382-.573.779-.778.778.778Zm-3.493-.664-.548-1.371a5.927,5.927,0,0,0,1.6.313Zm5.136-1.057a5.927,5.927,0,0,0,1.6-.313l-.548,1.371Zm3.924-5.946a4.264,4.264,0,0,1-4.259,4.259H14.482a4.264,4.264,0,0,1-4.259-4.259V29.815a2.56,2.56,0,0,1,1.883-2.466,2.56,2.56,0,0,0,2.376,1.614H21.3a.852.852,0,0,1,.852.852ZM16.005,44.3h.334L17.7,51.111H14.37Zm1.936-.673.25-.376L19.9,44.96l1.488-3.72a7.672,7.672,0,0,1,2.459,5.612v4.259H19.439Zm7.2.522a5.987,5.987,0,0,0,1.266.151,4.264,4.264,0,0,1,4.259,4.259v2.556H25.556V46.852A9.309,9.309,0,0,0,25.142,44.146Zm4.321-.7a5.951,5.951,0,0,0-2.211-11.007c0-.023.007-.044.007-.067a3.374,3.374,0,0,0-.731-2.084l.5-2.005a7.665,7.665,0,0,0-3.689-8.551,2.039,2.039,0,0,0,.512-1.343V17.037h13.63V24.7a.852.852,0,1,1-1.7,0V23.187a4.451,4.451,0,0,0-4.446-4.446,2.372,2.372,0,0,0-2.369,2.369,2.341,2.341,0,0,0,.071.575l.328,1.309A24.909,24.909,0,0,1,30,26.749l.156,1.712a11.028,11.028,0,0,0,4.917,8.245,3.592,3.592,0,0,0,.106,5.071,3.905,3.905,0,0,0-1.1,2.72v6.614h-1.7V48.556A5.961,5.961,0,0,0,29.463,43.445ZM1.7,15.333V1.7H39.185V8.675a2.552,2.552,0,0,0-1.7,2.4v4.259H22.148v3.055a.366.366,0,0,1-.6.25l-3.3-3.3Zm7.873,6.789.23-.057.166-.167a4.931,4.931,0,0,1,3.51-1.454h6.1a5.976,5.976,0,0,1,5.8,7.424l-.331,1.322a3.38,3.38,0,0,0-1.2-.227H23.7a2.552,2.552,0,0,0-2.4-1.7H14.482a.852.852,0,0,1,0-1.7h.852v-1.7h-.852a2.561,2.561,0,0,0-2.431,1.766,4.268,4.268,0,0,0-3.44,3.345H8.519a3.384,3.384,0,0,0-1.295.259l-.112-.561a15.352,15.352,0,0,1-.3-3,3.642,3.642,0,0,1,2.762-3.538ZM8.519,34.074a1.7,1.7,0,0,1,0-3.407ZM1.7,38.333a4.25,4.25,0,0,1,3.9-4.223,3.4,3.4,0,0,0,2.914,1.667h.068a5.949,5.949,0,0,0,1.946,3.6,9.369,9.369,0,0,0-2.308,2.553,4.249,4.249,0,0,1-6.521-3.6Zm0,10.222A4.264,4.264,0,0,1,5.963,44.3a5.987,5.987,0,0,0,1.266-.151,9.309,9.309,0,0,0-.414,2.706v4.259H1.7Zm49.408,2.556H35.778V44.5a2.206,2.206,0,0,1,1.1-1.9H50.01a2.207,2.207,0,0,1,1.1,1.9Z"/>
        <path id="Trazado_1040362" data-name="Trazado 1040362" d="M13.37,7.042H10.732L9.92,4.584a.851.851,0,0,0-1.617,0L7.49,7.042H4.852a.852.852,0,0,0-.55,1.5L6.5,10.4l-.838,2.716A.852.852,0,0,0,7,14.047l2.114-1.616,2.114,1.616a.852.852,0,0,0,1.331-.928L11.719,10.4l2.2-1.859a.852.852,0,0,0-.55-1.5ZM10.189,9.465a.85.85,0,0,0-.264.9l.218.708-.515-.393a.85.85,0,0,0-1.034,0l-.515.393.218-.708a.85.85,0,0,0-.264-.9l-.853-.72h.924a.85.85,0,0,0,.808-.584l.2-.6.2.6a.851.851,0,0,0,.808.584h.924Z" transform="translate(-0.593 -0.593)"/>
        <path id="Trazado_1040363" data-name="Trazado 1040363" d="M25.743,14.222a.852.852,0,0,0,.814-1.1L25.719,10.4l2.2-1.859a.852.852,0,0,0-.55-1.5H24.732L23.92,4.584a.851.851,0,0,0-1.617,0L21.49,7.042H18.852a.852.852,0,0,0-.549,1.5L20.5,10.4l-.838,2.716A.852.852,0,0,0,21,14.047l2.113-1.616,2.114,1.616a.852.852,0,0,0,.518.175ZM24.189,9.465a.85.85,0,0,0-.264.9l.218.708-.515-.393a.85.85,0,0,0-1.034,0l-.515.393.218-.708a.85.85,0,0,0-.264-.9l-.853-.72h.924a.85.85,0,0,0,.808-.584l.2-.6.2.6a.851.851,0,0,0,.808.584h.924Z" transform="translate(-2.667 -0.593)"/>
        <path id="Trazado_1040364" data-name="Trazado 1040364" d="M34.5,10.4l-.838,2.716A.852.852,0,0,0,35,14.048l2.114-1.617,2.114,1.616a.852.852,0,0,0,1.331-.928L39.719,10.4l2.2-1.859a.852.852,0,0,0-.55-1.5H38.732L37.92,4.584a.851.851,0,0,0-1.617,0L35.49,7.042H32.852a.852.852,0,0,0-.549,1.5Zm1.6-1.659a.85.85,0,0,0,.808-.584l.2-.6.2.6a.851.851,0,0,0,.808.584h.924l-.853.72a.85.85,0,0,0-.264.9l.218.708-.515-.393a.85.85,0,0,0-1.034,0l-.515.393.218-.708a.85.85,0,0,0-.264-.9l-.853-.72Z" transform="translate(-4.741 -0.593)"/>
        <path id="Trazado_1040365" data-name="Trazado 1040365" d="M19.407,41.7H16v1.7h3.407A3.411,3.411,0,0,0,22.815,40h-1.7A1.705,1.705,0,0,1,19.407,41.7Z" transform="translate(-2.37 -5.926)"/>
      </g>
    </g>
  </g>
</svg>
