<svg xmlns="http://www.w3.org/2000/svg" xmlns:xlink="http://www.w3.org/1999/xlink" width="113" height="113" viewBox="0 0 113 113">
  <defs>
    <filter id="Trazado_982547" x="0" y="0" width="113" height="113" filterUnits="userSpaceOnUse">
      <feOffset dy="3" input="SourceAlpha"/>
      <feGaussianBlur stdDeviation="3" result="blur"/>
      <feFlood flood-opacity="0.161"/>
      <feComposite operator="in" in2="blur"/>
      <feComposite in="SourceGraphic"/>
    </filter>
  </defs>
  <g id="Grupo_1178732" data-name="Grupo 1178732" transform="translate(-272 -2684.906)">
    <g id="Grupo_1178487" data-name="Grupo 1178487" transform="translate(281 2690.906)">
      <g id="Grupo_1172010" data-name="Grupo 1172010" transform="translate(0)">
        <g id="Grupo_1171046" data-name="Grupo 1171046">
          <g id="Grupo_1148525" data-name="Grupo 1148525">
            <g transform="matrix(1, 0, 0, 1, -9, -6)" filter="url(#Trazado_982547)">
              <g id="Trazado_982547-2" data-name="Trazado 982547" transform="translate(9 6)" fill="#fef4ec">
                <path d="M 47.5 93.5 C 41.28937149047852 93.5 35.26533508300781 92.28397369384766 29.59518623352051 89.88570404052734 C 24.11771965026855 87.56893157958984 19.19813346862793 84.25196075439453 14.97309303283691 80.02691650390625 C 10.74804019927979 75.80186462402344 7.431066513061523 70.88229370117188 5.114293098449707 65.40481567382812 C 2.716026782989502 59.73468017578125 1.5 53.71062850952148 1.5 47.5 C 1.5 41.28937149047852 2.716026782989502 35.26533508300781 5.114293098449707 29.59518623352051 C 7.431066513061523 24.11771965026855 10.74804019927979 19.19813346862793 14.97309303283691 14.97309303283691 C 19.19813346862793 10.74804019927979 24.11771965026855 7.431066513061523 29.59518623352051 5.114293098449707 C 35.26533508300781 2.716026782989502 41.28937149047852 1.5 47.5 1.5 C 53.71062850952148 1.5 59.73468017578125 2.716026782989502 65.40481567382812 5.114293098449707 C 70.88229370117188 7.431066513061523 75.80186462402344 10.74804019927979 80.02691650390625 14.97309303283691 C 84.25196075439453 19.19813346862793 87.56893157958984 24.11771965026855 89.88570404052734 29.59518623352051 C 92.28397369384766 35.26533508300781 93.5 41.28937149047852 93.5 47.5 C 93.5 53.71062850952148 92.28397369384766 59.73468017578125 89.88570404052734 65.40481567382812 C 87.56893157958984 70.88229370117188 84.25196075439453 75.80186462402344 80.02691650390625 80.02691650390625 C 75.80186462402344 84.25196075439453 70.88229370117188 87.56893157958984 65.40481567382812 89.88570404052734 C 59.73468017578125 92.28397369384766 53.71062850952148 93.5 47.5 93.5 Z" stroke="none"/>
                <path d="M 47.5 3 C 41.49121475219727 3 35.66376876831055 4.176155090332031 30.17950439453125 6.495796203613281 C 24.88084411621094 8.736953735351562 20.12152099609375 11.94598388671875 16.03375244140625 16.03375244140625 C 11.94598388671875 20.12152099609375 8.736953735351562 24.88084411621094 6.495796203613281 30.17950439453125 C 4.176155090332031 35.66376876831055 3 41.49121475219727 3 47.5 C 3 53.50878524780273 4.176155090332031 59.33623123168945 6.495796203613281 64.82049560546875 C 8.736953735351562 70.11915588378906 11.94598388671875 74.87847900390625 16.03375244140625 78.96624755859375 C 20.12152099609375 83.05401611328125 24.88084411621094 86.26304626464844 30.17950439453125 88.50419616699219 C 35.66376876831055 90.82384490966797 41.49121475219727 92 47.5 92 C 53.50878524780273 92 59.33623123168945 90.82384490966797 64.82049560546875 88.50419616699219 C 70.11915588378906 86.26304626464844 74.87847900390625 83.05401611328125 78.96624755859375 78.96624755859375 C 83.05401611328125 74.87847900390625 86.26304626464844 70.11915588378906 88.50419616699219 64.82049560546875 C 90.82384490966797 59.33623123168945 92 53.50878524780273 92 47.5 C 92 41.49121475219727 90.82384490966797 35.66376876831055 88.50419616699219 30.17950439453125 C 86.26304626464844 24.88084411621094 83.05401611328125 20.12152099609375 78.96624755859375 16.03375244140625 C 74.87847900390625 11.94598388671875 70.11915588378906 8.736953735351562 64.82049560546875 6.495796203613281 C 59.33623123168945 4.176155090332031 53.50878524780273 3 47.5 3 M 47.5 0 C 73.7335205078125 0 95 21.2664794921875 95 47.5 C 95 73.7335205078125 73.7335205078125 95 47.5 95 C 21.2664794921875 95 0 73.7335205078125 0 47.5 C 0 21.2664794921875 21.2664794921875 0 47.5 0 Z" stroke="none" fill="#fe9d52"/>
              </g>
            </g>
          </g>
        </g>
      </g>
    </g>
    <g id="Grupo_1178731" data-name="Grupo 1178731">
      <g id="insight_15842263" transform="translate(259.994 2692.499)">
        <path id="Trazado_1040816" data-name="Trazado 1040816" d="M246.305,170.916v-6.465a.7.7,0,0,1,.7-.7h6.4a.7.7,0,0,1,.7.7v11.625c.034.058.068.116.1.175a10.719,10.719,0,0,1-.1,10.74v5.229a2.437,2.437,0,0,1,.8.846l3.442,6.071a2.463,2.463,0,0,1-.925,3.349l-1.528.866a2.462,2.462,0,0,1-3.348-.925l-3.443-6.071a2.459,2.459,0,0,1-.169-.365H247.01a.7.7,0,0,1-.7-.7v-3.137a10.7,10.7,0,0,1-3.021-.034v3.171a.7.7,0,0,1-.7.7h-6.4a.7.7,0,0,1-.7-.7v-8.693a10.719,10.719,0,0,1,0-10.126V161.384a.7.7,0,0,1,.7-.7h6.4a.7.7,0,0,1,.7.7v9.561a10.689,10.689,0,0,1,3.021-.029Zm0,16.762V175.385q-.143-.033-.29-.059a6.272,6.272,0,0,0-2.731.114v12.182q.224.059.454.1a.7.7,0,0,1,.115.021A6.269,6.269,0,0,0,246.305,187.677Z" transform="translate(-170.99 -125.999)" fill="#121209" fill-rule="evenodd"/>
        <rect id="Rectángulo_416635" data-name="Rectángulo 416635" width="7.813" height="37.779" rx="3.907" transform="translate(86.149 32.213)" fill="#121209"/>
        <g id="Grupo_1178730" data-name="Grupo 1178730" transform="translate(38.051 16.141)">
          <path id="Trazado_1040817" data-name="Trazado 1040817" d="M53.648,230.91v-7.518a.7.7,0,0,1,.7-.7h6.4a.7.7,0,0,1,.7.7v25.948a.7.7,0,0,1-.7.7h-6.4a.7.7,0,0,1-.7-.7v-.721a1.333,1.333,0,0,1-.2.015,1.317,1.317,0,0,1-.933-.387h0l-.549-.549q-.148.068-.294.129t-.3.117v.777a1.326,1.326,0,0,1-1.324,1.324H46.615a1.322,1.322,0,0,1-.933-.388l0,0a1.321,1.321,0,0,1-.387-.931v-.776q-.154-.057-.3-.117t-.3-.129l-.549.549a1.322,1.322,0,0,1-1.869,0h0l-2.427-2.427a.717.717,0,0,1-.05-.055,1.322,1.322,0,0,1,.05-1.817l.549-.549q-.068-.148-.128-.294t-.117-.3h-.778a1.321,1.321,0,0,1-.933-.389l0,0a1.321,1.321,0,0,1-.387-.931v-3.432a1.32,1.32,0,0,1,.388-.936.694.694,0,0,1,.056-.05,1.315,1.315,0,0,1,.88-.339h.777q.057-.154.117-.3t.129-.3l-.549-.549a.714.714,0,0,1-.05-.055,1.322,1.322,0,0,1,.05-1.817l2.427-2.426a1.322,1.322,0,0,1,1.871,0h0l.549.549q.148-.068.294-.128t.3-.118v-.778a1.326,1.326,0,0,1,1.324-1.324h3.432a1.326,1.326,0,0,1,1.324,1.324v.777q.154.057.3.117t.3.129l.549-.549a1.322,1.322,0,0,1,1.133-.372Zm-3.135,6.673a3.085,3.085,0,1,0,.9,2.182A3.085,3.085,0,0,0,50.513,237.584Z" transform="translate(-38.051 -196.195)" fill="#121209" fill-rule="evenodd"/>
          <path id="Trazado_1040818" data-name="Trazado 1040818" d="M113.636,18.556l-12,12.115a.7.7,0,0,1-.749.161L90.446,27.014,79.923,35.951a.7.7,0,0,1-.614.148l-8.9-2.1-6.088,4.775a.7.7,0,1,1-.864-1.106l6.314-4.952a.7.7,0,0,1,.632-.163l8.88,2.091,10.563-8.971a.7.7,0,0,1,.694-.124l10.412,3.806,11.7-11.81H109.6a.7.7,0,0,1,0-1.409h4.741a.7.7,0,0,1,.7.7v4.741a.7.7,0,1,1-1.409,0Z" transform="translate(-59.966 -16.141)" fill="#121209" fill-rule="evenodd"/>
          <path id="Trazado_1040819" data-name="Trazado 1040819" d="M59.538,286.663H56.276v1.2h0a.7.7,0,0,1-.5.672q-.327.1-.669.241-.314.13-.592.276a.705.705,0,0,1-.881-.093l-.845-.846-2.307,2.306.846.845,0,0a.7.7,0,0,1,.123.827q-.16.3-.3.645-.128.311-.223.611a.705.705,0,0,1-.69.559H49.036v3.262h1.2v0a.7.7,0,0,1,.671.5q.1.327.242.669.13.315.276.592a.705.705,0,0,1-.093.881l-.846.846,2.306,2.306.845-.845,0,0a.7.7,0,0,1,.827-.123q.3.161.646.3.311.129.61.223a.706.706,0,0,1,.559.69v1.2h3.262v-1.2h0a.7.7,0,0,1,.5-.671q.327-.1.669-.241.315-.13.592-.276a.7.7,0,0,1,.881.093l.846.845.4-.4.012-.012,1.9-1.9-.846-.846,0,0a.7.7,0,0,1-.123-.827q.161-.3.3-.646.128-.311.223-.61a.7.7,0,0,1,.69-.559h1.195V293.9h-1.2v0a.7.7,0,0,1-.671-.5q-.1-.327-.241-.669-.13-.315-.276-.592a.706.706,0,0,1,.093-.881l.846-.846-1.9-1.9-.012-.012-.4-.4-.846.846,0,0a.7.7,0,0,1-.827.123q-.3-.16-.645-.3-.311-.129-.611-.223a.705.705,0,0,1-.559-.69v-1.2Zm-1.631,4.377a4.494,4.494,0,1,1-3.178,1.316A4.495,4.495,0,0,1,57.907,291.04Z" transform="translate(-47.627 -251.964)" fill="#577a8f" fill-rule="evenodd"/>
          <path id="Trazado_1040820" data-name="Trazado 1040820" d="M77.327,286.666H74.066v1.2h0a.7.7,0,0,1-.5.672q-.327.1-.669.241-.314.13-.592.276a.705.705,0,0,1-.881-.093l-.845-.846-1.134,1.134a41.1,41.1,0,0,0,4.425,2.186,4.5,4.5,0,0,1,5.765,1.937,41.1,41.1,0,0,0,4.935.942v-.4h-1.2v0a.7.7,0,0,1-.671-.5q-.1-.327-.241-.669-.13-.315-.276-.592a.705.705,0,0,1,.093-.881l.846-.846-1.9-1.9-.012-.012-.4-.4-.846.846,0,0a.7.7,0,0,1-.827.123q-.3-.16-.645-.3-.311-.129-.611-.223a.705.705,0,0,1-.559-.69Z" transform="translate(-65.416 -251.967)" fill="#6c9bb5" fill-rule="evenodd"/>
          <path id="Trazado_1040821" data-name="Trazado 1040821" d="M255.1,378.526v5.96h4.995V381.7A10.683,10.683,0,0,1,255.1,378.526Z" transform="translate(-227.26 -332.045)" fill="#5599d3" fill-rule="evenodd"/>
          <path id="Trazado_1040822" data-name="Trazado 1040822" d="M260.094,180.837v-9.172H255.1v12.352a10.771,10.771,0,0,1,4.995-3.18Z" transform="translate(-227.26 -151.717)" fill="#7db3e1" fill-rule="evenodd"/>
          <path id="Trazado_1040823" data-name="Trazado 1040823" d="M361.924,414.531a.713.713,0,0,1-.072-.028,1.068,1.068,0,0,0-.53-.043h0a1.025,1.025,0,0,0-.171.046v0a1.036,1.036,0,0,0-.161.075l-1.528.866a1.048,1.048,0,0,0-.289.244l-.018.02a1.064,1.064,0,0,0-.225.691.684.684,0,0,1,.007.092,1.044,1.044,0,0,0,.128.386l3.442,6.071a1.057,1.057,0,0,0,1.433.4l1.528-.866a1.057,1.057,0,0,0,.4-1.433l-3.442-6.071a1.042,1.042,0,0,0-.464-.429Z" transform="translate(-317.77 -363.356)" fill="#f8ae22" fill-rule="evenodd"/>
          <path id="Trazado_1040824" data-name="Trazado 1040824" d="M344.555,204.616v-9.041H339.56v6.045l.044.012A10.691,10.691,0,0,1,344.555,204.616Z" transform="translate(-300.887 -172.56)" fill="#6c9ad2" fill-rule="evenodd"/>
          <path id="Trazado_1040825" data-name="Trazado 1040825" d="M256.461,250.937a.7.7,0,0,1-.1-.022,9.284,9.284,0,0,0-4.016.044.708.708,0,0,1-.1.023,9.33,9.33,0,0,0-5.881,4.448.7.7,0,0,1-.048.086,9.311,9.311,0,0,0,0,9,.709.709,0,0,1,.051.092,9.273,9.273,0,0,0,5.613,4.376q.132.036.265.069a.686.686,0,0,1,.1.024,9.294,9.294,0,0,0,4.017.048.7.7,0,0,1,.1-.021,9.331,9.331,0,0,0,5.879-4.145.693.693,0,0,1,.053-.085,9.312,9.312,0,0,0,.156-9.443q-.076-.134-.155-.264a.7.7,0,0,1-.054-.088,9.272,9.272,0,0,0-5.4-4.028q-.234-.064-.471-.117Zm.353,16.422a.686.686,0,0,1-.09.028,7.683,7.683,0,0,1-3.626.219h0a7.773,7.773,0,0,1-1.142-.3.694.694,0,0,1-.12-.042,7.7,7.7,0,0,1-4.968-8.605v0a7.709,7.709,0,0,1,4.985-5.9.7.7,0,0,1,.084-.03,7.681,7.681,0,0,1,3.875-.3,7.771,7.771,0,0,1,.894.215.7.7,0,0,1,.125.039,7.71,7.71,0,0,1-.016,14.672Z" transform="translate(-218.588 -220.629)" fill="#f8ae22" fill-rule="evenodd"/>
          <path id="Trazado_1040826" data-name="Trazado 1040826" d="M256.457,250.937a.7.7,0,0,1-.1-.022,9.284,9.284,0,0,0-4.017.044.708.708,0,0,1-.1.023,9.33,9.33,0,0,0-5.881,4.448.7.7,0,0,1-.048.086,9.318,9.318,0,0,0-.594,7.7c.556-.036,1.11-.08,1.66-.138a7.678,7.678,0,0,1-.513-4.419v0a7.709,7.709,0,0,1,4.985-5.9.7.7,0,0,1,.084-.03,7.681,7.681,0,0,1,3.875-.3,7.776,7.776,0,0,1,.894.215.7.7,0,0,1,.125.039,7.709,7.709,0,0,1,5.216,5.995q.74-.385,1.463-.8a9.306,9.306,0,0,0-.964-2.453q-.076-.134-.155-.264a.7.7,0,0,1-.054-.088,9.272,9.272,0,0,0-5.4-4.028Q256.694,250.99,256.457,250.937Z" transform="translate(-218.585 -220.629)" fill="#f8ae22" fill-rule="evenodd"/>
          <path id="Trazado_1040827" data-name="Trazado 1040827" d="M256.457,250.937a.7.7,0,0,1-.1-.022,9.284,9.284,0,0,0-4.017.044.708.708,0,0,1-.1.023,9.33,9.33,0,0,0-5.881,4.448.7.7,0,0,1-.048.086,9.318,9.318,0,0,0-.594,7.7c.556-.036,1.11-.08,1.66-.138a7.678,7.678,0,0,1-.513-4.419v0a7.709,7.709,0,0,1,4.985-5.9.7.7,0,0,1,.084-.03,7.681,7.681,0,0,1,3.875-.3,7.776,7.776,0,0,1,.894.215.7.7,0,0,1,.125.039,7.709,7.709,0,0,1,5.216,5.995q.74-.385,1.463-.8a9.306,9.306,0,0,0-.964-2.453q-.076-.134-.155-.264a.7.7,0,0,1-.054-.088,9.272,9.272,0,0,0-5.4-4.028Q256.694,250.99,256.457,250.937Z" transform="translate(-218.585 -220.629)" fill="#f8ae22" fill-rule="evenodd"/>
          <path id="Trazado_1040828" data-name="Trazado 1040828" d="M256.457,250.937a.7.7,0,0,1-.1-.022,9.284,9.284,0,0,0-4.017.044.708.708,0,0,1-.1.023,9.33,9.33,0,0,0-5.881,4.448.7.7,0,0,1-.048.086,9.318,9.318,0,0,0-.594,7.7c.556-.036,1.11-.08,1.66-.138a7.678,7.678,0,0,1-.513-4.419v0a7.709,7.709,0,0,1,4.985-5.9.7.7,0,0,1,.084-.03,7.681,7.681,0,0,1,3.875-.3,7.776,7.776,0,0,1,.894.215.7.7,0,0,1,.125.039,7.709,7.709,0,0,1,5.216,5.995q.74-.385,1.463-.8a9.306,9.306,0,0,0-.964-2.453q-.076-.134-.155-.264a.7.7,0,0,1-.054-.088,9.272,9.272,0,0,0-5.4-4.028Q256.694,250.99,256.457,250.937Z" transform="translate(-218.585 -220.629)" fill="#f8ae22" fill-rule="evenodd"/>
        </g>
        <path id="Trazado_1040829" data-name="Trazado 1040829" d="M424.024,152.426h4.995v34.961h-4.995Z" transform="translate(-336.466 -118.804)" fill="#336bb2"/>
        <path id="Trazado_1040830" data-name="Trazado 1040830" d="M429.019,152.426h-4.995v16.726a41.521,41.521,0,0,0,4.995-4.507Z" transform="translate(-336.466 -118.804)" fill="#568bc8" fill-rule="evenodd"/>
        <path id="Trazado_1040831" data-name="Trazado 1040831" d="M429.019,152.426h-4.995v16.726a41.521,41.521,0,0,0,4.995-4.507Z" transform="translate(-336.466 -118.804)" fill="#568bc8" fill-rule="evenodd"/>
        <path id="Trazado_1040832" data-name="Trazado 1040832" d="M170.635,257.155v1.058h4.995V233.674h-4.995v7.855l1.757,1.757a.748.748,0,0,1,.051.058,1.322,1.322,0,0,1-.051,1.815l-.549.549q.068.148.128.294t.117.3h.777a1.326,1.326,0,0,1,1.324,1.324v3.432a1.326,1.326,0,0,1-1.324,1.324h-.777q-.057.154-.117.3t-.129.295l.549.549a.7.7,0,0,1,.051.058,1.321,1.321,0,0,1-.051,1.814Z" transform="translate(-115.578 -189.631)" fill="#87afd7" fill-rule="evenodd"/>
        <path id="Trazado_1040833" data-name="Trazado 1040833" d="M175.63,248.379v-14.7h-4.995v7.855l1.757,1.757a.748.748,0,0,1,.051.058,1.322,1.322,0,0,1-.051,1.815l-.549.549q.068.148.128.294t.117.3h.777a1.326,1.326,0,0,1,1.324,1.324v.643Q174.906,248.336,175.63,248.379Z" transform="translate(-115.578 -189.631)" fill="#afd1ef" fill-rule="evenodd"/>
        <path id="Trazado_1040834" data-name="Trazado 1040834" d="M350.5,394.743l.979,1.6,1.384-.785-.887-1.586q-.2.125-.407.243A10.842,10.842,0,0,1,350.5,394.743Z" transform="translate(-272.373 -329.366)" fill="#f0ba0f" fill-rule="evenodd"/>
        <path id="Trazado_1040835" data-name="Trazado 1040835" d="M339.561,403.731v2.716h1.147a2.478,2.478,0,0,1,.217-.582l-1.317-2.147Z" transform="translate(-262.837 -337.864)" fill="#4c81c1" fill-rule="evenodd"/>
        <path id="Trazado_1040836" data-name="Trazado 1040836" d="M371.933,383.071v-2.633a10.635,10.635,0,0,1-.966.907Z" transform="translate(-290.214 -317.57)" fill="#4c81c1" fill-rule="evenodd"/>
        <path id="Trazado_1040837" data-name="Trazado 1040837" d="M271.8,291.228V280.176a6.351,6.351,0,0,0-.571.355,6.282,6.282,0,0,0-2.592,4,.7.7,0,0,1-.021.115,6.316,6.316,0,0,0,3.184,6.579Z" transform="translate(-200.917 -230.168)" fill="#5599d3" fill-rule="evenodd"/>
        <path id="Trazado_1040838" data-name="Trazado 1040838" d="M271.791,288.139v-7.963a6.351,6.351,0,0,0-.571.355,6.282,6.282,0,0,0-2.592,4,.692.692,0,0,1-.021.115,6.27,6.27,0,0,0,.611,3.933Q270.517,288.4,271.791,288.139Z" transform="translate(-200.906 -230.168)" fill="#7db3e1" fill-rule="evenodd"/>
        <path id="Trazado_1040839" data-name="Trazado 1040839" d="M339.561,279.246v11.285a6.306,6.306,0,0,0,0-11.285Z" transform="translate(-262.837 -229.358)" fill="#4c81c1" fill-rule="evenodd"/>
        <path id="Trazado_1040840" data-name="Trazado 1040840" d="M339.561,279.246v6.419q1.769-.649,3.459-1.454A6.326,6.326,0,0,0,339.561,279.246Z" transform="translate(-262.837 -229.358)" fill="#6c9ad2" fill-rule="evenodd"/>
      </g>
    </g>
  </g>
</svg>
